G04 #@! TF.GenerationSoftware,KiCad,Pcbnew,5.0.2-bee76a0~70~ubuntu16.04.1*
G04 #@! TF.CreationDate,2019-04-16T16:13:36+01:00*
G04 #@! TF.ProjectId,AtomRamAndNoiseKiller,41746f6d-5261-46d4-916e-644e6f697365,rev?*
G04 #@! TF.SameCoordinates,PX8e4fe28PY93c3260*
G04 #@! TF.FileFunction,Copper,L2,Bot*
G04 #@! TF.FilePolarity,Positive*
%FSLAX46Y46*%
G04 Gerber Fmt 4.6, Leading zero omitted, Abs format (unit mm)*
G04 Created by KiCad (PCBNEW 5.0.2-bee76a0~70~ubuntu16.04.1) date Tue 16 Apr 2019 16:13:36 BST*
%MOMM*%
%LPD*%
G01*
G04 APERTURE LIST*
G04 #@! TA.AperFunction,ComponentPad*
%ADD10R,1.700000X1.700000*%
G04 #@! TD*
G04 #@! TA.AperFunction,ComponentPad*
%ADD11O,1.700000X1.700000*%
G04 #@! TD*
G04 #@! TA.AperFunction,ComponentPad*
%ADD12O,1.600000X1.600000*%
G04 #@! TD*
G04 #@! TA.AperFunction,ComponentPad*
%ADD13R,1.600000X1.600000*%
G04 #@! TD*
G04 #@! TA.AperFunction,ComponentPad*
%ADD14C,1.600000*%
G04 #@! TD*
G04 #@! TA.AperFunction,ComponentPad*
%ADD15C,1.700000*%
G04 #@! TD*
G04 #@! TA.AperFunction,ViaPad*
%ADD16C,1.016000*%
G04 #@! TD*
G04 #@! TA.AperFunction,Conductor*
%ADD17C,0.254000*%
G04 #@! TD*
G04 APERTURE END LIST*
D10*
G04 #@! TO.P,J7,1*
G04 #@! TO.N,/RRDISABLE*
X60960000Y6985000D03*
G04 #@! TD*
G04 #@! TO.P,LK3,1*
G04 #@! TO.N,/LOAD*
X56515000Y6985000D03*
D11*
G04 #@! TO.P,LK3,2*
G04 #@! TO.N,Net-(LK3-Pad2)*
X56515000Y4445000D03*
G04 #@! TD*
G04 #@! TO.P,LK2,3*
G04 #@! TO.N,GND*
X55245000Y31750000D03*
G04 #@! TO.P,LK2,2*
G04 #@! TO.N,/RAMNOE*
X55245000Y29210000D03*
D10*
G04 #@! TO.P,LK2,1*
G04 #@! TO.N,Net-(LK2-Pad1)*
X55245000Y26670000D03*
G04 #@! TD*
G04 #@! TO.P,LK1,1*
G04 #@! TO.N,Net-(LK1-Pad1)*
X55245000Y36830000D03*
D11*
G04 #@! TO.P,LK1,2*
G04 #@! TO.N,/RAMNWE*
X55245000Y39370000D03*
G04 #@! TO.P,LK1,3*
G04 #@! TO.N,/NWE*
X55245000Y41910000D03*
G04 #@! TD*
D12*
G04 #@! TO.P,U2,14*
G04 #@! TO.N,VCC*
X36195000Y10795000D03*
G04 #@! TO.P,U2,7*
G04 #@! TO.N,GND*
X51435000Y3175000D03*
G04 #@! TO.P,U2,13*
G04 #@! TO.N,/NVDG*
X38735000Y10795000D03*
G04 #@! TO.P,U2,6*
G04 #@! TO.N,Net-(U2-Pad6)*
X48895000Y3175000D03*
G04 #@! TO.P,U2,12*
G04 #@! TO.N,Net-(U1-Pad10)*
X41275000Y10795000D03*
G04 #@! TO.P,U2,5*
G04 #@! TO.N,/RRDISABLE*
X46355000Y3175000D03*
G04 #@! TO.P,U2,11*
G04 #@! TO.N,Net-(U2-Pad10)*
X43815000Y10795000D03*
G04 #@! TO.P,U2,4*
G04 #@! TO.N,/RRDISABLE*
X43815000Y3175000D03*
G04 #@! TO.P,U2,10*
G04 #@! TO.N,Net-(U2-Pad10)*
X46355000Y10795000D03*
G04 #@! TO.P,U2,3*
G04 #@! TO.N,Net-(LK1-Pad1)*
X41275000Y3175000D03*
G04 #@! TO.P,U2,9*
G04 #@! TO.N,Net-(U2-Pad6)*
X48895000Y10795000D03*
G04 #@! TO.P,U2,2*
G04 #@! TO.N,Net-(LK2-Pad1)*
X38735000Y3175000D03*
G04 #@! TO.P,U2,8*
G04 #@! TO.N,Net-(LK3-Pad2)*
X51435000Y10795000D03*
D13*
G04 #@! TO.P,U2,1*
G04 #@! TO.N,Net-(U1-Pad8)*
X36195000Y3175000D03*
G04 #@! TD*
D12*
G04 #@! TO.P,C2,2*
G04 #@! TO.N,GND*
X33020000Y3295000D03*
D14*
G04 #@! TO.P,C2,1*
G04 #@! TO.N,VCC*
X33020000Y10795000D03*
G04 #@! TD*
D13*
G04 #@! TO.P,U1,1*
G04 #@! TO.N,Net-(LK2-Pad1)*
X12065000Y3175000D03*
D12*
G04 #@! TO.P,U1,8*
G04 #@! TO.N,Net-(U1-Pad8)*
X27305000Y10795000D03*
G04 #@! TO.P,U1,2*
G04 #@! TO.N,Net-(R2-Pad1)*
X14605000Y3175000D03*
G04 #@! TO.P,U1,9*
G04 #@! TO.N,Net-(U1-Pad4)*
X24765000Y10795000D03*
G04 #@! TO.P,U1,3*
G04 #@! TO.N,Net-(C8-Pad1)*
X17145000Y3175000D03*
G04 #@! TO.P,U1,10*
G04 #@! TO.N,Net-(U1-Pad10)*
X22225000Y10795000D03*
G04 #@! TO.P,U1,4*
G04 #@! TO.N,Net-(U1-Pad4)*
X19685000Y3175000D03*
G04 #@! TO.P,U1,11*
G04 #@! TO.N,Net-(C7-Pad1)*
X19685000Y10795000D03*
G04 #@! TO.P,U1,5*
G04 #@! TO.N,/NWE*
X22225000Y3175000D03*
G04 #@! TO.P,U1,12*
G04 #@! TO.N,Net-(R1-Pad1)*
X17145000Y10795000D03*
G04 #@! TO.P,U1,6*
G04 #@! TO.N,Net-(LK2-Pad1)*
X24765000Y3175000D03*
G04 #@! TO.P,U1,13*
G04 #@! TO.N,/NVDG*
X14605000Y10795000D03*
G04 #@! TO.P,U1,7*
G04 #@! TO.N,GND*
X27305000Y3175000D03*
G04 #@! TO.P,U1,14*
G04 #@! TO.N,VCC*
X12065000Y10795000D03*
G04 #@! TD*
D14*
G04 #@! TO.P,C8,1*
G04 #@! TO.N,Net-(C8-Pad1)*
X18495000Y14605000D03*
G04 #@! TO.P,C8,2*
G04 #@! TO.N,GND*
X23495000Y14605000D03*
G04 #@! TD*
G04 #@! TO.P,R4,1*
G04 #@! TO.N,VCC*
X56515000Y21590000D03*
D12*
G04 #@! TO.P,R4,2*
G04 #@! TO.N,/LOAD*
X56515000Y11430000D03*
G04 #@! TD*
D11*
G04 #@! TO.P,J3,3*
G04 #@! TO.N,/NWE*
X72390000Y39370000D03*
G04 #@! TO.P,J3,2*
G04 #@! TO.N,Net-(J3-Pad2)*
X72390000Y41910000D03*
D15*
G04 #@! TO.P,J3,1*
G04 #@! TO.N,Net-(J3-Pad1)*
X72390000Y44450000D03*
G04 #@! TD*
D12*
G04 #@! TO.P,C1,2*
G04 #@! TO.N,GND*
X8890000Y3295000D03*
D14*
G04 #@! TO.P,C1,1*
G04 #@! TO.N,VCC*
X8890000Y10795000D03*
G04 #@! TD*
D12*
G04 #@! TO.P,C3,2*
G04 #@! TO.N,GND*
X6470000Y47625000D03*
D14*
G04 #@! TO.P,C3,1*
G04 #@! TO.N,VCC*
X13970000Y47625000D03*
G04 #@! TD*
D12*
G04 #@! TO.P,C4,2*
G04 #@! TO.N,GND*
X20440000Y47625000D03*
D14*
G04 #@! TO.P,C4,1*
G04 #@! TO.N,VCC*
X27940000Y47625000D03*
G04 #@! TD*
D12*
G04 #@! TO.P,C5,2*
G04 #@! TO.N,GND*
X40125000Y43180000D03*
D14*
G04 #@! TO.P,C5,1*
G04 #@! TO.N,VCC*
X47625000Y43180000D03*
G04 #@! TD*
D12*
G04 #@! TO.P,U5,28*
G04 #@! TO.N,VCC*
X51435000Y46990000D03*
G04 #@! TO.P,U5,14*
G04 #@! TO.N,GND*
X36195000Y13970000D03*
G04 #@! TO.P,U5,27*
G04 #@! TO.N,/RAMNWE*
X51435000Y44450000D03*
G04 #@! TO.P,U5,13*
G04 #@! TO.N,/RD7*
X36195000Y16510000D03*
G04 #@! TO.P,U5,26*
G04 #@! TO.N,GND*
X51435000Y41910000D03*
G04 #@! TO.P,U5,12*
G04 #@! TO.N,/RD6*
X36195000Y19050000D03*
G04 #@! TO.P,U5,25*
G04 #@! TO.N,/A7*
X51435000Y39370000D03*
G04 #@! TO.P,U5,11*
G04 #@! TO.N,/RD5*
X36195000Y21590000D03*
G04 #@! TO.P,U5,24*
G04 #@! TO.N,/A8*
X51435000Y36830000D03*
G04 #@! TO.P,U5,10*
G04 #@! TO.N,/A2*
X36195000Y24130000D03*
G04 #@! TO.P,U5,23*
G04 #@! TO.N,/A9*
X51435000Y34290000D03*
G04 #@! TO.P,U5,9*
G04 #@! TO.N,/A1*
X36195000Y26670000D03*
G04 #@! TO.P,U5,22*
G04 #@! TO.N,/RAMNOE*
X51435000Y31750000D03*
G04 #@! TO.P,U5,8*
G04 #@! TO.N,/A0*
X36195000Y29210000D03*
G04 #@! TO.P,U5,21*
G04 #@! TO.N,/A6*
X51435000Y29210000D03*
G04 #@! TO.P,U5,7*
G04 #@! TO.N,/A3*
X36195000Y31750000D03*
G04 #@! TO.P,U5,20*
G04 #@! TO.N,GND*
X51435000Y26670000D03*
G04 #@! TO.P,U5,6*
G04 #@! TO.N,/A4*
X36195000Y34290000D03*
G04 #@! TO.P,U5,19*
G04 #@! TO.N,/RD0*
X51435000Y24130000D03*
G04 #@! TO.P,U5,5*
G04 #@! TO.N,/A5*
X36195000Y36830000D03*
G04 #@! TO.P,U5,18*
G04 #@! TO.N,/RD1*
X51435000Y21590000D03*
G04 #@! TO.P,U5,4*
G04 #@! TO.N,/A12*
X36195000Y39370000D03*
G04 #@! TO.P,U5,17*
G04 #@! TO.N,/RD2*
X51435000Y19050000D03*
G04 #@! TO.P,U5,3*
G04 #@! TO.N,/A11*
X36195000Y41910000D03*
G04 #@! TO.P,U5,16*
G04 #@! TO.N,/RD3*
X51435000Y16510000D03*
G04 #@! TO.P,U5,2*
G04 #@! TO.N,/A10*
X36195000Y44450000D03*
G04 #@! TO.P,U5,15*
G04 #@! TO.N,/RD4*
X51435000Y13970000D03*
D13*
G04 #@! TO.P,U5,1*
G04 #@! TO.N,GND*
X36195000Y46990000D03*
G04 #@! TD*
D11*
G04 #@! TO.P,J1,10*
G04 #@! TO.N,/NVDG*
X11430000Y21590000D03*
G04 #@! TO.P,J1,9*
G04 #@! TO.N,/VD7*
X11430000Y24130000D03*
G04 #@! TO.P,J1,8*
G04 #@! TO.N,/VD6*
X11430000Y26670000D03*
G04 #@! TO.P,J1,7*
G04 #@! TO.N,/VD5*
X11430000Y29210000D03*
G04 #@! TO.P,J1,6*
G04 #@! TO.N,/VD4*
X11430000Y31750000D03*
G04 #@! TO.P,J1,5*
G04 #@! TO.N,/VD3*
X11430000Y34290000D03*
G04 #@! TO.P,J1,4*
G04 #@! TO.N,/VD2*
X11430000Y36830000D03*
G04 #@! TO.P,J1,3*
G04 #@! TO.N,/VD1*
X11430000Y39370000D03*
G04 #@! TO.P,J1,2*
G04 #@! TO.N,/VD0*
X11430000Y41910000D03*
D15*
G04 #@! TO.P,J1,1*
G04 #@! TO.N,VCC*
X11430000Y44450000D03*
G04 #@! TD*
D11*
G04 #@! TO.P,J6,3*
G04 #@! TO.N,/A12*
X3810000Y3810000D03*
G04 #@! TO.P,J6,2*
G04 #@! TO.N,/A11*
X3810000Y6350000D03*
D15*
G04 #@! TO.P,J6,1*
G04 #@! TO.N,/A10*
X3810000Y8890000D03*
G04 #@! TD*
D11*
G04 #@! TO.P,J4,9*
G04 #@! TO.N,GND*
X64770000Y6350000D03*
G04 #@! TO.P,J4,8*
G04 #@! TO.N,Net-(J4-Pad8)*
X64770000Y8890000D03*
G04 #@! TO.P,J4,7*
G04 #@! TO.N,/A2*
X64770000Y11430000D03*
G04 #@! TO.P,J4,6*
G04 #@! TO.N,/A1*
X64770000Y13970000D03*
G04 #@! TO.P,J4,5*
G04 #@! TO.N,/A0*
X64770000Y16510000D03*
G04 #@! TO.P,J4,4*
G04 #@! TO.N,/A3*
X64770000Y19050000D03*
G04 #@! TO.P,J4,3*
G04 #@! TO.N,/A4*
X64770000Y21590000D03*
G04 #@! TO.P,J4,2*
G04 #@! TO.N,/A5*
X64770000Y24130000D03*
D15*
G04 #@! TO.P,J4,1*
G04 #@! TO.N,/A6*
X64770000Y26670000D03*
G04 #@! TD*
D11*
G04 #@! TO.P,J5,9*
G04 #@! TO.N,Net-(J5-Pad9)*
X72390000Y6350000D03*
G04 #@! TO.P,J5,8*
G04 #@! TO.N,Net-(J5-Pad8)*
X72390000Y8890000D03*
G04 #@! TO.P,J5,7*
G04 #@! TO.N,Net-(J5-Pad7)*
X72390000Y11430000D03*
G04 #@! TO.P,J5,6*
G04 #@! TO.N,Net-(J5-Pad6)*
X72390000Y13970000D03*
G04 #@! TO.P,J5,5*
G04 #@! TO.N,Net-(J5-Pad5)*
X72390000Y16510000D03*
G04 #@! TO.P,J5,4*
G04 #@! TO.N,/A9*
X72390000Y19050000D03*
G04 #@! TO.P,J5,3*
G04 #@! TO.N,/A8*
X72390000Y21590000D03*
G04 #@! TO.P,J5,2*
G04 #@! TO.N,/A7*
X72390000Y24130000D03*
D15*
G04 #@! TO.P,J5,1*
G04 #@! TO.N,VCC*
X72390000Y26670000D03*
G04 #@! TD*
D11*
G04 #@! TO.P,J2,10*
G04 #@! TO.N,GND*
X3810000Y21590000D03*
G04 #@! TO.P,J2,9*
G04 #@! TO.N,/NDRS*
X3810000Y24130000D03*
G04 #@! TO.P,J2,8*
G04 #@! TO.N,/PD7*
X3810000Y26670000D03*
G04 #@! TO.P,J2,7*
G04 #@! TO.N,/PD6*
X3810000Y29210000D03*
G04 #@! TO.P,J2,6*
G04 #@! TO.N,/PD5*
X3810000Y31750000D03*
G04 #@! TO.P,J2,5*
G04 #@! TO.N,/PD4*
X3810000Y34290000D03*
G04 #@! TO.P,J2,4*
G04 #@! TO.N,/PD3*
X3810000Y36830000D03*
G04 #@! TO.P,J2,3*
G04 #@! TO.N,/PD2*
X3810000Y39370000D03*
G04 #@! TO.P,J2,2*
G04 #@! TO.N,/PD1*
X3810000Y41910000D03*
D15*
G04 #@! TO.P,J2,1*
G04 #@! TO.N,/PD0*
X3810000Y44450000D03*
G04 #@! TD*
D14*
G04 #@! TO.P,C6,2*
G04 #@! TO.N,GND*
X59055000Y45085000D03*
D13*
G04 #@! TO.P,C6,1*
G04 #@! TO.N,VCC*
X59055000Y47585000D03*
G04 #@! TD*
D14*
G04 #@! TO.P,C7,2*
G04 #@! TO.N,GND*
X23495000Y17780000D03*
G04 #@! TO.P,C7,1*
G04 #@! TO.N,Net-(C7-Pad1)*
X18495000Y17780000D03*
G04 #@! TD*
D12*
G04 #@! TO.P,U3,20*
G04 #@! TO.N,VCC*
X13970000Y44450000D03*
G04 #@! TO.P,U3,10*
G04 #@! TO.N,GND*
X6350000Y21590000D03*
G04 #@! TO.P,U3,19*
G04 #@! TO.N,/NVDG*
X13970000Y41910000D03*
G04 #@! TO.P,U3,9*
G04 #@! TO.N,/PD7*
X6350000Y24130000D03*
G04 #@! TO.P,U3,18*
G04 #@! TO.N,/RD0*
X13970000Y39370000D03*
G04 #@! TO.P,U3,8*
G04 #@! TO.N,/PD6*
X6350000Y26670000D03*
G04 #@! TO.P,U3,17*
G04 #@! TO.N,/RD1*
X13970000Y36830000D03*
G04 #@! TO.P,U3,7*
G04 #@! TO.N,/PD5*
X6350000Y29210000D03*
G04 #@! TO.P,U3,16*
G04 #@! TO.N,/RD2*
X13970000Y34290000D03*
G04 #@! TO.P,U3,6*
G04 #@! TO.N,/PD4*
X6350000Y31750000D03*
G04 #@! TO.P,U3,15*
G04 #@! TO.N,/RD3*
X13970000Y31750000D03*
G04 #@! TO.P,U3,5*
G04 #@! TO.N,/PD3*
X6350000Y34290000D03*
G04 #@! TO.P,U3,14*
G04 #@! TO.N,/RD4*
X13970000Y29210000D03*
G04 #@! TO.P,U3,4*
G04 #@! TO.N,/PD2*
X6350000Y36830000D03*
G04 #@! TO.P,U3,13*
G04 #@! TO.N,/RD5*
X13970000Y26670000D03*
G04 #@! TO.P,U3,3*
G04 #@! TO.N,/PD1*
X6350000Y39370000D03*
G04 #@! TO.P,U3,12*
G04 #@! TO.N,/RD6*
X13970000Y24130000D03*
G04 #@! TO.P,U3,2*
G04 #@! TO.N,/PD0*
X6350000Y41910000D03*
G04 #@! TO.P,U3,11*
G04 #@! TO.N,/RD7*
X13970000Y21590000D03*
D13*
G04 #@! TO.P,U3,1*
G04 #@! TO.N,/NDRS*
X6350000Y44450000D03*
G04 #@! TD*
D12*
G04 #@! TO.P,U4,20*
G04 #@! TO.N,VCC*
X27940000Y44450000D03*
G04 #@! TO.P,U4,10*
G04 #@! TO.N,GND*
X20320000Y21590000D03*
G04 #@! TO.P,U4,19*
G04 #@! TO.N,/VD0*
X27940000Y41910000D03*
G04 #@! TO.P,U4,9*
G04 #@! TO.N,/RD7*
X20320000Y24130000D03*
G04 #@! TO.P,U4,18*
G04 #@! TO.N,/VD1*
X27940000Y39370000D03*
G04 #@! TO.P,U4,8*
G04 #@! TO.N,/RD6*
X20320000Y26670000D03*
G04 #@! TO.P,U4,17*
G04 #@! TO.N,/VD2*
X27940000Y36830000D03*
G04 #@! TO.P,U4,7*
G04 #@! TO.N,/RD5*
X20320000Y29210000D03*
G04 #@! TO.P,U4,16*
G04 #@! TO.N,/VD3*
X27940000Y34290000D03*
G04 #@! TO.P,U4,6*
G04 #@! TO.N,/RD4*
X20320000Y31750000D03*
G04 #@! TO.P,U4,15*
G04 #@! TO.N,/VD4*
X27940000Y31750000D03*
G04 #@! TO.P,U4,5*
G04 #@! TO.N,/RD3*
X20320000Y34290000D03*
G04 #@! TO.P,U4,14*
G04 #@! TO.N,/VD5*
X27940000Y29210000D03*
G04 #@! TO.P,U4,4*
G04 #@! TO.N,/RD2*
X20320000Y36830000D03*
G04 #@! TO.P,U4,13*
G04 #@! TO.N,/VD6*
X27940000Y26670000D03*
G04 #@! TO.P,U4,3*
G04 #@! TO.N,/RD1*
X20320000Y39370000D03*
G04 #@! TO.P,U4,12*
G04 #@! TO.N,/VD7*
X27940000Y24130000D03*
G04 #@! TO.P,U4,2*
G04 #@! TO.N,/RD0*
X20320000Y41910000D03*
G04 #@! TO.P,U4,11*
G04 #@! TO.N,/LOAD*
X27940000Y21590000D03*
D13*
G04 #@! TO.P,U4,1*
G04 #@! TO.N,GND*
X20320000Y44450000D03*
G04 #@! TD*
D12*
G04 #@! TO.P,R3,2*
G04 #@! TO.N,GND*
X60960000Y21590000D03*
D14*
G04 #@! TO.P,R3,1*
G04 #@! TO.N,/RRDISABLE*
X60960000Y11430000D03*
G04 #@! TD*
D12*
G04 #@! TO.P,R1,2*
G04 #@! TO.N,Net-(C7-Pad1)*
X15875000Y17780000D03*
D14*
G04 #@! TO.P,R1,1*
G04 #@! TO.N,Net-(R1-Pad1)*
X5715000Y17780000D03*
G04 #@! TD*
D12*
G04 #@! TO.P,R2,2*
G04 #@! TO.N,Net-(C8-Pad1)*
X15875000Y14605000D03*
D14*
G04 #@! TO.P,R2,1*
G04 #@! TO.N,Net-(R2-Pad1)*
X5715000Y14605000D03*
G04 #@! TD*
D16*
G04 #@! TO.N,/RRDISABLE*
X60960000Y3810000D03*
G04 #@! TO.N,/A12*
X33020000Y39370000D03*
X33020000Y13970000D03*
X27305000Y6985000D03*
X12446000Y7112000D03*
G04 #@! TO.N,/A10*
X30480000Y40640000D03*
X30480000Y15240000D03*
X23495000Y8890000D03*
X12446000Y8890000D03*
G04 #@! TO.N,/A11*
X31750000Y40005000D03*
X31750000Y14605000D03*
X25400000Y8001000D03*
X13335000Y8001000D03*
G04 #@! TO.N,/NVDG*
X12700000Y17780000D03*
X12700000Y15240000D03*
G04 #@! TO.N,Net-(U1-Pad8)*
X31115000Y6985000D03*
G04 #@! TO.N,Net-(LK1-Pad1)*
X43815000Y15875000D03*
X43815000Y34290000D03*
G04 #@! TO.N,Net-(LK2-Pad1)*
X42545000Y34290000D03*
X42545000Y15875000D03*
G04 #@! TD*
D17*
G04 #@! TO.N,VCC*
X73660000Y25400000D02*
X72390000Y26670000D01*
X68580000Y17780000D02*
X73660000Y17780000D01*
X73660000Y17780000D02*
X73660000Y25400000D01*
X56515000Y21590000D02*
X57785000Y20320000D01*
X57785000Y20320000D02*
X66040000Y20320000D01*
X66040000Y20320000D02*
X68580000Y17780000D01*
G04 #@! TO.N,/RRDISABLE*
X46355000Y3175000D02*
X43815000Y3175000D01*
X60960000Y3810000D02*
X60960000Y6985000D01*
X60960000Y12065000D02*
X60960000Y5715000D01*
G04 #@! TO.N,/LOAD*
X29210000Y21590000D02*
X27940000Y21590000D01*
X35560000Y15240000D02*
X29210000Y21590000D01*
X37465000Y15240000D02*
X35560000Y15240000D01*
X39370000Y17145000D02*
X37465000Y15240000D01*
X48871244Y12088756D02*
X43815000Y17145000D01*
X43815000Y17145000D02*
X39370000Y17145000D01*
X56515000Y11430000D02*
X54610000Y11430000D01*
X54610000Y11430000D02*
X53975000Y12065000D01*
X53975000Y12065000D02*
X48895000Y12065000D01*
X56515000Y6985000D02*
X56515000Y11430000D01*
G04 #@! TO.N,/A12*
X36195000Y39370000D02*
X33020000Y39370000D01*
X33020000Y39370000D02*
X33655000Y39370000D01*
X29845000Y13335000D02*
X32385000Y13335000D01*
X28575000Y8255000D02*
X28575000Y12065000D01*
X28575000Y12065000D02*
X29845000Y13335000D01*
X27305000Y6985000D02*
X28575000Y8255000D01*
X32385000Y13335000D02*
X33020000Y13970000D01*
X7112000Y7112000D02*
X3810000Y3810000D01*
X12446000Y7112000D02*
X7112000Y7112000D01*
G04 #@! TO.N,/A7*
X67310000Y36830000D02*
X69215000Y34925000D01*
X52705000Y39370000D02*
X53975000Y38100000D01*
X69215000Y34925000D02*
X69215000Y27305000D01*
X51435000Y39370000D02*
X52705000Y39370000D01*
X53975000Y38100000D02*
X57150000Y38100000D01*
X69215000Y27305000D02*
X72390000Y24130000D01*
X58420000Y36830000D02*
X67310000Y36830000D01*
X57150000Y38100000D02*
X58420000Y36830000D01*
G04 #@! TO.N,/A6*
X63500000Y26035000D02*
X64135000Y26670000D01*
X51435000Y29210000D02*
X53340000Y29210000D01*
X53340000Y29210000D02*
X54610000Y27940000D01*
X64135000Y26670000D02*
X64770000Y26670000D01*
X54610000Y27940000D02*
X56515000Y27940000D01*
X58420000Y26035000D02*
X63500000Y26035000D01*
X56515000Y27940000D02*
X58420000Y26035000D01*
G04 #@! TO.N,/A5*
X38100000Y36830000D02*
X36195000Y36830000D01*
X64770000Y24130000D02*
X64135000Y24130000D01*
X49530000Y25400000D02*
X38100000Y36830000D01*
X53975000Y25400000D02*
X54610000Y24765000D01*
X53975000Y25400000D02*
X49530000Y25400000D01*
X54610000Y24765000D02*
X63500000Y24765000D01*
X64135000Y24130000D02*
X63500000Y24765000D01*
G04 #@! TO.N,/A4*
X38100000Y34290000D02*
X36195000Y34290000D01*
X49530000Y22860000D02*
X38100000Y34290000D01*
X62865000Y23495000D02*
X53975000Y23495000D01*
X64770000Y21590000D02*
X62865000Y23495000D01*
X53975000Y23495000D02*
X53340000Y22860000D01*
X53340000Y22860000D02*
X49530000Y22860000D01*
G04 #@! TO.N,/A3*
X38100000Y31750000D02*
X36195000Y31750000D01*
X64770000Y19050000D02*
X54610000Y19050000D01*
X54610000Y19050000D02*
X53340000Y20320000D01*
X53340000Y20320000D02*
X49530000Y20320000D01*
X49530000Y20320000D02*
X38100000Y31750000D01*
G04 #@! TO.N,/A2*
X62865000Y13335000D02*
X64770000Y11430000D01*
X54610000Y13335000D02*
X62865000Y13335000D01*
X36195000Y24130000D02*
X38100000Y24130000D01*
X38100000Y24130000D02*
X49530000Y12700000D01*
X49530000Y12700000D02*
X53975000Y12700000D01*
X53975000Y12700000D02*
X54610000Y13335000D01*
G04 #@! TO.N,/A1*
X49530000Y15240000D02*
X38100000Y26670000D01*
X63500000Y15240000D02*
X49530000Y15240000D01*
X38100000Y26670000D02*
X36195000Y26670000D01*
X64770000Y13970000D02*
X63500000Y15240000D01*
G04 #@! TO.N,/A0*
X38100000Y29210000D02*
X49530000Y17780000D01*
X36195000Y29210000D02*
X38100000Y29210000D01*
X54610000Y16510000D02*
X53340000Y17780000D01*
X64770000Y16510000D02*
X54610000Y16510000D01*
X49530000Y17780000D02*
X53340000Y17780000D01*
G04 #@! TO.N,/RD0*
X15875000Y39370000D02*
X18415000Y41910000D01*
X18415000Y41910000D02*
X20320000Y41910000D01*
X13970000Y39370000D02*
X15875000Y39370000D01*
X20320000Y41910000D02*
X23495000Y41910000D01*
X23495000Y41910000D02*
X24765000Y40640000D01*
X24765000Y40640000D02*
X29210000Y40640000D01*
X29210000Y40640000D02*
X34290000Y35560000D01*
X34290000Y35560000D02*
X38100000Y35560000D01*
X49530000Y24130000D02*
X51435000Y24130000D01*
X38100000Y35560000D02*
X49530000Y24130000D01*
G04 #@! TO.N,/RD1*
X13970000Y36830000D02*
X15875000Y36830000D01*
X18415000Y39370000D02*
X20320000Y39370000D01*
X15875000Y36830000D02*
X18415000Y39370000D01*
X49530000Y21590000D02*
X51435000Y21590000D01*
X34290000Y33020000D02*
X38100000Y33020000D01*
X20320000Y39370000D02*
X23495000Y39370000D01*
X23495000Y39370000D02*
X24765000Y38100000D01*
X24765000Y38100000D02*
X29210000Y38100000D01*
X38100000Y33020000D02*
X49530000Y21590000D01*
X29210000Y38100000D02*
X34290000Y33020000D01*
G04 #@! TO.N,/RD2*
X20320000Y36830000D02*
X18415000Y36830000D01*
X15875000Y34290000D02*
X13970000Y34290000D01*
X18415000Y36830000D02*
X15875000Y34290000D01*
X51435000Y19050000D02*
X49530000Y19050000D01*
X49530000Y19050000D02*
X38100000Y30480000D01*
X38100000Y30480000D02*
X34290000Y30480000D01*
X34290000Y30480000D02*
X29210000Y35560000D01*
X29210000Y35560000D02*
X24765000Y35560000D01*
X24765000Y35560000D02*
X23495000Y36830000D01*
X23495000Y36830000D02*
X20320000Y36830000D01*
G04 #@! TO.N,/RD3*
X20320000Y34290000D02*
X18415000Y34290000D01*
X18415000Y34290000D02*
X15875000Y31750000D01*
X15875000Y31750000D02*
X13970000Y31750000D01*
X51435000Y16510000D02*
X49530000Y16510000D01*
X49530000Y16510000D02*
X38100000Y27940000D01*
X38100000Y27940000D02*
X34290000Y27940000D01*
X34290000Y27940000D02*
X29210000Y33020000D01*
X29210000Y33020000D02*
X24765000Y33020000D01*
X24765000Y33020000D02*
X23495000Y34290000D01*
X23495000Y34290000D02*
X20320000Y34290000D01*
G04 #@! TO.N,/RD4*
X20320000Y31750000D02*
X18415000Y31750000D01*
X18415000Y31750000D02*
X15875000Y29210000D01*
X15875000Y29210000D02*
X13970000Y29210000D01*
X51435000Y13970000D02*
X49530000Y13970000D01*
X49530000Y13970000D02*
X38100000Y25400000D01*
X38100000Y25400000D02*
X34290000Y25400000D01*
X34290000Y25400000D02*
X29210000Y30480000D01*
X29210000Y30480000D02*
X24765000Y30480000D01*
X24765000Y30480000D02*
X23495000Y31750000D01*
X23495000Y31750000D02*
X20320000Y31750000D01*
G04 #@! TO.N,/RD5*
X20320000Y29210000D02*
X18415000Y29210000D01*
X18415000Y29210000D02*
X15875000Y26670000D01*
X15875000Y26670000D02*
X13970000Y26670000D01*
X23495000Y29210000D02*
X20320000Y29210000D01*
X24765000Y27940000D02*
X23495000Y29210000D01*
X29845000Y27940000D02*
X24765000Y27940000D01*
X36195000Y21590000D02*
X29845000Y27940000D01*
G04 #@! TO.N,/RD6*
X20320000Y26670000D02*
X18415000Y26670000D01*
X15875000Y24130000D02*
X13970000Y24130000D01*
X18415000Y26670000D02*
X15875000Y24130000D01*
X23495000Y26670000D02*
X20320000Y26670000D01*
X24765000Y25400000D02*
X23495000Y26670000D01*
X29845000Y25400000D02*
X24765000Y25400000D01*
X36195000Y19050000D02*
X29845000Y25400000D01*
G04 #@! TO.N,/RD7*
X20320000Y24130000D02*
X18415000Y24130000D01*
X18415000Y24130000D02*
X15875000Y21590000D01*
X15875000Y21590000D02*
X13970000Y21590000D01*
X29845000Y22860000D02*
X24765000Y22860000D01*
X23495000Y24130000D02*
X20320000Y24130000D01*
X24765000Y22860000D02*
X23495000Y24130000D01*
X36195000Y16510000D02*
X29845000Y22860000D01*
G04 #@! TO.N,/A10*
X30480000Y42545000D02*
X30480000Y40640000D01*
X32385000Y44450000D02*
X30480000Y42545000D01*
X36195000Y44450000D02*
X32385000Y44450000D01*
X23495000Y8890000D02*
X23495000Y11430000D01*
X23495000Y11430000D02*
X26670000Y14605000D01*
X29845000Y14605000D02*
X30480000Y15240000D01*
X26670000Y14605000D02*
X29845000Y14605000D01*
X12446000Y8890000D02*
X3810000Y8890000D01*
G04 #@! TO.N,/A11*
X31750000Y41275000D02*
X31750000Y40005000D01*
X32385000Y41910000D02*
X31750000Y41275000D01*
X36195000Y41910000D02*
X32385000Y41910000D01*
X28575000Y13970000D02*
X31115000Y13970000D01*
X26035000Y11430000D02*
X28575000Y13970000D01*
X26035000Y8636000D02*
X26035000Y11430000D01*
X25400000Y8001000D02*
X26035000Y8636000D01*
X31115000Y13970000D02*
X31750000Y14605000D01*
X5461000Y8001000D02*
X3810000Y6350000D01*
X13335000Y8001000D02*
X5461000Y8001000D01*
G04 #@! TO.N,/A9*
X67310000Y34290000D02*
X51435000Y34290000D01*
X67945000Y33655000D02*
X67310000Y34290000D01*
X67945000Y23495000D02*
X67945000Y33655000D01*
X72390000Y19050000D02*
X67945000Y23495000D01*
G04 #@! TO.N,/A8*
X68580000Y25400000D02*
X72390000Y21590000D01*
X51435000Y36830000D02*
X52705000Y35560000D01*
X52705000Y35560000D02*
X67310000Y35560000D01*
X67310000Y35560000D02*
X68580000Y34290000D01*
X68580000Y34290000D02*
X68580000Y25400000D01*
G04 #@! TO.N,/NWE*
X55245000Y41910000D02*
X59055000Y38100000D01*
X67310000Y38100000D02*
X68580000Y39370000D01*
X59055000Y38100000D02*
X67310000Y38100000D01*
X68580000Y39370000D02*
X72390000Y39370000D01*
G04 #@! TO.N,/VD7*
X27940000Y24130000D02*
X24765000Y24130000D01*
X24765000Y24130000D02*
X23495000Y25400000D01*
X23495000Y25400000D02*
X18415000Y25400000D01*
X18415000Y25400000D02*
X15875000Y22860000D01*
X15875000Y22860000D02*
X12700000Y22860000D01*
X12700000Y22860000D02*
X11430000Y24130000D01*
G04 #@! TO.N,/VD6*
X11430000Y26670000D02*
X12065000Y26670000D01*
X11430000Y26670000D02*
X12700000Y25400000D01*
X12700000Y25400000D02*
X15875000Y25400000D01*
X15875000Y25400000D02*
X18415000Y27940000D01*
X18415000Y27940000D02*
X23495000Y27940000D01*
X23495000Y27940000D02*
X24765000Y26670000D01*
X24765000Y26670000D02*
X27940000Y26670000D01*
G04 #@! TO.N,/VD5*
X27940000Y29210000D02*
X24765000Y29210000D01*
X24765000Y29210000D02*
X23495000Y30480000D01*
X23495000Y30480000D02*
X18415000Y30480000D01*
X18415000Y30480000D02*
X15875000Y27940000D01*
X15875000Y27940000D02*
X12700000Y27940000D01*
X12700000Y27940000D02*
X11430000Y29210000D01*
G04 #@! TO.N,/VD4*
X11430000Y31750000D02*
X12700000Y30480000D01*
X12700000Y30480000D02*
X15875000Y30480000D01*
X15875000Y30480000D02*
X18415000Y33020000D01*
X18415000Y33020000D02*
X23495000Y33020000D01*
X23495000Y33020000D02*
X24765000Y31750000D01*
X24765000Y31750000D02*
X27940000Y31750000D01*
G04 #@! TO.N,/VD3*
X24765000Y34290000D02*
X27940000Y34290000D01*
X23495000Y35560000D02*
X24765000Y34290000D01*
X11430000Y34290000D02*
X12700000Y33020000D01*
X15875000Y33020000D02*
X18415000Y35560000D01*
X12700000Y33020000D02*
X15875000Y33020000D01*
X18415000Y35560000D02*
X23495000Y35560000D01*
G04 #@! TO.N,/VD2*
X11430000Y36830000D02*
X12700000Y35560000D01*
X12700000Y35560000D02*
X15875000Y35560000D01*
X15875000Y35560000D02*
X18415000Y38100000D01*
X18415000Y38100000D02*
X23495000Y38100000D01*
X23495000Y38100000D02*
X24765000Y36830000D01*
X24765000Y36830000D02*
X27940000Y36830000D01*
G04 #@! TO.N,/VD1*
X12700000Y38100000D02*
X11430000Y39370000D01*
X15875000Y38100000D02*
X12700000Y38100000D01*
X27940000Y39370000D02*
X24765000Y39370000D01*
X24765000Y39370000D02*
X23495000Y40640000D01*
X23495000Y40640000D02*
X18415000Y40640000D01*
X18415000Y40640000D02*
X15875000Y38100000D01*
G04 #@! TO.N,/VD0*
X27940000Y41910000D02*
X24765000Y41910000D01*
X24765000Y41910000D02*
X23495000Y43180000D01*
X23495000Y43180000D02*
X18415000Y43180000D01*
X18415000Y43180000D02*
X15875000Y40640000D01*
X15875000Y40640000D02*
X12700000Y40640000D01*
X12700000Y40640000D02*
X11430000Y41910000D01*
G04 #@! TO.N,/NVDG*
X9525000Y23495000D02*
X11430000Y21590000D01*
X13970000Y41910000D02*
X12700000Y43180000D01*
X12700000Y43180000D02*
X10795000Y43180000D01*
X10795000Y43180000D02*
X9525000Y41910000D01*
X9525000Y41910000D02*
X9525000Y23495000D01*
X11430000Y21590000D02*
X11430000Y19685000D01*
X29845000Y19685000D02*
X11430000Y19685000D01*
X34925000Y14605000D02*
X29845000Y19685000D01*
X34925000Y13335000D02*
X34925000Y14605000D01*
X38735000Y10795000D02*
X38735000Y12065000D01*
X38735000Y12065000D02*
X38100000Y12700000D01*
X38100000Y12700000D02*
X35560000Y12700000D01*
X35560000Y12700000D02*
X34925000Y13335000D01*
X12700000Y17780000D02*
X11430000Y19050000D01*
X11430000Y19050000D02*
X11430000Y19685000D01*
X14605000Y12065000D02*
X14605000Y10795000D01*
X12700000Y13970000D02*
X14605000Y12065000D01*
X12700000Y15240000D02*
X12700000Y13970000D01*
G04 #@! TO.N,/PD7*
X3810000Y26670000D02*
X6350000Y24130000D01*
G04 #@! TO.N,/PD6*
X3810000Y29210000D02*
X6350000Y26670000D01*
G04 #@! TO.N,/PD5*
X3810000Y31750000D02*
X6350000Y29210000D01*
G04 #@! TO.N,/PD4*
X3810000Y34290000D02*
X6350000Y31750000D01*
G04 #@! TO.N,/PD3*
X3810000Y36830000D02*
X6350000Y34290000D01*
G04 #@! TO.N,/PD2*
X3810000Y39370000D02*
X6350000Y36830000D01*
G04 #@! TO.N,/PD1*
X3810000Y41910000D02*
X6350000Y39370000D01*
G04 #@! TO.N,/PD0*
X3810000Y44450000D02*
X6350000Y41910000D01*
G04 #@! TO.N,/NDRS*
X8255000Y42545000D02*
X6350000Y44450000D01*
X3810000Y24130000D02*
X5080000Y22860000D01*
X5080000Y22860000D02*
X6985000Y22860000D01*
X6985000Y22860000D02*
X8255000Y24130000D01*
X8255000Y24130000D02*
X8255000Y42545000D01*
G04 #@! TO.N,Net-(U1-Pad4)*
X24765000Y8890000D02*
X24765000Y10795000D01*
X19685000Y3175000D02*
X19685000Y6350000D01*
X21361399Y8026399D02*
X23901399Y8026399D01*
X19685000Y6350000D02*
X21361399Y8026399D01*
X23901399Y8026399D02*
X24765000Y8890000D01*
G04 #@! TO.N,Net-(U2-Pad10)*
X43815000Y10795000D02*
X46355000Y10795000D01*
G04 #@! TO.N,Net-(C7-Pad1)*
X15875000Y17780000D02*
X18495000Y17780000D01*
X19685000Y16590000D02*
X19685000Y10795000D01*
X18495000Y17780000D02*
X19685000Y16590000D01*
X15955000Y17780000D02*
X18495000Y17780000D01*
G04 #@! TO.N,Net-(C8-Pad1)*
X15875000Y14605000D02*
X18495000Y14605000D01*
X18495000Y14605000D02*
X18495000Y9605000D01*
X18495000Y9605000D02*
X17145000Y8255000D01*
X17145000Y8255000D02*
X17145000Y3175000D01*
G04 #@! TO.N,Net-(R1-Pad1)*
X6985000Y16510000D02*
X5715000Y17780000D01*
X17145000Y10795000D02*
X13970000Y13970000D01*
X13970000Y13970000D02*
X13970000Y15875000D01*
X13970000Y15875000D02*
X13335000Y16510000D01*
X13335000Y16510000D02*
X6985000Y16510000D01*
G04 #@! TO.N,/RAMNWE*
X53340000Y41275000D02*
X55245000Y39370000D01*
X53340000Y42545000D02*
X53340000Y41275000D01*
X51435000Y44450000D02*
X53340000Y42545000D01*
G04 #@! TO.N,/RAMNOE*
X52705000Y31750000D02*
X51435000Y31750000D01*
X55245000Y29210000D02*
X52705000Y31750000D01*
G04 #@! TO.N,Net-(U1-Pad8)*
X36195000Y5715000D02*
X36195000Y3175000D01*
X31115000Y6985000D02*
X34925000Y6985000D01*
X34925000Y6985000D02*
X36195000Y5715000D01*
G04 #@! TO.N,Net-(U1-Pad10)*
X37465000Y11430000D02*
X36830000Y12065000D01*
X37465000Y10160000D02*
X37465000Y11430000D01*
X34290000Y13970000D02*
X31750000Y16510000D01*
X38100000Y9525000D02*
X37465000Y10160000D01*
X40005000Y9525000D02*
X38100000Y9525000D01*
X31750000Y16510000D02*
X27305000Y16510000D01*
X27305000Y16510000D02*
X22225000Y11430000D01*
X22225000Y11430000D02*
X22225000Y10795000D01*
X41275000Y10795000D02*
X40005000Y9525000D01*
X34925000Y12065000D02*
X34290000Y12700000D01*
X36830000Y12065000D02*
X34925000Y12065000D01*
X34290000Y12700000D02*
X34290000Y13970000D01*
G04 #@! TO.N,Net-(R2-Pad1)*
X13335000Y11430000D02*
X10160000Y14605000D01*
X14605000Y8255000D02*
X13335000Y9525000D01*
X10160000Y14605000D02*
X5715000Y14605000D01*
X13335000Y9525000D02*
X13335000Y11430000D01*
X14605000Y3175000D02*
X14605000Y8255000D01*
G04 #@! TO.N,Net-(U2-Pad6)*
X48895000Y10795000D02*
X48895000Y3175000D01*
G04 #@! TO.N,Net-(LK1-Pad1)*
X47625000Y9525000D02*
X41275000Y3175000D01*
X47625000Y12065000D02*
X47625000Y9525000D01*
X43815000Y15875000D02*
X47625000Y12065000D01*
X53340000Y36830000D02*
X55245000Y36830000D01*
X52070000Y38100000D02*
X53340000Y36830000D01*
X47625000Y38100000D02*
X52070000Y38100000D01*
X43815000Y34290000D02*
X47625000Y38100000D01*
G04 #@! TO.N,Net-(LK2-Pad1)*
X42545000Y15875000D02*
X42545000Y8890000D01*
X42545000Y8890000D02*
X38735000Y5080000D01*
X38735000Y5080000D02*
X38735000Y3175000D01*
X55245000Y26670000D02*
X53975000Y26670000D01*
X48895000Y27940000D02*
X42545000Y34290000D01*
X53975000Y26670000D02*
X52705000Y27940000D01*
X52705000Y27940000D02*
X48895000Y27940000D01*
G04 #@! TO.N,Net-(LK3-Pad2)*
X55245000Y4445000D02*
X56515000Y4445000D01*
X51435000Y10795000D02*
X52070000Y10795000D01*
X52070000Y10795000D02*
X53340000Y9525000D01*
X53340000Y6350000D02*
X55245000Y4445000D01*
X53340000Y9525000D02*
X53340000Y6350000D01*
G04 #@! TD*
G04 #@! TO.N,VCC*
G36*
X13215995Y48878864D02*
X13141861Y48632745D01*
X13970000Y47804605D01*
X14798139Y48632745D01*
X14724005Y48878864D01*
X14534443Y48947000D01*
X27350490Y48947000D01*
X27185995Y48878864D01*
X27111861Y48632745D01*
X27940000Y47804605D01*
X28768139Y48632745D01*
X28694005Y48878864D01*
X28504443Y48947000D01*
X57952453Y48947000D01*
X57895301Y48923327D01*
X57716673Y48744698D01*
X57620000Y48511309D01*
X57620000Y47870750D01*
X57778750Y47712000D01*
X58928000Y47712000D01*
X58928000Y47732000D01*
X59182000Y47732000D01*
X59182000Y47712000D01*
X60331250Y47712000D01*
X60490000Y47870750D01*
X60490000Y48511309D01*
X60393327Y48744698D01*
X60214699Y48923327D01*
X60157547Y48947000D01*
X74878995Y48947000D01*
X75161892Y48897118D01*
X75365813Y48779383D01*
X75517170Y48599004D01*
X75606613Y48353260D01*
X75617000Y48234541D01*
X75617001Y1321012D01*
X75567118Y1038108D01*
X75449383Y834187D01*
X75269004Y682830D01*
X75023260Y593387D01*
X74904541Y583000D01*
X1321006Y583000D01*
X1038108Y632882D01*
X834187Y750617D01*
X682830Y930996D01*
X593387Y1176740D01*
X583000Y1295459D01*
X583000Y11011777D01*
X7443035Y11011777D01*
X7470222Y10441546D01*
X7636136Y10040995D01*
X7882255Y9966861D01*
X8710395Y10795000D01*
X9069605Y10795000D01*
X9897745Y9966861D01*
X10143864Y10040995D01*
X10336965Y10578223D01*
X10309778Y11148454D01*
X10143864Y11549005D01*
X9897745Y11623139D01*
X9069605Y10795000D01*
X8710395Y10795000D01*
X7882255Y11623139D01*
X7636136Y11549005D01*
X7443035Y11011777D01*
X583000Y11011777D01*
X583000Y11802745D01*
X8061861Y11802745D01*
X8890000Y10974605D01*
X9718139Y11802745D01*
X9644005Y12048864D01*
X9106777Y12241965D01*
X8536546Y12214778D01*
X8135995Y12048864D01*
X8061861Y11802745D01*
X583000Y11802745D01*
X583000Y41910000D01*
X2425396Y41910000D01*
X2530793Y41380135D01*
X2830937Y40930937D01*
X3266356Y40640000D01*
X2830937Y40349063D01*
X2530793Y39899865D01*
X2425396Y39370000D01*
X2530793Y38840135D01*
X2830937Y38390937D01*
X3266356Y38100000D01*
X2830937Y37809063D01*
X2530793Y37359865D01*
X2425396Y36830000D01*
X2530793Y36300135D01*
X2830937Y35850937D01*
X3266356Y35560000D01*
X2830937Y35269063D01*
X2530793Y34819865D01*
X2425396Y34290000D01*
X2530793Y33760135D01*
X2830937Y33310937D01*
X3266356Y33020000D01*
X2830937Y32729063D01*
X2530793Y32279865D01*
X2425396Y31750000D01*
X2530793Y31220135D01*
X2830937Y30770937D01*
X3266356Y30480000D01*
X2830937Y30189063D01*
X2530793Y29739865D01*
X2425396Y29210000D01*
X2530793Y28680135D01*
X2830937Y28230937D01*
X3266356Y27940000D01*
X2830937Y27649063D01*
X2530793Y27199865D01*
X2425396Y26670000D01*
X2530793Y26140135D01*
X2830937Y25690937D01*
X3266356Y25400000D01*
X2830937Y25109063D01*
X2530793Y24659865D01*
X2425396Y24130000D01*
X2530793Y23600135D01*
X2830937Y23150937D01*
X3266356Y22860000D01*
X2830937Y22569063D01*
X2530793Y22119865D01*
X2425396Y21590000D01*
X2530793Y21060135D01*
X2830937Y20610937D01*
X3280135Y20310793D01*
X3676253Y20232000D01*
X3943747Y20232000D01*
X4339865Y20310793D01*
X4789063Y20610937D01*
X5089207Y21060135D01*
X5105489Y21141992D01*
X5117891Y21079644D01*
X5406985Y20646985D01*
X5839644Y20357891D01*
X6221174Y20282000D01*
X6478826Y20282000D01*
X6860356Y20357891D01*
X7293015Y20646985D01*
X7582109Y21079644D01*
X7683625Y21590000D01*
X7582109Y22100356D01*
X7399683Y22373375D01*
X7442809Y22402191D01*
X7478238Y22455214D01*
X8659790Y23636765D01*
X8712809Y23672191D01*
X8853157Y23882235D01*
X8890000Y24067459D01*
X8890000Y24067462D01*
X8890001Y24067467D01*
X8890001Y23557542D01*
X8877561Y23495000D01*
X8926843Y23247236D01*
X8926844Y23247235D01*
X9067192Y23037191D01*
X9120212Y23001764D01*
X10126125Y21995850D01*
X10045396Y21590000D01*
X10150793Y21060135D01*
X10450937Y20610937D01*
X10795001Y20381041D01*
X10795001Y19747545D01*
X10782560Y19685000D01*
X10795000Y19622459D01*
X10795000Y19112537D01*
X10782561Y19050000D01*
X10795000Y18987463D01*
X10795000Y18987460D01*
X10831843Y18802236D01*
X10972191Y18592191D01*
X11025214Y18556762D01*
X11684000Y17897975D01*
X11684000Y17577905D01*
X11838676Y17204482D01*
X11898158Y17145000D01*
X7248025Y17145000D01*
X6979125Y17413900D01*
X7023000Y17519823D01*
X7023000Y18040177D01*
X6823869Y18520922D01*
X6455922Y18888869D01*
X5975177Y19088000D01*
X5454823Y19088000D01*
X4974078Y18888869D01*
X4606131Y18520922D01*
X4407000Y18040177D01*
X4407000Y17519823D01*
X4606131Y17039078D01*
X4974078Y16671131D01*
X5454823Y16472000D01*
X5975177Y16472000D01*
X6081100Y16515875D01*
X6491764Y16105212D01*
X6527191Y16052191D01*
X6737235Y15911843D01*
X6922459Y15875000D01*
X6922462Y15875000D01*
X6984999Y15862561D01*
X7047536Y15875000D01*
X11898158Y15875000D01*
X11838676Y15815518D01*
X11684000Y15442095D01*
X11684000Y15037905D01*
X11838676Y14664482D01*
X12065001Y14438157D01*
X12065001Y14032541D01*
X12052561Y13970000D01*
X12101843Y13722236D01*
X12101844Y13722235D01*
X12242192Y13512191D01*
X12295212Y13476764D01*
X13884967Y11887007D01*
X13821625Y11844683D01*
X13792809Y11887809D01*
X13739789Y11923236D01*
X10653238Y15009786D01*
X10617809Y15062809D01*
X10407765Y15203157D01*
X10222541Y15240000D01*
X10222537Y15240000D01*
X10160000Y15252439D01*
X10097463Y15240000D01*
X6867743Y15240000D01*
X6823869Y15345922D01*
X6455922Y15713869D01*
X5975177Y15913000D01*
X5454823Y15913000D01*
X4974078Y15713869D01*
X4606131Y15345922D01*
X4407000Y14865177D01*
X4407000Y14344823D01*
X4606131Y13864078D01*
X4974078Y13496131D01*
X5454823Y13297000D01*
X5975177Y13297000D01*
X6455922Y13496131D01*
X6823869Y13864078D01*
X6867743Y13970000D01*
X9896976Y13970000D01*
X11690583Y12176393D01*
X11327577Y12026041D01*
X10912611Y11650134D01*
X10673086Y11144041D01*
X10794371Y10922000D01*
X11938000Y10922000D01*
X11938000Y10942000D01*
X12192000Y10942000D01*
X12192000Y10922000D01*
X12212000Y10922000D01*
X12212000Y10668000D01*
X12192000Y10668000D01*
X12192000Y10648000D01*
X11938000Y10648000D01*
X11938000Y10668000D01*
X10794371Y10668000D01*
X10673086Y10445959D01*
X10912611Y9939866D01*
X11327577Y9563959D01*
X11421639Y9525000D01*
X9605049Y9525000D01*
X9644005Y9541136D01*
X9718139Y9787255D01*
X8890000Y10615395D01*
X8061861Y9787255D01*
X8135995Y9541136D01*
X8180887Y9525000D01*
X5016863Y9525000D01*
X4961257Y9659245D01*
X4579245Y10041257D01*
X4080123Y10248000D01*
X3539877Y10248000D01*
X3040755Y10041257D01*
X2658743Y9659245D01*
X2452000Y9160123D01*
X2452000Y8619877D01*
X2658743Y8120755D01*
X3040755Y7738743D01*
X3297067Y7632575D01*
X3280135Y7629207D01*
X2830937Y7329063D01*
X2530793Y6879865D01*
X2425396Y6350000D01*
X2530793Y5820135D01*
X2830937Y5370937D01*
X3266356Y5080000D01*
X2830937Y4789063D01*
X2530793Y4339865D01*
X2425396Y3810000D01*
X2530793Y3280135D01*
X2830937Y2830937D01*
X3280135Y2530793D01*
X3676253Y2452000D01*
X3943747Y2452000D01*
X4339865Y2530793D01*
X4789063Y2830937D01*
X5089207Y3280135D01*
X5092163Y3295000D01*
X7556375Y3295000D01*
X7657891Y2784644D01*
X7946985Y2351985D01*
X8379644Y2062891D01*
X8761174Y1987000D01*
X9018826Y1987000D01*
X9400356Y2062891D01*
X9833015Y2351985D01*
X10122109Y2784644D01*
X10223625Y3295000D01*
X10122109Y3805356D01*
X9833015Y4238015D01*
X9400356Y4527109D01*
X9018826Y4603000D01*
X8761174Y4603000D01*
X8379644Y4527109D01*
X7946985Y4238015D01*
X7657891Y3805356D01*
X7556375Y3295000D01*
X5092163Y3295000D01*
X5194604Y3810000D01*
X5113875Y4215851D01*
X7375025Y6477000D01*
X11644158Y6477000D01*
X11870482Y6250676D01*
X12243905Y6096000D01*
X12648095Y6096000D01*
X13021518Y6250676D01*
X13307324Y6536482D01*
X13462000Y6909905D01*
X13462000Y6985000D01*
X13537095Y6985000D01*
X13910518Y7139676D01*
X13970001Y7199159D01*
X13970000Y4323825D01*
X13661985Y4118015D01*
X13382952Y3700413D01*
X13382952Y3975000D01*
X13343525Y4173212D01*
X13231247Y4341247D01*
X13063212Y4453525D01*
X12865000Y4492952D01*
X11265000Y4492952D01*
X11066788Y4453525D01*
X10898753Y4341247D01*
X10786475Y4173212D01*
X10747048Y3975000D01*
X10747048Y2375000D01*
X10786475Y2176788D01*
X10898753Y2008753D01*
X11066788Y1896475D01*
X11265000Y1857048D01*
X12865000Y1857048D01*
X13063212Y1896475D01*
X13231247Y2008753D01*
X13343525Y2176788D01*
X13382952Y2375000D01*
X13382952Y2649587D01*
X13661985Y2231985D01*
X14094644Y1942891D01*
X14476174Y1867000D01*
X14733826Y1867000D01*
X15115356Y1942891D01*
X15548015Y2231985D01*
X15837109Y2664644D01*
X15875000Y2855135D01*
X15912891Y2664644D01*
X16201985Y2231985D01*
X16634644Y1942891D01*
X17016174Y1867000D01*
X17273826Y1867000D01*
X17655356Y1942891D01*
X18088015Y2231985D01*
X18377109Y2664644D01*
X18415000Y2855135D01*
X18452891Y2664644D01*
X18741985Y2231985D01*
X19174644Y1942891D01*
X19556174Y1867000D01*
X19813826Y1867000D01*
X20195356Y1942891D01*
X20628015Y2231985D01*
X20917109Y2664644D01*
X20955000Y2855135D01*
X20992891Y2664644D01*
X21281985Y2231985D01*
X21714644Y1942891D01*
X22096174Y1867000D01*
X22353826Y1867000D01*
X22735356Y1942891D01*
X23168015Y2231985D01*
X23457109Y2664644D01*
X23495000Y2855135D01*
X23532891Y2664644D01*
X23821985Y2231985D01*
X24254644Y1942891D01*
X24636174Y1867000D01*
X24893826Y1867000D01*
X25275356Y1942891D01*
X25708015Y2231985D01*
X25997109Y2664644D01*
X26035000Y2855135D01*
X26072891Y2664644D01*
X26361985Y2231985D01*
X26794644Y1942891D01*
X27176174Y1867000D01*
X27433826Y1867000D01*
X27815356Y1942891D01*
X28248015Y2231985D01*
X28537109Y2664644D01*
X28638625Y3175000D01*
X28614756Y3295000D01*
X31686375Y3295000D01*
X31787891Y2784644D01*
X32076985Y2351985D01*
X32509644Y2062891D01*
X32891174Y1987000D01*
X33148826Y1987000D01*
X33530356Y2062891D01*
X33963015Y2351985D01*
X34252109Y2784644D01*
X34353625Y3295000D01*
X34252109Y3805356D01*
X33963015Y4238015D01*
X33530356Y4527109D01*
X33148826Y4603000D01*
X32891174Y4603000D01*
X32509644Y4527109D01*
X32076985Y4238015D01*
X31787891Y3805356D01*
X31686375Y3295000D01*
X28614756Y3295000D01*
X28537109Y3685356D01*
X28248015Y4118015D01*
X27815356Y4407109D01*
X27433826Y4483000D01*
X27176174Y4483000D01*
X26794644Y4407109D01*
X26361985Y4118015D01*
X26072891Y3685356D01*
X26035000Y3494865D01*
X25997109Y3685356D01*
X25708015Y4118015D01*
X25275356Y4407109D01*
X24893826Y4483000D01*
X24636174Y4483000D01*
X24254644Y4407109D01*
X23821985Y4118015D01*
X23532891Y3685356D01*
X23495000Y3494865D01*
X23457109Y3685356D01*
X23168015Y4118015D01*
X22735356Y4407109D01*
X22353826Y4483000D01*
X22096174Y4483000D01*
X21714644Y4407109D01*
X21281985Y4118015D01*
X20992891Y3685356D01*
X20955000Y3494865D01*
X20917109Y3685356D01*
X20628015Y4118015D01*
X20320000Y4323824D01*
X20320000Y6086976D01*
X21624424Y7391399D01*
X23838862Y7391399D01*
X23901399Y7378960D01*
X23963936Y7391399D01*
X23963940Y7391399D01*
X24149164Y7428242D01*
X24359208Y7568590D01*
X24394637Y7621613D01*
X24439043Y7666019D01*
X24538676Y7425482D01*
X24824482Y7139676D01*
X25197905Y6985000D01*
X25602095Y6985000D01*
X25975518Y7139676D01*
X26261324Y7425482D01*
X26416000Y7798905D01*
X26416000Y8118974D01*
X26439791Y8142766D01*
X26492809Y8178191D01*
X26528234Y8231208D01*
X26528236Y8231210D01*
X26633157Y8388235D01*
X26652446Y8485210D01*
X26670000Y8573459D01*
X26670000Y8573463D01*
X26682439Y8636000D01*
X26670000Y8698537D01*
X26670000Y9646176D01*
X26794644Y9562891D01*
X27176174Y9487000D01*
X27433826Y9487000D01*
X27815356Y9562891D01*
X27940000Y9646176D01*
X27940000Y8518025D01*
X27422976Y8001000D01*
X27102905Y8001000D01*
X26729482Y7846324D01*
X26443676Y7560518D01*
X26289000Y7187095D01*
X26289000Y6782905D01*
X26443676Y6409482D01*
X26729482Y6123676D01*
X27102905Y5969000D01*
X27507095Y5969000D01*
X27880518Y6123676D01*
X28166324Y6409482D01*
X28321000Y6782905D01*
X28321000Y7102976D01*
X28979790Y7761765D01*
X29032809Y7797191D01*
X29173157Y8007235D01*
X29210000Y8192459D01*
X29210000Y8192462D01*
X29222439Y8254999D01*
X29210000Y8317536D01*
X29210000Y9787255D01*
X32191861Y9787255D01*
X32265995Y9541136D01*
X32803223Y9348035D01*
X33373454Y9375222D01*
X33774005Y9541136D01*
X33848139Y9787255D01*
X33020000Y10615395D01*
X32191861Y9787255D01*
X29210000Y9787255D01*
X29210000Y11011777D01*
X31573035Y11011777D01*
X31600222Y10441546D01*
X31766136Y10040995D01*
X32012255Y9966861D01*
X32840395Y10795000D01*
X33199605Y10795000D01*
X34027745Y9966861D01*
X34273864Y10040995D01*
X34419424Y10445959D01*
X34803086Y10445959D01*
X35042611Y9939866D01*
X35457577Y9563959D01*
X35845961Y9403096D01*
X36068000Y9525085D01*
X36068000Y10668000D01*
X34924371Y10668000D01*
X34803086Y10445959D01*
X34419424Y10445959D01*
X34466965Y10578223D01*
X34439778Y11148454D01*
X34273864Y11549005D01*
X34027745Y11623139D01*
X33199605Y10795000D01*
X32840395Y10795000D01*
X32012255Y11623139D01*
X31766136Y11549005D01*
X31573035Y11011777D01*
X29210000Y11011777D01*
X29210000Y11801976D01*
X29210769Y11802745D01*
X32191861Y11802745D01*
X33020000Y10974605D01*
X33848139Y11802745D01*
X33774005Y12048864D01*
X33236777Y12241965D01*
X32666546Y12214778D01*
X32265995Y12048864D01*
X32191861Y11802745D01*
X29210769Y11802745D01*
X30108025Y12700000D01*
X32322463Y12700000D01*
X32385000Y12687561D01*
X32447537Y12700000D01*
X32447541Y12700000D01*
X32632765Y12736843D01*
X32842809Y12877191D01*
X32878238Y12930214D01*
X32902024Y12954000D01*
X33222095Y12954000D01*
X33595518Y13108676D01*
X33655000Y13168158D01*
X33655000Y12762537D01*
X33642561Y12700000D01*
X33655000Y12637463D01*
X33655000Y12637460D01*
X33691843Y12452236D01*
X33832191Y12242191D01*
X33885214Y12206762D01*
X34431765Y11660209D01*
X34467191Y11607191D01*
X34520208Y11571766D01*
X34520210Y11571764D01*
X34638777Y11492540D01*
X34677235Y11466843D01*
X34862459Y11430000D01*
X34862463Y11430000D01*
X34925000Y11417561D01*
X34933322Y11419216D01*
X34803086Y11144041D01*
X34924371Y10922000D01*
X36068000Y10922000D01*
X36068000Y10942000D01*
X36322000Y10942000D01*
X36322000Y10922000D01*
X36342000Y10922000D01*
X36342000Y10668000D01*
X36322000Y10668000D01*
X36322000Y9525085D01*
X36544039Y9403096D01*
X36932423Y9563959D01*
X37051981Y9672263D01*
X37060214Y9666762D01*
X37606765Y9120209D01*
X37642191Y9067191D01*
X37695208Y9031766D01*
X37695210Y9031764D01*
X37732507Y9006843D01*
X37852235Y8926843D01*
X38037459Y8890000D01*
X38037463Y8890000D01*
X38100000Y8877561D01*
X38162537Y8890000D01*
X39942463Y8890000D01*
X40005000Y8877561D01*
X40067537Y8890000D01*
X40067541Y8890000D01*
X40252765Y8926843D01*
X40462809Y9067191D01*
X40498238Y9120214D01*
X40911670Y9533646D01*
X41146174Y9487000D01*
X41403826Y9487000D01*
X41785356Y9562891D01*
X41910001Y9646176D01*
X41910001Y9153027D01*
X38330214Y5573238D01*
X38277191Y5537809D01*
X38136843Y5327764D01*
X38100000Y5142540D01*
X38100000Y5142537D01*
X38087561Y5080000D01*
X38100000Y5017463D01*
X38100000Y4323825D01*
X37791985Y4118015D01*
X37512952Y3700413D01*
X37512952Y3975000D01*
X37473525Y4173212D01*
X37361247Y4341247D01*
X37193212Y4453525D01*
X36995000Y4492952D01*
X36830000Y4492952D01*
X36830000Y5652464D01*
X36842439Y5715001D01*
X36830000Y5777540D01*
X36830000Y5777541D01*
X36793157Y5962765D01*
X36652809Y6172809D01*
X36599789Y6208236D01*
X35418238Y7389786D01*
X35382809Y7442809D01*
X35172765Y7583157D01*
X34987541Y7620000D01*
X34987537Y7620000D01*
X34925000Y7632439D01*
X34862463Y7620000D01*
X31916842Y7620000D01*
X31690518Y7846324D01*
X31317095Y8001000D01*
X30912905Y8001000D01*
X30539482Y7846324D01*
X30253676Y7560518D01*
X30099000Y7187095D01*
X30099000Y6782905D01*
X30253676Y6409482D01*
X30539482Y6123676D01*
X30912905Y5969000D01*
X31317095Y5969000D01*
X31690518Y6123676D01*
X31916842Y6350000D01*
X34661976Y6350000D01*
X35560000Y5451975D01*
X35560000Y4492952D01*
X35395000Y4492952D01*
X35196788Y4453525D01*
X35028753Y4341247D01*
X34916475Y4173212D01*
X34877048Y3975000D01*
X34877048Y2375000D01*
X34916475Y2176788D01*
X35028753Y2008753D01*
X35196788Y1896475D01*
X35395000Y1857048D01*
X36995000Y1857048D01*
X37193212Y1896475D01*
X37361247Y2008753D01*
X37473525Y2176788D01*
X37512952Y2375000D01*
X37512952Y2649587D01*
X37791985Y2231985D01*
X38224644Y1942891D01*
X38606174Y1867000D01*
X38863826Y1867000D01*
X39245356Y1942891D01*
X39678015Y2231985D01*
X39967109Y2664644D01*
X40005000Y2855135D01*
X40042891Y2664644D01*
X40331985Y2231985D01*
X40764644Y1942891D01*
X41146174Y1867000D01*
X41403826Y1867000D01*
X41785356Y1942891D01*
X42218015Y2231985D01*
X42507109Y2664644D01*
X42545000Y2855135D01*
X42582891Y2664644D01*
X42871985Y2231985D01*
X43304644Y1942891D01*
X43686174Y1867000D01*
X43943826Y1867000D01*
X44325356Y1942891D01*
X44758015Y2231985D01*
X44963824Y2540000D01*
X45206176Y2540000D01*
X45411985Y2231985D01*
X45844644Y1942891D01*
X46226174Y1867000D01*
X46483826Y1867000D01*
X46865356Y1942891D01*
X47298015Y2231985D01*
X47587109Y2664644D01*
X47625000Y2855135D01*
X47662891Y2664644D01*
X47951985Y2231985D01*
X48384644Y1942891D01*
X48766174Y1867000D01*
X49023826Y1867000D01*
X49405356Y1942891D01*
X49838015Y2231985D01*
X50127109Y2664644D01*
X50165000Y2855135D01*
X50202891Y2664644D01*
X50491985Y2231985D01*
X50924644Y1942891D01*
X51306174Y1867000D01*
X51563826Y1867000D01*
X51945356Y1942891D01*
X52378015Y2231985D01*
X52667109Y2664644D01*
X52768625Y3175000D01*
X52667109Y3685356D01*
X52378015Y4118015D01*
X51945356Y4407109D01*
X51563826Y4483000D01*
X51306174Y4483000D01*
X50924644Y4407109D01*
X50491985Y4118015D01*
X50202891Y3685356D01*
X50165000Y3494865D01*
X50127109Y3685356D01*
X49838015Y4118015D01*
X49530000Y4323824D01*
X49530000Y9646176D01*
X49838015Y9851985D01*
X50127109Y10284644D01*
X50165000Y10475135D01*
X50202891Y10284644D01*
X50491985Y9851985D01*
X50924644Y9562891D01*
X51306174Y9487000D01*
X51563826Y9487000D01*
X51945356Y9562891D01*
X52220343Y9746632D01*
X52705000Y9261975D01*
X52705001Y6412542D01*
X52692561Y6350000D01*
X52741843Y6102236D01*
X52741844Y6102235D01*
X52882192Y5892191D01*
X52935212Y5856764D01*
X54751766Y4040209D01*
X54787191Y3987191D01*
X54840208Y3951766D01*
X54840210Y3951764D01*
X54997235Y3846843D01*
X55182459Y3810000D01*
X55182463Y3810000D01*
X55245000Y3797561D01*
X55306217Y3809738D01*
X55535937Y3465937D01*
X55985135Y3165793D01*
X56381253Y3087000D01*
X56648747Y3087000D01*
X57044865Y3165793D01*
X57494063Y3465937D01*
X57794207Y3915135D01*
X57899604Y4445000D01*
X57794207Y4974865D01*
X57494063Y5424063D01*
X57205240Y5617048D01*
X57365000Y5617048D01*
X57563212Y5656475D01*
X57731247Y5768753D01*
X57843525Y5936788D01*
X57882952Y6135000D01*
X57882952Y7835000D01*
X57843525Y8033212D01*
X57731247Y8201247D01*
X57563212Y8313525D01*
X57365000Y8352952D01*
X57150000Y8352952D01*
X57150000Y10281176D01*
X57458015Y10486985D01*
X57747109Y10919644D01*
X57848625Y11430000D01*
X57747109Y11940356D01*
X57458015Y12373015D01*
X57025356Y12662109D01*
X56834865Y12700000D01*
X60608083Y12700000D01*
X60219078Y12538869D01*
X59851131Y12170922D01*
X59652000Y11690177D01*
X59652000Y11169823D01*
X59851131Y10689078D01*
X60219078Y10321131D01*
X60325000Y10277257D01*
X60325001Y8352952D01*
X60110000Y8352952D01*
X59911788Y8313525D01*
X59743753Y8201247D01*
X59631475Y8033212D01*
X59592048Y7835000D01*
X59592048Y6135000D01*
X59631475Y5936788D01*
X59743753Y5768753D01*
X59911788Y5656475D01*
X60110000Y5617048D01*
X60325001Y5617048D01*
X60325000Y4611842D01*
X60098676Y4385518D01*
X59944000Y4012095D01*
X59944000Y3607905D01*
X60098676Y3234482D01*
X60384482Y2948676D01*
X60757905Y2794000D01*
X61162095Y2794000D01*
X61535518Y2948676D01*
X61821324Y3234482D01*
X61976000Y3607905D01*
X61976000Y4012095D01*
X61821324Y4385518D01*
X61595000Y4611842D01*
X61595000Y5617048D01*
X61810000Y5617048D01*
X62008212Y5656475D01*
X62176247Y5768753D01*
X62288525Y5936788D01*
X62327952Y6135000D01*
X62327952Y7835000D01*
X62288525Y8033212D01*
X62176247Y8201247D01*
X62008212Y8313525D01*
X61810000Y8352952D01*
X61595000Y8352952D01*
X61595000Y10277257D01*
X61700922Y10321131D01*
X62068869Y10689078D01*
X62268000Y11169823D01*
X62268000Y11690177D01*
X62068869Y12170922D01*
X61700922Y12538869D01*
X61311917Y12700000D01*
X62601976Y12700000D01*
X63466125Y11835850D01*
X63385396Y11430000D01*
X63490793Y10900135D01*
X63790937Y10450937D01*
X64226356Y10160000D01*
X63790937Y9869063D01*
X63490793Y9419865D01*
X63385396Y8890000D01*
X63490793Y8360135D01*
X63790937Y7910937D01*
X64226356Y7620000D01*
X63790937Y7329063D01*
X63490793Y6879865D01*
X63385396Y6350000D01*
X63490793Y5820135D01*
X63790937Y5370937D01*
X64240135Y5070793D01*
X64636253Y4992000D01*
X64903747Y4992000D01*
X65299865Y5070793D01*
X65749063Y5370937D01*
X66049207Y5820135D01*
X66154604Y6350000D01*
X66049207Y6879865D01*
X65749063Y7329063D01*
X65313644Y7620000D01*
X65749063Y7910937D01*
X66049207Y8360135D01*
X66154604Y8890000D01*
X66049207Y9419865D01*
X65749063Y9869063D01*
X65313644Y10160000D01*
X65749063Y10450937D01*
X66049207Y10900135D01*
X66154604Y11430000D01*
X66049207Y11959865D01*
X65749063Y12409063D01*
X65313644Y12700000D01*
X65749063Y12990937D01*
X66049207Y13440135D01*
X66154604Y13970000D01*
X66049207Y14499865D01*
X65749063Y14949063D01*
X65313644Y15240000D01*
X65749063Y15530937D01*
X66049207Y15980135D01*
X66154604Y16510000D01*
X66049207Y17039865D01*
X65749063Y17489063D01*
X65313644Y17780000D01*
X65749063Y18070937D01*
X66049207Y18520135D01*
X66154604Y19050000D01*
X66049207Y19579865D01*
X65749063Y20029063D01*
X65313644Y20320000D01*
X65749063Y20610937D01*
X66049207Y21060135D01*
X66154604Y21590000D01*
X66049207Y22119865D01*
X65749063Y22569063D01*
X65313644Y22860000D01*
X65749063Y23150937D01*
X66049207Y23600135D01*
X66154604Y24130000D01*
X66049207Y24659865D01*
X65749063Y25109063D01*
X65299865Y25409207D01*
X65282933Y25412575D01*
X65539245Y25518743D01*
X65921257Y25900755D01*
X66128000Y26399877D01*
X66128000Y26940123D01*
X65921257Y27439245D01*
X65539245Y27821257D01*
X65040123Y28028000D01*
X64499877Y28028000D01*
X64000755Y27821257D01*
X63618743Y27439245D01*
X63412000Y26940123D01*
X63412000Y26845025D01*
X63236975Y26670000D01*
X58683026Y26670000D01*
X57008238Y28344786D01*
X56972809Y28397809D01*
X56762765Y28538157D01*
X56577541Y28575000D01*
X56577537Y28575000D01*
X56515000Y28587439D01*
X56454187Y28575343D01*
X56524207Y28680135D01*
X56629604Y29210000D01*
X56524207Y29739865D01*
X56224063Y30189063D01*
X55788644Y30480000D01*
X56224063Y30770937D01*
X56524207Y31220135D01*
X56629604Y31750000D01*
X56524207Y32279865D01*
X56224063Y32729063D01*
X55774865Y33029207D01*
X55378747Y33108000D01*
X55111253Y33108000D01*
X54715135Y33029207D01*
X54265937Y32729063D01*
X53965793Y32279865D01*
X53860396Y31750000D01*
X53924302Y31428722D01*
X53198238Y32154786D01*
X53162809Y32207809D01*
X52952765Y32348157D01*
X52767541Y32385000D01*
X52767537Y32385000D01*
X52705000Y32397439D01*
X52642463Y32385000D01*
X52583824Y32385000D01*
X52378015Y32693015D01*
X51945356Y32982109D01*
X51754865Y33020000D01*
X51945356Y33057891D01*
X52378015Y33346985D01*
X52583824Y33655000D01*
X67046975Y33655000D01*
X67310001Y33391974D01*
X67310000Y23557537D01*
X67297561Y23495000D01*
X67310000Y23432463D01*
X67310000Y23432460D01*
X67346843Y23247236D01*
X67487191Y23037191D01*
X67540214Y23001762D01*
X71086125Y19455850D01*
X71005396Y19050000D01*
X71110793Y18520135D01*
X71410937Y18070937D01*
X71846356Y17780000D01*
X71410937Y17489063D01*
X71110793Y17039865D01*
X71005396Y16510000D01*
X71110793Y15980135D01*
X71410937Y15530937D01*
X71846356Y15240000D01*
X71410937Y14949063D01*
X71110793Y14499865D01*
X71005396Y13970000D01*
X71110793Y13440135D01*
X71410937Y12990937D01*
X71846356Y12700000D01*
X71410937Y12409063D01*
X71110793Y11959865D01*
X71005396Y11430000D01*
X71110793Y10900135D01*
X71410937Y10450937D01*
X71846356Y10160000D01*
X71410937Y9869063D01*
X71110793Y9419865D01*
X71005396Y8890000D01*
X71110793Y8360135D01*
X71410937Y7910937D01*
X71846356Y7620000D01*
X71410937Y7329063D01*
X71110793Y6879865D01*
X71005396Y6350000D01*
X71110793Y5820135D01*
X71410937Y5370937D01*
X71860135Y5070793D01*
X72256253Y4992000D01*
X72523747Y4992000D01*
X72919865Y5070793D01*
X73369063Y5370937D01*
X73669207Y5820135D01*
X73774604Y6350000D01*
X73669207Y6879865D01*
X73369063Y7329063D01*
X72933644Y7620000D01*
X73369063Y7910937D01*
X73669207Y8360135D01*
X73774604Y8890000D01*
X73669207Y9419865D01*
X73369063Y9869063D01*
X72933644Y10160000D01*
X73369063Y10450937D01*
X73669207Y10900135D01*
X73774604Y11430000D01*
X73669207Y11959865D01*
X73369063Y12409063D01*
X72933644Y12700000D01*
X73369063Y12990937D01*
X73669207Y13440135D01*
X73774604Y13970000D01*
X73669207Y14499865D01*
X73369063Y14949063D01*
X72933644Y15240000D01*
X73369063Y15530937D01*
X73669207Y15980135D01*
X73774604Y16510000D01*
X73669207Y17039865D01*
X73369063Y17489063D01*
X72933644Y17780000D01*
X73369063Y18070937D01*
X73669207Y18520135D01*
X73774604Y19050000D01*
X73669207Y19579865D01*
X73369063Y20029063D01*
X72933644Y20320000D01*
X73369063Y20610937D01*
X73669207Y21060135D01*
X73774604Y21590000D01*
X73669207Y22119865D01*
X73369063Y22569063D01*
X72933644Y22860000D01*
X73369063Y23150937D01*
X73669207Y23600135D01*
X73774604Y24130000D01*
X73669207Y24659865D01*
X73369063Y25109063D01*
X73048992Y25322928D01*
X73174080Y25374741D01*
X73254353Y25626042D01*
X72390000Y26490395D01*
X72375858Y26476252D01*
X72196253Y26655857D01*
X72210395Y26670000D01*
X72569605Y26670000D01*
X73433958Y25805647D01*
X73685259Y25885920D01*
X73886718Y26441279D01*
X73860315Y27031458D01*
X73685259Y27454080D01*
X73433958Y27534353D01*
X72569605Y26670000D01*
X72210395Y26670000D01*
X71346042Y27534353D01*
X71094741Y27454080D01*
X70893282Y26898721D01*
X70910796Y26507228D01*
X69850000Y27568024D01*
X69850000Y27713958D01*
X71525647Y27713958D01*
X72390000Y26849605D01*
X73254353Y27713958D01*
X73174080Y27965259D01*
X72618721Y28166718D01*
X72028542Y28140315D01*
X71605920Y27965259D01*
X71525647Y27713958D01*
X69850000Y27713958D01*
X69850000Y34862463D01*
X69862439Y34925000D01*
X69850000Y34987537D01*
X69850000Y34987541D01*
X69813157Y35172765D01*
X69772899Y35233015D01*
X69708236Y35329790D01*
X69708234Y35329792D01*
X69672809Y35382809D01*
X69619792Y35418234D01*
X67803238Y37234786D01*
X67767809Y37287809D01*
X67557765Y37428157D01*
X67372541Y37465000D01*
X67557765Y37501843D01*
X67767809Y37642191D01*
X67803238Y37695214D01*
X68843025Y38735000D01*
X71181042Y38735000D01*
X71410937Y38390937D01*
X71860135Y38090793D01*
X72256253Y38012000D01*
X72523747Y38012000D01*
X72919865Y38090793D01*
X73369063Y38390937D01*
X73669207Y38840135D01*
X73774604Y39370000D01*
X73669207Y39899865D01*
X73369063Y40349063D01*
X72933644Y40640000D01*
X73369063Y40930937D01*
X73669207Y41380135D01*
X73774604Y41910000D01*
X73669207Y42439865D01*
X73369063Y42889063D01*
X72919865Y43189207D01*
X72902933Y43192575D01*
X73159245Y43298743D01*
X73541257Y43680755D01*
X73748000Y44179877D01*
X73748000Y44720123D01*
X73541257Y45219245D01*
X73159245Y45601257D01*
X72660123Y45808000D01*
X72119877Y45808000D01*
X71620755Y45601257D01*
X71238743Y45219245D01*
X71032000Y44720123D01*
X71032000Y44179877D01*
X71238743Y43680755D01*
X71620755Y43298743D01*
X71877067Y43192575D01*
X71860135Y43189207D01*
X71410937Y42889063D01*
X71110793Y42439865D01*
X71005396Y41910000D01*
X71110793Y41380135D01*
X71410937Y40930937D01*
X71846356Y40640000D01*
X71410937Y40349063D01*
X71181042Y40005000D01*
X68642536Y40005000D01*
X68579999Y40017439D01*
X68517462Y40005000D01*
X68517459Y40005000D01*
X68332235Y39968157D01*
X68122191Y39827809D01*
X68086765Y39774790D01*
X67046976Y38735000D01*
X59318026Y38735000D01*
X56548875Y41504149D01*
X56629604Y41910000D01*
X56524207Y42439865D01*
X56224063Y42889063D01*
X55774865Y43189207D01*
X55378747Y43268000D01*
X55111253Y43268000D01*
X54715135Y43189207D01*
X54265937Y42889063D01*
X53975000Y42453644D01*
X53975000Y42482463D01*
X53987439Y42545000D01*
X53975000Y42607537D01*
X53975000Y42607541D01*
X53938157Y42792765D01*
X53897899Y42853015D01*
X53833236Y42949790D01*
X53833234Y42949792D01*
X53797809Y43002809D01*
X53744792Y43038234D01*
X52696354Y44086671D01*
X52768625Y44450000D01*
X52667109Y44960356D01*
X52378015Y45393015D01*
X51952080Y45677616D01*
X52290134Y45837611D01*
X52666041Y46252577D01*
X52826904Y46640961D01*
X52704915Y46863000D01*
X51562000Y46863000D01*
X51562000Y46843000D01*
X51308000Y46843000D01*
X51308000Y46863000D01*
X50165085Y46863000D01*
X50043096Y46640961D01*
X50203959Y46252577D01*
X50579866Y45837611D01*
X50917920Y45677616D01*
X50491985Y45393015D01*
X50202891Y44960356D01*
X50101375Y44450000D01*
X50202891Y43939644D01*
X50491985Y43506985D01*
X50924644Y43217891D01*
X51115135Y43180000D01*
X50924644Y43142109D01*
X50491985Y42853015D01*
X50202891Y42420356D01*
X50101375Y41910000D01*
X50202891Y41399644D01*
X50491985Y40966985D01*
X50924644Y40677891D01*
X51115135Y40640000D01*
X50924644Y40602109D01*
X50491985Y40313015D01*
X50202891Y39880356D01*
X50101375Y39370000D01*
X50202891Y38859644D01*
X50286176Y38735000D01*
X47687537Y38735000D01*
X47625000Y38747439D01*
X47562463Y38735000D01*
X47562459Y38735000D01*
X47377235Y38698157D01*
X47220210Y38593236D01*
X47220209Y38593235D01*
X47167191Y38557809D01*
X47131766Y38504792D01*
X43932976Y35306000D01*
X43612905Y35306000D01*
X43239482Y35151324D01*
X43180000Y35091842D01*
X43120518Y35151324D01*
X42747095Y35306000D01*
X42342905Y35306000D01*
X41969482Y35151324D01*
X41683676Y34865518D01*
X41529000Y34492095D01*
X41529000Y34299024D01*
X38593238Y37234786D01*
X38557809Y37287809D01*
X38347765Y37428157D01*
X38162541Y37465000D01*
X38162537Y37465000D01*
X38100000Y37477439D01*
X38037463Y37465000D01*
X37343824Y37465000D01*
X37138015Y37773015D01*
X36705356Y38062109D01*
X36514865Y38100000D01*
X36705356Y38137891D01*
X37138015Y38426985D01*
X37427109Y38859644D01*
X37528625Y39370000D01*
X37427109Y39880356D01*
X37138015Y40313015D01*
X36705356Y40602109D01*
X36514865Y40640000D01*
X36705356Y40677891D01*
X37138015Y40966985D01*
X37427109Y41399644D01*
X37528625Y41910000D01*
X37427109Y42420356D01*
X37138015Y42853015D01*
X36705356Y43142109D01*
X36514865Y43180000D01*
X38791375Y43180000D01*
X38892891Y42669644D01*
X39181985Y42236985D01*
X39614644Y41947891D01*
X39996174Y41872000D01*
X40253826Y41872000D01*
X40635356Y41947891D01*
X40971139Y42172255D01*
X46796861Y42172255D01*
X46870995Y41926136D01*
X47408223Y41733035D01*
X47978454Y41760222D01*
X48379005Y41926136D01*
X48453139Y42172255D01*
X47625000Y43000395D01*
X46796861Y42172255D01*
X40971139Y42172255D01*
X41068015Y42236985D01*
X41357109Y42669644D01*
X41458625Y43180000D01*
X41415506Y43396777D01*
X46178035Y43396777D01*
X46205222Y42826546D01*
X46371136Y42425995D01*
X46617255Y42351861D01*
X47445395Y43180000D01*
X47804605Y43180000D01*
X48632745Y42351861D01*
X48878864Y42425995D01*
X49071965Y42963223D01*
X49044778Y43533454D01*
X48878864Y43934005D01*
X48632745Y44008139D01*
X47804605Y43180000D01*
X47445395Y43180000D01*
X46617255Y44008139D01*
X46371136Y43934005D01*
X46178035Y43396777D01*
X41415506Y43396777D01*
X41357109Y43690356D01*
X41068015Y44123015D01*
X40971140Y44187745D01*
X46796861Y44187745D01*
X47625000Y43359605D01*
X48453139Y44187745D01*
X48379005Y44433864D01*
X47841777Y44626965D01*
X47271546Y44599778D01*
X46870995Y44433864D01*
X46796861Y44187745D01*
X40971140Y44187745D01*
X40635356Y44412109D01*
X40253826Y44488000D01*
X39996174Y44488000D01*
X39614644Y44412109D01*
X39181985Y44123015D01*
X38892891Y43690356D01*
X38791375Y43180000D01*
X36514865Y43180000D01*
X36705356Y43217891D01*
X37138015Y43506985D01*
X37427109Y43939644D01*
X37528625Y44450000D01*
X37427109Y44960356D01*
X37138015Y45393015D01*
X36720413Y45672048D01*
X36995000Y45672048D01*
X37193212Y45711475D01*
X37361247Y45823753D01*
X37473525Y45991788D01*
X37512952Y46190000D01*
X37512952Y47339039D01*
X50043096Y47339039D01*
X50165085Y47117000D01*
X51308000Y47117000D01*
X51308000Y48260629D01*
X51562000Y48260629D01*
X51562000Y47117000D01*
X52704915Y47117000D01*
X52805043Y47299250D01*
X57620000Y47299250D01*
X57620000Y46658691D01*
X57716673Y46425302D01*
X57895301Y46246673D01*
X58128690Y46150000D01*
X58270209Y46150000D01*
X57946131Y45825922D01*
X57747000Y45345177D01*
X57747000Y44824823D01*
X57946131Y44344078D01*
X58314078Y43976131D01*
X58794823Y43777000D01*
X59315177Y43777000D01*
X59795922Y43976131D01*
X60163869Y44344078D01*
X60363000Y44824823D01*
X60363000Y45345177D01*
X60163869Y45825922D01*
X59839791Y46150000D01*
X59981310Y46150000D01*
X60214699Y46246673D01*
X60393327Y46425302D01*
X60490000Y46658691D01*
X60490000Y47299250D01*
X60331250Y47458000D01*
X59182000Y47458000D01*
X59182000Y47438000D01*
X58928000Y47438000D01*
X58928000Y47458000D01*
X57778750Y47458000D01*
X57620000Y47299250D01*
X52805043Y47299250D01*
X52826904Y47339039D01*
X52666041Y47727423D01*
X52290134Y48142389D01*
X51784041Y48381914D01*
X51562000Y48260629D01*
X51308000Y48260629D01*
X51085959Y48381914D01*
X50579866Y48142389D01*
X50203959Y47727423D01*
X50043096Y47339039D01*
X37512952Y47339039D01*
X37512952Y47790000D01*
X37473525Y47988212D01*
X37361247Y48156247D01*
X37193212Y48268525D01*
X36995000Y48307952D01*
X35395000Y48307952D01*
X35196788Y48268525D01*
X35028753Y48156247D01*
X34916475Y47988212D01*
X34877048Y47790000D01*
X34877048Y46190000D01*
X34916475Y45991788D01*
X35028753Y45823753D01*
X35196788Y45711475D01*
X35395000Y45672048D01*
X35669587Y45672048D01*
X35251985Y45393015D01*
X35046176Y45085000D01*
X32447537Y45085000D01*
X32385000Y45097439D01*
X32322463Y45085000D01*
X32322459Y45085000D01*
X32137235Y45048157D01*
X31980210Y44943236D01*
X31980209Y44943235D01*
X31927191Y44907809D01*
X31891766Y44854791D01*
X30075214Y43038238D01*
X30022191Y43002809D01*
X29881843Y42792764D01*
X29845000Y42607540D01*
X29845000Y42607537D01*
X29832561Y42545000D01*
X29845000Y42482463D01*
X29845001Y41441843D01*
X29618676Y41215518D01*
X29591139Y41149038D01*
X29457765Y41238157D01*
X29272541Y41275000D01*
X29272537Y41275000D01*
X29210000Y41287439D01*
X29147463Y41275000D01*
X29088824Y41275000D01*
X29172109Y41399644D01*
X29273625Y41910000D01*
X29172109Y42420356D01*
X28883015Y42853015D01*
X28457080Y43137616D01*
X28795134Y43297611D01*
X29171041Y43712577D01*
X29331904Y44100961D01*
X29209915Y44323000D01*
X28067000Y44323000D01*
X28067000Y44303000D01*
X27813000Y44303000D01*
X27813000Y44323000D01*
X26670085Y44323000D01*
X26548096Y44100961D01*
X26708959Y43712577D01*
X27084866Y43297611D01*
X27422920Y43137616D01*
X26996985Y42853015D01*
X26791176Y42545000D01*
X25028025Y42545000D01*
X23988238Y43584786D01*
X23952809Y43637809D01*
X23742765Y43778157D01*
X23557541Y43815000D01*
X23557537Y43815000D01*
X23495000Y43827439D01*
X23432463Y43815000D01*
X21637952Y43815000D01*
X21637952Y44799039D01*
X26548096Y44799039D01*
X26670085Y44577000D01*
X27813000Y44577000D01*
X27813000Y45720629D01*
X28067000Y45720629D01*
X28067000Y44577000D01*
X29209915Y44577000D01*
X29331904Y44799039D01*
X29171041Y45187423D01*
X28795134Y45602389D01*
X28289041Y45841914D01*
X28067000Y45720629D01*
X27813000Y45720629D01*
X27590959Y45841914D01*
X27084866Y45602389D01*
X26708959Y45187423D01*
X26548096Y44799039D01*
X21637952Y44799039D01*
X21637952Y45250000D01*
X21598525Y45448212D01*
X21486247Y45616247D01*
X21318212Y45728525D01*
X21120000Y45767952D01*
X19520000Y45767952D01*
X19321788Y45728525D01*
X19153753Y45616247D01*
X19041475Y45448212D01*
X19002048Y45250000D01*
X19002048Y43815000D01*
X18477535Y43815000D01*
X18414999Y43827439D01*
X18352464Y43815000D01*
X18352459Y43815000D01*
X18167235Y43778157D01*
X17957191Y43637809D01*
X17921764Y43584789D01*
X15611976Y41275000D01*
X15118824Y41275000D01*
X15202109Y41399644D01*
X15303625Y41910000D01*
X15202109Y42420356D01*
X14913015Y42853015D01*
X14487080Y43137616D01*
X14825134Y43297611D01*
X15201041Y43712577D01*
X15361904Y44100961D01*
X15239915Y44323000D01*
X14097000Y44323000D01*
X14097000Y44303000D01*
X13843000Y44303000D01*
X13843000Y44323000D01*
X13823000Y44323000D01*
X13823000Y44577000D01*
X13843000Y44577000D01*
X13843000Y45720629D01*
X14097000Y45720629D01*
X14097000Y44577000D01*
X15239915Y44577000D01*
X15361904Y44799039D01*
X15201041Y45187423D01*
X14825134Y45602389D01*
X14319041Y45841914D01*
X14097000Y45720629D01*
X13843000Y45720629D01*
X13620959Y45841914D01*
X13114866Y45602389D01*
X12742820Y45191685D01*
X12725259Y45234080D01*
X12473958Y45314353D01*
X11609605Y44450000D01*
X11623748Y44435857D01*
X11444143Y44256252D01*
X11430000Y44270395D01*
X11415858Y44256252D01*
X11236253Y44435857D01*
X11250395Y44450000D01*
X10386042Y45314353D01*
X10134741Y45234080D01*
X9933282Y44678721D01*
X9959685Y44088542D01*
X10134741Y43665920D01*
X10317060Y43607682D01*
X10301764Y43584788D01*
X9120214Y42403238D01*
X9067191Y42367809D01*
X8926843Y42157764D01*
X8890000Y41972540D01*
X8890000Y42482463D01*
X8902439Y42545000D01*
X8890000Y42607537D01*
X8890000Y42607541D01*
X8853157Y42792765D01*
X8812899Y42853015D01*
X8748236Y42949790D01*
X8748234Y42949792D01*
X8712809Y43002809D01*
X8659791Y43038234D01*
X7667952Y44030073D01*
X7667952Y45250000D01*
X7628525Y45448212D01*
X7597959Y45493958D01*
X10565647Y45493958D01*
X11430000Y44629605D01*
X12294353Y45493958D01*
X12214080Y45745259D01*
X11658721Y45946718D01*
X11068542Y45920315D01*
X10645920Y45745259D01*
X10565647Y45493958D01*
X7597959Y45493958D01*
X7516247Y45616247D01*
X7348212Y45728525D01*
X7150000Y45767952D01*
X5550000Y45767952D01*
X5351788Y45728525D01*
X5183753Y45616247D01*
X5071475Y45448212D01*
X5032048Y45250000D01*
X5032048Y45048340D01*
X4961257Y45219245D01*
X4579245Y45601257D01*
X4080123Y45808000D01*
X3539877Y45808000D01*
X3040755Y45601257D01*
X2658743Y45219245D01*
X2452000Y44720123D01*
X2452000Y44179877D01*
X2658743Y43680755D01*
X3040755Y43298743D01*
X3297067Y43192575D01*
X3280135Y43189207D01*
X2830937Y42889063D01*
X2530793Y42439865D01*
X2425396Y41910000D01*
X583000Y41910000D01*
X583000Y47625000D01*
X5136375Y47625000D01*
X5237891Y47114644D01*
X5526985Y46681985D01*
X5959644Y46392891D01*
X6341174Y46317000D01*
X6598826Y46317000D01*
X6980356Y46392891D01*
X7316139Y46617255D01*
X13141861Y46617255D01*
X13215995Y46371136D01*
X13753223Y46178035D01*
X14323454Y46205222D01*
X14724005Y46371136D01*
X14798139Y46617255D01*
X13970000Y47445395D01*
X13141861Y46617255D01*
X7316139Y46617255D01*
X7413015Y46681985D01*
X7702109Y47114644D01*
X7803625Y47625000D01*
X7760506Y47841777D01*
X12523035Y47841777D01*
X12550222Y47271546D01*
X12716136Y46870995D01*
X12962255Y46796861D01*
X13790395Y47625000D01*
X14149605Y47625000D01*
X14977745Y46796861D01*
X15223864Y46870995D01*
X15416965Y47408223D01*
X15406630Y47625000D01*
X19106375Y47625000D01*
X19207891Y47114644D01*
X19496985Y46681985D01*
X19929644Y46392891D01*
X20311174Y46317000D01*
X20568826Y46317000D01*
X20950356Y46392891D01*
X21286139Y46617255D01*
X27111861Y46617255D01*
X27185995Y46371136D01*
X27723223Y46178035D01*
X28293454Y46205222D01*
X28694005Y46371136D01*
X28768139Y46617255D01*
X27940000Y47445395D01*
X27111861Y46617255D01*
X21286139Y46617255D01*
X21383015Y46681985D01*
X21672109Y47114644D01*
X21773625Y47625000D01*
X21730506Y47841777D01*
X26493035Y47841777D01*
X26520222Y47271546D01*
X26686136Y46870995D01*
X26932255Y46796861D01*
X27760395Y47625000D01*
X28119605Y47625000D01*
X28947745Y46796861D01*
X29193864Y46870995D01*
X29386965Y47408223D01*
X29359778Y47978454D01*
X29193864Y48379005D01*
X28947745Y48453139D01*
X28119605Y47625000D01*
X27760395Y47625000D01*
X26932255Y48453139D01*
X26686136Y48379005D01*
X26493035Y47841777D01*
X21730506Y47841777D01*
X21672109Y48135356D01*
X21383015Y48568015D01*
X20950356Y48857109D01*
X20568826Y48933000D01*
X20311174Y48933000D01*
X19929644Y48857109D01*
X19496985Y48568015D01*
X19207891Y48135356D01*
X19106375Y47625000D01*
X15406630Y47625000D01*
X15389778Y47978454D01*
X15223864Y48379005D01*
X14977745Y48453139D01*
X14149605Y47625000D01*
X13790395Y47625000D01*
X12962255Y48453139D01*
X12716136Y48379005D01*
X12523035Y47841777D01*
X7760506Y47841777D01*
X7702109Y48135356D01*
X7413015Y48568015D01*
X6980356Y48857109D01*
X6598826Y48933000D01*
X6341174Y48933000D01*
X5959644Y48857109D01*
X5526985Y48568015D01*
X5237891Y48135356D01*
X5136375Y47625000D01*
X583000Y47625000D01*
X583000Y48208995D01*
X632882Y48491892D01*
X750617Y48695813D01*
X930996Y48847170D01*
X1176740Y48936613D01*
X1295459Y48947000D01*
X13380490Y48947000D01*
X13215995Y48878864D01*
X13215995Y48878864D01*
G37*
X13215995Y48878864D02*
X13141861Y48632745D01*
X13970000Y47804605D01*
X14798139Y48632745D01*
X14724005Y48878864D01*
X14534443Y48947000D01*
X27350490Y48947000D01*
X27185995Y48878864D01*
X27111861Y48632745D01*
X27940000Y47804605D01*
X28768139Y48632745D01*
X28694005Y48878864D01*
X28504443Y48947000D01*
X57952453Y48947000D01*
X57895301Y48923327D01*
X57716673Y48744698D01*
X57620000Y48511309D01*
X57620000Y47870750D01*
X57778750Y47712000D01*
X58928000Y47712000D01*
X58928000Y47732000D01*
X59182000Y47732000D01*
X59182000Y47712000D01*
X60331250Y47712000D01*
X60490000Y47870750D01*
X60490000Y48511309D01*
X60393327Y48744698D01*
X60214699Y48923327D01*
X60157547Y48947000D01*
X74878995Y48947000D01*
X75161892Y48897118D01*
X75365813Y48779383D01*
X75517170Y48599004D01*
X75606613Y48353260D01*
X75617000Y48234541D01*
X75617001Y1321012D01*
X75567118Y1038108D01*
X75449383Y834187D01*
X75269004Y682830D01*
X75023260Y593387D01*
X74904541Y583000D01*
X1321006Y583000D01*
X1038108Y632882D01*
X834187Y750617D01*
X682830Y930996D01*
X593387Y1176740D01*
X583000Y1295459D01*
X583000Y11011777D01*
X7443035Y11011777D01*
X7470222Y10441546D01*
X7636136Y10040995D01*
X7882255Y9966861D01*
X8710395Y10795000D01*
X9069605Y10795000D01*
X9897745Y9966861D01*
X10143864Y10040995D01*
X10336965Y10578223D01*
X10309778Y11148454D01*
X10143864Y11549005D01*
X9897745Y11623139D01*
X9069605Y10795000D01*
X8710395Y10795000D01*
X7882255Y11623139D01*
X7636136Y11549005D01*
X7443035Y11011777D01*
X583000Y11011777D01*
X583000Y11802745D01*
X8061861Y11802745D01*
X8890000Y10974605D01*
X9718139Y11802745D01*
X9644005Y12048864D01*
X9106777Y12241965D01*
X8536546Y12214778D01*
X8135995Y12048864D01*
X8061861Y11802745D01*
X583000Y11802745D01*
X583000Y41910000D01*
X2425396Y41910000D01*
X2530793Y41380135D01*
X2830937Y40930937D01*
X3266356Y40640000D01*
X2830937Y40349063D01*
X2530793Y39899865D01*
X2425396Y39370000D01*
X2530793Y38840135D01*
X2830937Y38390937D01*
X3266356Y38100000D01*
X2830937Y37809063D01*
X2530793Y37359865D01*
X2425396Y36830000D01*
X2530793Y36300135D01*
X2830937Y35850937D01*
X3266356Y35560000D01*
X2830937Y35269063D01*
X2530793Y34819865D01*
X2425396Y34290000D01*
X2530793Y33760135D01*
X2830937Y33310937D01*
X3266356Y33020000D01*
X2830937Y32729063D01*
X2530793Y32279865D01*
X2425396Y31750000D01*
X2530793Y31220135D01*
X2830937Y30770937D01*
X3266356Y30480000D01*
X2830937Y30189063D01*
X2530793Y29739865D01*
X2425396Y29210000D01*
X2530793Y28680135D01*
X2830937Y28230937D01*
X3266356Y27940000D01*
X2830937Y27649063D01*
X2530793Y27199865D01*
X2425396Y26670000D01*
X2530793Y26140135D01*
X2830937Y25690937D01*
X3266356Y25400000D01*
X2830937Y25109063D01*
X2530793Y24659865D01*
X2425396Y24130000D01*
X2530793Y23600135D01*
X2830937Y23150937D01*
X3266356Y22860000D01*
X2830937Y22569063D01*
X2530793Y22119865D01*
X2425396Y21590000D01*
X2530793Y21060135D01*
X2830937Y20610937D01*
X3280135Y20310793D01*
X3676253Y20232000D01*
X3943747Y20232000D01*
X4339865Y20310793D01*
X4789063Y20610937D01*
X5089207Y21060135D01*
X5105489Y21141992D01*
X5117891Y21079644D01*
X5406985Y20646985D01*
X5839644Y20357891D01*
X6221174Y20282000D01*
X6478826Y20282000D01*
X6860356Y20357891D01*
X7293015Y20646985D01*
X7582109Y21079644D01*
X7683625Y21590000D01*
X7582109Y22100356D01*
X7399683Y22373375D01*
X7442809Y22402191D01*
X7478238Y22455214D01*
X8659790Y23636765D01*
X8712809Y23672191D01*
X8853157Y23882235D01*
X8890000Y24067459D01*
X8890000Y24067462D01*
X8890001Y24067467D01*
X8890001Y23557542D01*
X8877561Y23495000D01*
X8926843Y23247236D01*
X8926844Y23247235D01*
X9067192Y23037191D01*
X9120212Y23001764D01*
X10126125Y21995850D01*
X10045396Y21590000D01*
X10150793Y21060135D01*
X10450937Y20610937D01*
X10795001Y20381041D01*
X10795001Y19747545D01*
X10782560Y19685000D01*
X10795000Y19622459D01*
X10795000Y19112537D01*
X10782561Y19050000D01*
X10795000Y18987463D01*
X10795000Y18987460D01*
X10831843Y18802236D01*
X10972191Y18592191D01*
X11025214Y18556762D01*
X11684000Y17897975D01*
X11684000Y17577905D01*
X11838676Y17204482D01*
X11898158Y17145000D01*
X7248025Y17145000D01*
X6979125Y17413900D01*
X7023000Y17519823D01*
X7023000Y18040177D01*
X6823869Y18520922D01*
X6455922Y18888869D01*
X5975177Y19088000D01*
X5454823Y19088000D01*
X4974078Y18888869D01*
X4606131Y18520922D01*
X4407000Y18040177D01*
X4407000Y17519823D01*
X4606131Y17039078D01*
X4974078Y16671131D01*
X5454823Y16472000D01*
X5975177Y16472000D01*
X6081100Y16515875D01*
X6491764Y16105212D01*
X6527191Y16052191D01*
X6737235Y15911843D01*
X6922459Y15875000D01*
X6922462Y15875000D01*
X6984999Y15862561D01*
X7047536Y15875000D01*
X11898158Y15875000D01*
X11838676Y15815518D01*
X11684000Y15442095D01*
X11684000Y15037905D01*
X11838676Y14664482D01*
X12065001Y14438157D01*
X12065001Y14032541D01*
X12052561Y13970000D01*
X12101843Y13722236D01*
X12101844Y13722235D01*
X12242192Y13512191D01*
X12295212Y13476764D01*
X13884967Y11887007D01*
X13821625Y11844683D01*
X13792809Y11887809D01*
X13739789Y11923236D01*
X10653238Y15009786D01*
X10617809Y15062809D01*
X10407765Y15203157D01*
X10222541Y15240000D01*
X10222537Y15240000D01*
X10160000Y15252439D01*
X10097463Y15240000D01*
X6867743Y15240000D01*
X6823869Y15345922D01*
X6455922Y15713869D01*
X5975177Y15913000D01*
X5454823Y15913000D01*
X4974078Y15713869D01*
X4606131Y15345922D01*
X4407000Y14865177D01*
X4407000Y14344823D01*
X4606131Y13864078D01*
X4974078Y13496131D01*
X5454823Y13297000D01*
X5975177Y13297000D01*
X6455922Y13496131D01*
X6823869Y13864078D01*
X6867743Y13970000D01*
X9896976Y13970000D01*
X11690583Y12176393D01*
X11327577Y12026041D01*
X10912611Y11650134D01*
X10673086Y11144041D01*
X10794371Y10922000D01*
X11938000Y10922000D01*
X11938000Y10942000D01*
X12192000Y10942000D01*
X12192000Y10922000D01*
X12212000Y10922000D01*
X12212000Y10668000D01*
X12192000Y10668000D01*
X12192000Y10648000D01*
X11938000Y10648000D01*
X11938000Y10668000D01*
X10794371Y10668000D01*
X10673086Y10445959D01*
X10912611Y9939866D01*
X11327577Y9563959D01*
X11421639Y9525000D01*
X9605049Y9525000D01*
X9644005Y9541136D01*
X9718139Y9787255D01*
X8890000Y10615395D01*
X8061861Y9787255D01*
X8135995Y9541136D01*
X8180887Y9525000D01*
X5016863Y9525000D01*
X4961257Y9659245D01*
X4579245Y10041257D01*
X4080123Y10248000D01*
X3539877Y10248000D01*
X3040755Y10041257D01*
X2658743Y9659245D01*
X2452000Y9160123D01*
X2452000Y8619877D01*
X2658743Y8120755D01*
X3040755Y7738743D01*
X3297067Y7632575D01*
X3280135Y7629207D01*
X2830937Y7329063D01*
X2530793Y6879865D01*
X2425396Y6350000D01*
X2530793Y5820135D01*
X2830937Y5370937D01*
X3266356Y5080000D01*
X2830937Y4789063D01*
X2530793Y4339865D01*
X2425396Y3810000D01*
X2530793Y3280135D01*
X2830937Y2830937D01*
X3280135Y2530793D01*
X3676253Y2452000D01*
X3943747Y2452000D01*
X4339865Y2530793D01*
X4789063Y2830937D01*
X5089207Y3280135D01*
X5092163Y3295000D01*
X7556375Y3295000D01*
X7657891Y2784644D01*
X7946985Y2351985D01*
X8379644Y2062891D01*
X8761174Y1987000D01*
X9018826Y1987000D01*
X9400356Y2062891D01*
X9833015Y2351985D01*
X10122109Y2784644D01*
X10223625Y3295000D01*
X10122109Y3805356D01*
X9833015Y4238015D01*
X9400356Y4527109D01*
X9018826Y4603000D01*
X8761174Y4603000D01*
X8379644Y4527109D01*
X7946985Y4238015D01*
X7657891Y3805356D01*
X7556375Y3295000D01*
X5092163Y3295000D01*
X5194604Y3810000D01*
X5113875Y4215851D01*
X7375025Y6477000D01*
X11644158Y6477000D01*
X11870482Y6250676D01*
X12243905Y6096000D01*
X12648095Y6096000D01*
X13021518Y6250676D01*
X13307324Y6536482D01*
X13462000Y6909905D01*
X13462000Y6985000D01*
X13537095Y6985000D01*
X13910518Y7139676D01*
X13970001Y7199159D01*
X13970000Y4323825D01*
X13661985Y4118015D01*
X13382952Y3700413D01*
X13382952Y3975000D01*
X13343525Y4173212D01*
X13231247Y4341247D01*
X13063212Y4453525D01*
X12865000Y4492952D01*
X11265000Y4492952D01*
X11066788Y4453525D01*
X10898753Y4341247D01*
X10786475Y4173212D01*
X10747048Y3975000D01*
X10747048Y2375000D01*
X10786475Y2176788D01*
X10898753Y2008753D01*
X11066788Y1896475D01*
X11265000Y1857048D01*
X12865000Y1857048D01*
X13063212Y1896475D01*
X13231247Y2008753D01*
X13343525Y2176788D01*
X13382952Y2375000D01*
X13382952Y2649587D01*
X13661985Y2231985D01*
X14094644Y1942891D01*
X14476174Y1867000D01*
X14733826Y1867000D01*
X15115356Y1942891D01*
X15548015Y2231985D01*
X15837109Y2664644D01*
X15875000Y2855135D01*
X15912891Y2664644D01*
X16201985Y2231985D01*
X16634644Y1942891D01*
X17016174Y1867000D01*
X17273826Y1867000D01*
X17655356Y1942891D01*
X18088015Y2231985D01*
X18377109Y2664644D01*
X18415000Y2855135D01*
X18452891Y2664644D01*
X18741985Y2231985D01*
X19174644Y1942891D01*
X19556174Y1867000D01*
X19813826Y1867000D01*
X20195356Y1942891D01*
X20628015Y2231985D01*
X20917109Y2664644D01*
X20955000Y2855135D01*
X20992891Y2664644D01*
X21281985Y2231985D01*
X21714644Y1942891D01*
X22096174Y1867000D01*
X22353826Y1867000D01*
X22735356Y1942891D01*
X23168015Y2231985D01*
X23457109Y2664644D01*
X23495000Y2855135D01*
X23532891Y2664644D01*
X23821985Y2231985D01*
X24254644Y1942891D01*
X24636174Y1867000D01*
X24893826Y1867000D01*
X25275356Y1942891D01*
X25708015Y2231985D01*
X25997109Y2664644D01*
X26035000Y2855135D01*
X26072891Y2664644D01*
X26361985Y2231985D01*
X26794644Y1942891D01*
X27176174Y1867000D01*
X27433826Y1867000D01*
X27815356Y1942891D01*
X28248015Y2231985D01*
X28537109Y2664644D01*
X28638625Y3175000D01*
X28614756Y3295000D01*
X31686375Y3295000D01*
X31787891Y2784644D01*
X32076985Y2351985D01*
X32509644Y2062891D01*
X32891174Y1987000D01*
X33148826Y1987000D01*
X33530356Y2062891D01*
X33963015Y2351985D01*
X34252109Y2784644D01*
X34353625Y3295000D01*
X34252109Y3805356D01*
X33963015Y4238015D01*
X33530356Y4527109D01*
X33148826Y4603000D01*
X32891174Y4603000D01*
X32509644Y4527109D01*
X32076985Y4238015D01*
X31787891Y3805356D01*
X31686375Y3295000D01*
X28614756Y3295000D01*
X28537109Y3685356D01*
X28248015Y4118015D01*
X27815356Y4407109D01*
X27433826Y4483000D01*
X27176174Y4483000D01*
X26794644Y4407109D01*
X26361985Y4118015D01*
X26072891Y3685356D01*
X26035000Y3494865D01*
X25997109Y3685356D01*
X25708015Y4118015D01*
X25275356Y4407109D01*
X24893826Y4483000D01*
X24636174Y4483000D01*
X24254644Y4407109D01*
X23821985Y4118015D01*
X23532891Y3685356D01*
X23495000Y3494865D01*
X23457109Y3685356D01*
X23168015Y4118015D01*
X22735356Y4407109D01*
X22353826Y4483000D01*
X22096174Y4483000D01*
X21714644Y4407109D01*
X21281985Y4118015D01*
X20992891Y3685356D01*
X20955000Y3494865D01*
X20917109Y3685356D01*
X20628015Y4118015D01*
X20320000Y4323824D01*
X20320000Y6086976D01*
X21624424Y7391399D01*
X23838862Y7391399D01*
X23901399Y7378960D01*
X23963936Y7391399D01*
X23963940Y7391399D01*
X24149164Y7428242D01*
X24359208Y7568590D01*
X24394637Y7621613D01*
X24439043Y7666019D01*
X24538676Y7425482D01*
X24824482Y7139676D01*
X25197905Y6985000D01*
X25602095Y6985000D01*
X25975518Y7139676D01*
X26261324Y7425482D01*
X26416000Y7798905D01*
X26416000Y8118974D01*
X26439791Y8142766D01*
X26492809Y8178191D01*
X26528234Y8231208D01*
X26528236Y8231210D01*
X26633157Y8388235D01*
X26652446Y8485210D01*
X26670000Y8573459D01*
X26670000Y8573463D01*
X26682439Y8636000D01*
X26670000Y8698537D01*
X26670000Y9646176D01*
X26794644Y9562891D01*
X27176174Y9487000D01*
X27433826Y9487000D01*
X27815356Y9562891D01*
X27940000Y9646176D01*
X27940000Y8518025D01*
X27422976Y8001000D01*
X27102905Y8001000D01*
X26729482Y7846324D01*
X26443676Y7560518D01*
X26289000Y7187095D01*
X26289000Y6782905D01*
X26443676Y6409482D01*
X26729482Y6123676D01*
X27102905Y5969000D01*
X27507095Y5969000D01*
X27880518Y6123676D01*
X28166324Y6409482D01*
X28321000Y6782905D01*
X28321000Y7102976D01*
X28979790Y7761765D01*
X29032809Y7797191D01*
X29173157Y8007235D01*
X29210000Y8192459D01*
X29210000Y8192462D01*
X29222439Y8254999D01*
X29210000Y8317536D01*
X29210000Y9787255D01*
X32191861Y9787255D01*
X32265995Y9541136D01*
X32803223Y9348035D01*
X33373454Y9375222D01*
X33774005Y9541136D01*
X33848139Y9787255D01*
X33020000Y10615395D01*
X32191861Y9787255D01*
X29210000Y9787255D01*
X29210000Y11011777D01*
X31573035Y11011777D01*
X31600222Y10441546D01*
X31766136Y10040995D01*
X32012255Y9966861D01*
X32840395Y10795000D01*
X33199605Y10795000D01*
X34027745Y9966861D01*
X34273864Y10040995D01*
X34419424Y10445959D01*
X34803086Y10445959D01*
X35042611Y9939866D01*
X35457577Y9563959D01*
X35845961Y9403096D01*
X36068000Y9525085D01*
X36068000Y10668000D01*
X34924371Y10668000D01*
X34803086Y10445959D01*
X34419424Y10445959D01*
X34466965Y10578223D01*
X34439778Y11148454D01*
X34273864Y11549005D01*
X34027745Y11623139D01*
X33199605Y10795000D01*
X32840395Y10795000D01*
X32012255Y11623139D01*
X31766136Y11549005D01*
X31573035Y11011777D01*
X29210000Y11011777D01*
X29210000Y11801976D01*
X29210769Y11802745D01*
X32191861Y11802745D01*
X33020000Y10974605D01*
X33848139Y11802745D01*
X33774005Y12048864D01*
X33236777Y12241965D01*
X32666546Y12214778D01*
X32265995Y12048864D01*
X32191861Y11802745D01*
X29210769Y11802745D01*
X30108025Y12700000D01*
X32322463Y12700000D01*
X32385000Y12687561D01*
X32447537Y12700000D01*
X32447541Y12700000D01*
X32632765Y12736843D01*
X32842809Y12877191D01*
X32878238Y12930214D01*
X32902024Y12954000D01*
X33222095Y12954000D01*
X33595518Y13108676D01*
X33655000Y13168158D01*
X33655000Y12762537D01*
X33642561Y12700000D01*
X33655000Y12637463D01*
X33655000Y12637460D01*
X33691843Y12452236D01*
X33832191Y12242191D01*
X33885214Y12206762D01*
X34431765Y11660209D01*
X34467191Y11607191D01*
X34520208Y11571766D01*
X34520210Y11571764D01*
X34638777Y11492540D01*
X34677235Y11466843D01*
X34862459Y11430000D01*
X34862463Y11430000D01*
X34925000Y11417561D01*
X34933322Y11419216D01*
X34803086Y11144041D01*
X34924371Y10922000D01*
X36068000Y10922000D01*
X36068000Y10942000D01*
X36322000Y10942000D01*
X36322000Y10922000D01*
X36342000Y10922000D01*
X36342000Y10668000D01*
X36322000Y10668000D01*
X36322000Y9525085D01*
X36544039Y9403096D01*
X36932423Y9563959D01*
X37051981Y9672263D01*
X37060214Y9666762D01*
X37606765Y9120209D01*
X37642191Y9067191D01*
X37695208Y9031766D01*
X37695210Y9031764D01*
X37732507Y9006843D01*
X37852235Y8926843D01*
X38037459Y8890000D01*
X38037463Y8890000D01*
X38100000Y8877561D01*
X38162537Y8890000D01*
X39942463Y8890000D01*
X40005000Y8877561D01*
X40067537Y8890000D01*
X40067541Y8890000D01*
X40252765Y8926843D01*
X40462809Y9067191D01*
X40498238Y9120214D01*
X40911670Y9533646D01*
X41146174Y9487000D01*
X41403826Y9487000D01*
X41785356Y9562891D01*
X41910001Y9646176D01*
X41910001Y9153027D01*
X38330214Y5573238D01*
X38277191Y5537809D01*
X38136843Y5327764D01*
X38100000Y5142540D01*
X38100000Y5142537D01*
X38087561Y5080000D01*
X38100000Y5017463D01*
X38100000Y4323825D01*
X37791985Y4118015D01*
X37512952Y3700413D01*
X37512952Y3975000D01*
X37473525Y4173212D01*
X37361247Y4341247D01*
X37193212Y4453525D01*
X36995000Y4492952D01*
X36830000Y4492952D01*
X36830000Y5652464D01*
X36842439Y5715001D01*
X36830000Y5777540D01*
X36830000Y5777541D01*
X36793157Y5962765D01*
X36652809Y6172809D01*
X36599789Y6208236D01*
X35418238Y7389786D01*
X35382809Y7442809D01*
X35172765Y7583157D01*
X34987541Y7620000D01*
X34987537Y7620000D01*
X34925000Y7632439D01*
X34862463Y7620000D01*
X31916842Y7620000D01*
X31690518Y7846324D01*
X31317095Y8001000D01*
X30912905Y8001000D01*
X30539482Y7846324D01*
X30253676Y7560518D01*
X30099000Y7187095D01*
X30099000Y6782905D01*
X30253676Y6409482D01*
X30539482Y6123676D01*
X30912905Y5969000D01*
X31317095Y5969000D01*
X31690518Y6123676D01*
X31916842Y6350000D01*
X34661976Y6350000D01*
X35560000Y5451975D01*
X35560000Y4492952D01*
X35395000Y4492952D01*
X35196788Y4453525D01*
X35028753Y4341247D01*
X34916475Y4173212D01*
X34877048Y3975000D01*
X34877048Y2375000D01*
X34916475Y2176788D01*
X35028753Y2008753D01*
X35196788Y1896475D01*
X35395000Y1857048D01*
X36995000Y1857048D01*
X37193212Y1896475D01*
X37361247Y2008753D01*
X37473525Y2176788D01*
X37512952Y2375000D01*
X37512952Y2649587D01*
X37791985Y2231985D01*
X38224644Y1942891D01*
X38606174Y1867000D01*
X38863826Y1867000D01*
X39245356Y1942891D01*
X39678015Y2231985D01*
X39967109Y2664644D01*
X40005000Y2855135D01*
X40042891Y2664644D01*
X40331985Y2231985D01*
X40764644Y1942891D01*
X41146174Y1867000D01*
X41403826Y1867000D01*
X41785356Y1942891D01*
X42218015Y2231985D01*
X42507109Y2664644D01*
X42545000Y2855135D01*
X42582891Y2664644D01*
X42871985Y2231985D01*
X43304644Y1942891D01*
X43686174Y1867000D01*
X43943826Y1867000D01*
X44325356Y1942891D01*
X44758015Y2231985D01*
X44963824Y2540000D01*
X45206176Y2540000D01*
X45411985Y2231985D01*
X45844644Y1942891D01*
X46226174Y1867000D01*
X46483826Y1867000D01*
X46865356Y1942891D01*
X47298015Y2231985D01*
X47587109Y2664644D01*
X47625000Y2855135D01*
X47662891Y2664644D01*
X47951985Y2231985D01*
X48384644Y1942891D01*
X48766174Y1867000D01*
X49023826Y1867000D01*
X49405356Y1942891D01*
X49838015Y2231985D01*
X50127109Y2664644D01*
X50165000Y2855135D01*
X50202891Y2664644D01*
X50491985Y2231985D01*
X50924644Y1942891D01*
X51306174Y1867000D01*
X51563826Y1867000D01*
X51945356Y1942891D01*
X52378015Y2231985D01*
X52667109Y2664644D01*
X52768625Y3175000D01*
X52667109Y3685356D01*
X52378015Y4118015D01*
X51945356Y4407109D01*
X51563826Y4483000D01*
X51306174Y4483000D01*
X50924644Y4407109D01*
X50491985Y4118015D01*
X50202891Y3685356D01*
X50165000Y3494865D01*
X50127109Y3685356D01*
X49838015Y4118015D01*
X49530000Y4323824D01*
X49530000Y9646176D01*
X49838015Y9851985D01*
X50127109Y10284644D01*
X50165000Y10475135D01*
X50202891Y10284644D01*
X50491985Y9851985D01*
X50924644Y9562891D01*
X51306174Y9487000D01*
X51563826Y9487000D01*
X51945356Y9562891D01*
X52220343Y9746632D01*
X52705000Y9261975D01*
X52705001Y6412542D01*
X52692561Y6350000D01*
X52741843Y6102236D01*
X52741844Y6102235D01*
X52882192Y5892191D01*
X52935212Y5856764D01*
X54751766Y4040209D01*
X54787191Y3987191D01*
X54840208Y3951766D01*
X54840210Y3951764D01*
X54997235Y3846843D01*
X55182459Y3810000D01*
X55182463Y3810000D01*
X55245000Y3797561D01*
X55306217Y3809738D01*
X55535937Y3465937D01*
X55985135Y3165793D01*
X56381253Y3087000D01*
X56648747Y3087000D01*
X57044865Y3165793D01*
X57494063Y3465937D01*
X57794207Y3915135D01*
X57899604Y4445000D01*
X57794207Y4974865D01*
X57494063Y5424063D01*
X57205240Y5617048D01*
X57365000Y5617048D01*
X57563212Y5656475D01*
X57731247Y5768753D01*
X57843525Y5936788D01*
X57882952Y6135000D01*
X57882952Y7835000D01*
X57843525Y8033212D01*
X57731247Y8201247D01*
X57563212Y8313525D01*
X57365000Y8352952D01*
X57150000Y8352952D01*
X57150000Y10281176D01*
X57458015Y10486985D01*
X57747109Y10919644D01*
X57848625Y11430000D01*
X57747109Y11940356D01*
X57458015Y12373015D01*
X57025356Y12662109D01*
X56834865Y12700000D01*
X60608083Y12700000D01*
X60219078Y12538869D01*
X59851131Y12170922D01*
X59652000Y11690177D01*
X59652000Y11169823D01*
X59851131Y10689078D01*
X60219078Y10321131D01*
X60325000Y10277257D01*
X60325001Y8352952D01*
X60110000Y8352952D01*
X59911788Y8313525D01*
X59743753Y8201247D01*
X59631475Y8033212D01*
X59592048Y7835000D01*
X59592048Y6135000D01*
X59631475Y5936788D01*
X59743753Y5768753D01*
X59911788Y5656475D01*
X60110000Y5617048D01*
X60325001Y5617048D01*
X60325000Y4611842D01*
X60098676Y4385518D01*
X59944000Y4012095D01*
X59944000Y3607905D01*
X60098676Y3234482D01*
X60384482Y2948676D01*
X60757905Y2794000D01*
X61162095Y2794000D01*
X61535518Y2948676D01*
X61821324Y3234482D01*
X61976000Y3607905D01*
X61976000Y4012095D01*
X61821324Y4385518D01*
X61595000Y4611842D01*
X61595000Y5617048D01*
X61810000Y5617048D01*
X62008212Y5656475D01*
X62176247Y5768753D01*
X62288525Y5936788D01*
X62327952Y6135000D01*
X62327952Y7835000D01*
X62288525Y8033212D01*
X62176247Y8201247D01*
X62008212Y8313525D01*
X61810000Y8352952D01*
X61595000Y8352952D01*
X61595000Y10277257D01*
X61700922Y10321131D01*
X62068869Y10689078D01*
X62268000Y11169823D01*
X62268000Y11690177D01*
X62068869Y12170922D01*
X61700922Y12538869D01*
X61311917Y12700000D01*
X62601976Y12700000D01*
X63466125Y11835850D01*
X63385396Y11430000D01*
X63490793Y10900135D01*
X63790937Y10450937D01*
X64226356Y10160000D01*
X63790937Y9869063D01*
X63490793Y9419865D01*
X63385396Y8890000D01*
X63490793Y8360135D01*
X63790937Y7910937D01*
X64226356Y7620000D01*
X63790937Y7329063D01*
X63490793Y6879865D01*
X63385396Y6350000D01*
X63490793Y5820135D01*
X63790937Y5370937D01*
X64240135Y5070793D01*
X64636253Y4992000D01*
X64903747Y4992000D01*
X65299865Y5070793D01*
X65749063Y5370937D01*
X66049207Y5820135D01*
X66154604Y6350000D01*
X66049207Y6879865D01*
X65749063Y7329063D01*
X65313644Y7620000D01*
X65749063Y7910937D01*
X66049207Y8360135D01*
X66154604Y8890000D01*
X66049207Y9419865D01*
X65749063Y9869063D01*
X65313644Y10160000D01*
X65749063Y10450937D01*
X66049207Y10900135D01*
X66154604Y11430000D01*
X66049207Y11959865D01*
X65749063Y12409063D01*
X65313644Y12700000D01*
X65749063Y12990937D01*
X66049207Y13440135D01*
X66154604Y13970000D01*
X66049207Y14499865D01*
X65749063Y14949063D01*
X65313644Y15240000D01*
X65749063Y15530937D01*
X66049207Y15980135D01*
X66154604Y16510000D01*
X66049207Y17039865D01*
X65749063Y17489063D01*
X65313644Y17780000D01*
X65749063Y18070937D01*
X66049207Y18520135D01*
X66154604Y19050000D01*
X66049207Y19579865D01*
X65749063Y20029063D01*
X65313644Y20320000D01*
X65749063Y20610937D01*
X66049207Y21060135D01*
X66154604Y21590000D01*
X66049207Y22119865D01*
X65749063Y22569063D01*
X65313644Y22860000D01*
X65749063Y23150937D01*
X66049207Y23600135D01*
X66154604Y24130000D01*
X66049207Y24659865D01*
X65749063Y25109063D01*
X65299865Y25409207D01*
X65282933Y25412575D01*
X65539245Y25518743D01*
X65921257Y25900755D01*
X66128000Y26399877D01*
X66128000Y26940123D01*
X65921257Y27439245D01*
X65539245Y27821257D01*
X65040123Y28028000D01*
X64499877Y28028000D01*
X64000755Y27821257D01*
X63618743Y27439245D01*
X63412000Y26940123D01*
X63412000Y26845025D01*
X63236975Y26670000D01*
X58683026Y26670000D01*
X57008238Y28344786D01*
X56972809Y28397809D01*
X56762765Y28538157D01*
X56577541Y28575000D01*
X56577537Y28575000D01*
X56515000Y28587439D01*
X56454187Y28575343D01*
X56524207Y28680135D01*
X56629604Y29210000D01*
X56524207Y29739865D01*
X56224063Y30189063D01*
X55788644Y30480000D01*
X56224063Y30770937D01*
X56524207Y31220135D01*
X56629604Y31750000D01*
X56524207Y32279865D01*
X56224063Y32729063D01*
X55774865Y33029207D01*
X55378747Y33108000D01*
X55111253Y33108000D01*
X54715135Y33029207D01*
X54265937Y32729063D01*
X53965793Y32279865D01*
X53860396Y31750000D01*
X53924302Y31428722D01*
X53198238Y32154786D01*
X53162809Y32207809D01*
X52952765Y32348157D01*
X52767541Y32385000D01*
X52767537Y32385000D01*
X52705000Y32397439D01*
X52642463Y32385000D01*
X52583824Y32385000D01*
X52378015Y32693015D01*
X51945356Y32982109D01*
X51754865Y33020000D01*
X51945356Y33057891D01*
X52378015Y33346985D01*
X52583824Y33655000D01*
X67046975Y33655000D01*
X67310001Y33391974D01*
X67310000Y23557537D01*
X67297561Y23495000D01*
X67310000Y23432463D01*
X67310000Y23432460D01*
X67346843Y23247236D01*
X67487191Y23037191D01*
X67540214Y23001762D01*
X71086125Y19455850D01*
X71005396Y19050000D01*
X71110793Y18520135D01*
X71410937Y18070937D01*
X71846356Y17780000D01*
X71410937Y17489063D01*
X71110793Y17039865D01*
X71005396Y16510000D01*
X71110793Y15980135D01*
X71410937Y15530937D01*
X71846356Y15240000D01*
X71410937Y14949063D01*
X71110793Y14499865D01*
X71005396Y13970000D01*
X71110793Y13440135D01*
X71410937Y12990937D01*
X71846356Y12700000D01*
X71410937Y12409063D01*
X71110793Y11959865D01*
X71005396Y11430000D01*
X71110793Y10900135D01*
X71410937Y10450937D01*
X71846356Y10160000D01*
X71410937Y9869063D01*
X71110793Y9419865D01*
X71005396Y8890000D01*
X71110793Y8360135D01*
X71410937Y7910937D01*
X71846356Y7620000D01*
X71410937Y7329063D01*
X71110793Y6879865D01*
X71005396Y6350000D01*
X71110793Y5820135D01*
X71410937Y5370937D01*
X71860135Y5070793D01*
X72256253Y4992000D01*
X72523747Y4992000D01*
X72919865Y5070793D01*
X73369063Y5370937D01*
X73669207Y5820135D01*
X73774604Y6350000D01*
X73669207Y6879865D01*
X73369063Y7329063D01*
X72933644Y7620000D01*
X73369063Y7910937D01*
X73669207Y8360135D01*
X73774604Y8890000D01*
X73669207Y9419865D01*
X73369063Y9869063D01*
X72933644Y10160000D01*
X73369063Y10450937D01*
X73669207Y10900135D01*
X73774604Y11430000D01*
X73669207Y11959865D01*
X73369063Y12409063D01*
X72933644Y12700000D01*
X73369063Y12990937D01*
X73669207Y13440135D01*
X73774604Y13970000D01*
X73669207Y14499865D01*
X73369063Y14949063D01*
X72933644Y15240000D01*
X73369063Y15530937D01*
X73669207Y15980135D01*
X73774604Y16510000D01*
X73669207Y17039865D01*
X73369063Y17489063D01*
X72933644Y17780000D01*
X73369063Y18070937D01*
X73669207Y18520135D01*
X73774604Y19050000D01*
X73669207Y19579865D01*
X73369063Y20029063D01*
X72933644Y20320000D01*
X73369063Y20610937D01*
X73669207Y21060135D01*
X73774604Y21590000D01*
X73669207Y22119865D01*
X73369063Y22569063D01*
X72933644Y22860000D01*
X73369063Y23150937D01*
X73669207Y23600135D01*
X73774604Y24130000D01*
X73669207Y24659865D01*
X73369063Y25109063D01*
X73048992Y25322928D01*
X73174080Y25374741D01*
X73254353Y25626042D01*
X72390000Y26490395D01*
X72375858Y26476252D01*
X72196253Y26655857D01*
X72210395Y26670000D01*
X72569605Y26670000D01*
X73433958Y25805647D01*
X73685259Y25885920D01*
X73886718Y26441279D01*
X73860315Y27031458D01*
X73685259Y27454080D01*
X73433958Y27534353D01*
X72569605Y26670000D01*
X72210395Y26670000D01*
X71346042Y27534353D01*
X71094741Y27454080D01*
X70893282Y26898721D01*
X70910796Y26507228D01*
X69850000Y27568024D01*
X69850000Y27713958D01*
X71525647Y27713958D01*
X72390000Y26849605D01*
X73254353Y27713958D01*
X73174080Y27965259D01*
X72618721Y28166718D01*
X72028542Y28140315D01*
X71605920Y27965259D01*
X71525647Y27713958D01*
X69850000Y27713958D01*
X69850000Y34862463D01*
X69862439Y34925000D01*
X69850000Y34987537D01*
X69850000Y34987541D01*
X69813157Y35172765D01*
X69772899Y35233015D01*
X69708236Y35329790D01*
X69708234Y35329792D01*
X69672809Y35382809D01*
X69619792Y35418234D01*
X67803238Y37234786D01*
X67767809Y37287809D01*
X67557765Y37428157D01*
X67372541Y37465000D01*
X67557765Y37501843D01*
X67767809Y37642191D01*
X67803238Y37695214D01*
X68843025Y38735000D01*
X71181042Y38735000D01*
X71410937Y38390937D01*
X71860135Y38090793D01*
X72256253Y38012000D01*
X72523747Y38012000D01*
X72919865Y38090793D01*
X73369063Y38390937D01*
X73669207Y38840135D01*
X73774604Y39370000D01*
X73669207Y39899865D01*
X73369063Y40349063D01*
X72933644Y40640000D01*
X73369063Y40930937D01*
X73669207Y41380135D01*
X73774604Y41910000D01*
X73669207Y42439865D01*
X73369063Y42889063D01*
X72919865Y43189207D01*
X72902933Y43192575D01*
X73159245Y43298743D01*
X73541257Y43680755D01*
X73748000Y44179877D01*
X73748000Y44720123D01*
X73541257Y45219245D01*
X73159245Y45601257D01*
X72660123Y45808000D01*
X72119877Y45808000D01*
X71620755Y45601257D01*
X71238743Y45219245D01*
X71032000Y44720123D01*
X71032000Y44179877D01*
X71238743Y43680755D01*
X71620755Y43298743D01*
X71877067Y43192575D01*
X71860135Y43189207D01*
X71410937Y42889063D01*
X71110793Y42439865D01*
X71005396Y41910000D01*
X71110793Y41380135D01*
X71410937Y40930937D01*
X71846356Y40640000D01*
X71410937Y40349063D01*
X71181042Y40005000D01*
X68642536Y40005000D01*
X68579999Y40017439D01*
X68517462Y40005000D01*
X68517459Y40005000D01*
X68332235Y39968157D01*
X68122191Y39827809D01*
X68086765Y39774790D01*
X67046976Y38735000D01*
X59318026Y38735000D01*
X56548875Y41504149D01*
X56629604Y41910000D01*
X56524207Y42439865D01*
X56224063Y42889063D01*
X55774865Y43189207D01*
X55378747Y43268000D01*
X55111253Y43268000D01*
X54715135Y43189207D01*
X54265937Y42889063D01*
X53975000Y42453644D01*
X53975000Y42482463D01*
X53987439Y42545000D01*
X53975000Y42607537D01*
X53975000Y42607541D01*
X53938157Y42792765D01*
X53897899Y42853015D01*
X53833236Y42949790D01*
X53833234Y42949792D01*
X53797809Y43002809D01*
X53744792Y43038234D01*
X52696354Y44086671D01*
X52768625Y44450000D01*
X52667109Y44960356D01*
X52378015Y45393015D01*
X51952080Y45677616D01*
X52290134Y45837611D01*
X52666041Y46252577D01*
X52826904Y46640961D01*
X52704915Y46863000D01*
X51562000Y46863000D01*
X51562000Y46843000D01*
X51308000Y46843000D01*
X51308000Y46863000D01*
X50165085Y46863000D01*
X50043096Y46640961D01*
X50203959Y46252577D01*
X50579866Y45837611D01*
X50917920Y45677616D01*
X50491985Y45393015D01*
X50202891Y44960356D01*
X50101375Y44450000D01*
X50202891Y43939644D01*
X50491985Y43506985D01*
X50924644Y43217891D01*
X51115135Y43180000D01*
X50924644Y43142109D01*
X50491985Y42853015D01*
X50202891Y42420356D01*
X50101375Y41910000D01*
X50202891Y41399644D01*
X50491985Y40966985D01*
X50924644Y40677891D01*
X51115135Y40640000D01*
X50924644Y40602109D01*
X50491985Y40313015D01*
X50202891Y39880356D01*
X50101375Y39370000D01*
X50202891Y38859644D01*
X50286176Y38735000D01*
X47687537Y38735000D01*
X47625000Y38747439D01*
X47562463Y38735000D01*
X47562459Y38735000D01*
X47377235Y38698157D01*
X47220210Y38593236D01*
X47220209Y38593235D01*
X47167191Y38557809D01*
X47131766Y38504792D01*
X43932976Y35306000D01*
X43612905Y35306000D01*
X43239482Y35151324D01*
X43180000Y35091842D01*
X43120518Y35151324D01*
X42747095Y35306000D01*
X42342905Y35306000D01*
X41969482Y35151324D01*
X41683676Y34865518D01*
X41529000Y34492095D01*
X41529000Y34299024D01*
X38593238Y37234786D01*
X38557809Y37287809D01*
X38347765Y37428157D01*
X38162541Y37465000D01*
X38162537Y37465000D01*
X38100000Y37477439D01*
X38037463Y37465000D01*
X37343824Y37465000D01*
X37138015Y37773015D01*
X36705356Y38062109D01*
X36514865Y38100000D01*
X36705356Y38137891D01*
X37138015Y38426985D01*
X37427109Y38859644D01*
X37528625Y39370000D01*
X37427109Y39880356D01*
X37138015Y40313015D01*
X36705356Y40602109D01*
X36514865Y40640000D01*
X36705356Y40677891D01*
X37138015Y40966985D01*
X37427109Y41399644D01*
X37528625Y41910000D01*
X37427109Y42420356D01*
X37138015Y42853015D01*
X36705356Y43142109D01*
X36514865Y43180000D01*
X38791375Y43180000D01*
X38892891Y42669644D01*
X39181985Y42236985D01*
X39614644Y41947891D01*
X39996174Y41872000D01*
X40253826Y41872000D01*
X40635356Y41947891D01*
X40971139Y42172255D01*
X46796861Y42172255D01*
X46870995Y41926136D01*
X47408223Y41733035D01*
X47978454Y41760222D01*
X48379005Y41926136D01*
X48453139Y42172255D01*
X47625000Y43000395D01*
X46796861Y42172255D01*
X40971139Y42172255D01*
X41068015Y42236985D01*
X41357109Y42669644D01*
X41458625Y43180000D01*
X41415506Y43396777D01*
X46178035Y43396777D01*
X46205222Y42826546D01*
X46371136Y42425995D01*
X46617255Y42351861D01*
X47445395Y43180000D01*
X47804605Y43180000D01*
X48632745Y42351861D01*
X48878864Y42425995D01*
X49071965Y42963223D01*
X49044778Y43533454D01*
X48878864Y43934005D01*
X48632745Y44008139D01*
X47804605Y43180000D01*
X47445395Y43180000D01*
X46617255Y44008139D01*
X46371136Y43934005D01*
X46178035Y43396777D01*
X41415506Y43396777D01*
X41357109Y43690356D01*
X41068015Y44123015D01*
X40971140Y44187745D01*
X46796861Y44187745D01*
X47625000Y43359605D01*
X48453139Y44187745D01*
X48379005Y44433864D01*
X47841777Y44626965D01*
X47271546Y44599778D01*
X46870995Y44433864D01*
X46796861Y44187745D01*
X40971140Y44187745D01*
X40635356Y44412109D01*
X40253826Y44488000D01*
X39996174Y44488000D01*
X39614644Y44412109D01*
X39181985Y44123015D01*
X38892891Y43690356D01*
X38791375Y43180000D01*
X36514865Y43180000D01*
X36705356Y43217891D01*
X37138015Y43506985D01*
X37427109Y43939644D01*
X37528625Y44450000D01*
X37427109Y44960356D01*
X37138015Y45393015D01*
X36720413Y45672048D01*
X36995000Y45672048D01*
X37193212Y45711475D01*
X37361247Y45823753D01*
X37473525Y45991788D01*
X37512952Y46190000D01*
X37512952Y47339039D01*
X50043096Y47339039D01*
X50165085Y47117000D01*
X51308000Y47117000D01*
X51308000Y48260629D01*
X51562000Y48260629D01*
X51562000Y47117000D01*
X52704915Y47117000D01*
X52805043Y47299250D01*
X57620000Y47299250D01*
X57620000Y46658691D01*
X57716673Y46425302D01*
X57895301Y46246673D01*
X58128690Y46150000D01*
X58270209Y46150000D01*
X57946131Y45825922D01*
X57747000Y45345177D01*
X57747000Y44824823D01*
X57946131Y44344078D01*
X58314078Y43976131D01*
X58794823Y43777000D01*
X59315177Y43777000D01*
X59795922Y43976131D01*
X60163869Y44344078D01*
X60363000Y44824823D01*
X60363000Y45345177D01*
X60163869Y45825922D01*
X59839791Y46150000D01*
X59981310Y46150000D01*
X60214699Y46246673D01*
X60393327Y46425302D01*
X60490000Y46658691D01*
X60490000Y47299250D01*
X60331250Y47458000D01*
X59182000Y47458000D01*
X59182000Y47438000D01*
X58928000Y47438000D01*
X58928000Y47458000D01*
X57778750Y47458000D01*
X57620000Y47299250D01*
X52805043Y47299250D01*
X52826904Y47339039D01*
X52666041Y47727423D01*
X52290134Y48142389D01*
X51784041Y48381914D01*
X51562000Y48260629D01*
X51308000Y48260629D01*
X51085959Y48381914D01*
X50579866Y48142389D01*
X50203959Y47727423D01*
X50043096Y47339039D01*
X37512952Y47339039D01*
X37512952Y47790000D01*
X37473525Y47988212D01*
X37361247Y48156247D01*
X37193212Y48268525D01*
X36995000Y48307952D01*
X35395000Y48307952D01*
X35196788Y48268525D01*
X35028753Y48156247D01*
X34916475Y47988212D01*
X34877048Y47790000D01*
X34877048Y46190000D01*
X34916475Y45991788D01*
X35028753Y45823753D01*
X35196788Y45711475D01*
X35395000Y45672048D01*
X35669587Y45672048D01*
X35251985Y45393015D01*
X35046176Y45085000D01*
X32447537Y45085000D01*
X32385000Y45097439D01*
X32322463Y45085000D01*
X32322459Y45085000D01*
X32137235Y45048157D01*
X31980210Y44943236D01*
X31980209Y44943235D01*
X31927191Y44907809D01*
X31891766Y44854791D01*
X30075214Y43038238D01*
X30022191Y43002809D01*
X29881843Y42792764D01*
X29845000Y42607540D01*
X29845000Y42607537D01*
X29832561Y42545000D01*
X29845000Y42482463D01*
X29845001Y41441843D01*
X29618676Y41215518D01*
X29591139Y41149038D01*
X29457765Y41238157D01*
X29272541Y41275000D01*
X29272537Y41275000D01*
X29210000Y41287439D01*
X29147463Y41275000D01*
X29088824Y41275000D01*
X29172109Y41399644D01*
X29273625Y41910000D01*
X29172109Y42420356D01*
X28883015Y42853015D01*
X28457080Y43137616D01*
X28795134Y43297611D01*
X29171041Y43712577D01*
X29331904Y44100961D01*
X29209915Y44323000D01*
X28067000Y44323000D01*
X28067000Y44303000D01*
X27813000Y44303000D01*
X27813000Y44323000D01*
X26670085Y44323000D01*
X26548096Y44100961D01*
X26708959Y43712577D01*
X27084866Y43297611D01*
X27422920Y43137616D01*
X26996985Y42853015D01*
X26791176Y42545000D01*
X25028025Y42545000D01*
X23988238Y43584786D01*
X23952809Y43637809D01*
X23742765Y43778157D01*
X23557541Y43815000D01*
X23557537Y43815000D01*
X23495000Y43827439D01*
X23432463Y43815000D01*
X21637952Y43815000D01*
X21637952Y44799039D01*
X26548096Y44799039D01*
X26670085Y44577000D01*
X27813000Y44577000D01*
X27813000Y45720629D01*
X28067000Y45720629D01*
X28067000Y44577000D01*
X29209915Y44577000D01*
X29331904Y44799039D01*
X29171041Y45187423D01*
X28795134Y45602389D01*
X28289041Y45841914D01*
X28067000Y45720629D01*
X27813000Y45720629D01*
X27590959Y45841914D01*
X27084866Y45602389D01*
X26708959Y45187423D01*
X26548096Y44799039D01*
X21637952Y44799039D01*
X21637952Y45250000D01*
X21598525Y45448212D01*
X21486247Y45616247D01*
X21318212Y45728525D01*
X21120000Y45767952D01*
X19520000Y45767952D01*
X19321788Y45728525D01*
X19153753Y45616247D01*
X19041475Y45448212D01*
X19002048Y45250000D01*
X19002048Y43815000D01*
X18477535Y43815000D01*
X18414999Y43827439D01*
X18352464Y43815000D01*
X18352459Y43815000D01*
X18167235Y43778157D01*
X17957191Y43637809D01*
X17921764Y43584789D01*
X15611976Y41275000D01*
X15118824Y41275000D01*
X15202109Y41399644D01*
X15303625Y41910000D01*
X15202109Y42420356D01*
X14913015Y42853015D01*
X14487080Y43137616D01*
X14825134Y43297611D01*
X15201041Y43712577D01*
X15361904Y44100961D01*
X15239915Y44323000D01*
X14097000Y44323000D01*
X14097000Y44303000D01*
X13843000Y44303000D01*
X13843000Y44323000D01*
X13823000Y44323000D01*
X13823000Y44577000D01*
X13843000Y44577000D01*
X13843000Y45720629D01*
X14097000Y45720629D01*
X14097000Y44577000D01*
X15239915Y44577000D01*
X15361904Y44799039D01*
X15201041Y45187423D01*
X14825134Y45602389D01*
X14319041Y45841914D01*
X14097000Y45720629D01*
X13843000Y45720629D01*
X13620959Y45841914D01*
X13114866Y45602389D01*
X12742820Y45191685D01*
X12725259Y45234080D01*
X12473958Y45314353D01*
X11609605Y44450000D01*
X11623748Y44435857D01*
X11444143Y44256252D01*
X11430000Y44270395D01*
X11415858Y44256252D01*
X11236253Y44435857D01*
X11250395Y44450000D01*
X10386042Y45314353D01*
X10134741Y45234080D01*
X9933282Y44678721D01*
X9959685Y44088542D01*
X10134741Y43665920D01*
X10317060Y43607682D01*
X10301764Y43584788D01*
X9120214Y42403238D01*
X9067191Y42367809D01*
X8926843Y42157764D01*
X8890000Y41972540D01*
X8890000Y42482463D01*
X8902439Y42545000D01*
X8890000Y42607537D01*
X8890000Y42607541D01*
X8853157Y42792765D01*
X8812899Y42853015D01*
X8748236Y42949790D01*
X8748234Y42949792D01*
X8712809Y43002809D01*
X8659791Y43038234D01*
X7667952Y44030073D01*
X7667952Y45250000D01*
X7628525Y45448212D01*
X7597959Y45493958D01*
X10565647Y45493958D01*
X11430000Y44629605D01*
X12294353Y45493958D01*
X12214080Y45745259D01*
X11658721Y45946718D01*
X11068542Y45920315D01*
X10645920Y45745259D01*
X10565647Y45493958D01*
X7597959Y45493958D01*
X7516247Y45616247D01*
X7348212Y45728525D01*
X7150000Y45767952D01*
X5550000Y45767952D01*
X5351788Y45728525D01*
X5183753Y45616247D01*
X5071475Y45448212D01*
X5032048Y45250000D01*
X5032048Y45048340D01*
X4961257Y45219245D01*
X4579245Y45601257D01*
X4080123Y45808000D01*
X3539877Y45808000D01*
X3040755Y45601257D01*
X2658743Y45219245D01*
X2452000Y44720123D01*
X2452000Y44179877D01*
X2658743Y43680755D01*
X3040755Y43298743D01*
X3297067Y43192575D01*
X3280135Y43189207D01*
X2830937Y42889063D01*
X2530793Y42439865D01*
X2425396Y41910000D01*
X583000Y41910000D01*
X583000Y47625000D01*
X5136375Y47625000D01*
X5237891Y47114644D01*
X5526985Y46681985D01*
X5959644Y46392891D01*
X6341174Y46317000D01*
X6598826Y46317000D01*
X6980356Y46392891D01*
X7316139Y46617255D01*
X13141861Y46617255D01*
X13215995Y46371136D01*
X13753223Y46178035D01*
X14323454Y46205222D01*
X14724005Y46371136D01*
X14798139Y46617255D01*
X13970000Y47445395D01*
X13141861Y46617255D01*
X7316139Y46617255D01*
X7413015Y46681985D01*
X7702109Y47114644D01*
X7803625Y47625000D01*
X7760506Y47841777D01*
X12523035Y47841777D01*
X12550222Y47271546D01*
X12716136Y46870995D01*
X12962255Y46796861D01*
X13790395Y47625000D01*
X14149605Y47625000D01*
X14977745Y46796861D01*
X15223864Y46870995D01*
X15416965Y47408223D01*
X15406630Y47625000D01*
X19106375Y47625000D01*
X19207891Y47114644D01*
X19496985Y46681985D01*
X19929644Y46392891D01*
X20311174Y46317000D01*
X20568826Y46317000D01*
X20950356Y46392891D01*
X21286139Y46617255D01*
X27111861Y46617255D01*
X27185995Y46371136D01*
X27723223Y46178035D01*
X28293454Y46205222D01*
X28694005Y46371136D01*
X28768139Y46617255D01*
X27940000Y47445395D01*
X27111861Y46617255D01*
X21286139Y46617255D01*
X21383015Y46681985D01*
X21672109Y47114644D01*
X21773625Y47625000D01*
X21730506Y47841777D01*
X26493035Y47841777D01*
X26520222Y47271546D01*
X26686136Y46870995D01*
X26932255Y46796861D01*
X27760395Y47625000D01*
X28119605Y47625000D01*
X28947745Y46796861D01*
X29193864Y46870995D01*
X29386965Y47408223D01*
X29359778Y47978454D01*
X29193864Y48379005D01*
X28947745Y48453139D01*
X28119605Y47625000D01*
X27760395Y47625000D01*
X26932255Y48453139D01*
X26686136Y48379005D01*
X26493035Y47841777D01*
X21730506Y47841777D01*
X21672109Y48135356D01*
X21383015Y48568015D01*
X20950356Y48857109D01*
X20568826Y48933000D01*
X20311174Y48933000D01*
X19929644Y48857109D01*
X19496985Y48568015D01*
X19207891Y48135356D01*
X19106375Y47625000D01*
X15406630Y47625000D01*
X15389778Y47978454D01*
X15223864Y48379005D01*
X14977745Y48453139D01*
X14149605Y47625000D01*
X13790395Y47625000D01*
X12962255Y48453139D01*
X12716136Y48379005D01*
X12523035Y47841777D01*
X7760506Y47841777D01*
X7702109Y48135356D01*
X7413015Y48568015D01*
X6980356Y48857109D01*
X6598826Y48933000D01*
X6341174Y48933000D01*
X5959644Y48857109D01*
X5526985Y48568015D01*
X5237891Y48135356D01*
X5136375Y47625000D01*
X583000Y47625000D01*
X583000Y48208995D01*
X632882Y48491892D01*
X750617Y48695813D01*
X930996Y48847170D01*
X1176740Y48936613D01*
X1295459Y48947000D01*
X13380490Y48947000D01*
X13215995Y48878864D01*
G36*
X55760995Y22843864D02*
X55686861Y22597745D01*
X56515000Y21769605D01*
X57343139Y22597745D01*
X57269005Y22843864D01*
X57224113Y22860000D01*
X60640135Y22860000D01*
X60449644Y22822109D01*
X60016985Y22533015D01*
X59727891Y22100356D01*
X59626375Y21590000D01*
X59727891Y21079644D01*
X60016985Y20646985D01*
X60449644Y20357891D01*
X60831174Y20282000D01*
X61088826Y20282000D01*
X61470356Y20357891D01*
X61903015Y20646985D01*
X62192109Y21079644D01*
X62293625Y21590000D01*
X62192109Y22100356D01*
X61903015Y22533015D01*
X61470356Y22822109D01*
X61279865Y22860000D01*
X62601976Y22860000D01*
X63466125Y21995850D01*
X63385396Y21590000D01*
X63490793Y21060135D01*
X63790937Y20610937D01*
X64226356Y20320000D01*
X63790937Y20029063D01*
X63561042Y19685000D01*
X54873025Y19685000D01*
X53975770Y20582255D01*
X55686861Y20582255D01*
X55760995Y20336136D01*
X56298223Y20143035D01*
X56868454Y20170222D01*
X57269005Y20336136D01*
X57343139Y20582255D01*
X56515000Y21410395D01*
X55686861Y20582255D01*
X53975770Y20582255D01*
X53833238Y20724786D01*
X53797809Y20777809D01*
X53587765Y20918157D01*
X53402541Y20955000D01*
X53402537Y20955000D01*
X53340000Y20967439D01*
X53277463Y20955000D01*
X52583824Y20955000D01*
X52667109Y21079644D01*
X52768625Y21590000D01*
X52725506Y21806777D01*
X55068035Y21806777D01*
X55095222Y21236546D01*
X55261136Y20835995D01*
X55507255Y20761861D01*
X56335395Y21590000D01*
X56694605Y21590000D01*
X57522745Y20761861D01*
X57768864Y20835995D01*
X57961965Y21373223D01*
X57934778Y21943454D01*
X57768864Y22344005D01*
X57522745Y22418139D01*
X56694605Y21590000D01*
X56335395Y21590000D01*
X55507255Y22418139D01*
X55261136Y22344005D01*
X55068035Y21806777D01*
X52725506Y21806777D01*
X52667109Y22100356D01*
X52583824Y22225000D01*
X53277463Y22225000D01*
X53340000Y22212561D01*
X53402537Y22225000D01*
X53402541Y22225000D01*
X53587765Y22261843D01*
X53797809Y22402191D01*
X53833238Y22455214D01*
X54238025Y22860000D01*
X55799951Y22860000D01*
X55760995Y22843864D01*
X55760995Y22843864D01*
G37*
X55760995Y22843864D02*
X55686861Y22597745D01*
X56515000Y21769605D01*
X57343139Y22597745D01*
X57269005Y22843864D01*
X57224113Y22860000D01*
X60640135Y22860000D01*
X60449644Y22822109D01*
X60016985Y22533015D01*
X59727891Y22100356D01*
X59626375Y21590000D01*
X59727891Y21079644D01*
X60016985Y20646985D01*
X60449644Y20357891D01*
X60831174Y20282000D01*
X61088826Y20282000D01*
X61470356Y20357891D01*
X61903015Y20646985D01*
X62192109Y21079644D01*
X62293625Y21590000D01*
X62192109Y22100356D01*
X61903015Y22533015D01*
X61470356Y22822109D01*
X61279865Y22860000D01*
X62601976Y22860000D01*
X63466125Y21995850D01*
X63385396Y21590000D01*
X63490793Y21060135D01*
X63790937Y20610937D01*
X64226356Y20320000D01*
X63790937Y20029063D01*
X63561042Y19685000D01*
X54873025Y19685000D01*
X53975770Y20582255D01*
X55686861Y20582255D01*
X55760995Y20336136D01*
X56298223Y20143035D01*
X56868454Y20170222D01*
X57269005Y20336136D01*
X57343139Y20582255D01*
X56515000Y21410395D01*
X55686861Y20582255D01*
X53975770Y20582255D01*
X53833238Y20724786D01*
X53797809Y20777809D01*
X53587765Y20918157D01*
X53402541Y20955000D01*
X53402537Y20955000D01*
X53340000Y20967439D01*
X53277463Y20955000D01*
X52583824Y20955000D01*
X52667109Y21079644D01*
X52768625Y21590000D01*
X52725506Y21806777D01*
X55068035Y21806777D01*
X55095222Y21236546D01*
X55261136Y20835995D01*
X55507255Y20761861D01*
X56335395Y21590000D01*
X56694605Y21590000D01*
X57522745Y20761861D01*
X57768864Y20835995D01*
X57961965Y21373223D01*
X57934778Y21943454D01*
X57768864Y22344005D01*
X57522745Y22418139D01*
X56694605Y21590000D01*
X56335395Y21590000D01*
X55507255Y22418139D01*
X55261136Y22344005D01*
X55068035Y21806777D01*
X52725506Y21806777D01*
X52667109Y22100356D01*
X52583824Y22225000D01*
X53277463Y22225000D01*
X53340000Y22212561D01*
X53402537Y22225000D01*
X53402541Y22225000D01*
X53587765Y22261843D01*
X53797809Y22402191D01*
X53833238Y22455214D01*
X54238025Y22860000D01*
X55799951Y22860000D01*
X55760995Y22843864D01*
G04 #@! TD*
M02*
