G04 #@! TF.GenerationSoftware,KiCad,Pcbnew,5.0.2-bee76a0~70~ubuntu16.04.1*
G04 #@! TF.CreationDate,2019-04-14T18:23:41+01:00*
G04 #@! TF.ProjectId,AtomRamAndNoiseKiller,41746f6d-5261-46d4-916e-644e6f697365,rev?*
G04 #@! TF.SameCoordinates,PX8e4fe28PY93c3260*
G04 #@! TF.FileFunction,Soldermask,Bot*
G04 #@! TF.FilePolarity,Negative*
%FSLAX46Y46*%
G04 Gerber Fmt 4.6, Leading zero omitted, Abs format (unit mm)*
G04 Created by KiCad (PCBNEW 5.0.2-bee76a0~70~ubuntu16.04.1) date Sun 14 Apr 2019 18:23:41 BST*
%MOMM*%
%LPD*%
G01*
G04 APERTURE LIST*
%ADD10C,0.100000*%
G04 APERTURE END LIST*
D10*
G36*
X13015000Y2225000D02*
X11115000Y2225000D01*
X11115000Y4125000D01*
X13015000Y4125000D01*
X13015000Y2225000D01*
X13015000Y2225000D01*
G37*
G36*
X37145000Y2225000D02*
X35245000Y2225000D01*
X35245000Y4125000D01*
X37145000Y4125000D01*
X37145000Y2225000D01*
X37145000Y2225000D01*
G37*
G36*
X51621232Y4111254D02*
X51800311Y4056931D01*
X51965344Y3968719D01*
X52110001Y3850001D01*
X52228719Y3705344D01*
X52316931Y3540311D01*
X52316932Y3540308D01*
X52371254Y3361232D01*
X52389596Y3175000D01*
X52371254Y2988768D01*
X52353334Y2929692D01*
X52316931Y2809689D01*
X52228719Y2644656D01*
X52110001Y2499999D01*
X51965344Y2381281D01*
X51800311Y2293069D01*
X51800308Y2293068D01*
X51621232Y2238746D01*
X51481665Y2225000D01*
X51388335Y2225000D01*
X51248768Y2238746D01*
X51069692Y2293068D01*
X51069689Y2293069D01*
X50904656Y2381281D01*
X50759999Y2499999D01*
X50641281Y2644656D01*
X50553069Y2809689D01*
X50516667Y2929692D01*
X50498746Y2988768D01*
X50480404Y3175000D01*
X50498746Y3361232D01*
X50553068Y3540308D01*
X50553069Y3540311D01*
X50641281Y3705344D01*
X50759999Y3850001D01*
X50904656Y3968719D01*
X51069689Y4056931D01*
X51248768Y4111254D01*
X51388335Y4125000D01*
X51481665Y4125000D01*
X51621232Y4111254D01*
X51621232Y4111254D01*
G37*
G36*
X46541232Y4111254D02*
X46720311Y4056931D01*
X46885344Y3968719D01*
X47030001Y3850001D01*
X47148719Y3705344D01*
X47236931Y3540311D01*
X47236932Y3540308D01*
X47291254Y3361232D01*
X47309596Y3175000D01*
X47291254Y2988768D01*
X47273334Y2929692D01*
X47236931Y2809689D01*
X47148719Y2644656D01*
X47030001Y2499999D01*
X46885344Y2381281D01*
X46720311Y2293069D01*
X46720308Y2293068D01*
X46541232Y2238746D01*
X46401665Y2225000D01*
X46308335Y2225000D01*
X46168768Y2238746D01*
X45989692Y2293068D01*
X45989689Y2293069D01*
X45824656Y2381281D01*
X45679999Y2499999D01*
X45561281Y2644656D01*
X45473069Y2809689D01*
X45436667Y2929692D01*
X45418746Y2988768D01*
X45400404Y3175000D01*
X45418746Y3361232D01*
X45473068Y3540308D01*
X45473069Y3540311D01*
X45561281Y3705344D01*
X45679999Y3850001D01*
X45824656Y3968719D01*
X45989689Y4056931D01*
X46168768Y4111254D01*
X46308335Y4125000D01*
X46401665Y4125000D01*
X46541232Y4111254D01*
X46541232Y4111254D01*
G37*
G36*
X44001232Y4111254D02*
X44180311Y4056931D01*
X44345344Y3968719D01*
X44490001Y3850001D01*
X44608719Y3705344D01*
X44696931Y3540311D01*
X44696932Y3540308D01*
X44751254Y3361232D01*
X44769596Y3175000D01*
X44751254Y2988768D01*
X44733334Y2929692D01*
X44696931Y2809689D01*
X44608719Y2644656D01*
X44490001Y2499999D01*
X44345344Y2381281D01*
X44180311Y2293069D01*
X44180308Y2293068D01*
X44001232Y2238746D01*
X43861665Y2225000D01*
X43768335Y2225000D01*
X43628768Y2238746D01*
X43449692Y2293068D01*
X43449689Y2293069D01*
X43284656Y2381281D01*
X43139999Y2499999D01*
X43021281Y2644656D01*
X42933069Y2809689D01*
X42896667Y2929692D01*
X42878746Y2988768D01*
X42860404Y3175000D01*
X42878746Y3361232D01*
X42933068Y3540308D01*
X42933069Y3540311D01*
X43021281Y3705344D01*
X43139999Y3850001D01*
X43284656Y3968719D01*
X43449689Y4056931D01*
X43628768Y4111254D01*
X43768335Y4125000D01*
X43861665Y4125000D01*
X44001232Y4111254D01*
X44001232Y4111254D01*
G37*
G36*
X41461232Y4111254D02*
X41640311Y4056931D01*
X41805344Y3968719D01*
X41950001Y3850001D01*
X42068719Y3705344D01*
X42156931Y3540311D01*
X42156932Y3540308D01*
X42211254Y3361232D01*
X42229596Y3175000D01*
X42211254Y2988768D01*
X42193334Y2929692D01*
X42156931Y2809689D01*
X42068719Y2644656D01*
X41950001Y2499999D01*
X41805344Y2381281D01*
X41640311Y2293069D01*
X41640308Y2293068D01*
X41461232Y2238746D01*
X41321665Y2225000D01*
X41228335Y2225000D01*
X41088768Y2238746D01*
X40909692Y2293068D01*
X40909689Y2293069D01*
X40744656Y2381281D01*
X40599999Y2499999D01*
X40481281Y2644656D01*
X40393069Y2809689D01*
X40356667Y2929692D01*
X40338746Y2988768D01*
X40320404Y3175000D01*
X40338746Y3361232D01*
X40393068Y3540308D01*
X40393069Y3540311D01*
X40481281Y3705344D01*
X40599999Y3850001D01*
X40744656Y3968719D01*
X40909689Y4056931D01*
X41088768Y4111254D01*
X41228335Y4125000D01*
X41321665Y4125000D01*
X41461232Y4111254D01*
X41461232Y4111254D01*
G37*
G36*
X38921232Y4111254D02*
X39100311Y4056931D01*
X39265344Y3968719D01*
X39410001Y3850001D01*
X39528719Y3705344D01*
X39616931Y3540311D01*
X39616932Y3540308D01*
X39671254Y3361232D01*
X39689596Y3175000D01*
X39671254Y2988768D01*
X39653334Y2929692D01*
X39616931Y2809689D01*
X39528719Y2644656D01*
X39410001Y2499999D01*
X39265344Y2381281D01*
X39100311Y2293069D01*
X39100308Y2293068D01*
X38921232Y2238746D01*
X38781665Y2225000D01*
X38688335Y2225000D01*
X38548768Y2238746D01*
X38369692Y2293068D01*
X38369689Y2293069D01*
X38204656Y2381281D01*
X38059999Y2499999D01*
X37941281Y2644656D01*
X37853069Y2809689D01*
X37816667Y2929692D01*
X37798746Y2988768D01*
X37780404Y3175000D01*
X37798746Y3361232D01*
X37853068Y3540308D01*
X37853069Y3540311D01*
X37941281Y3705344D01*
X38059999Y3850001D01*
X38204656Y3968719D01*
X38369689Y4056931D01*
X38548768Y4111254D01*
X38688335Y4125000D01*
X38781665Y4125000D01*
X38921232Y4111254D01*
X38921232Y4111254D01*
G37*
G36*
X49081232Y4111254D02*
X49260311Y4056931D01*
X49425344Y3968719D01*
X49570001Y3850001D01*
X49688719Y3705344D01*
X49776931Y3540311D01*
X49776932Y3540308D01*
X49831254Y3361232D01*
X49849596Y3175000D01*
X49831254Y2988768D01*
X49813334Y2929692D01*
X49776931Y2809689D01*
X49688719Y2644656D01*
X49570001Y2499999D01*
X49425344Y2381281D01*
X49260311Y2293069D01*
X49081232Y2238746D01*
X48941665Y2225000D01*
X48848335Y2225000D01*
X48708768Y2238746D01*
X48529689Y2293069D01*
X48364656Y2381281D01*
X48219999Y2499999D01*
X48101281Y2644656D01*
X48013069Y2809689D01*
X47976667Y2929692D01*
X47958746Y2988768D01*
X47940404Y3175000D01*
X47958746Y3361232D01*
X48013068Y3540308D01*
X48013069Y3540311D01*
X48101281Y3705344D01*
X48219999Y3850001D01*
X48364656Y3968719D01*
X48529689Y4056931D01*
X48708768Y4111254D01*
X48848335Y4125000D01*
X48941665Y4125000D01*
X49081232Y4111254D01*
X49081232Y4111254D01*
G37*
G36*
X27491232Y4111254D02*
X27670311Y4056931D01*
X27835344Y3968719D01*
X27980001Y3850001D01*
X28098719Y3705344D01*
X28186931Y3540311D01*
X28186932Y3540308D01*
X28241254Y3361232D01*
X28259596Y3175000D01*
X28241254Y2988768D01*
X28223334Y2929692D01*
X28186931Y2809689D01*
X28098719Y2644656D01*
X27980001Y2499999D01*
X27835344Y2381281D01*
X27670311Y2293069D01*
X27670308Y2293068D01*
X27491232Y2238746D01*
X27351665Y2225000D01*
X27258335Y2225000D01*
X27118768Y2238746D01*
X26939692Y2293068D01*
X26939689Y2293069D01*
X26774656Y2381281D01*
X26629999Y2499999D01*
X26511281Y2644656D01*
X26423069Y2809689D01*
X26386667Y2929692D01*
X26368746Y2988768D01*
X26350404Y3175000D01*
X26368746Y3361232D01*
X26423068Y3540308D01*
X26423069Y3540311D01*
X26511281Y3705344D01*
X26629999Y3850001D01*
X26774656Y3968719D01*
X26939689Y4056931D01*
X27118768Y4111254D01*
X27258335Y4125000D01*
X27351665Y4125000D01*
X27491232Y4111254D01*
X27491232Y4111254D01*
G37*
G36*
X30031232Y4111254D02*
X30210311Y4056931D01*
X30375344Y3968719D01*
X30520001Y3850001D01*
X30638719Y3705344D01*
X30726931Y3540311D01*
X30726932Y3540308D01*
X30781254Y3361232D01*
X30799596Y3175000D01*
X30781254Y2988768D01*
X30763334Y2929692D01*
X30726931Y2809689D01*
X30638719Y2644656D01*
X30520001Y2499999D01*
X30375344Y2381281D01*
X30210311Y2293069D01*
X30210308Y2293068D01*
X30031232Y2238746D01*
X29891665Y2225000D01*
X29798335Y2225000D01*
X29658768Y2238746D01*
X29479692Y2293068D01*
X29479689Y2293069D01*
X29314656Y2381281D01*
X29169999Y2499999D01*
X29051281Y2644656D01*
X28963069Y2809689D01*
X28926667Y2929692D01*
X28908746Y2988768D01*
X28890404Y3175000D01*
X28908746Y3361232D01*
X28963068Y3540308D01*
X28963069Y3540311D01*
X29051281Y3705344D01*
X29169999Y3850001D01*
X29314656Y3968719D01*
X29479689Y4056931D01*
X29658768Y4111254D01*
X29798335Y4125000D01*
X29891665Y4125000D01*
X30031232Y4111254D01*
X30031232Y4111254D01*
G37*
G36*
X14791232Y4111254D02*
X14970311Y4056931D01*
X15135344Y3968719D01*
X15280001Y3850001D01*
X15398719Y3705344D01*
X15486931Y3540311D01*
X15486932Y3540308D01*
X15541254Y3361232D01*
X15559596Y3175000D01*
X15541254Y2988768D01*
X15523334Y2929692D01*
X15486931Y2809689D01*
X15398719Y2644656D01*
X15280001Y2499999D01*
X15135344Y2381281D01*
X14970311Y2293069D01*
X14970308Y2293068D01*
X14791232Y2238746D01*
X14651665Y2225000D01*
X14558335Y2225000D01*
X14418768Y2238746D01*
X14239692Y2293068D01*
X14239689Y2293069D01*
X14074656Y2381281D01*
X13929999Y2499999D01*
X13811281Y2644656D01*
X13723069Y2809689D01*
X13686667Y2929692D01*
X13668746Y2988768D01*
X13650404Y3175000D01*
X13668746Y3361232D01*
X13723068Y3540308D01*
X13723069Y3540311D01*
X13811281Y3705344D01*
X13929999Y3850001D01*
X14074656Y3968719D01*
X14239689Y4056931D01*
X14418768Y4111254D01*
X14558335Y4125000D01*
X14651665Y4125000D01*
X14791232Y4111254D01*
X14791232Y4111254D01*
G37*
G36*
X17331232Y4111254D02*
X17510311Y4056931D01*
X17675344Y3968719D01*
X17820001Y3850001D01*
X17938719Y3705344D01*
X18026931Y3540311D01*
X18026932Y3540308D01*
X18081254Y3361232D01*
X18099596Y3175000D01*
X18081254Y2988768D01*
X18063334Y2929692D01*
X18026931Y2809689D01*
X17938719Y2644656D01*
X17820001Y2499999D01*
X17675344Y2381281D01*
X17510311Y2293069D01*
X17510308Y2293068D01*
X17331232Y2238746D01*
X17191665Y2225000D01*
X17098335Y2225000D01*
X16958768Y2238746D01*
X16779692Y2293068D01*
X16779689Y2293069D01*
X16614656Y2381281D01*
X16469999Y2499999D01*
X16351281Y2644656D01*
X16263069Y2809689D01*
X16226667Y2929692D01*
X16208746Y2988768D01*
X16190404Y3175000D01*
X16208746Y3361232D01*
X16263068Y3540308D01*
X16263069Y3540311D01*
X16351281Y3705344D01*
X16469999Y3850001D01*
X16614656Y3968719D01*
X16779689Y4056931D01*
X16958768Y4111254D01*
X17098335Y4125000D01*
X17191665Y4125000D01*
X17331232Y4111254D01*
X17331232Y4111254D01*
G37*
G36*
X22411232Y4111254D02*
X22590311Y4056931D01*
X22755344Y3968719D01*
X22900001Y3850001D01*
X23018719Y3705344D01*
X23106931Y3540311D01*
X23106932Y3540308D01*
X23161254Y3361232D01*
X23179596Y3175000D01*
X23161254Y2988768D01*
X23143334Y2929692D01*
X23106931Y2809689D01*
X23018719Y2644656D01*
X22900001Y2499999D01*
X22755344Y2381281D01*
X22590311Y2293069D01*
X22590308Y2293068D01*
X22411232Y2238746D01*
X22271665Y2225000D01*
X22178335Y2225000D01*
X22038768Y2238746D01*
X21859692Y2293068D01*
X21859689Y2293069D01*
X21694656Y2381281D01*
X21549999Y2499999D01*
X21431281Y2644656D01*
X21343069Y2809689D01*
X21306667Y2929692D01*
X21288746Y2988768D01*
X21270404Y3175000D01*
X21288746Y3361232D01*
X21343068Y3540308D01*
X21343069Y3540311D01*
X21431281Y3705344D01*
X21549999Y3850001D01*
X21694656Y3968719D01*
X21859689Y4056931D01*
X22038768Y4111254D01*
X22178335Y4125000D01*
X22271665Y4125000D01*
X22411232Y4111254D01*
X22411232Y4111254D01*
G37*
G36*
X24951232Y4111254D02*
X25130311Y4056931D01*
X25295344Y3968719D01*
X25440001Y3850001D01*
X25558719Y3705344D01*
X25646931Y3540311D01*
X25646932Y3540308D01*
X25701254Y3361232D01*
X25719596Y3175000D01*
X25701254Y2988768D01*
X25683334Y2929692D01*
X25646931Y2809689D01*
X25558719Y2644656D01*
X25440001Y2499999D01*
X25295344Y2381281D01*
X25130311Y2293069D01*
X25130308Y2293068D01*
X24951232Y2238746D01*
X24811665Y2225000D01*
X24718335Y2225000D01*
X24578768Y2238746D01*
X24399692Y2293068D01*
X24399689Y2293069D01*
X24234656Y2381281D01*
X24089999Y2499999D01*
X23971281Y2644656D01*
X23883069Y2809689D01*
X23846667Y2929692D01*
X23828746Y2988768D01*
X23810404Y3175000D01*
X23828746Y3361232D01*
X23883068Y3540308D01*
X23883069Y3540311D01*
X23971281Y3705344D01*
X24089999Y3850001D01*
X24234656Y3968719D01*
X24399689Y4056931D01*
X24578768Y4111254D01*
X24718335Y4125000D01*
X24811665Y4125000D01*
X24951232Y4111254D01*
X24951232Y4111254D01*
G37*
G36*
X19871232Y4111254D02*
X20050311Y4056931D01*
X20215344Y3968719D01*
X20360001Y3850001D01*
X20478719Y3705344D01*
X20566931Y3540311D01*
X20566932Y3540308D01*
X20621254Y3361232D01*
X20639596Y3175000D01*
X20621254Y2988768D01*
X20603334Y2929692D01*
X20566931Y2809689D01*
X20478719Y2644656D01*
X20360001Y2499999D01*
X20215344Y2381281D01*
X20050311Y2293069D01*
X20050308Y2293068D01*
X19871232Y2238746D01*
X19731665Y2225000D01*
X19638335Y2225000D01*
X19498768Y2238746D01*
X19319692Y2293068D01*
X19319689Y2293069D01*
X19154656Y2381281D01*
X19009999Y2499999D01*
X18891281Y2644656D01*
X18803069Y2809689D01*
X18766667Y2929692D01*
X18748746Y2988768D01*
X18730404Y3175000D01*
X18748746Y3361232D01*
X18803068Y3540308D01*
X18803069Y3540311D01*
X18891281Y3705344D01*
X19009999Y3850001D01*
X19154656Y3968719D01*
X19319689Y4056931D01*
X19498768Y4111254D01*
X19638335Y4125000D01*
X19731665Y4125000D01*
X19871232Y4111254D01*
X19871232Y4111254D01*
G37*
G36*
X9076232Y4231254D02*
X9197279Y4194535D01*
X9255311Y4176931D01*
X9420344Y4088719D01*
X9565001Y3970001D01*
X9683719Y3825344D01*
X9771931Y3660311D01*
X9771932Y3660308D01*
X9826254Y3481232D01*
X9844596Y3295000D01*
X9826254Y3108768D01*
X9771931Y2929689D01*
X9683719Y2764656D01*
X9565001Y2619999D01*
X9420344Y2501281D01*
X9255311Y2413069D01*
X9076232Y2358746D01*
X8936665Y2345000D01*
X8843335Y2345000D01*
X8703768Y2358746D01*
X8524689Y2413069D01*
X8359656Y2501281D01*
X8214999Y2619999D01*
X8096281Y2764656D01*
X8008069Y2929689D01*
X7953746Y3108768D01*
X7935404Y3295000D01*
X7953746Y3481232D01*
X8008068Y3660308D01*
X8008069Y3660311D01*
X8096281Y3825344D01*
X8214999Y3970001D01*
X8359656Y4088719D01*
X8524689Y4176931D01*
X8582722Y4194535D01*
X8703768Y4231254D01*
X8843335Y4245000D01*
X8936665Y4245000D01*
X9076232Y4231254D01*
X9076232Y4231254D01*
G37*
G36*
X33206232Y4231254D02*
X33327279Y4194535D01*
X33385311Y4176931D01*
X33550344Y4088719D01*
X33695001Y3970001D01*
X33813719Y3825344D01*
X33901931Y3660311D01*
X33901932Y3660308D01*
X33956254Y3481232D01*
X33974596Y3295000D01*
X33956254Y3108768D01*
X33901931Y2929689D01*
X33813719Y2764656D01*
X33695001Y2619999D01*
X33550344Y2501281D01*
X33385311Y2413069D01*
X33206232Y2358746D01*
X33066665Y2345000D01*
X32973335Y2345000D01*
X32833768Y2358746D01*
X32654689Y2413069D01*
X32489656Y2501281D01*
X32344999Y2619999D01*
X32226281Y2764656D01*
X32138069Y2929689D01*
X32083746Y3108768D01*
X32065404Y3295000D01*
X32083746Y3481232D01*
X32138068Y3660308D01*
X32138069Y3660311D01*
X32226281Y3825344D01*
X32344999Y3970001D01*
X32489656Y4088719D01*
X32654689Y4176931D01*
X32712722Y4194535D01*
X32833768Y4231254D01*
X32973335Y4245000D01*
X33066665Y4245000D01*
X33206232Y4231254D01*
X33206232Y4231254D01*
G37*
G36*
X4006034Y4795530D02*
X4194538Y4738348D01*
X4368257Y4645493D01*
X4368259Y4645492D01*
X4368258Y4645492D01*
X4520528Y4520528D01*
X4634288Y4381910D01*
X4645493Y4368257D01*
X4738348Y4194538D01*
X4795530Y4006034D01*
X4814838Y3810000D01*
X4795530Y3613966D01*
X4738348Y3425462D01*
X4704016Y3361232D01*
X4645492Y3251742D01*
X4520528Y3099472D01*
X4385634Y2988768D01*
X4368257Y2974507D01*
X4194538Y2881652D01*
X4006034Y2824470D01*
X3859121Y2810000D01*
X3760879Y2810000D01*
X3613966Y2824470D01*
X3425462Y2881652D01*
X3251743Y2974507D01*
X3234366Y2988768D01*
X3099472Y3099472D01*
X2974508Y3251742D01*
X2915984Y3361232D01*
X2881652Y3425462D01*
X2824470Y3613966D01*
X2805162Y3810000D01*
X2824470Y4006034D01*
X2881652Y4194538D01*
X2974507Y4368257D01*
X2985712Y4381910D01*
X3099472Y4520528D01*
X3251742Y4645492D01*
X3251741Y4645492D01*
X3251743Y4645493D01*
X3425462Y4738348D01*
X3613966Y4795530D01*
X3760879Y4810000D01*
X3859121Y4810000D01*
X4006034Y4795530D01*
X4006034Y4795530D01*
G37*
G36*
X56245000Y4715000D02*
X54245000Y4715000D01*
X54245000Y6715000D01*
X56245000Y6715000D01*
X56245000Y4715000D01*
X56245000Y4715000D01*
G37*
G36*
X72586034Y7335530D02*
X72774538Y7278348D01*
X72948257Y7185493D01*
X72948259Y7185492D01*
X72948258Y7185492D01*
X73100528Y7060528D01*
X73214288Y6921910D01*
X73225493Y6908257D01*
X73318348Y6734538D01*
X73375530Y6546034D01*
X73394838Y6350000D01*
X73375530Y6153966D01*
X73318348Y5965462D01*
X73225493Y5791743D01*
X73225492Y5791742D01*
X73100528Y5639472D01*
X72961910Y5525712D01*
X72948257Y5514507D01*
X72774538Y5421652D01*
X72586034Y5364470D01*
X72439121Y5350000D01*
X72340879Y5350000D01*
X72193966Y5364470D01*
X72005462Y5421652D01*
X71831743Y5514507D01*
X71818090Y5525712D01*
X71679472Y5639472D01*
X71554508Y5791742D01*
X71554507Y5791743D01*
X71461652Y5965462D01*
X71404470Y6153966D01*
X71385162Y6350000D01*
X71404470Y6546034D01*
X71461652Y6734538D01*
X71554507Y6908257D01*
X71565712Y6921910D01*
X71679472Y7060528D01*
X71831742Y7185492D01*
X71831741Y7185492D01*
X71831743Y7185493D01*
X72005462Y7278348D01*
X72193966Y7335530D01*
X72340879Y7350000D01*
X72439121Y7350000D01*
X72586034Y7335530D01*
X72586034Y7335530D01*
G37*
G36*
X64966034Y7335530D02*
X65154538Y7278348D01*
X65328257Y7185493D01*
X65328259Y7185492D01*
X65328258Y7185492D01*
X65480528Y7060528D01*
X65594288Y6921910D01*
X65605493Y6908257D01*
X65698348Y6734538D01*
X65755530Y6546034D01*
X65774838Y6350000D01*
X65755530Y6153966D01*
X65698348Y5965462D01*
X65605493Y5791743D01*
X65605492Y5791742D01*
X65480528Y5639472D01*
X65341910Y5525712D01*
X65328257Y5514507D01*
X65154538Y5421652D01*
X64966034Y5364470D01*
X64819121Y5350000D01*
X64720879Y5350000D01*
X64573966Y5364470D01*
X64385462Y5421652D01*
X64211743Y5514507D01*
X64198090Y5525712D01*
X64059472Y5639472D01*
X63934508Y5791742D01*
X63934507Y5791743D01*
X63841652Y5965462D01*
X63784470Y6153966D01*
X63765162Y6350000D01*
X63784470Y6546034D01*
X63841652Y6734538D01*
X63934507Y6908257D01*
X63945712Y6921910D01*
X64059472Y7060528D01*
X64211742Y7185492D01*
X64211741Y7185492D01*
X64211743Y7185493D01*
X64385462Y7278348D01*
X64573966Y7335530D01*
X64720879Y7350000D01*
X64819121Y7350000D01*
X64966034Y7335530D01*
X64966034Y7335530D01*
G37*
G36*
X4006034Y7335530D02*
X4194538Y7278348D01*
X4368257Y7185493D01*
X4368259Y7185492D01*
X4368258Y7185492D01*
X4520528Y7060528D01*
X4634288Y6921910D01*
X4645493Y6908257D01*
X4738348Y6734538D01*
X4795530Y6546034D01*
X4814838Y6350000D01*
X4795530Y6153966D01*
X4738348Y5965462D01*
X4645493Y5791743D01*
X4645492Y5791742D01*
X4520528Y5639472D01*
X4381910Y5525712D01*
X4368257Y5514507D01*
X4194538Y5421652D01*
X4006034Y5364470D01*
X3859121Y5350000D01*
X3760879Y5350000D01*
X3613966Y5364470D01*
X3425462Y5421652D01*
X3251743Y5514507D01*
X3238090Y5525712D01*
X3099472Y5639472D01*
X2974508Y5791742D01*
X2974507Y5791743D01*
X2881652Y5965462D01*
X2824470Y6153966D01*
X2805162Y6350000D01*
X2824470Y6546034D01*
X2881652Y6734538D01*
X2974507Y6908257D01*
X2985712Y6921910D01*
X3099472Y7060528D01*
X3251742Y7185492D01*
X3251741Y7185492D01*
X3251743Y7185493D01*
X3425462Y7278348D01*
X3613966Y7335530D01*
X3760879Y7350000D01*
X3859121Y7350000D01*
X4006034Y7335530D01*
X4006034Y7335530D01*
G37*
G36*
X64966034Y9875530D02*
X65021364Y9858746D01*
X65154538Y9818348D01*
X65328257Y9725493D01*
X65328259Y9725492D01*
X65328258Y9725492D01*
X65480528Y9600528D01*
X65594288Y9461910D01*
X65605493Y9448257D01*
X65698348Y9274538D01*
X65755530Y9086034D01*
X65774838Y8890000D01*
X65755530Y8693966D01*
X65698348Y8505462D01*
X65650699Y8416318D01*
X65605492Y8331742D01*
X65480528Y8179472D01*
X65341910Y8065712D01*
X65328257Y8054507D01*
X65154538Y7961652D01*
X64966034Y7904470D01*
X64819121Y7890000D01*
X64720879Y7890000D01*
X64573966Y7904470D01*
X64385462Y7961652D01*
X64211743Y8054507D01*
X64198090Y8065712D01*
X64059472Y8179472D01*
X63934508Y8331742D01*
X63889301Y8416318D01*
X63841652Y8505462D01*
X63784470Y8693966D01*
X63765162Y8890000D01*
X63784470Y9086034D01*
X63841652Y9274538D01*
X63934507Y9448257D01*
X63945712Y9461910D01*
X64059472Y9600528D01*
X64211742Y9725492D01*
X64211741Y9725492D01*
X64211743Y9725493D01*
X64385462Y9818348D01*
X64518637Y9858746D01*
X64573966Y9875530D01*
X64720879Y9890000D01*
X64819121Y9890000D01*
X64966034Y9875530D01*
X64966034Y9875530D01*
G37*
G36*
X72586034Y9875530D02*
X72641364Y9858746D01*
X72774538Y9818348D01*
X72948257Y9725493D01*
X72948259Y9725492D01*
X72948258Y9725492D01*
X73100528Y9600528D01*
X73214288Y9461910D01*
X73225493Y9448257D01*
X73318348Y9274538D01*
X73375530Y9086034D01*
X73394838Y8890000D01*
X73375530Y8693966D01*
X73318348Y8505462D01*
X73270699Y8416318D01*
X73225492Y8331742D01*
X73100528Y8179472D01*
X72961910Y8065712D01*
X72948257Y8054507D01*
X72774538Y7961652D01*
X72586034Y7904470D01*
X72439121Y7890000D01*
X72340879Y7890000D01*
X72193966Y7904470D01*
X72005462Y7961652D01*
X71831743Y8054507D01*
X71818090Y8065712D01*
X71679472Y8179472D01*
X71554508Y8331742D01*
X71509301Y8416318D01*
X71461652Y8505462D01*
X71404470Y8693966D01*
X71385162Y8890000D01*
X71404470Y9086034D01*
X71461652Y9274538D01*
X71554507Y9448257D01*
X71565712Y9461910D01*
X71679472Y9600528D01*
X71831742Y9725492D01*
X71831741Y9725492D01*
X71831743Y9725493D01*
X72005462Y9818348D01*
X72138637Y9858746D01*
X72193966Y9875530D01*
X72340879Y9890000D01*
X72439121Y9890000D01*
X72586034Y9875530D01*
X72586034Y9875530D01*
G37*
G36*
X4101689Y9851571D02*
X4283678Y9776189D01*
X4447463Y9666751D01*
X4586751Y9527463D01*
X4696189Y9363678D01*
X4771571Y9181689D01*
X4810000Y8988491D01*
X4810000Y8791509D01*
X4771571Y8598311D01*
X4696189Y8416322D01*
X4586751Y8252537D01*
X4447463Y8113249D01*
X4283678Y8003811D01*
X4101689Y7928429D01*
X3908491Y7890000D01*
X3711509Y7890000D01*
X3518311Y7928429D01*
X3336322Y8003811D01*
X3172537Y8113249D01*
X3033249Y8252537D01*
X2923811Y8416322D01*
X2848429Y8598311D01*
X2810000Y8791509D01*
X2810000Y8988491D01*
X2848429Y9181689D01*
X2923811Y9363678D01*
X3033249Y9527463D01*
X3172537Y9666751D01*
X3336322Y9776189D01*
X3518311Y9851571D01*
X3711509Y9890000D01*
X3908491Y9890000D01*
X4101689Y9851571D01*
X4101689Y9851571D01*
G37*
G36*
X55522105Y9803492D02*
X55694994Y9731879D01*
X55850590Y9627913D01*
X55982913Y9495590D01*
X56086879Y9339994D01*
X56158492Y9167105D01*
X56195000Y8983567D01*
X56195000Y8796433D01*
X56158492Y8612895D01*
X56086879Y8440006D01*
X55982913Y8284410D01*
X55850590Y8152087D01*
X55694994Y8048121D01*
X55522105Y7976508D01*
X55338567Y7940000D01*
X55151433Y7940000D01*
X54967895Y7976508D01*
X54795006Y8048121D01*
X54639410Y8152087D01*
X54507087Y8284410D01*
X54403121Y8440006D01*
X54331508Y8612895D01*
X54295000Y8796433D01*
X54295000Y8983567D01*
X54331508Y9167105D01*
X54403121Y9339994D01*
X54507087Y9495590D01*
X54639410Y9627913D01*
X54795006Y9731879D01*
X54967895Y9803492D01*
X55151433Y9840000D01*
X55338567Y9840000D01*
X55522105Y9803492D01*
X55522105Y9803492D01*
G37*
G36*
X14791232Y11731254D02*
X14970311Y11676931D01*
X15135344Y11588719D01*
X15280001Y11470001D01*
X15398719Y11325344D01*
X15486931Y11160311D01*
X15541254Y10981232D01*
X15559596Y10795000D01*
X15541254Y10608768D01*
X15486931Y10429689D01*
X15398719Y10264656D01*
X15280001Y10119999D01*
X15135344Y10001281D01*
X14970311Y9913069D01*
X14970308Y9913068D01*
X14791232Y9858746D01*
X14651665Y9845000D01*
X14558335Y9845000D01*
X14418768Y9858746D01*
X14239692Y9913068D01*
X14239689Y9913069D01*
X14074656Y10001281D01*
X13929999Y10119999D01*
X13811281Y10264656D01*
X13723069Y10429689D01*
X13668746Y10608768D01*
X13650404Y10795000D01*
X13668746Y10981232D01*
X13723069Y11160311D01*
X13811281Y11325344D01*
X13929999Y11470001D01*
X14074656Y11588719D01*
X14239689Y11676931D01*
X14418768Y11731254D01*
X14558335Y11745000D01*
X14651665Y11745000D01*
X14791232Y11731254D01*
X14791232Y11731254D01*
G37*
G36*
X27491232Y11731254D02*
X27670311Y11676931D01*
X27835344Y11588719D01*
X27980001Y11470001D01*
X28098719Y11325344D01*
X28186931Y11160311D01*
X28241254Y10981232D01*
X28259596Y10795000D01*
X28241254Y10608768D01*
X28186931Y10429689D01*
X28098719Y10264656D01*
X27980001Y10119999D01*
X27835344Y10001281D01*
X27670311Y9913069D01*
X27670308Y9913068D01*
X27491232Y9858746D01*
X27351665Y9845000D01*
X27258335Y9845000D01*
X27118768Y9858746D01*
X26939692Y9913068D01*
X26939689Y9913069D01*
X26774656Y10001281D01*
X26629999Y10119999D01*
X26511281Y10264656D01*
X26423069Y10429689D01*
X26368746Y10608768D01*
X26350404Y10795000D01*
X26368746Y10981232D01*
X26423069Y11160311D01*
X26511281Y11325344D01*
X26629999Y11470001D01*
X26774656Y11588719D01*
X26939689Y11676931D01*
X27118768Y11731254D01*
X27258335Y11745000D01*
X27351665Y11745000D01*
X27491232Y11731254D01*
X27491232Y11731254D01*
G37*
G36*
X24951232Y11731254D02*
X25130311Y11676931D01*
X25295344Y11588719D01*
X25440001Y11470001D01*
X25558719Y11325344D01*
X25646931Y11160311D01*
X25701254Y10981232D01*
X25719596Y10795000D01*
X25701254Y10608768D01*
X25646931Y10429689D01*
X25558719Y10264656D01*
X25440001Y10119999D01*
X25295344Y10001281D01*
X25130311Y9913069D01*
X25130308Y9913068D01*
X24951232Y9858746D01*
X24811665Y9845000D01*
X24718335Y9845000D01*
X24578768Y9858746D01*
X24399692Y9913068D01*
X24399689Y9913069D01*
X24234656Y10001281D01*
X24089999Y10119999D01*
X23971281Y10264656D01*
X23883069Y10429689D01*
X23828746Y10608768D01*
X23810404Y10795000D01*
X23828746Y10981232D01*
X23883069Y11160311D01*
X23971281Y11325344D01*
X24089999Y11470001D01*
X24234656Y11588719D01*
X24399689Y11676931D01*
X24578768Y11731254D01*
X24718335Y11745000D01*
X24811665Y11745000D01*
X24951232Y11731254D01*
X24951232Y11731254D01*
G37*
G36*
X30031232Y11731254D02*
X30210311Y11676931D01*
X30375344Y11588719D01*
X30520001Y11470001D01*
X30638719Y11325344D01*
X30726931Y11160311D01*
X30781254Y10981232D01*
X30799596Y10795000D01*
X30781254Y10608768D01*
X30726931Y10429689D01*
X30638719Y10264656D01*
X30520001Y10119999D01*
X30375344Y10001281D01*
X30210311Y9913069D01*
X30210308Y9913068D01*
X30031232Y9858746D01*
X29891665Y9845000D01*
X29798335Y9845000D01*
X29658768Y9858746D01*
X29479692Y9913068D01*
X29479689Y9913069D01*
X29314656Y10001281D01*
X29169999Y10119999D01*
X29051281Y10264656D01*
X28963069Y10429689D01*
X28908746Y10608768D01*
X28890404Y10795000D01*
X28908746Y10981232D01*
X28963069Y11160311D01*
X29051281Y11325344D01*
X29169999Y11470001D01*
X29314656Y11588719D01*
X29479689Y11676931D01*
X29658768Y11731254D01*
X29798335Y11745000D01*
X29891665Y11745000D01*
X30031232Y11731254D01*
X30031232Y11731254D01*
G37*
G36*
X22411232Y11731254D02*
X22590311Y11676931D01*
X22755344Y11588719D01*
X22900001Y11470001D01*
X23018719Y11325344D01*
X23106931Y11160311D01*
X23161254Y10981232D01*
X23179596Y10795000D01*
X23161254Y10608768D01*
X23106931Y10429689D01*
X23018719Y10264656D01*
X22900001Y10119999D01*
X22755344Y10001281D01*
X22590311Y9913069D01*
X22590308Y9913068D01*
X22411232Y9858746D01*
X22271665Y9845000D01*
X22178335Y9845000D01*
X22038768Y9858746D01*
X21859692Y9913068D01*
X21859689Y9913069D01*
X21694656Y10001281D01*
X21549999Y10119999D01*
X21431281Y10264656D01*
X21343069Y10429689D01*
X21288746Y10608768D01*
X21270404Y10795000D01*
X21288746Y10981232D01*
X21343069Y11160311D01*
X21431281Y11325344D01*
X21549999Y11470001D01*
X21694656Y11588719D01*
X21859689Y11676931D01*
X22038768Y11731254D01*
X22178335Y11745000D01*
X22271665Y11745000D01*
X22411232Y11731254D01*
X22411232Y11731254D01*
G37*
G36*
X19871232Y11731254D02*
X20050311Y11676931D01*
X20215344Y11588719D01*
X20360001Y11470001D01*
X20478719Y11325344D01*
X20566931Y11160311D01*
X20621254Y10981232D01*
X20639596Y10795000D01*
X20621254Y10608768D01*
X20566931Y10429689D01*
X20478719Y10264656D01*
X20360001Y10119999D01*
X20215344Y10001281D01*
X20050311Y9913069D01*
X20050308Y9913068D01*
X19871232Y9858746D01*
X19731665Y9845000D01*
X19638335Y9845000D01*
X19498768Y9858746D01*
X19319692Y9913068D01*
X19319689Y9913069D01*
X19154656Y10001281D01*
X19009999Y10119999D01*
X18891281Y10264656D01*
X18803069Y10429689D01*
X18748746Y10608768D01*
X18730404Y10795000D01*
X18748746Y10981232D01*
X18803069Y11160311D01*
X18891281Y11325344D01*
X19009999Y11470001D01*
X19154656Y11588719D01*
X19319689Y11676931D01*
X19498768Y11731254D01*
X19638335Y11745000D01*
X19731665Y11745000D01*
X19871232Y11731254D01*
X19871232Y11731254D01*
G37*
G36*
X36381232Y11731254D02*
X36560311Y11676931D01*
X36725344Y11588719D01*
X36870001Y11470001D01*
X36988719Y11325344D01*
X37076931Y11160311D01*
X37131254Y10981232D01*
X37149596Y10795000D01*
X37131254Y10608768D01*
X37076931Y10429689D01*
X36988719Y10264656D01*
X36870001Y10119999D01*
X36725344Y10001281D01*
X36560311Y9913069D01*
X36560308Y9913068D01*
X36381232Y9858746D01*
X36241665Y9845000D01*
X36148335Y9845000D01*
X36008768Y9858746D01*
X35829692Y9913068D01*
X35829689Y9913069D01*
X35664656Y10001281D01*
X35519999Y10119999D01*
X35401281Y10264656D01*
X35313069Y10429689D01*
X35258746Y10608768D01*
X35240404Y10795000D01*
X35258746Y10981232D01*
X35313069Y11160311D01*
X35401281Y11325344D01*
X35519999Y11470001D01*
X35664656Y11588719D01*
X35829689Y11676931D01*
X36008768Y11731254D01*
X36148335Y11745000D01*
X36241665Y11745000D01*
X36381232Y11731254D01*
X36381232Y11731254D01*
G37*
G36*
X33297105Y11708492D02*
X33469994Y11636879D01*
X33625590Y11532913D01*
X33757913Y11400590D01*
X33861879Y11244994D01*
X33933492Y11072105D01*
X33970000Y10888567D01*
X33970000Y10701433D01*
X33933492Y10517895D01*
X33861879Y10345006D01*
X33757913Y10189410D01*
X33625590Y10057087D01*
X33469994Y9953121D01*
X33297105Y9881508D01*
X33113567Y9845000D01*
X32926433Y9845000D01*
X32742895Y9881508D01*
X32570006Y9953121D01*
X32414410Y10057087D01*
X32282087Y10189410D01*
X32178121Y10345006D01*
X32106508Y10517895D01*
X32070000Y10701433D01*
X32070000Y10888567D01*
X32106508Y11072105D01*
X32178121Y11244994D01*
X32282087Y11400590D01*
X32414410Y11532913D01*
X32570006Y11636879D01*
X32742895Y11708492D01*
X32926433Y11745000D01*
X33113567Y11745000D01*
X33297105Y11708492D01*
X33297105Y11708492D01*
G37*
G36*
X9167105Y11708492D02*
X9339994Y11636879D01*
X9495590Y11532913D01*
X9627913Y11400590D01*
X9731879Y11244994D01*
X9803492Y11072105D01*
X9840000Y10888567D01*
X9840000Y10701433D01*
X9803492Y10517895D01*
X9731879Y10345006D01*
X9627913Y10189410D01*
X9495590Y10057087D01*
X9339994Y9953121D01*
X9167105Y9881508D01*
X8983567Y9845000D01*
X8796433Y9845000D01*
X8612895Y9881508D01*
X8440006Y9953121D01*
X8284410Y10057087D01*
X8152087Y10189410D01*
X8048121Y10345006D01*
X7976508Y10517895D01*
X7940000Y10701433D01*
X7940000Y10888567D01*
X7976508Y11072105D01*
X8048121Y11244994D01*
X8152087Y11400590D01*
X8284410Y11532913D01*
X8440006Y11636879D01*
X8612895Y11708492D01*
X8796433Y11745000D01*
X8983567Y11745000D01*
X9167105Y11708492D01*
X9167105Y11708492D01*
G37*
G36*
X46541232Y11731254D02*
X46720311Y11676931D01*
X46885344Y11588719D01*
X47030001Y11470001D01*
X47148719Y11325344D01*
X47236931Y11160311D01*
X47291254Y10981232D01*
X47309596Y10795000D01*
X47291254Y10608768D01*
X47236931Y10429689D01*
X47148719Y10264656D01*
X47030001Y10119999D01*
X46885344Y10001281D01*
X46720311Y9913069D01*
X46720308Y9913068D01*
X46541232Y9858746D01*
X46401665Y9845000D01*
X46308335Y9845000D01*
X46168768Y9858746D01*
X45989692Y9913068D01*
X45989689Y9913069D01*
X45824656Y10001281D01*
X45679999Y10119999D01*
X45561281Y10264656D01*
X45473069Y10429689D01*
X45418746Y10608768D01*
X45400404Y10795000D01*
X45418746Y10981232D01*
X45473069Y11160311D01*
X45561281Y11325344D01*
X45679999Y11470001D01*
X45824656Y11588719D01*
X45989689Y11676931D01*
X46168768Y11731254D01*
X46308335Y11745000D01*
X46401665Y11745000D01*
X46541232Y11731254D01*
X46541232Y11731254D01*
G37*
G36*
X51621232Y11731254D02*
X51800311Y11676931D01*
X51965344Y11588719D01*
X52110001Y11470001D01*
X52228719Y11325344D01*
X52316931Y11160311D01*
X52371254Y10981232D01*
X52389596Y10795000D01*
X52371254Y10608768D01*
X52316931Y10429689D01*
X52228719Y10264656D01*
X52110001Y10119999D01*
X51965344Y10001281D01*
X51800311Y9913069D01*
X51800308Y9913068D01*
X51621232Y9858746D01*
X51481665Y9845000D01*
X51388335Y9845000D01*
X51248768Y9858746D01*
X51069692Y9913068D01*
X51069689Y9913069D01*
X50904656Y10001281D01*
X50759999Y10119999D01*
X50641281Y10264656D01*
X50553069Y10429689D01*
X50498746Y10608768D01*
X50480404Y10795000D01*
X50498746Y10981232D01*
X50553069Y11160311D01*
X50641281Y11325344D01*
X50759999Y11470001D01*
X50904656Y11588719D01*
X51069689Y11676931D01*
X51248768Y11731254D01*
X51388335Y11745000D01*
X51481665Y11745000D01*
X51621232Y11731254D01*
X51621232Y11731254D01*
G37*
G36*
X44001232Y11731254D02*
X44180311Y11676931D01*
X44345344Y11588719D01*
X44490001Y11470001D01*
X44608719Y11325344D01*
X44696931Y11160311D01*
X44751254Y10981232D01*
X44769596Y10795000D01*
X44751254Y10608768D01*
X44696931Y10429689D01*
X44608719Y10264656D01*
X44490001Y10119999D01*
X44345344Y10001281D01*
X44180311Y9913069D01*
X44180308Y9913068D01*
X44001232Y9858746D01*
X43861665Y9845000D01*
X43768335Y9845000D01*
X43628768Y9858746D01*
X43449692Y9913068D01*
X43449689Y9913069D01*
X43284656Y10001281D01*
X43139999Y10119999D01*
X43021281Y10264656D01*
X42933069Y10429689D01*
X42878746Y10608768D01*
X42860404Y10795000D01*
X42878746Y10981232D01*
X42933069Y11160311D01*
X43021281Y11325344D01*
X43139999Y11470001D01*
X43284656Y11588719D01*
X43449689Y11676931D01*
X43628768Y11731254D01*
X43768335Y11745000D01*
X43861665Y11745000D01*
X44001232Y11731254D01*
X44001232Y11731254D01*
G37*
G36*
X12251232Y11731254D02*
X12430311Y11676931D01*
X12595344Y11588719D01*
X12740001Y11470001D01*
X12858719Y11325344D01*
X12946931Y11160311D01*
X13001254Y10981232D01*
X13019596Y10795000D01*
X13001254Y10608768D01*
X12946931Y10429689D01*
X12858719Y10264656D01*
X12740001Y10119999D01*
X12595344Y10001281D01*
X12430311Y9913069D01*
X12430308Y9913068D01*
X12251232Y9858746D01*
X12111665Y9845000D01*
X12018335Y9845000D01*
X11878768Y9858746D01*
X11699692Y9913068D01*
X11699689Y9913069D01*
X11534656Y10001281D01*
X11389999Y10119999D01*
X11271281Y10264656D01*
X11183069Y10429689D01*
X11128746Y10608768D01*
X11110404Y10795000D01*
X11128746Y10981232D01*
X11183069Y11160311D01*
X11271281Y11325344D01*
X11389999Y11470001D01*
X11534656Y11588719D01*
X11699689Y11676931D01*
X11878768Y11731254D01*
X12018335Y11745000D01*
X12111665Y11745000D01*
X12251232Y11731254D01*
X12251232Y11731254D01*
G37*
G36*
X41461232Y11731254D02*
X41640311Y11676931D01*
X41805344Y11588719D01*
X41950001Y11470001D01*
X42068719Y11325344D01*
X42156931Y11160311D01*
X42211254Y10981232D01*
X42229596Y10795000D01*
X42211254Y10608768D01*
X42156931Y10429689D01*
X42068719Y10264656D01*
X41950001Y10119999D01*
X41805344Y10001281D01*
X41640311Y9913069D01*
X41640308Y9913068D01*
X41461232Y9858746D01*
X41321665Y9845000D01*
X41228335Y9845000D01*
X41088768Y9858746D01*
X40909692Y9913068D01*
X40909689Y9913069D01*
X40744656Y10001281D01*
X40599999Y10119999D01*
X40481281Y10264656D01*
X40393069Y10429689D01*
X40338746Y10608768D01*
X40320404Y10795000D01*
X40338746Y10981232D01*
X40393069Y11160311D01*
X40481281Y11325344D01*
X40599999Y11470001D01*
X40744656Y11588719D01*
X40909689Y11676931D01*
X41088768Y11731254D01*
X41228335Y11745000D01*
X41321665Y11745000D01*
X41461232Y11731254D01*
X41461232Y11731254D01*
G37*
G36*
X38921232Y11731254D02*
X39100311Y11676931D01*
X39265344Y11588719D01*
X39410001Y11470001D01*
X39528719Y11325344D01*
X39616931Y11160311D01*
X39671254Y10981232D01*
X39689596Y10795000D01*
X39671254Y10608768D01*
X39616931Y10429689D01*
X39528719Y10264656D01*
X39410001Y10119999D01*
X39265344Y10001281D01*
X39100311Y9913069D01*
X39100308Y9913068D01*
X38921232Y9858746D01*
X38781665Y9845000D01*
X38688335Y9845000D01*
X38548768Y9858746D01*
X38369692Y9913068D01*
X38369689Y9913069D01*
X38204656Y10001281D01*
X38059999Y10119999D01*
X37941281Y10264656D01*
X37853069Y10429689D01*
X37798746Y10608768D01*
X37780404Y10795000D01*
X37798746Y10981232D01*
X37853069Y11160311D01*
X37941281Y11325344D01*
X38059999Y11470001D01*
X38204656Y11588719D01*
X38369689Y11676931D01*
X38548768Y11731254D01*
X38688335Y11745000D01*
X38781665Y11745000D01*
X38921232Y11731254D01*
X38921232Y11731254D01*
G37*
G36*
X17331232Y11731254D02*
X17510311Y11676931D01*
X17675344Y11588719D01*
X17820001Y11470001D01*
X17938719Y11325344D01*
X18026931Y11160311D01*
X18081254Y10981232D01*
X18099596Y10795000D01*
X18081254Y10608768D01*
X18026931Y10429689D01*
X17938719Y10264656D01*
X17820001Y10119999D01*
X17675344Y10001281D01*
X17510311Y9913069D01*
X17510308Y9913068D01*
X17331232Y9858746D01*
X17191665Y9845000D01*
X17098335Y9845000D01*
X16958768Y9858746D01*
X16779692Y9913068D01*
X16779689Y9913069D01*
X16614656Y10001281D01*
X16469999Y10119999D01*
X16351281Y10264656D01*
X16263069Y10429689D01*
X16208746Y10608768D01*
X16190404Y10795000D01*
X16208746Y10981232D01*
X16263069Y11160311D01*
X16351281Y11325344D01*
X16469999Y11470001D01*
X16614656Y11588719D01*
X16779689Y11676931D01*
X16958768Y11731254D01*
X17098335Y11745000D01*
X17191665Y11745000D01*
X17331232Y11731254D01*
X17331232Y11731254D01*
G37*
G36*
X49081232Y11731254D02*
X49260311Y11676931D01*
X49425344Y11588719D01*
X49570001Y11470001D01*
X49688719Y11325344D01*
X49776931Y11160311D01*
X49831254Y10981232D01*
X49849596Y10795000D01*
X49831254Y10608768D01*
X49776931Y10429689D01*
X49688719Y10264656D01*
X49570001Y10119999D01*
X49425344Y10001281D01*
X49260311Y9913069D01*
X49260308Y9913068D01*
X49081232Y9858746D01*
X48941665Y9845000D01*
X48848335Y9845000D01*
X48708768Y9858746D01*
X48529692Y9913068D01*
X48529689Y9913069D01*
X48364656Y10001281D01*
X48219999Y10119999D01*
X48101281Y10264656D01*
X48013069Y10429689D01*
X47958746Y10608768D01*
X47940404Y10795000D01*
X47958746Y10981232D01*
X48013069Y11160311D01*
X48101281Y11325344D01*
X48219999Y11470001D01*
X48364656Y11588719D01*
X48529689Y11676931D01*
X48708768Y11731254D01*
X48848335Y11745000D01*
X48941665Y11745000D01*
X49081232Y11731254D01*
X49081232Y11731254D01*
G37*
G36*
X72586034Y12415530D02*
X72774538Y12358348D01*
X72948257Y12265493D01*
X72948259Y12265492D01*
X72948258Y12265492D01*
X73100528Y12140528D01*
X73214288Y12001910D01*
X73225493Y11988257D01*
X73318348Y11814538D01*
X73318349Y11814535D01*
X73375530Y11626034D01*
X73394838Y11430000D01*
X73375530Y11233966D01*
X73326430Y11072103D01*
X73318348Y11045462D01*
X73225493Y10871743D01*
X73225492Y10871742D01*
X73100528Y10719472D01*
X72965634Y10608768D01*
X72948257Y10594507D01*
X72774538Y10501652D01*
X72586034Y10444470D01*
X72439121Y10430000D01*
X72340879Y10430000D01*
X72193966Y10444470D01*
X72005462Y10501652D01*
X71831743Y10594507D01*
X71814366Y10608768D01*
X71679472Y10719472D01*
X71554508Y10871742D01*
X71554507Y10871743D01*
X71461652Y11045462D01*
X71453571Y11072103D01*
X71404470Y11233966D01*
X71385162Y11430000D01*
X71404470Y11626034D01*
X71461651Y11814535D01*
X71461652Y11814538D01*
X71554507Y11988257D01*
X71565712Y12001910D01*
X71679472Y12140528D01*
X71831742Y12265492D01*
X71831741Y12265492D01*
X71831743Y12265493D01*
X72005462Y12358348D01*
X72193966Y12415530D01*
X72340879Y12430000D01*
X72439121Y12430000D01*
X72586034Y12415530D01*
X72586034Y12415530D01*
G37*
G36*
X64966034Y12415530D02*
X65154538Y12358348D01*
X65328257Y12265493D01*
X65328259Y12265492D01*
X65328258Y12265492D01*
X65480528Y12140528D01*
X65594288Y12001910D01*
X65605493Y11988257D01*
X65698348Y11814538D01*
X65698349Y11814535D01*
X65755530Y11626034D01*
X65774838Y11430000D01*
X65755530Y11233966D01*
X65706430Y11072103D01*
X65698348Y11045462D01*
X65605493Y10871743D01*
X65605492Y10871742D01*
X65480528Y10719472D01*
X65345634Y10608768D01*
X65328257Y10594507D01*
X65154538Y10501652D01*
X64966034Y10444470D01*
X64819121Y10430000D01*
X64720879Y10430000D01*
X64573966Y10444470D01*
X64385462Y10501652D01*
X64211743Y10594507D01*
X64194366Y10608768D01*
X64059472Y10719472D01*
X63934508Y10871742D01*
X63934507Y10871743D01*
X63841652Y11045462D01*
X63833571Y11072103D01*
X63784470Y11233966D01*
X63765162Y11430000D01*
X63784470Y11626034D01*
X63841651Y11814535D01*
X63841652Y11814538D01*
X63934507Y11988257D01*
X63945712Y12001910D01*
X64059472Y12140528D01*
X64211742Y12265492D01*
X64211741Y12265492D01*
X64211743Y12265493D01*
X64385462Y12358348D01*
X64573966Y12415530D01*
X64720879Y12430000D01*
X64819121Y12430000D01*
X64966034Y12415530D01*
X64966034Y12415530D01*
G37*
G36*
X72586034Y14955530D02*
X72748476Y14906254D01*
X72774538Y14898348D01*
X72948257Y14805493D01*
X72948259Y14805492D01*
X72948258Y14805492D01*
X73100528Y14680528D01*
X73214288Y14541910D01*
X73225493Y14528257D01*
X73318348Y14354538D01*
X73318349Y14354535D01*
X73375530Y14166034D01*
X73394838Y13970000D01*
X73375530Y13773966D01*
X73324181Y13604689D01*
X73318348Y13585462D01*
X73240412Y13439655D01*
X73225492Y13411742D01*
X73100528Y13259472D01*
X72961910Y13145712D01*
X72948257Y13134507D01*
X72774538Y13041652D01*
X72774535Y13041651D01*
X72703161Y13020000D01*
X72586034Y12984470D01*
X72439121Y12970000D01*
X72340879Y12970000D01*
X72193966Y12984470D01*
X72076839Y13020000D01*
X72005465Y13041651D01*
X72005462Y13041652D01*
X71831743Y13134507D01*
X71818090Y13145712D01*
X71679472Y13259472D01*
X71554508Y13411742D01*
X71539588Y13439655D01*
X71461652Y13585462D01*
X71455820Y13604689D01*
X71404470Y13773966D01*
X71385162Y13970000D01*
X71404470Y14166034D01*
X71461651Y14354535D01*
X71461652Y14354538D01*
X71554507Y14528257D01*
X71565712Y14541910D01*
X71679472Y14680528D01*
X71831742Y14805492D01*
X71831741Y14805492D01*
X71831743Y14805493D01*
X72005462Y14898348D01*
X72031525Y14906254D01*
X72193966Y14955530D01*
X72340879Y14970000D01*
X72439121Y14970000D01*
X72586034Y14955530D01*
X72586034Y14955530D01*
G37*
G36*
X64966034Y14955530D02*
X65128476Y14906254D01*
X65154538Y14898348D01*
X65328257Y14805493D01*
X65328259Y14805492D01*
X65328258Y14805492D01*
X65480528Y14680528D01*
X65594288Y14541910D01*
X65605493Y14528257D01*
X65698348Y14354538D01*
X65698349Y14354535D01*
X65755530Y14166034D01*
X65774838Y13970000D01*
X65755530Y13773966D01*
X65704181Y13604689D01*
X65698348Y13585462D01*
X65620412Y13439655D01*
X65605492Y13411742D01*
X65480528Y13259472D01*
X65341910Y13145712D01*
X65328257Y13134507D01*
X65154538Y13041652D01*
X65154535Y13041651D01*
X65083161Y13020000D01*
X64966034Y12984470D01*
X64819121Y12970000D01*
X64720879Y12970000D01*
X64573966Y12984470D01*
X64456839Y13020000D01*
X64385465Y13041651D01*
X64385462Y13041652D01*
X64211743Y13134507D01*
X64198090Y13145712D01*
X64059472Y13259472D01*
X63934508Y13411742D01*
X63919588Y13439655D01*
X63841652Y13585462D01*
X63835820Y13604689D01*
X63784470Y13773966D01*
X63765162Y13970000D01*
X63784470Y14166034D01*
X63841651Y14354535D01*
X63841652Y14354538D01*
X63934507Y14528257D01*
X63945712Y14541910D01*
X64059472Y14680528D01*
X64211742Y14805492D01*
X64211741Y14805492D01*
X64211743Y14805493D01*
X64385462Y14898348D01*
X64411525Y14906254D01*
X64573966Y14955530D01*
X64720879Y14970000D01*
X64819121Y14970000D01*
X64966034Y14955530D01*
X64966034Y14955530D01*
G37*
G36*
X36381232Y14906254D02*
X36560311Y14851931D01*
X36725344Y14763719D01*
X36870001Y14645001D01*
X36988719Y14500344D01*
X37076931Y14335311D01*
X37076932Y14335308D01*
X37131254Y14156232D01*
X37149596Y13970000D01*
X37131254Y13783768D01*
X37096363Y13668746D01*
X37076931Y13604689D01*
X36988719Y13439656D01*
X36870001Y13294999D01*
X36725344Y13176281D01*
X36560311Y13088069D01*
X36560308Y13088068D01*
X36381232Y13033746D01*
X36241665Y13020000D01*
X36148335Y13020000D01*
X36008768Y13033746D01*
X35829692Y13088068D01*
X35829689Y13088069D01*
X35664656Y13176281D01*
X35519999Y13294999D01*
X35401281Y13439656D01*
X35313069Y13604689D01*
X35293638Y13668746D01*
X35258746Y13783768D01*
X35240404Y13970000D01*
X35258746Y14156232D01*
X35313068Y14335308D01*
X35313069Y14335311D01*
X35401281Y14500344D01*
X35519999Y14645001D01*
X35664656Y14763719D01*
X35829689Y14851931D01*
X36008768Y14906254D01*
X36148335Y14920000D01*
X36241665Y14920000D01*
X36381232Y14906254D01*
X36381232Y14906254D01*
G37*
G36*
X51621232Y14906254D02*
X51800311Y14851931D01*
X51965344Y14763719D01*
X52110001Y14645001D01*
X52228719Y14500344D01*
X52316931Y14335311D01*
X52316932Y14335308D01*
X52371254Y14156232D01*
X52389596Y13970000D01*
X52371254Y13783768D01*
X52336363Y13668746D01*
X52316931Y13604689D01*
X52228719Y13439656D01*
X52110001Y13294999D01*
X51965344Y13176281D01*
X51800311Y13088069D01*
X51800308Y13088068D01*
X51621232Y13033746D01*
X51481665Y13020000D01*
X51388335Y13020000D01*
X51248768Y13033746D01*
X51069692Y13088068D01*
X51069689Y13088069D01*
X50904656Y13176281D01*
X50759999Y13294999D01*
X50641281Y13439656D01*
X50553069Y13604689D01*
X50533638Y13668746D01*
X50498746Y13783768D01*
X50480404Y13970000D01*
X50498746Y14156232D01*
X50553068Y14335308D01*
X50553069Y14335311D01*
X50641281Y14500344D01*
X50759999Y14645001D01*
X50904656Y14763719D01*
X51069689Y14851931D01*
X51248768Y14906254D01*
X51388335Y14920000D01*
X51481665Y14920000D01*
X51621232Y14906254D01*
X51621232Y14906254D01*
G37*
G36*
X16152105Y15518492D02*
X16324994Y15446879D01*
X16480590Y15342913D01*
X16612913Y15210590D01*
X16716879Y15054994D01*
X16788492Y14882105D01*
X16825000Y14698567D01*
X16825000Y14511433D01*
X16788492Y14327895D01*
X16716879Y14155006D01*
X16612913Y13999410D01*
X16480590Y13867087D01*
X16324994Y13763121D01*
X16152105Y13691508D01*
X15968567Y13655000D01*
X15781433Y13655000D01*
X15597895Y13691508D01*
X15425006Y13763121D01*
X15269410Y13867087D01*
X15137087Y13999410D01*
X15033121Y14155006D01*
X14961508Y14327895D01*
X14925000Y14511433D01*
X14925000Y14698567D01*
X14961508Y14882105D01*
X15033121Y15054994D01*
X15137087Y15210590D01*
X15269410Y15342913D01*
X15425006Y15446879D01*
X15597895Y15518492D01*
X15781433Y15555000D01*
X15968567Y15555000D01*
X16152105Y15518492D01*
X16152105Y15518492D01*
G37*
G36*
X13521232Y15541254D02*
X13576562Y15524470D01*
X13700311Y15486931D01*
X13865344Y15398719D01*
X14010001Y15280001D01*
X14128719Y15135344D01*
X14216931Y14970311D01*
X14216932Y14970308D01*
X14238760Y14898349D01*
X14271254Y14791232D01*
X14289596Y14605000D01*
X14271254Y14418768D01*
X14216931Y14239689D01*
X14128719Y14074656D01*
X14010001Y13929999D01*
X13865344Y13811281D01*
X13700311Y13723069D01*
X13700308Y13723068D01*
X13521232Y13668746D01*
X13381665Y13655000D01*
X13288335Y13655000D01*
X13148768Y13668746D01*
X12969692Y13723068D01*
X12969689Y13723069D01*
X12804656Y13811281D01*
X12659999Y13929999D01*
X12541281Y14074656D01*
X12453069Y14239689D01*
X12398746Y14418768D01*
X12380404Y14605000D01*
X12398746Y14791232D01*
X12431240Y14898349D01*
X12453068Y14970308D01*
X12453069Y14970311D01*
X12541281Y15135344D01*
X12659999Y15280001D01*
X12804656Y15398719D01*
X12969689Y15486931D01*
X13093439Y15524470D01*
X13148768Y15541254D01*
X13288335Y15555000D01*
X13381665Y15555000D01*
X13521232Y15541254D01*
X13521232Y15541254D01*
G37*
G36*
X3452105Y15518492D02*
X3624994Y15446879D01*
X3780590Y15342913D01*
X3912913Y15210590D01*
X4016879Y15054994D01*
X4088492Y14882105D01*
X4125000Y14698567D01*
X4125000Y14511433D01*
X4088492Y14327895D01*
X4016879Y14155006D01*
X3912913Y13999410D01*
X3780590Y13867087D01*
X3624994Y13763121D01*
X3452105Y13691508D01*
X3268567Y13655000D01*
X3081433Y13655000D01*
X2897895Y13691508D01*
X2725006Y13763121D01*
X2569410Y13867087D01*
X2437087Y13999410D01*
X2333121Y14155006D01*
X2261508Y14327895D01*
X2225000Y14511433D01*
X2225000Y14698567D01*
X2261508Y14882105D01*
X2333121Y15054994D01*
X2437087Y15210590D01*
X2569410Y15342913D01*
X2725006Y15446879D01*
X2897895Y15518492D01*
X3081433Y15555000D01*
X3268567Y15555000D01*
X3452105Y15518492D01*
X3452105Y15518492D01*
G37*
G36*
X21152105Y15518492D02*
X21324994Y15446879D01*
X21480590Y15342913D01*
X21612913Y15210590D01*
X21716879Y15054994D01*
X21788492Y14882105D01*
X21825000Y14698567D01*
X21825000Y14511433D01*
X21788492Y14327895D01*
X21716879Y14155006D01*
X21612913Y13999410D01*
X21480590Y13867087D01*
X21324994Y13763121D01*
X21152105Y13691508D01*
X20968567Y13655000D01*
X20781433Y13655000D01*
X20597895Y13691508D01*
X20425006Y13763121D01*
X20269410Y13867087D01*
X20137087Y13999410D01*
X20033121Y14155006D01*
X19961508Y14327895D01*
X19925000Y14511433D01*
X19925000Y14698567D01*
X19961508Y14882105D01*
X20033121Y15054994D01*
X20137087Y15210590D01*
X20269410Y15342913D01*
X20425006Y15446879D01*
X20597895Y15518492D01*
X20781433Y15555000D01*
X20968567Y15555000D01*
X21152105Y15518492D01*
X21152105Y15518492D01*
G37*
G36*
X72586034Y17495530D02*
X72748476Y17446254D01*
X72774538Y17438348D01*
X72948257Y17345493D01*
X72948259Y17345492D01*
X72948258Y17345492D01*
X73100528Y17220528D01*
X73214288Y17081910D01*
X73225493Y17068257D01*
X73318348Y16894538D01*
X73318349Y16894535D01*
X73375530Y16706034D01*
X73394838Y16510000D01*
X73375530Y16313966D01*
X73324181Y16144689D01*
X73318348Y16125462D01*
X73240412Y15979655D01*
X73225492Y15951742D01*
X73100528Y15799472D01*
X72961910Y15685712D01*
X72948257Y15674507D01*
X72774538Y15581652D01*
X72774535Y15581651D01*
X72586034Y15524470D01*
X72439121Y15510000D01*
X72340879Y15510000D01*
X72193966Y15524470D01*
X72005465Y15581651D01*
X72005462Y15581652D01*
X71831743Y15674507D01*
X71818090Y15685712D01*
X71679472Y15799472D01*
X71554508Y15951742D01*
X71539588Y15979655D01*
X71461652Y16125462D01*
X71455820Y16144689D01*
X71404470Y16313966D01*
X71385162Y16510000D01*
X71404470Y16706034D01*
X71461651Y16894535D01*
X71461652Y16894538D01*
X71554507Y17068257D01*
X71565712Y17081910D01*
X71679472Y17220528D01*
X71831742Y17345492D01*
X71831741Y17345492D01*
X71831743Y17345493D01*
X72005462Y17438348D01*
X72031525Y17446254D01*
X72193966Y17495530D01*
X72340879Y17510000D01*
X72439121Y17510000D01*
X72586034Y17495530D01*
X72586034Y17495530D01*
G37*
G36*
X64966034Y17495530D02*
X65128476Y17446254D01*
X65154538Y17438348D01*
X65328257Y17345493D01*
X65328259Y17345492D01*
X65328258Y17345492D01*
X65480528Y17220528D01*
X65594288Y17081910D01*
X65605493Y17068257D01*
X65698348Y16894538D01*
X65698349Y16894535D01*
X65755530Y16706034D01*
X65774838Y16510000D01*
X65755530Y16313966D01*
X65704181Y16144689D01*
X65698348Y16125462D01*
X65620412Y15979655D01*
X65605492Y15951742D01*
X65480528Y15799472D01*
X65341910Y15685712D01*
X65328257Y15674507D01*
X65154538Y15581652D01*
X65154535Y15581651D01*
X64966034Y15524470D01*
X64819121Y15510000D01*
X64720879Y15510000D01*
X64573966Y15524470D01*
X64385465Y15581651D01*
X64385462Y15581652D01*
X64211743Y15674507D01*
X64198090Y15685712D01*
X64059472Y15799472D01*
X63934508Y15951742D01*
X63919588Y15979655D01*
X63841652Y16125462D01*
X63835820Y16144689D01*
X63784470Y16313966D01*
X63765162Y16510000D01*
X63784470Y16706034D01*
X63841651Y16894535D01*
X63841652Y16894538D01*
X63934507Y17068257D01*
X63945712Y17081910D01*
X64059472Y17220528D01*
X64211742Y17345492D01*
X64211741Y17345492D01*
X64211743Y17345493D01*
X64385462Y17438348D01*
X64411525Y17446254D01*
X64573966Y17495530D01*
X64720879Y17510000D01*
X64819121Y17510000D01*
X64966034Y17495530D01*
X64966034Y17495530D01*
G37*
G36*
X36381232Y17446254D02*
X36560311Y17391931D01*
X36725344Y17303719D01*
X36870001Y17185001D01*
X36988719Y17040344D01*
X37076931Y16875311D01*
X37131254Y16696232D01*
X37149596Y16510000D01*
X37131254Y16323768D01*
X37076931Y16144689D01*
X36988719Y15979656D01*
X36870001Y15834999D01*
X36725344Y15716281D01*
X36560311Y15628069D01*
X36560308Y15628068D01*
X36381232Y15573746D01*
X36241665Y15560000D01*
X36148335Y15560000D01*
X36008768Y15573746D01*
X35829692Y15628068D01*
X35829689Y15628069D01*
X35664656Y15716281D01*
X35519999Y15834999D01*
X35401281Y15979656D01*
X35313069Y16144689D01*
X35258746Y16323768D01*
X35240404Y16510000D01*
X35258746Y16696232D01*
X35313069Y16875311D01*
X35401281Y17040344D01*
X35519999Y17185001D01*
X35664656Y17303719D01*
X35829689Y17391931D01*
X36008768Y17446254D01*
X36148335Y17460000D01*
X36241665Y17460000D01*
X36381232Y17446254D01*
X36381232Y17446254D01*
G37*
G36*
X51621232Y17446254D02*
X51800311Y17391931D01*
X51965344Y17303719D01*
X52110001Y17185001D01*
X52228719Y17040344D01*
X52316931Y16875311D01*
X52371254Y16696232D01*
X52389596Y16510000D01*
X52371254Y16323768D01*
X52316931Y16144689D01*
X52228719Y15979656D01*
X52110001Y15834999D01*
X51965344Y15716281D01*
X51800311Y15628069D01*
X51800308Y15628068D01*
X51621232Y15573746D01*
X51481665Y15560000D01*
X51388335Y15560000D01*
X51248768Y15573746D01*
X51069692Y15628068D01*
X51069689Y15628069D01*
X50904656Y15716281D01*
X50759999Y15834999D01*
X50641281Y15979656D01*
X50553069Y16144689D01*
X50498746Y16323768D01*
X50480404Y16510000D01*
X50498746Y16696232D01*
X50553069Y16875311D01*
X50641281Y17040344D01*
X50759999Y17185001D01*
X50904656Y17303719D01*
X51069689Y17391931D01*
X51248768Y17446254D01*
X51388335Y17460000D01*
X51481665Y17460000D01*
X51621232Y17446254D01*
X51621232Y17446254D01*
G37*
G36*
X19415000Y16780000D02*
X17415000Y16780000D01*
X17415000Y18780000D01*
X19415000Y18780000D01*
X19415000Y16780000D01*
X19415000Y16780000D01*
G37*
G36*
X21151034Y18765530D02*
X21313476Y18716254D01*
X21339538Y18708348D01*
X21513257Y18615493D01*
X21513259Y18615492D01*
X21513258Y18615492D01*
X21665528Y18490528D01*
X21779288Y18351910D01*
X21790493Y18338257D01*
X21883348Y18164538D01*
X21883349Y18164535D01*
X21940530Y17976034D01*
X21959838Y17780000D01*
X21940530Y17583966D01*
X21889181Y17414689D01*
X21883348Y17395462D01*
X21805412Y17249655D01*
X21790492Y17221742D01*
X21665528Y17069472D01*
X21526910Y16955712D01*
X21513257Y16944507D01*
X21339538Y16851652D01*
X21339535Y16851651D01*
X21268161Y16830000D01*
X21151034Y16794470D01*
X21004121Y16780000D01*
X20905879Y16780000D01*
X20758966Y16794470D01*
X20641839Y16830000D01*
X20570465Y16851651D01*
X20570462Y16851652D01*
X20396743Y16944507D01*
X20383090Y16955712D01*
X20244472Y17069472D01*
X20119508Y17221742D01*
X20104588Y17249655D01*
X20026652Y17395462D01*
X20020820Y17414689D01*
X19969470Y17583966D01*
X19950162Y17780000D01*
X19969470Y17976034D01*
X20026651Y18164535D01*
X20026652Y18164538D01*
X20119507Y18338257D01*
X20130712Y18351910D01*
X20244472Y18490528D01*
X20396742Y18615492D01*
X20396741Y18615492D01*
X20396743Y18615493D01*
X20570462Y18708348D01*
X20596525Y18716254D01*
X20758966Y18765530D01*
X20905879Y18780000D01*
X21004121Y18780000D01*
X21151034Y18765530D01*
X21151034Y18765530D01*
G37*
G36*
X3452105Y18693492D02*
X3624994Y18621879D01*
X3697070Y18573719D01*
X3780589Y18517914D01*
X3912914Y18385589D01*
X3943728Y18339472D01*
X4016879Y18229994D01*
X4088492Y18057105D01*
X4125000Y17873567D01*
X4125000Y17686433D01*
X4088492Y17502895D01*
X4016879Y17330006D01*
X3999314Y17303718D01*
X3912914Y17174411D01*
X3780589Y17042086D01*
X3702258Y16989747D01*
X3624994Y16938121D01*
X3452105Y16866508D01*
X3268567Y16830000D01*
X3081433Y16830000D01*
X2897895Y16866508D01*
X2725006Y16938121D01*
X2647742Y16989747D01*
X2569411Y17042086D01*
X2437086Y17174411D01*
X2350686Y17303718D01*
X2333121Y17330006D01*
X2261508Y17502895D01*
X2225000Y17686433D01*
X2225000Y17873567D01*
X2261508Y18057105D01*
X2333121Y18229994D01*
X2406272Y18339472D01*
X2437086Y18385589D01*
X2569411Y18517914D01*
X2652930Y18573719D01*
X2725006Y18621879D01*
X2897895Y18693492D01*
X3081433Y18730000D01*
X3268567Y18730000D01*
X3452105Y18693492D01*
X3452105Y18693492D01*
G37*
G36*
X13521232Y18716254D02*
X13700311Y18661931D01*
X13865344Y18573719D01*
X14010001Y18455001D01*
X14128719Y18310344D01*
X14216931Y18145311D01*
X14271254Y17966232D01*
X14289596Y17780000D01*
X14271254Y17593768D01*
X14216931Y17414689D01*
X14128719Y17249656D01*
X14010001Y17104999D01*
X13865344Y16986281D01*
X13700311Y16898069D01*
X13521232Y16843746D01*
X13381665Y16830000D01*
X13288335Y16830000D01*
X13148768Y16843746D01*
X12969689Y16898069D01*
X12804656Y16986281D01*
X12659999Y17104999D01*
X12541281Y17249656D01*
X12453069Y17414689D01*
X12398746Y17593768D01*
X12380404Y17780000D01*
X12398746Y17966232D01*
X12453069Y18145311D01*
X12541281Y18310344D01*
X12659999Y18455001D01*
X12804656Y18573719D01*
X12969689Y18661931D01*
X13148768Y18716254D01*
X13288335Y18730000D01*
X13381665Y18730000D01*
X13521232Y18716254D01*
X13521232Y18716254D01*
G37*
G36*
X64966034Y20035530D02*
X65128476Y19986254D01*
X65154538Y19978348D01*
X65328257Y19885493D01*
X65328259Y19885492D01*
X65328258Y19885492D01*
X65480528Y19760528D01*
X65594288Y19621910D01*
X65605493Y19608257D01*
X65698348Y19434538D01*
X65698349Y19434535D01*
X65755530Y19246034D01*
X65774838Y19050000D01*
X65755530Y18853966D01*
X65704181Y18684689D01*
X65698348Y18665462D01*
X65619481Y18517913D01*
X65605492Y18491742D01*
X65480528Y18339472D01*
X65347133Y18229998D01*
X65328257Y18214507D01*
X65154538Y18121652D01*
X65154535Y18121651D01*
X65083161Y18100000D01*
X64966034Y18064470D01*
X64819121Y18050000D01*
X64720879Y18050000D01*
X64573966Y18064470D01*
X64456839Y18100000D01*
X64385465Y18121651D01*
X64385462Y18121652D01*
X64211743Y18214507D01*
X64192867Y18229998D01*
X64059472Y18339472D01*
X63934508Y18491742D01*
X63920519Y18517913D01*
X63841652Y18665462D01*
X63835820Y18684689D01*
X63784470Y18853966D01*
X63765162Y19050000D01*
X63784470Y19246034D01*
X63841651Y19434535D01*
X63841652Y19434538D01*
X63934507Y19608257D01*
X63945712Y19621910D01*
X64059472Y19760528D01*
X64211742Y19885492D01*
X64211741Y19885492D01*
X64211743Y19885493D01*
X64385462Y19978348D01*
X64411525Y19986254D01*
X64573966Y20035530D01*
X64720879Y20050000D01*
X64819121Y20050000D01*
X64966034Y20035530D01*
X64966034Y20035530D01*
G37*
G36*
X72586034Y20035530D02*
X72748476Y19986254D01*
X72774538Y19978348D01*
X72948257Y19885493D01*
X72948259Y19885492D01*
X72948258Y19885492D01*
X73100528Y19760528D01*
X73214288Y19621910D01*
X73225493Y19608257D01*
X73318348Y19434538D01*
X73318349Y19434535D01*
X73375530Y19246034D01*
X73394838Y19050000D01*
X73375530Y18853966D01*
X73324181Y18684689D01*
X73318348Y18665462D01*
X73239481Y18517913D01*
X73225492Y18491742D01*
X73100528Y18339472D01*
X72967133Y18229998D01*
X72948257Y18214507D01*
X72774538Y18121652D01*
X72774535Y18121651D01*
X72703161Y18100000D01*
X72586034Y18064470D01*
X72439121Y18050000D01*
X72340879Y18050000D01*
X72193966Y18064470D01*
X72076839Y18100000D01*
X72005465Y18121651D01*
X72005462Y18121652D01*
X71831743Y18214507D01*
X71812867Y18229998D01*
X71679472Y18339472D01*
X71554508Y18491742D01*
X71540519Y18517913D01*
X71461652Y18665462D01*
X71455820Y18684689D01*
X71404470Y18853966D01*
X71385162Y19050000D01*
X71404470Y19246034D01*
X71461651Y19434535D01*
X71461652Y19434538D01*
X71554507Y19608257D01*
X71565712Y19621910D01*
X71679472Y19760528D01*
X71831742Y19885492D01*
X71831741Y19885492D01*
X71831743Y19885493D01*
X72005462Y19978348D01*
X72031525Y19986254D01*
X72193966Y20035530D01*
X72340879Y20050000D01*
X72439121Y20050000D01*
X72586034Y20035530D01*
X72586034Y20035530D01*
G37*
G36*
X36381232Y19986254D02*
X36560311Y19931931D01*
X36725344Y19843719D01*
X36870001Y19725001D01*
X36988719Y19580344D01*
X37076931Y19415311D01*
X37131254Y19236232D01*
X37149596Y19050000D01*
X37131254Y18863768D01*
X37076931Y18684689D01*
X36988719Y18519656D01*
X36870001Y18374999D01*
X36725344Y18256281D01*
X36560311Y18168069D01*
X36560308Y18168068D01*
X36381232Y18113746D01*
X36241665Y18100000D01*
X36148335Y18100000D01*
X36008768Y18113746D01*
X35829692Y18168068D01*
X35829689Y18168069D01*
X35664656Y18256281D01*
X35519999Y18374999D01*
X35401281Y18519656D01*
X35313069Y18684689D01*
X35258746Y18863768D01*
X35240404Y19050000D01*
X35258746Y19236232D01*
X35313069Y19415311D01*
X35401281Y19580344D01*
X35519999Y19725001D01*
X35664656Y19843719D01*
X35829689Y19931931D01*
X36008768Y19986254D01*
X36148335Y20000000D01*
X36241665Y20000000D01*
X36381232Y19986254D01*
X36381232Y19986254D01*
G37*
G36*
X51621232Y19986254D02*
X51800311Y19931931D01*
X51965344Y19843719D01*
X52110001Y19725001D01*
X52228719Y19580344D01*
X52316931Y19415311D01*
X52371254Y19236232D01*
X52389596Y19050000D01*
X52371254Y18863768D01*
X52316931Y18684689D01*
X52228719Y18519656D01*
X52110001Y18374999D01*
X51965344Y18256281D01*
X51800311Y18168069D01*
X51800308Y18168068D01*
X51621232Y18113746D01*
X51481665Y18100000D01*
X51388335Y18100000D01*
X51248768Y18113746D01*
X51069692Y18168068D01*
X51069689Y18168069D01*
X50904656Y18256281D01*
X50759999Y18374999D01*
X50641281Y18519656D01*
X50553069Y18684689D01*
X50498746Y18863768D01*
X50480404Y19050000D01*
X50498746Y19236232D01*
X50553069Y19415311D01*
X50641281Y19580344D01*
X50759999Y19725001D01*
X50904656Y19843719D01*
X51069689Y19931931D01*
X51248768Y19986254D01*
X51388335Y20000000D01*
X51481665Y20000000D01*
X51621232Y19986254D01*
X51621232Y19986254D01*
G37*
G36*
X55431232Y19986254D02*
X55610311Y19931931D01*
X55775344Y19843719D01*
X55920001Y19725001D01*
X56038719Y19580344D01*
X56126931Y19415311D01*
X56181254Y19236232D01*
X56199596Y19050000D01*
X56181254Y18863768D01*
X56126931Y18684689D01*
X56038719Y18519656D01*
X55920001Y18374999D01*
X55775344Y18256281D01*
X55610311Y18168069D01*
X55610308Y18168068D01*
X55431232Y18113746D01*
X55291665Y18100000D01*
X55198335Y18100000D01*
X55058768Y18113746D01*
X54879692Y18168068D01*
X54879689Y18168069D01*
X54714656Y18256281D01*
X54569999Y18374999D01*
X54451281Y18519656D01*
X54363069Y18684689D01*
X54308746Y18863768D01*
X54290404Y19050000D01*
X54308746Y19236232D01*
X54363069Y19415311D01*
X54451281Y19580344D01*
X54569999Y19725001D01*
X54714656Y19843719D01*
X54879689Y19931931D01*
X55058768Y19986254D01*
X55198335Y20000000D01*
X55291665Y20000000D01*
X55431232Y19986254D01*
X55431232Y19986254D01*
G37*
G36*
X11626034Y22575530D02*
X11788476Y22526254D01*
X11814538Y22518348D01*
X11988257Y22425493D01*
X11988259Y22425492D01*
X11988258Y22425492D01*
X12140528Y22300528D01*
X12254288Y22161910D01*
X12265493Y22148257D01*
X12358348Y21974538D01*
X12358349Y21974535D01*
X12415530Y21786034D01*
X12434838Y21590000D01*
X12415530Y21393966D01*
X12364181Y21224689D01*
X12358348Y21205462D01*
X12280412Y21059655D01*
X12265492Y21031742D01*
X12140528Y20879472D01*
X12001910Y20765712D01*
X11988257Y20754507D01*
X11814538Y20661652D01*
X11814535Y20661651D01*
X11743161Y20640000D01*
X11626034Y20604470D01*
X11479121Y20590000D01*
X11380879Y20590000D01*
X11233966Y20604470D01*
X11116839Y20640000D01*
X11045465Y20661651D01*
X11045462Y20661652D01*
X10871743Y20754507D01*
X10858090Y20765712D01*
X10719472Y20879472D01*
X10594508Y21031742D01*
X10579588Y21059655D01*
X10501652Y21205462D01*
X10495820Y21224689D01*
X10444470Y21393966D01*
X10425162Y21590000D01*
X10444470Y21786034D01*
X10501651Y21974535D01*
X10501652Y21974538D01*
X10594507Y22148257D01*
X10605712Y22161910D01*
X10719472Y22300528D01*
X10871742Y22425492D01*
X10871741Y22425492D01*
X10871743Y22425493D01*
X11045462Y22518348D01*
X11071525Y22526254D01*
X11233966Y22575530D01*
X11380879Y22590000D01*
X11479121Y22590000D01*
X11626034Y22575530D01*
X11626034Y22575530D01*
G37*
G36*
X72586034Y22575530D02*
X72748476Y22526254D01*
X72774538Y22518348D01*
X72948257Y22425493D01*
X72948259Y22425492D01*
X72948258Y22425492D01*
X73100528Y22300528D01*
X73214288Y22161910D01*
X73225493Y22148257D01*
X73318348Y21974538D01*
X73318349Y21974535D01*
X73375530Y21786034D01*
X73394838Y21590000D01*
X73375530Y21393966D01*
X73324181Y21224689D01*
X73318348Y21205462D01*
X73240412Y21059655D01*
X73225492Y21031742D01*
X73100528Y20879472D01*
X72961910Y20765712D01*
X72948257Y20754507D01*
X72774538Y20661652D01*
X72774535Y20661651D01*
X72703161Y20640000D01*
X72586034Y20604470D01*
X72439121Y20590000D01*
X72340879Y20590000D01*
X72193966Y20604470D01*
X72076839Y20640000D01*
X72005465Y20661651D01*
X72005462Y20661652D01*
X71831743Y20754507D01*
X71818090Y20765712D01*
X71679472Y20879472D01*
X71554508Y21031742D01*
X71539588Y21059655D01*
X71461652Y21205462D01*
X71455820Y21224689D01*
X71404470Y21393966D01*
X71385162Y21590000D01*
X71404470Y21786034D01*
X71461651Y21974535D01*
X71461652Y21974538D01*
X71554507Y22148257D01*
X71565712Y22161910D01*
X71679472Y22300528D01*
X71831742Y22425492D01*
X71831741Y22425492D01*
X71831743Y22425493D01*
X72005462Y22518348D01*
X72031525Y22526254D01*
X72193966Y22575530D01*
X72340879Y22590000D01*
X72439121Y22590000D01*
X72586034Y22575530D01*
X72586034Y22575530D01*
G37*
G36*
X64966034Y22575530D02*
X65128476Y22526254D01*
X65154538Y22518348D01*
X65328257Y22425493D01*
X65328259Y22425492D01*
X65328258Y22425492D01*
X65480528Y22300528D01*
X65594288Y22161910D01*
X65605493Y22148257D01*
X65698348Y21974538D01*
X65698349Y21974535D01*
X65755530Y21786034D01*
X65774838Y21590000D01*
X65755530Y21393966D01*
X65704181Y21224689D01*
X65698348Y21205462D01*
X65620412Y21059655D01*
X65605492Y21031742D01*
X65480528Y20879472D01*
X65341910Y20765712D01*
X65328257Y20754507D01*
X65154538Y20661652D01*
X65154535Y20661651D01*
X65083161Y20640000D01*
X64966034Y20604470D01*
X64819121Y20590000D01*
X64720879Y20590000D01*
X64573966Y20604470D01*
X64456839Y20640000D01*
X64385465Y20661651D01*
X64385462Y20661652D01*
X64211743Y20754507D01*
X64198090Y20765712D01*
X64059472Y20879472D01*
X63934508Y21031742D01*
X63919588Y21059655D01*
X63841652Y21205462D01*
X63835820Y21224689D01*
X63784470Y21393966D01*
X63765162Y21590000D01*
X63784470Y21786034D01*
X63841651Y21974535D01*
X63841652Y21974538D01*
X63934507Y22148257D01*
X63945712Y22161910D01*
X64059472Y22300528D01*
X64211742Y22425492D01*
X64211741Y22425492D01*
X64211743Y22425493D01*
X64385462Y22518348D01*
X64411525Y22526254D01*
X64573966Y22575530D01*
X64720879Y22590000D01*
X64819121Y22590000D01*
X64966034Y22575530D01*
X64966034Y22575530D01*
G37*
G36*
X4006034Y22575530D02*
X4168476Y22526254D01*
X4194538Y22518348D01*
X4368257Y22425493D01*
X4368259Y22425492D01*
X4368258Y22425492D01*
X4520528Y22300528D01*
X4634288Y22161910D01*
X4645493Y22148257D01*
X4738348Y21974538D01*
X4738349Y21974535D01*
X4795530Y21786034D01*
X4814838Y21590000D01*
X4795530Y21393966D01*
X4744181Y21224689D01*
X4738348Y21205462D01*
X4660412Y21059655D01*
X4645492Y21031742D01*
X4520528Y20879472D01*
X4381910Y20765712D01*
X4368257Y20754507D01*
X4194538Y20661652D01*
X4194535Y20661651D01*
X4123161Y20640000D01*
X4006034Y20604470D01*
X3859121Y20590000D01*
X3760879Y20590000D01*
X3613966Y20604470D01*
X3496839Y20640000D01*
X3425465Y20661651D01*
X3425462Y20661652D01*
X3251743Y20754507D01*
X3238090Y20765712D01*
X3099472Y20879472D01*
X2974508Y21031742D01*
X2959588Y21059655D01*
X2881652Y21205462D01*
X2875820Y21224689D01*
X2824470Y21393966D01*
X2805162Y21590000D01*
X2824470Y21786034D01*
X2881651Y21974535D01*
X2881652Y21974538D01*
X2974507Y22148257D01*
X2985712Y22161910D01*
X3099472Y22300528D01*
X3251742Y22425492D01*
X3251741Y22425492D01*
X3251743Y22425493D01*
X3425462Y22518348D01*
X3451525Y22526254D01*
X3613966Y22575530D01*
X3760879Y22590000D01*
X3859121Y22590000D01*
X4006034Y22575530D01*
X4006034Y22575530D01*
G37*
G36*
X28126232Y22526254D02*
X28305311Y22471931D01*
X28470344Y22383719D01*
X28615001Y22265001D01*
X28733719Y22120344D01*
X28821931Y21955311D01*
X28876254Y21776232D01*
X28894596Y21590000D01*
X28876254Y21403768D01*
X28821931Y21224689D01*
X28733719Y21059656D01*
X28615001Y20914999D01*
X28470344Y20796281D01*
X28305311Y20708069D01*
X28126232Y20653746D01*
X27986665Y20640000D01*
X27893335Y20640000D01*
X27753768Y20653746D01*
X27574689Y20708069D01*
X27409656Y20796281D01*
X27264999Y20914999D01*
X27146281Y21059656D01*
X27058069Y21224689D01*
X27003746Y21403768D01*
X26985404Y21590000D01*
X27003746Y21776232D01*
X27058069Y21955311D01*
X27146281Y22120344D01*
X27264999Y22265001D01*
X27409656Y22383719D01*
X27574689Y22471931D01*
X27753768Y22526254D01*
X27893335Y22540000D01*
X27986665Y22540000D01*
X28126232Y22526254D01*
X28126232Y22526254D01*
G37*
G36*
X51621232Y22526254D02*
X51800311Y22471931D01*
X51965344Y22383719D01*
X52110001Y22265001D01*
X52228719Y22120344D01*
X52316931Y21955311D01*
X52371254Y21776232D01*
X52389596Y21590000D01*
X52371254Y21403768D01*
X52316931Y21224689D01*
X52228719Y21059656D01*
X52110001Y20914999D01*
X51965344Y20796281D01*
X51800311Y20708069D01*
X51621232Y20653746D01*
X51481665Y20640000D01*
X51388335Y20640000D01*
X51248768Y20653746D01*
X51069689Y20708069D01*
X50904656Y20796281D01*
X50759999Y20914999D01*
X50641281Y21059656D01*
X50553069Y21224689D01*
X50498746Y21403768D01*
X50480404Y21590000D01*
X50498746Y21776232D01*
X50553069Y21955311D01*
X50641281Y22120344D01*
X50759999Y22265001D01*
X50904656Y22383719D01*
X51069689Y22471931D01*
X51248768Y22526254D01*
X51388335Y22540000D01*
X51481665Y22540000D01*
X51621232Y22526254D01*
X51621232Y22526254D01*
G37*
G36*
X20506232Y22526254D02*
X20685311Y22471931D01*
X20850344Y22383719D01*
X20995001Y22265001D01*
X21113719Y22120344D01*
X21201931Y21955311D01*
X21256254Y21776232D01*
X21274596Y21590000D01*
X21256254Y21403768D01*
X21201931Y21224689D01*
X21113719Y21059656D01*
X20995001Y20914999D01*
X20850344Y20796281D01*
X20685311Y20708069D01*
X20506232Y20653746D01*
X20366665Y20640000D01*
X20273335Y20640000D01*
X20133768Y20653746D01*
X19954689Y20708069D01*
X19789656Y20796281D01*
X19644999Y20914999D01*
X19526281Y21059656D01*
X19438069Y21224689D01*
X19383746Y21403768D01*
X19365404Y21590000D01*
X19383746Y21776232D01*
X19438069Y21955311D01*
X19526281Y22120344D01*
X19644999Y22265001D01*
X19789656Y22383719D01*
X19954689Y22471931D01*
X20133768Y22526254D01*
X20273335Y22540000D01*
X20366665Y22540000D01*
X20506232Y22526254D01*
X20506232Y22526254D01*
G37*
G36*
X14156232Y22526254D02*
X14335311Y22471931D01*
X14500344Y22383719D01*
X14645001Y22265001D01*
X14763719Y22120344D01*
X14851931Y21955311D01*
X14906254Y21776232D01*
X14924596Y21590000D01*
X14906254Y21403768D01*
X14851931Y21224689D01*
X14763719Y21059656D01*
X14645001Y20914999D01*
X14500344Y20796281D01*
X14335311Y20708069D01*
X14156232Y20653746D01*
X14016665Y20640000D01*
X13923335Y20640000D01*
X13783768Y20653746D01*
X13604689Y20708069D01*
X13439656Y20796281D01*
X13294999Y20914999D01*
X13176281Y21059656D01*
X13088069Y21224689D01*
X13033746Y21403768D01*
X13015404Y21590000D01*
X13033746Y21776232D01*
X13088069Y21955311D01*
X13176281Y22120344D01*
X13294999Y22265001D01*
X13439656Y22383719D01*
X13604689Y22471931D01*
X13783768Y22526254D01*
X13923335Y22540000D01*
X14016665Y22540000D01*
X14156232Y22526254D01*
X14156232Y22526254D01*
G37*
G36*
X36381232Y22526254D02*
X36560311Y22471931D01*
X36725344Y22383719D01*
X36870001Y22265001D01*
X36988719Y22120344D01*
X37076931Y21955311D01*
X37131254Y21776232D01*
X37149596Y21590000D01*
X37131254Y21403768D01*
X37076931Y21224689D01*
X36988719Y21059656D01*
X36870001Y20914999D01*
X36725344Y20796281D01*
X36560311Y20708069D01*
X36560308Y20708068D01*
X36381232Y20653746D01*
X36241665Y20640000D01*
X36148335Y20640000D01*
X36008768Y20653746D01*
X35829692Y20708068D01*
X35829689Y20708069D01*
X35664656Y20796281D01*
X35519999Y20914999D01*
X35401281Y21059656D01*
X35313069Y21224689D01*
X35258746Y21403768D01*
X35240404Y21590000D01*
X35258746Y21776232D01*
X35313069Y21955311D01*
X35401281Y22120344D01*
X35519999Y22265001D01*
X35664656Y22383719D01*
X35829689Y22471931D01*
X36008768Y22526254D01*
X36148335Y22540000D01*
X36241665Y22540000D01*
X36381232Y22526254D01*
X36381232Y22526254D01*
G37*
G36*
X6536232Y22526254D02*
X6715311Y22471931D01*
X6880344Y22383719D01*
X7025001Y22265001D01*
X7143719Y22120344D01*
X7231931Y21955311D01*
X7286254Y21776232D01*
X7304596Y21590000D01*
X7286254Y21403768D01*
X7231931Y21224689D01*
X7143719Y21059656D01*
X7025001Y20914999D01*
X6880344Y20796281D01*
X6715311Y20708069D01*
X6715308Y20708068D01*
X6536232Y20653746D01*
X6396665Y20640000D01*
X6303335Y20640000D01*
X6163768Y20653746D01*
X5984692Y20708068D01*
X5984689Y20708069D01*
X5819656Y20796281D01*
X5674999Y20914999D01*
X5556281Y21059656D01*
X5468069Y21224689D01*
X5413746Y21403768D01*
X5395404Y21590000D01*
X5413746Y21776232D01*
X5468069Y21955311D01*
X5556281Y22120344D01*
X5674999Y22265001D01*
X5819656Y22383719D01*
X5984689Y22471931D01*
X6163768Y22526254D01*
X6303335Y22540000D01*
X6396665Y22540000D01*
X6536232Y22526254D01*
X6536232Y22526254D01*
G37*
G36*
X4006034Y25115530D02*
X4168476Y25066254D01*
X4194538Y25058348D01*
X4368257Y24965493D01*
X4368259Y24965492D01*
X4368258Y24965492D01*
X4520528Y24840528D01*
X4634288Y24701910D01*
X4645493Y24688257D01*
X4738348Y24514538D01*
X4738349Y24514535D01*
X4795530Y24326034D01*
X4814838Y24130000D01*
X4795530Y23933966D01*
X4744181Y23764689D01*
X4738348Y23745462D01*
X4660412Y23599655D01*
X4645492Y23571742D01*
X4520528Y23419472D01*
X4381910Y23305712D01*
X4368257Y23294507D01*
X4194538Y23201652D01*
X4194535Y23201651D01*
X4123161Y23180000D01*
X4006034Y23144470D01*
X3859121Y23130000D01*
X3760879Y23130000D01*
X3613966Y23144470D01*
X3496839Y23180000D01*
X3425465Y23201651D01*
X3425462Y23201652D01*
X3251743Y23294507D01*
X3238090Y23305712D01*
X3099472Y23419472D01*
X2974508Y23571742D01*
X2959588Y23599655D01*
X2881652Y23745462D01*
X2875820Y23764689D01*
X2824470Y23933966D01*
X2805162Y24130000D01*
X2824470Y24326034D01*
X2881651Y24514535D01*
X2881652Y24514538D01*
X2974507Y24688257D01*
X2985712Y24701910D01*
X3099472Y24840528D01*
X3251742Y24965492D01*
X3251741Y24965492D01*
X3251743Y24965493D01*
X3425462Y25058348D01*
X3451525Y25066254D01*
X3613966Y25115530D01*
X3760879Y25130000D01*
X3859121Y25130000D01*
X4006034Y25115530D01*
X4006034Y25115530D01*
G37*
G36*
X72586034Y25115530D02*
X72748476Y25066254D01*
X72774538Y25058348D01*
X72948257Y24965493D01*
X72948259Y24965492D01*
X72948258Y24965492D01*
X73100528Y24840528D01*
X73214288Y24701910D01*
X73225493Y24688257D01*
X73318348Y24514538D01*
X73318349Y24514535D01*
X73375530Y24326034D01*
X73394838Y24130000D01*
X73375530Y23933966D01*
X73324181Y23764689D01*
X73318348Y23745462D01*
X73240412Y23599655D01*
X73225492Y23571742D01*
X73100528Y23419472D01*
X72961910Y23305712D01*
X72948257Y23294507D01*
X72774538Y23201652D01*
X72774535Y23201651D01*
X72703161Y23180000D01*
X72586034Y23144470D01*
X72439121Y23130000D01*
X72340879Y23130000D01*
X72193966Y23144470D01*
X72076839Y23180000D01*
X72005465Y23201651D01*
X72005462Y23201652D01*
X71831743Y23294507D01*
X71818090Y23305712D01*
X71679472Y23419472D01*
X71554508Y23571742D01*
X71539588Y23599655D01*
X71461652Y23745462D01*
X71455820Y23764689D01*
X71404470Y23933966D01*
X71385162Y24130000D01*
X71404470Y24326034D01*
X71461651Y24514535D01*
X71461652Y24514538D01*
X71554507Y24688257D01*
X71565712Y24701910D01*
X71679472Y24840528D01*
X71831742Y24965492D01*
X71831741Y24965492D01*
X71831743Y24965493D01*
X72005462Y25058348D01*
X72031525Y25066254D01*
X72193966Y25115530D01*
X72340879Y25130000D01*
X72439121Y25130000D01*
X72586034Y25115530D01*
X72586034Y25115530D01*
G37*
G36*
X64966034Y25115530D02*
X65128476Y25066254D01*
X65154538Y25058348D01*
X65328257Y24965493D01*
X65328259Y24965492D01*
X65328258Y24965492D01*
X65480528Y24840528D01*
X65594288Y24701910D01*
X65605493Y24688257D01*
X65698348Y24514538D01*
X65698349Y24514535D01*
X65755530Y24326034D01*
X65774838Y24130000D01*
X65755530Y23933966D01*
X65704181Y23764689D01*
X65698348Y23745462D01*
X65620412Y23599655D01*
X65605492Y23571742D01*
X65480528Y23419472D01*
X65341910Y23305712D01*
X65328257Y23294507D01*
X65154538Y23201652D01*
X65154535Y23201651D01*
X65083161Y23180000D01*
X64966034Y23144470D01*
X64819121Y23130000D01*
X64720879Y23130000D01*
X64573966Y23144470D01*
X64456839Y23180000D01*
X64385465Y23201651D01*
X64385462Y23201652D01*
X64211743Y23294507D01*
X64198090Y23305712D01*
X64059472Y23419472D01*
X63934508Y23571742D01*
X63919588Y23599655D01*
X63841652Y23745462D01*
X63835820Y23764689D01*
X63784470Y23933966D01*
X63765162Y24130000D01*
X63784470Y24326034D01*
X63841651Y24514535D01*
X63841652Y24514538D01*
X63934507Y24688257D01*
X63945712Y24701910D01*
X64059472Y24840528D01*
X64211742Y24965492D01*
X64211741Y24965492D01*
X64211743Y24965493D01*
X64385462Y25058348D01*
X64411525Y25066254D01*
X64573966Y25115530D01*
X64720879Y25130000D01*
X64819121Y25130000D01*
X64966034Y25115530D01*
X64966034Y25115530D01*
G37*
G36*
X11626034Y25115530D02*
X11788476Y25066254D01*
X11814538Y25058348D01*
X11988257Y24965493D01*
X11988259Y24965492D01*
X11988258Y24965492D01*
X12140528Y24840528D01*
X12254288Y24701910D01*
X12265493Y24688257D01*
X12358348Y24514538D01*
X12358349Y24514535D01*
X12415530Y24326034D01*
X12434838Y24130000D01*
X12415530Y23933966D01*
X12364181Y23764689D01*
X12358348Y23745462D01*
X12280412Y23599655D01*
X12265492Y23571742D01*
X12140528Y23419472D01*
X12001910Y23305712D01*
X11988257Y23294507D01*
X11814538Y23201652D01*
X11814535Y23201651D01*
X11743161Y23180000D01*
X11626034Y23144470D01*
X11479121Y23130000D01*
X11380879Y23130000D01*
X11233966Y23144470D01*
X11116839Y23180000D01*
X11045465Y23201651D01*
X11045462Y23201652D01*
X10871743Y23294507D01*
X10858090Y23305712D01*
X10719472Y23419472D01*
X10594508Y23571742D01*
X10579588Y23599655D01*
X10501652Y23745462D01*
X10495820Y23764689D01*
X10444470Y23933966D01*
X10425162Y24130000D01*
X10444470Y24326034D01*
X10501651Y24514535D01*
X10501652Y24514538D01*
X10594507Y24688257D01*
X10605712Y24701910D01*
X10719472Y24840528D01*
X10871742Y24965492D01*
X10871741Y24965492D01*
X10871743Y24965493D01*
X11045462Y25058348D01*
X11071525Y25066254D01*
X11233966Y25115530D01*
X11380879Y25130000D01*
X11479121Y25130000D01*
X11626034Y25115530D01*
X11626034Y25115530D01*
G37*
G36*
X14156232Y25066254D02*
X14335311Y25011931D01*
X14500344Y24923719D01*
X14645001Y24805001D01*
X14763719Y24660344D01*
X14851931Y24495311D01*
X14906254Y24316232D01*
X14924596Y24130000D01*
X14906254Y23943768D01*
X14851931Y23764689D01*
X14763719Y23599656D01*
X14645001Y23454999D01*
X14500344Y23336281D01*
X14335311Y23248069D01*
X14335308Y23248068D01*
X14156232Y23193746D01*
X14016665Y23180000D01*
X13923335Y23180000D01*
X13783768Y23193746D01*
X13604692Y23248068D01*
X13604689Y23248069D01*
X13439656Y23336281D01*
X13294999Y23454999D01*
X13176281Y23599656D01*
X13088069Y23764689D01*
X13033746Y23943768D01*
X13015404Y24130000D01*
X13033746Y24316232D01*
X13088069Y24495311D01*
X13176281Y24660344D01*
X13294999Y24805001D01*
X13439656Y24923719D01*
X13604689Y25011931D01*
X13783768Y25066254D01*
X13923335Y25080000D01*
X14016665Y25080000D01*
X14156232Y25066254D01*
X14156232Y25066254D01*
G37*
G36*
X36381232Y25066254D02*
X36560311Y25011931D01*
X36725344Y24923719D01*
X36870001Y24805001D01*
X36988719Y24660344D01*
X37076931Y24495311D01*
X37131254Y24316232D01*
X37149596Y24130000D01*
X37131254Y23943768D01*
X37076931Y23764689D01*
X36988719Y23599656D01*
X36870001Y23454999D01*
X36725344Y23336281D01*
X36560311Y23248069D01*
X36560308Y23248068D01*
X36381232Y23193746D01*
X36241665Y23180000D01*
X36148335Y23180000D01*
X36008768Y23193746D01*
X35829692Y23248068D01*
X35829689Y23248069D01*
X35664656Y23336281D01*
X35519999Y23454999D01*
X35401281Y23599656D01*
X35313069Y23764689D01*
X35258746Y23943768D01*
X35240404Y24130000D01*
X35258746Y24316232D01*
X35313069Y24495311D01*
X35401281Y24660344D01*
X35519999Y24805001D01*
X35664656Y24923719D01*
X35829689Y25011931D01*
X36008768Y25066254D01*
X36148335Y25080000D01*
X36241665Y25080000D01*
X36381232Y25066254D01*
X36381232Y25066254D01*
G37*
G36*
X51621232Y25066254D02*
X51800311Y25011931D01*
X51965344Y24923719D01*
X52110001Y24805001D01*
X52228719Y24660344D01*
X52316931Y24495311D01*
X52371254Y24316232D01*
X52389596Y24130000D01*
X52371254Y23943768D01*
X52316931Y23764689D01*
X52228719Y23599656D01*
X52110001Y23454999D01*
X51965344Y23336281D01*
X51800311Y23248069D01*
X51800308Y23248068D01*
X51621232Y23193746D01*
X51481665Y23180000D01*
X51388335Y23180000D01*
X51248768Y23193746D01*
X51069692Y23248068D01*
X51069689Y23248069D01*
X50904656Y23336281D01*
X50759999Y23454999D01*
X50641281Y23599656D01*
X50553069Y23764689D01*
X50498746Y23943768D01*
X50480404Y24130000D01*
X50498746Y24316232D01*
X50553069Y24495311D01*
X50641281Y24660344D01*
X50759999Y24805001D01*
X50904656Y24923719D01*
X51069689Y25011931D01*
X51248768Y25066254D01*
X51388335Y25080000D01*
X51481665Y25080000D01*
X51621232Y25066254D01*
X51621232Y25066254D01*
G37*
G36*
X6536232Y25066254D02*
X6715311Y25011931D01*
X6880344Y24923719D01*
X7025001Y24805001D01*
X7143719Y24660344D01*
X7231931Y24495311D01*
X7286254Y24316232D01*
X7304596Y24130000D01*
X7286254Y23943768D01*
X7231931Y23764689D01*
X7143719Y23599656D01*
X7025001Y23454999D01*
X6880344Y23336281D01*
X6715311Y23248069D01*
X6715308Y23248068D01*
X6536232Y23193746D01*
X6396665Y23180000D01*
X6303335Y23180000D01*
X6163768Y23193746D01*
X5984692Y23248068D01*
X5984689Y23248069D01*
X5819656Y23336281D01*
X5674999Y23454999D01*
X5556281Y23599656D01*
X5468069Y23764689D01*
X5413746Y23943768D01*
X5395404Y24130000D01*
X5413746Y24316232D01*
X5468069Y24495311D01*
X5556281Y24660344D01*
X5674999Y24805001D01*
X5819656Y24923719D01*
X5984689Y25011931D01*
X6163768Y25066254D01*
X6303335Y25080000D01*
X6396665Y25080000D01*
X6536232Y25066254D01*
X6536232Y25066254D01*
G37*
G36*
X20506232Y25066254D02*
X20685311Y25011931D01*
X20850344Y24923719D01*
X20995001Y24805001D01*
X21113719Y24660344D01*
X21201931Y24495311D01*
X21256254Y24316232D01*
X21274596Y24130000D01*
X21256254Y23943768D01*
X21201931Y23764689D01*
X21113719Y23599656D01*
X20995001Y23454999D01*
X20850344Y23336281D01*
X20685311Y23248069D01*
X20685308Y23248068D01*
X20506232Y23193746D01*
X20366665Y23180000D01*
X20273335Y23180000D01*
X20133768Y23193746D01*
X19954692Y23248068D01*
X19954689Y23248069D01*
X19789656Y23336281D01*
X19644999Y23454999D01*
X19526281Y23599656D01*
X19438069Y23764689D01*
X19383746Y23943768D01*
X19365404Y24130000D01*
X19383746Y24316232D01*
X19438069Y24495311D01*
X19526281Y24660344D01*
X19644999Y24805001D01*
X19789656Y24923719D01*
X19954689Y25011931D01*
X20133768Y25066254D01*
X20273335Y25080000D01*
X20366665Y25080000D01*
X20506232Y25066254D01*
X20506232Y25066254D01*
G37*
G36*
X28126232Y25066254D02*
X28305311Y25011931D01*
X28470344Y24923719D01*
X28615001Y24805001D01*
X28733719Y24660344D01*
X28821931Y24495311D01*
X28876254Y24316232D01*
X28894596Y24130000D01*
X28876254Y23943768D01*
X28821931Y23764689D01*
X28733719Y23599656D01*
X28615001Y23454999D01*
X28470344Y23336281D01*
X28305311Y23248069D01*
X28305308Y23248068D01*
X28126232Y23193746D01*
X27986665Y23180000D01*
X27893335Y23180000D01*
X27753768Y23193746D01*
X27574692Y23248068D01*
X27574689Y23248069D01*
X27409656Y23336281D01*
X27264999Y23454999D01*
X27146281Y23599656D01*
X27058069Y23764689D01*
X27003746Y23943768D01*
X26985404Y24130000D01*
X27003746Y24316232D01*
X27058069Y24495311D01*
X27146281Y24660344D01*
X27264999Y24805001D01*
X27409656Y24923719D01*
X27574689Y25011931D01*
X27753768Y25066254D01*
X27893335Y25080000D01*
X27986665Y25080000D01*
X28126232Y25066254D01*
X28126232Y25066254D01*
G37*
G36*
X65061689Y27631571D02*
X65243678Y27556189D01*
X65407463Y27446751D01*
X65546751Y27307463D01*
X65656189Y27143678D01*
X65731571Y26961689D01*
X65770000Y26768491D01*
X65770000Y26571509D01*
X65731571Y26378311D01*
X65656189Y26196322D01*
X65546751Y26032537D01*
X65407463Y25893249D01*
X65243678Y25783811D01*
X65061689Y25708429D01*
X64868491Y25670000D01*
X64671509Y25670000D01*
X64478311Y25708429D01*
X64296322Y25783811D01*
X64132537Y25893249D01*
X63993249Y26032537D01*
X63883811Y26196322D01*
X63808429Y26378311D01*
X63770000Y26571509D01*
X63770000Y26768491D01*
X63808429Y26961689D01*
X63883811Y27143678D01*
X63993249Y27307463D01*
X64132537Y27446751D01*
X64296322Y27556189D01*
X64478311Y27631571D01*
X64671509Y27670000D01*
X64868491Y27670000D01*
X65061689Y27631571D01*
X65061689Y27631571D01*
G37*
G36*
X72681689Y27631571D02*
X72863678Y27556189D01*
X73027463Y27446751D01*
X73166751Y27307463D01*
X73276189Y27143678D01*
X73351571Y26961689D01*
X73390000Y26768491D01*
X73390000Y26571509D01*
X73351571Y26378311D01*
X73276189Y26196322D01*
X73166751Y26032537D01*
X73027463Y25893249D01*
X72863678Y25783811D01*
X72681689Y25708429D01*
X72488491Y25670000D01*
X72291509Y25670000D01*
X72098311Y25708429D01*
X71916322Y25783811D01*
X71752537Y25893249D01*
X71613249Y26032537D01*
X71503811Y26196322D01*
X71428429Y26378311D01*
X71390000Y26571509D01*
X71390000Y26768491D01*
X71428429Y26961689D01*
X71503811Y27143678D01*
X71613249Y27307463D01*
X71752537Y27446751D01*
X71916322Y27556189D01*
X72098311Y27631571D01*
X72291509Y27670000D01*
X72488491Y27670000D01*
X72681689Y27631571D01*
X72681689Y27631571D01*
G37*
G36*
X11626034Y27655530D02*
X11788476Y27606254D01*
X11814538Y27598348D01*
X11988257Y27505493D01*
X11988259Y27505492D01*
X11988258Y27505492D01*
X12140528Y27380528D01*
X12254288Y27241910D01*
X12265493Y27228257D01*
X12358348Y27054538D01*
X12358349Y27054535D01*
X12415530Y26866034D01*
X12434838Y26670000D01*
X12415530Y26473966D01*
X12364181Y26304689D01*
X12358348Y26285462D01*
X12280412Y26139655D01*
X12265492Y26111742D01*
X12140528Y25959472D01*
X12001910Y25845712D01*
X11988257Y25834507D01*
X11814538Y25741652D01*
X11814535Y25741651D01*
X11743161Y25720000D01*
X11626034Y25684470D01*
X11479121Y25670000D01*
X11380879Y25670000D01*
X11233966Y25684470D01*
X11116839Y25720000D01*
X11045465Y25741651D01*
X11045462Y25741652D01*
X10871743Y25834507D01*
X10858090Y25845712D01*
X10719472Y25959472D01*
X10594508Y26111742D01*
X10579588Y26139655D01*
X10501652Y26285462D01*
X10495820Y26304689D01*
X10444470Y26473966D01*
X10425162Y26670000D01*
X10444470Y26866034D01*
X10501651Y27054535D01*
X10501652Y27054538D01*
X10594507Y27228257D01*
X10605712Y27241910D01*
X10719472Y27380528D01*
X10871742Y27505492D01*
X10871741Y27505492D01*
X10871743Y27505493D01*
X11045462Y27598348D01*
X11071525Y27606254D01*
X11233966Y27655530D01*
X11380879Y27670000D01*
X11479121Y27670000D01*
X11626034Y27655530D01*
X11626034Y27655530D01*
G37*
G36*
X4006034Y27655530D02*
X4168476Y27606254D01*
X4194538Y27598348D01*
X4368257Y27505493D01*
X4368259Y27505492D01*
X4368258Y27505492D01*
X4520528Y27380528D01*
X4634288Y27241910D01*
X4645493Y27228257D01*
X4738348Y27054538D01*
X4738349Y27054535D01*
X4795530Y26866034D01*
X4814838Y26670000D01*
X4795530Y26473966D01*
X4744181Y26304689D01*
X4738348Y26285462D01*
X4660412Y26139655D01*
X4645492Y26111742D01*
X4520528Y25959472D01*
X4381910Y25845712D01*
X4368257Y25834507D01*
X4194538Y25741652D01*
X4194535Y25741651D01*
X4123161Y25720000D01*
X4006034Y25684470D01*
X3859121Y25670000D01*
X3760879Y25670000D01*
X3613966Y25684470D01*
X3496839Y25720000D01*
X3425465Y25741651D01*
X3425462Y25741652D01*
X3251743Y25834507D01*
X3238090Y25845712D01*
X3099472Y25959472D01*
X2974508Y26111742D01*
X2959588Y26139655D01*
X2881652Y26285462D01*
X2875820Y26304689D01*
X2824470Y26473966D01*
X2805162Y26670000D01*
X2824470Y26866034D01*
X2881651Y27054535D01*
X2881652Y27054538D01*
X2974507Y27228257D01*
X2985712Y27241910D01*
X3099472Y27380528D01*
X3251742Y27505492D01*
X3251741Y27505492D01*
X3251743Y27505493D01*
X3425462Y27598348D01*
X3451525Y27606254D01*
X3613966Y27655530D01*
X3760879Y27670000D01*
X3859121Y27670000D01*
X4006034Y27655530D01*
X4006034Y27655530D01*
G37*
G36*
X20506232Y27606254D02*
X20671275Y27556189D01*
X20685311Y27551931D01*
X20850344Y27463719D01*
X20995001Y27345001D01*
X21113719Y27200344D01*
X21201931Y27035311D01*
X21256254Y26856232D01*
X21274596Y26670000D01*
X21256254Y26483768D01*
X21201931Y26304689D01*
X21113719Y26139656D01*
X20995001Y25994999D01*
X20850344Y25876281D01*
X20685311Y25788069D01*
X20685308Y25788068D01*
X20532295Y25741652D01*
X20506232Y25733746D01*
X20366665Y25720000D01*
X20273335Y25720000D01*
X20133768Y25733746D01*
X20107705Y25741652D01*
X19954692Y25788068D01*
X19954689Y25788069D01*
X19789656Y25876281D01*
X19644999Y25994999D01*
X19526281Y26139656D01*
X19438069Y26304689D01*
X19383746Y26483768D01*
X19365404Y26670000D01*
X19383746Y26856232D01*
X19438069Y27035311D01*
X19526281Y27200344D01*
X19644999Y27345001D01*
X19789656Y27463719D01*
X19954689Y27551931D01*
X19968726Y27556189D01*
X20133768Y27606254D01*
X20273335Y27620000D01*
X20366665Y27620000D01*
X20506232Y27606254D01*
X20506232Y27606254D01*
G37*
G36*
X6536232Y27606254D02*
X6701275Y27556189D01*
X6715311Y27551931D01*
X6880344Y27463719D01*
X7025001Y27345001D01*
X7143719Y27200344D01*
X7231931Y27035311D01*
X7286254Y26856232D01*
X7304596Y26670000D01*
X7286254Y26483768D01*
X7231931Y26304689D01*
X7143719Y26139656D01*
X7025001Y25994999D01*
X6880344Y25876281D01*
X6715311Y25788069D01*
X6715308Y25788068D01*
X6536232Y25733746D01*
X6396665Y25720000D01*
X6303335Y25720000D01*
X6163768Y25733746D01*
X5984692Y25788068D01*
X5984689Y25788069D01*
X5819656Y25876281D01*
X5674999Y25994999D01*
X5556281Y26139656D01*
X5468069Y26304689D01*
X5413746Y26483768D01*
X5395404Y26670000D01*
X5413746Y26856232D01*
X5468069Y27035311D01*
X5556281Y27200344D01*
X5674999Y27345001D01*
X5819656Y27463719D01*
X5984689Y27551931D01*
X5998726Y27556189D01*
X6163768Y27606254D01*
X6303335Y27620000D01*
X6396665Y27620000D01*
X6536232Y27606254D01*
X6536232Y27606254D01*
G37*
G36*
X14156232Y27606254D02*
X14321275Y27556189D01*
X14335311Y27551931D01*
X14500344Y27463719D01*
X14645001Y27345001D01*
X14763719Y27200344D01*
X14851931Y27035311D01*
X14906254Y26856232D01*
X14924596Y26670000D01*
X14906254Y26483768D01*
X14851931Y26304689D01*
X14763719Y26139656D01*
X14645001Y25994999D01*
X14500344Y25876281D01*
X14335311Y25788069D01*
X14335308Y25788068D01*
X14156232Y25733746D01*
X14016665Y25720000D01*
X13923335Y25720000D01*
X13783768Y25733746D01*
X13604692Y25788068D01*
X13604689Y25788069D01*
X13439656Y25876281D01*
X13294999Y25994999D01*
X13176281Y26139656D01*
X13088069Y26304689D01*
X13033746Y26483768D01*
X13015404Y26670000D01*
X13033746Y26856232D01*
X13088069Y27035311D01*
X13176281Y27200344D01*
X13294999Y27345001D01*
X13439656Y27463719D01*
X13604689Y27551931D01*
X13618726Y27556189D01*
X13783768Y27606254D01*
X13923335Y27620000D01*
X14016665Y27620000D01*
X14156232Y27606254D01*
X14156232Y27606254D01*
G37*
G36*
X51621232Y27606254D02*
X51786275Y27556189D01*
X51800311Y27551931D01*
X51965344Y27463719D01*
X52110001Y27345001D01*
X52228719Y27200344D01*
X52316931Y27035311D01*
X52371254Y26856232D01*
X52389596Y26670000D01*
X52371254Y26483768D01*
X52316931Y26304689D01*
X52228719Y26139656D01*
X52110001Y25994999D01*
X51965344Y25876281D01*
X51800311Y25788069D01*
X51800308Y25788068D01*
X51621232Y25733746D01*
X51481665Y25720000D01*
X51388335Y25720000D01*
X51248768Y25733746D01*
X51069692Y25788068D01*
X51069689Y25788069D01*
X50904656Y25876281D01*
X50759999Y25994999D01*
X50641281Y26139656D01*
X50553069Y26304689D01*
X50498746Y26483768D01*
X50480404Y26670000D01*
X50498746Y26856232D01*
X50553069Y27035311D01*
X50641281Y27200344D01*
X50759999Y27345001D01*
X50904656Y27463719D01*
X51069689Y27551931D01*
X51083726Y27556189D01*
X51248768Y27606254D01*
X51388335Y27620000D01*
X51481665Y27620000D01*
X51621232Y27606254D01*
X51621232Y27606254D01*
G37*
G36*
X36381232Y27606254D02*
X36546275Y27556189D01*
X36560311Y27551931D01*
X36725344Y27463719D01*
X36870001Y27345001D01*
X36988719Y27200344D01*
X37076931Y27035311D01*
X37131254Y26856232D01*
X37149596Y26670000D01*
X37131254Y26483768D01*
X37076931Y26304689D01*
X36988719Y26139656D01*
X36870001Y25994999D01*
X36725344Y25876281D01*
X36560311Y25788069D01*
X36560308Y25788068D01*
X36381232Y25733746D01*
X36241665Y25720000D01*
X36148335Y25720000D01*
X36008768Y25733746D01*
X35829692Y25788068D01*
X35829689Y25788069D01*
X35664656Y25876281D01*
X35519999Y25994999D01*
X35401281Y26139656D01*
X35313069Y26304689D01*
X35258746Y26483768D01*
X35240404Y26670000D01*
X35258746Y26856232D01*
X35313069Y27035311D01*
X35401281Y27200344D01*
X35519999Y27345001D01*
X35664656Y27463719D01*
X35829689Y27551931D01*
X35843726Y27556189D01*
X36008768Y27606254D01*
X36148335Y27620000D01*
X36241665Y27620000D01*
X36381232Y27606254D01*
X36381232Y27606254D01*
G37*
G36*
X28126232Y27606254D02*
X28291275Y27556189D01*
X28305311Y27551931D01*
X28470344Y27463719D01*
X28615001Y27345001D01*
X28733719Y27200344D01*
X28821931Y27035311D01*
X28876254Y26856232D01*
X28894596Y26670000D01*
X28876254Y26483768D01*
X28821931Y26304689D01*
X28733719Y26139656D01*
X28615001Y25994999D01*
X28470344Y25876281D01*
X28305311Y25788069D01*
X28305308Y25788068D01*
X28152295Y25741652D01*
X28126232Y25733746D01*
X27986665Y25720000D01*
X27893335Y25720000D01*
X27753768Y25733746D01*
X27727705Y25741652D01*
X27574692Y25788068D01*
X27574689Y25788069D01*
X27409656Y25876281D01*
X27264999Y25994999D01*
X27146281Y26139656D01*
X27058069Y26304689D01*
X27003746Y26483768D01*
X26985404Y26670000D01*
X27003746Y26856232D01*
X27058069Y27035311D01*
X27146281Y27200344D01*
X27264999Y27345001D01*
X27409656Y27463719D01*
X27574689Y27551931D01*
X27588726Y27556189D01*
X27753768Y27606254D01*
X27893335Y27620000D01*
X27986665Y27620000D01*
X28126232Y27606254D01*
X28126232Y27606254D01*
G37*
G36*
X4006034Y30195530D02*
X4168476Y30146254D01*
X4194538Y30138348D01*
X4368257Y30045493D01*
X4368259Y30045492D01*
X4368258Y30045492D01*
X4520528Y29920528D01*
X4634288Y29781910D01*
X4645493Y29768257D01*
X4738348Y29594538D01*
X4738349Y29594535D01*
X4795530Y29406034D01*
X4814838Y29210000D01*
X4795530Y29013966D01*
X4744181Y28844689D01*
X4738348Y28825462D01*
X4660412Y28679655D01*
X4645492Y28651742D01*
X4520528Y28499472D01*
X4381910Y28385712D01*
X4368257Y28374507D01*
X4194538Y28281652D01*
X4194535Y28281651D01*
X4123161Y28260000D01*
X4006034Y28224470D01*
X3859121Y28210000D01*
X3760879Y28210000D01*
X3613966Y28224470D01*
X3496839Y28260000D01*
X3425465Y28281651D01*
X3425462Y28281652D01*
X3251743Y28374507D01*
X3238090Y28385712D01*
X3099472Y28499472D01*
X2974508Y28651742D01*
X2959588Y28679655D01*
X2881652Y28825462D01*
X2875820Y28844689D01*
X2824470Y29013966D01*
X2805162Y29210000D01*
X2824470Y29406034D01*
X2881651Y29594535D01*
X2881652Y29594538D01*
X2974507Y29768257D01*
X2985712Y29781910D01*
X3099472Y29920528D01*
X3251742Y30045492D01*
X3251741Y30045492D01*
X3251743Y30045493D01*
X3425462Y30138348D01*
X3451525Y30146254D01*
X3613966Y30195530D01*
X3760879Y30210000D01*
X3859121Y30210000D01*
X4006034Y30195530D01*
X4006034Y30195530D01*
G37*
G36*
X11626034Y30195530D02*
X11788476Y30146254D01*
X11814538Y30138348D01*
X11988257Y30045493D01*
X11988259Y30045492D01*
X11988258Y30045492D01*
X12140528Y29920528D01*
X12254288Y29781910D01*
X12265493Y29768257D01*
X12358348Y29594538D01*
X12358349Y29594535D01*
X12415530Y29406034D01*
X12434838Y29210000D01*
X12415530Y29013966D01*
X12364181Y28844689D01*
X12358348Y28825462D01*
X12280412Y28679655D01*
X12265492Y28651742D01*
X12140528Y28499472D01*
X12001910Y28385712D01*
X11988257Y28374507D01*
X11814538Y28281652D01*
X11814535Y28281651D01*
X11743161Y28260000D01*
X11626034Y28224470D01*
X11479121Y28210000D01*
X11380879Y28210000D01*
X11233966Y28224470D01*
X11116839Y28260000D01*
X11045465Y28281651D01*
X11045462Y28281652D01*
X10871743Y28374507D01*
X10858090Y28385712D01*
X10719472Y28499472D01*
X10594508Y28651742D01*
X10579588Y28679655D01*
X10501652Y28825462D01*
X10495820Y28844689D01*
X10444470Y29013966D01*
X10425162Y29210000D01*
X10444470Y29406034D01*
X10501651Y29594535D01*
X10501652Y29594538D01*
X10594507Y29768257D01*
X10605712Y29781910D01*
X10719472Y29920528D01*
X10871742Y30045492D01*
X10871741Y30045492D01*
X10871743Y30045493D01*
X11045462Y30138348D01*
X11071525Y30146254D01*
X11233966Y30195530D01*
X11380879Y30210000D01*
X11479121Y30210000D01*
X11626034Y30195530D01*
X11626034Y30195530D01*
G37*
G36*
X14156232Y30146254D02*
X14335311Y30091931D01*
X14500344Y30003719D01*
X14645001Y29885001D01*
X14763719Y29740344D01*
X14851931Y29575311D01*
X14906254Y29396232D01*
X14924596Y29210000D01*
X14906254Y29023768D01*
X14851931Y28844689D01*
X14763719Y28679656D01*
X14645001Y28534999D01*
X14500344Y28416281D01*
X14335311Y28328069D01*
X14156232Y28273746D01*
X14016665Y28260000D01*
X13923335Y28260000D01*
X13783768Y28273746D01*
X13604689Y28328069D01*
X13439656Y28416281D01*
X13294999Y28534999D01*
X13176281Y28679656D01*
X13088069Y28844689D01*
X13033746Y29023768D01*
X13015404Y29210000D01*
X13033746Y29396232D01*
X13088069Y29575311D01*
X13176281Y29740344D01*
X13294999Y29885001D01*
X13439656Y30003719D01*
X13604689Y30091931D01*
X13783768Y30146254D01*
X13923335Y30160000D01*
X14016665Y30160000D01*
X14156232Y30146254D01*
X14156232Y30146254D01*
G37*
G36*
X28126232Y30146254D02*
X28305311Y30091931D01*
X28470344Y30003719D01*
X28615001Y29885001D01*
X28733719Y29740344D01*
X28821931Y29575311D01*
X28876254Y29396232D01*
X28894596Y29210000D01*
X28876254Y29023768D01*
X28821931Y28844689D01*
X28733719Y28679656D01*
X28615001Y28534999D01*
X28470344Y28416281D01*
X28305311Y28328069D01*
X28126232Y28273746D01*
X27986665Y28260000D01*
X27893335Y28260000D01*
X27753768Y28273746D01*
X27574689Y28328069D01*
X27409656Y28416281D01*
X27264999Y28534999D01*
X27146281Y28679656D01*
X27058069Y28844689D01*
X27003746Y29023768D01*
X26985404Y29210000D01*
X27003746Y29396232D01*
X27058069Y29575311D01*
X27146281Y29740344D01*
X27264999Y29885001D01*
X27409656Y30003719D01*
X27574689Y30091931D01*
X27753768Y30146254D01*
X27893335Y30160000D01*
X27986665Y30160000D01*
X28126232Y30146254D01*
X28126232Y30146254D01*
G37*
G36*
X6536232Y30146254D02*
X6715311Y30091931D01*
X6880344Y30003719D01*
X7025001Y29885001D01*
X7143719Y29740344D01*
X7231931Y29575311D01*
X7286254Y29396232D01*
X7304596Y29210000D01*
X7286254Y29023768D01*
X7231931Y28844689D01*
X7143719Y28679656D01*
X7025001Y28534999D01*
X6880344Y28416281D01*
X6715311Y28328069D01*
X6715308Y28328068D01*
X6536232Y28273746D01*
X6396665Y28260000D01*
X6303335Y28260000D01*
X6163768Y28273746D01*
X5984692Y28328068D01*
X5984689Y28328069D01*
X5819656Y28416281D01*
X5674999Y28534999D01*
X5556281Y28679656D01*
X5468069Y28844689D01*
X5413746Y29023768D01*
X5395404Y29210000D01*
X5413746Y29396232D01*
X5468069Y29575311D01*
X5556281Y29740344D01*
X5674999Y29885001D01*
X5819656Y30003719D01*
X5984689Y30091931D01*
X6163768Y30146254D01*
X6303335Y30160000D01*
X6396665Y30160000D01*
X6536232Y30146254D01*
X6536232Y30146254D01*
G37*
G36*
X20506232Y30146254D02*
X20685311Y30091931D01*
X20850344Y30003719D01*
X20995001Y29885001D01*
X21113719Y29740344D01*
X21201931Y29575311D01*
X21256254Y29396232D01*
X21274596Y29210000D01*
X21256254Y29023768D01*
X21201931Y28844689D01*
X21113719Y28679656D01*
X20995001Y28534999D01*
X20850344Y28416281D01*
X20685311Y28328069D01*
X20506232Y28273746D01*
X20366665Y28260000D01*
X20273335Y28260000D01*
X20133768Y28273746D01*
X19954689Y28328069D01*
X19789656Y28416281D01*
X19644999Y28534999D01*
X19526281Y28679656D01*
X19438069Y28844689D01*
X19383746Y29023768D01*
X19365404Y29210000D01*
X19383746Y29396232D01*
X19438069Y29575311D01*
X19526281Y29740344D01*
X19644999Y29885001D01*
X19789656Y30003719D01*
X19954689Y30091931D01*
X20133768Y30146254D01*
X20273335Y30160000D01*
X20366665Y30160000D01*
X20506232Y30146254D01*
X20506232Y30146254D01*
G37*
G36*
X36381232Y30146254D02*
X36560311Y30091931D01*
X36725344Y30003719D01*
X36870001Y29885001D01*
X36988719Y29740344D01*
X37076931Y29575311D01*
X37131254Y29396232D01*
X37149596Y29210000D01*
X37131254Y29023768D01*
X37076931Y28844689D01*
X36988719Y28679656D01*
X36870001Y28534999D01*
X36725344Y28416281D01*
X36560311Y28328069D01*
X36381232Y28273746D01*
X36241665Y28260000D01*
X36148335Y28260000D01*
X36008768Y28273746D01*
X35829689Y28328069D01*
X35664656Y28416281D01*
X35519999Y28534999D01*
X35401281Y28679656D01*
X35313069Y28844689D01*
X35258746Y29023768D01*
X35240404Y29210000D01*
X35258746Y29396232D01*
X35313069Y29575311D01*
X35401281Y29740344D01*
X35519999Y29885001D01*
X35664656Y30003719D01*
X35829689Y30091931D01*
X36008768Y30146254D01*
X36148335Y30160000D01*
X36241665Y30160000D01*
X36381232Y30146254D01*
X36381232Y30146254D01*
G37*
G36*
X51621232Y30146254D02*
X51800311Y30091931D01*
X51965344Y30003719D01*
X52110001Y29885001D01*
X52228719Y29740344D01*
X52316931Y29575311D01*
X52371254Y29396232D01*
X52389596Y29210000D01*
X52371254Y29023768D01*
X52316931Y28844689D01*
X52228719Y28679656D01*
X52110001Y28534999D01*
X51965344Y28416281D01*
X51800311Y28328069D01*
X51621232Y28273746D01*
X51481665Y28260000D01*
X51388335Y28260000D01*
X51248768Y28273746D01*
X51069689Y28328069D01*
X50904656Y28416281D01*
X50759999Y28534999D01*
X50641281Y28679656D01*
X50553069Y28844689D01*
X50498746Y29023768D01*
X50480404Y29210000D01*
X50498746Y29396232D01*
X50553069Y29575311D01*
X50641281Y29740344D01*
X50759999Y29885001D01*
X50904656Y30003719D01*
X51069689Y30091931D01*
X51248768Y30146254D01*
X51388335Y30160000D01*
X51481665Y30160000D01*
X51621232Y30146254D01*
X51621232Y30146254D01*
G37*
G36*
X11626034Y32735530D02*
X11788476Y32686254D01*
X11814538Y32678348D01*
X11988257Y32585493D01*
X11988259Y32585492D01*
X11988258Y32585492D01*
X12140528Y32460528D01*
X12254288Y32321910D01*
X12265493Y32308257D01*
X12358348Y32134538D01*
X12358349Y32134535D01*
X12415530Y31946034D01*
X12434838Y31750000D01*
X12415530Y31553966D01*
X12364181Y31384689D01*
X12358348Y31365462D01*
X12280412Y31219655D01*
X12265492Y31191742D01*
X12140528Y31039472D01*
X12001910Y30925712D01*
X11988257Y30914507D01*
X11814538Y30821652D01*
X11814535Y30821651D01*
X11743161Y30800000D01*
X11626034Y30764470D01*
X11479121Y30750000D01*
X11380879Y30750000D01*
X11233966Y30764470D01*
X11116839Y30800000D01*
X11045465Y30821651D01*
X11045462Y30821652D01*
X10871743Y30914507D01*
X10858090Y30925712D01*
X10719472Y31039472D01*
X10594508Y31191742D01*
X10579588Y31219655D01*
X10501652Y31365462D01*
X10495820Y31384689D01*
X10444470Y31553966D01*
X10425162Y31750000D01*
X10444470Y31946034D01*
X10501651Y32134535D01*
X10501652Y32134538D01*
X10594507Y32308257D01*
X10605712Y32321910D01*
X10719472Y32460528D01*
X10871742Y32585492D01*
X10871741Y32585492D01*
X10871743Y32585493D01*
X11045462Y32678348D01*
X11071525Y32686254D01*
X11233966Y32735530D01*
X11380879Y32750000D01*
X11479121Y32750000D01*
X11626034Y32735530D01*
X11626034Y32735530D01*
G37*
G36*
X4006034Y32735530D02*
X4168476Y32686254D01*
X4194538Y32678348D01*
X4368257Y32585493D01*
X4368259Y32585492D01*
X4368258Y32585492D01*
X4520528Y32460528D01*
X4634288Y32321910D01*
X4645493Y32308257D01*
X4738348Y32134538D01*
X4738349Y32134535D01*
X4795530Y31946034D01*
X4814838Y31750000D01*
X4795530Y31553966D01*
X4744181Y31384689D01*
X4738348Y31365462D01*
X4660412Y31219655D01*
X4645492Y31191742D01*
X4520528Y31039472D01*
X4381910Y30925712D01*
X4368257Y30914507D01*
X4194538Y30821652D01*
X4194535Y30821651D01*
X4123161Y30800000D01*
X4006034Y30764470D01*
X3859121Y30750000D01*
X3760879Y30750000D01*
X3613966Y30764470D01*
X3496839Y30800000D01*
X3425465Y30821651D01*
X3425462Y30821652D01*
X3251743Y30914507D01*
X3238090Y30925712D01*
X3099472Y31039472D01*
X2974508Y31191742D01*
X2959588Y31219655D01*
X2881652Y31365462D01*
X2875820Y31384689D01*
X2824470Y31553966D01*
X2805162Y31750000D01*
X2824470Y31946034D01*
X2881651Y32134535D01*
X2881652Y32134538D01*
X2974507Y32308257D01*
X2985712Y32321910D01*
X3099472Y32460528D01*
X3251742Y32585492D01*
X3251741Y32585492D01*
X3251743Y32585493D01*
X3425462Y32678348D01*
X3451525Y32686254D01*
X3613966Y32735530D01*
X3760879Y32750000D01*
X3859121Y32750000D01*
X4006034Y32735530D01*
X4006034Y32735530D01*
G37*
G36*
X20506232Y32686254D02*
X20685311Y32631931D01*
X20850344Y32543719D01*
X20995001Y32425001D01*
X21113719Y32280344D01*
X21201931Y32115311D01*
X21256254Y31936232D01*
X21274596Y31750000D01*
X21256254Y31563768D01*
X21201931Y31384689D01*
X21113719Y31219656D01*
X20995001Y31074999D01*
X20850344Y30956281D01*
X20685311Y30868069D01*
X20506232Y30813746D01*
X20366665Y30800000D01*
X20273335Y30800000D01*
X20133768Y30813746D01*
X19954689Y30868069D01*
X19789656Y30956281D01*
X19644999Y31074999D01*
X19526281Y31219656D01*
X19438069Y31384689D01*
X19383746Y31563768D01*
X19365404Y31750000D01*
X19383746Y31936232D01*
X19438069Y32115311D01*
X19526281Y32280344D01*
X19644999Y32425001D01*
X19789656Y32543719D01*
X19954689Y32631931D01*
X20133768Y32686254D01*
X20273335Y32700000D01*
X20366665Y32700000D01*
X20506232Y32686254D01*
X20506232Y32686254D01*
G37*
G36*
X14156232Y32686254D02*
X14335311Y32631931D01*
X14500344Y32543719D01*
X14645001Y32425001D01*
X14763719Y32280344D01*
X14851931Y32115311D01*
X14906254Y31936232D01*
X14924596Y31750000D01*
X14906254Y31563768D01*
X14851931Y31384689D01*
X14763719Y31219656D01*
X14645001Y31074999D01*
X14500344Y30956281D01*
X14335311Y30868069D01*
X14156232Y30813746D01*
X14016665Y30800000D01*
X13923335Y30800000D01*
X13783768Y30813746D01*
X13604689Y30868069D01*
X13439656Y30956281D01*
X13294999Y31074999D01*
X13176281Y31219656D01*
X13088069Y31384689D01*
X13033746Y31563768D01*
X13015404Y31750000D01*
X13033746Y31936232D01*
X13088069Y32115311D01*
X13176281Y32280344D01*
X13294999Y32425001D01*
X13439656Y32543719D01*
X13604689Y32631931D01*
X13783768Y32686254D01*
X13923335Y32700000D01*
X14016665Y32700000D01*
X14156232Y32686254D01*
X14156232Y32686254D01*
G37*
G36*
X6536232Y32686254D02*
X6715311Y32631931D01*
X6880344Y32543719D01*
X7025001Y32425001D01*
X7143719Y32280344D01*
X7231931Y32115311D01*
X7286254Y31936232D01*
X7304596Y31750000D01*
X7286254Y31563768D01*
X7231931Y31384689D01*
X7143719Y31219656D01*
X7025001Y31074999D01*
X6880344Y30956281D01*
X6715311Y30868069D01*
X6536232Y30813746D01*
X6396665Y30800000D01*
X6303335Y30800000D01*
X6163768Y30813746D01*
X5984689Y30868069D01*
X5819656Y30956281D01*
X5674999Y31074999D01*
X5556281Y31219656D01*
X5468069Y31384689D01*
X5413746Y31563768D01*
X5395404Y31750000D01*
X5413746Y31936232D01*
X5468069Y32115311D01*
X5556281Y32280344D01*
X5674999Y32425001D01*
X5819656Y32543719D01*
X5984689Y32631931D01*
X6163768Y32686254D01*
X6303335Y32700000D01*
X6396665Y32700000D01*
X6536232Y32686254D01*
X6536232Y32686254D01*
G37*
G36*
X28126232Y32686254D02*
X28305311Y32631931D01*
X28470344Y32543719D01*
X28615001Y32425001D01*
X28733719Y32280344D01*
X28821931Y32115311D01*
X28876254Y31936232D01*
X28894596Y31750000D01*
X28876254Y31563768D01*
X28821931Y31384689D01*
X28733719Y31219656D01*
X28615001Y31074999D01*
X28470344Y30956281D01*
X28305311Y30868069D01*
X28126232Y30813746D01*
X27986665Y30800000D01*
X27893335Y30800000D01*
X27753768Y30813746D01*
X27574689Y30868069D01*
X27409656Y30956281D01*
X27264999Y31074999D01*
X27146281Y31219656D01*
X27058069Y31384689D01*
X27003746Y31563768D01*
X26985404Y31750000D01*
X27003746Y31936232D01*
X27058069Y32115311D01*
X27146281Y32280344D01*
X27264999Y32425001D01*
X27409656Y32543719D01*
X27574689Y32631931D01*
X27753768Y32686254D01*
X27893335Y32700000D01*
X27986665Y32700000D01*
X28126232Y32686254D01*
X28126232Y32686254D01*
G37*
G36*
X36381232Y32686254D02*
X36560311Y32631931D01*
X36725344Y32543719D01*
X36870001Y32425001D01*
X36988719Y32280344D01*
X37076931Y32115311D01*
X37131254Y31936232D01*
X37149596Y31750000D01*
X37131254Y31563768D01*
X37076931Y31384689D01*
X36988719Y31219656D01*
X36870001Y31074999D01*
X36725344Y30956281D01*
X36560311Y30868069D01*
X36381232Y30813746D01*
X36241665Y30800000D01*
X36148335Y30800000D01*
X36008768Y30813746D01*
X35829689Y30868069D01*
X35664656Y30956281D01*
X35519999Y31074999D01*
X35401281Y31219656D01*
X35313069Y31384689D01*
X35258746Y31563768D01*
X35240404Y31750000D01*
X35258746Y31936232D01*
X35313069Y32115311D01*
X35401281Y32280344D01*
X35519999Y32425001D01*
X35664656Y32543719D01*
X35829689Y32631931D01*
X36008768Y32686254D01*
X36148335Y32700000D01*
X36241665Y32700000D01*
X36381232Y32686254D01*
X36381232Y32686254D01*
G37*
G36*
X51621232Y32686254D02*
X51800311Y32631931D01*
X51965344Y32543719D01*
X52110001Y32425001D01*
X52228719Y32280344D01*
X52316931Y32115311D01*
X52371254Y31936232D01*
X52389596Y31750000D01*
X52371254Y31563768D01*
X52316931Y31384689D01*
X52228719Y31219656D01*
X52110001Y31074999D01*
X51965344Y30956281D01*
X51800311Y30868069D01*
X51800308Y30868068D01*
X51621232Y30813746D01*
X51481665Y30800000D01*
X51388335Y30800000D01*
X51248768Y30813746D01*
X51069692Y30868068D01*
X51069689Y30868069D01*
X50904656Y30956281D01*
X50759999Y31074999D01*
X50641281Y31219656D01*
X50553069Y31384689D01*
X50498746Y31563768D01*
X50480404Y31750000D01*
X50498746Y31936232D01*
X50553069Y32115311D01*
X50641281Y32280344D01*
X50759999Y32425001D01*
X50904656Y32543719D01*
X51069689Y32631931D01*
X51248768Y32686254D01*
X51388335Y32700000D01*
X51481665Y32700000D01*
X51621232Y32686254D01*
X51621232Y32686254D01*
G37*
G36*
X11626034Y35275530D02*
X11788476Y35226254D01*
X11814538Y35218348D01*
X11988257Y35125493D01*
X11988259Y35125492D01*
X11988258Y35125492D01*
X12140528Y35000528D01*
X12254288Y34861910D01*
X12265493Y34848257D01*
X12358348Y34674538D01*
X12358349Y34674535D01*
X12415530Y34486034D01*
X12434838Y34290000D01*
X12415530Y34093966D01*
X12364181Y33924689D01*
X12358348Y33905462D01*
X12280412Y33759655D01*
X12265492Y33731742D01*
X12140528Y33579472D01*
X12001910Y33465712D01*
X11988257Y33454507D01*
X11814538Y33361652D01*
X11814535Y33361651D01*
X11743161Y33340000D01*
X11626034Y33304470D01*
X11479121Y33290000D01*
X11380879Y33290000D01*
X11233966Y33304470D01*
X11116839Y33340000D01*
X11045465Y33361651D01*
X11045462Y33361652D01*
X10871743Y33454507D01*
X10858090Y33465712D01*
X10719472Y33579472D01*
X10594508Y33731742D01*
X10579588Y33759655D01*
X10501652Y33905462D01*
X10495820Y33924689D01*
X10444470Y34093966D01*
X10425162Y34290000D01*
X10444470Y34486034D01*
X10501651Y34674535D01*
X10501652Y34674538D01*
X10594507Y34848257D01*
X10605712Y34861910D01*
X10719472Y35000528D01*
X10871742Y35125492D01*
X10871741Y35125492D01*
X10871743Y35125493D01*
X11045462Y35218348D01*
X11071525Y35226254D01*
X11233966Y35275530D01*
X11380879Y35290000D01*
X11479121Y35290000D01*
X11626034Y35275530D01*
X11626034Y35275530D01*
G37*
G36*
X4006034Y35275530D02*
X4168476Y35226254D01*
X4194538Y35218348D01*
X4368257Y35125493D01*
X4368259Y35125492D01*
X4368258Y35125492D01*
X4520528Y35000528D01*
X4634288Y34861910D01*
X4645493Y34848257D01*
X4738348Y34674538D01*
X4738349Y34674535D01*
X4795530Y34486034D01*
X4814838Y34290000D01*
X4795530Y34093966D01*
X4744181Y33924689D01*
X4738348Y33905462D01*
X4660412Y33759655D01*
X4645492Y33731742D01*
X4520528Y33579472D01*
X4381910Y33465712D01*
X4368257Y33454507D01*
X4194538Y33361652D01*
X4194535Y33361651D01*
X4123161Y33340000D01*
X4006034Y33304470D01*
X3859121Y33290000D01*
X3760879Y33290000D01*
X3613966Y33304470D01*
X3496839Y33340000D01*
X3425465Y33361651D01*
X3425462Y33361652D01*
X3251743Y33454507D01*
X3238090Y33465712D01*
X3099472Y33579472D01*
X2974508Y33731742D01*
X2959588Y33759655D01*
X2881652Y33905462D01*
X2875820Y33924689D01*
X2824470Y34093966D01*
X2805162Y34290000D01*
X2824470Y34486034D01*
X2881651Y34674535D01*
X2881652Y34674538D01*
X2974507Y34848257D01*
X2985712Y34861910D01*
X3099472Y35000528D01*
X3251742Y35125492D01*
X3251741Y35125492D01*
X3251743Y35125493D01*
X3425462Y35218348D01*
X3451525Y35226254D01*
X3613966Y35275530D01*
X3760879Y35290000D01*
X3859121Y35290000D01*
X4006034Y35275530D01*
X4006034Y35275530D01*
G37*
G36*
X14156232Y35226254D02*
X14335311Y35171931D01*
X14500344Y35083719D01*
X14645001Y34965001D01*
X14763719Y34820344D01*
X14851931Y34655311D01*
X14906254Y34476232D01*
X14924596Y34290000D01*
X14906254Y34103768D01*
X14851931Y33924689D01*
X14763719Y33759656D01*
X14645001Y33614999D01*
X14500344Y33496281D01*
X14335311Y33408069D01*
X14156232Y33353746D01*
X14016665Y33340000D01*
X13923335Y33340000D01*
X13783768Y33353746D01*
X13604689Y33408069D01*
X13439656Y33496281D01*
X13294999Y33614999D01*
X13176281Y33759656D01*
X13088069Y33924689D01*
X13033746Y34103768D01*
X13015404Y34290000D01*
X13033746Y34476232D01*
X13088069Y34655311D01*
X13176281Y34820344D01*
X13294999Y34965001D01*
X13439656Y35083719D01*
X13604689Y35171931D01*
X13783768Y35226254D01*
X13923335Y35240000D01*
X14016665Y35240000D01*
X14156232Y35226254D01*
X14156232Y35226254D01*
G37*
G36*
X28126232Y35226254D02*
X28305311Y35171931D01*
X28470344Y35083719D01*
X28615001Y34965001D01*
X28733719Y34820344D01*
X28821931Y34655311D01*
X28876254Y34476232D01*
X28894596Y34290000D01*
X28876254Y34103768D01*
X28821931Y33924689D01*
X28733719Y33759656D01*
X28615001Y33614999D01*
X28470344Y33496281D01*
X28305311Y33408069D01*
X28305308Y33408068D01*
X28126232Y33353746D01*
X27986665Y33340000D01*
X27893335Y33340000D01*
X27753768Y33353746D01*
X27574692Y33408068D01*
X27574689Y33408069D01*
X27409656Y33496281D01*
X27264999Y33614999D01*
X27146281Y33759656D01*
X27058069Y33924689D01*
X27003746Y34103768D01*
X26985404Y34290000D01*
X27003746Y34476232D01*
X27058069Y34655311D01*
X27146281Y34820344D01*
X27264999Y34965001D01*
X27409656Y35083719D01*
X27574689Y35171931D01*
X27753768Y35226254D01*
X27893335Y35240000D01*
X27986665Y35240000D01*
X28126232Y35226254D01*
X28126232Y35226254D01*
G37*
G36*
X36381232Y35226254D02*
X36560311Y35171931D01*
X36725344Y35083719D01*
X36870001Y34965001D01*
X36988719Y34820344D01*
X37076931Y34655311D01*
X37131254Y34476232D01*
X37149596Y34290000D01*
X37131254Y34103768D01*
X37076931Y33924689D01*
X36988719Y33759656D01*
X36870001Y33614999D01*
X36725344Y33496281D01*
X36560311Y33408069D01*
X36381232Y33353746D01*
X36241665Y33340000D01*
X36148335Y33340000D01*
X36008768Y33353746D01*
X35829689Y33408069D01*
X35664656Y33496281D01*
X35519999Y33614999D01*
X35401281Y33759656D01*
X35313069Y33924689D01*
X35258746Y34103768D01*
X35240404Y34290000D01*
X35258746Y34476232D01*
X35313069Y34655311D01*
X35401281Y34820344D01*
X35519999Y34965001D01*
X35664656Y35083719D01*
X35829689Y35171931D01*
X36008768Y35226254D01*
X36148335Y35240000D01*
X36241665Y35240000D01*
X36381232Y35226254D01*
X36381232Y35226254D01*
G37*
G36*
X51621232Y35226254D02*
X51800311Y35171931D01*
X51965344Y35083719D01*
X52110001Y34965001D01*
X52228719Y34820344D01*
X52316931Y34655311D01*
X52371254Y34476232D01*
X52389596Y34290000D01*
X52371254Y34103768D01*
X52316931Y33924689D01*
X52228719Y33759656D01*
X52110001Y33614999D01*
X51965344Y33496281D01*
X51800311Y33408069D01*
X51621232Y33353746D01*
X51481665Y33340000D01*
X51388335Y33340000D01*
X51248768Y33353746D01*
X51069689Y33408069D01*
X50904656Y33496281D01*
X50759999Y33614999D01*
X50641281Y33759656D01*
X50553069Y33924689D01*
X50498746Y34103768D01*
X50480404Y34290000D01*
X50498746Y34476232D01*
X50553069Y34655311D01*
X50641281Y34820344D01*
X50759999Y34965001D01*
X50904656Y35083719D01*
X51069689Y35171931D01*
X51248768Y35226254D01*
X51388335Y35240000D01*
X51481665Y35240000D01*
X51621232Y35226254D01*
X51621232Y35226254D01*
G37*
G36*
X6536232Y35226254D02*
X6715311Y35171931D01*
X6880344Y35083719D01*
X7025001Y34965001D01*
X7143719Y34820344D01*
X7231931Y34655311D01*
X7286254Y34476232D01*
X7304596Y34290000D01*
X7286254Y34103768D01*
X7231931Y33924689D01*
X7143719Y33759656D01*
X7025001Y33614999D01*
X6880344Y33496281D01*
X6715311Y33408069D01*
X6536232Y33353746D01*
X6396665Y33340000D01*
X6303335Y33340000D01*
X6163768Y33353746D01*
X5984689Y33408069D01*
X5819656Y33496281D01*
X5674999Y33614999D01*
X5556281Y33759656D01*
X5468069Y33924689D01*
X5413746Y34103768D01*
X5395404Y34290000D01*
X5413746Y34476232D01*
X5468069Y34655311D01*
X5556281Y34820344D01*
X5674999Y34965001D01*
X5819656Y35083719D01*
X5984689Y35171931D01*
X6163768Y35226254D01*
X6303335Y35240000D01*
X6396665Y35240000D01*
X6536232Y35226254D01*
X6536232Y35226254D01*
G37*
G36*
X20506232Y35226254D02*
X20685311Y35171931D01*
X20850344Y35083719D01*
X20995001Y34965001D01*
X21113719Y34820344D01*
X21201931Y34655311D01*
X21256254Y34476232D01*
X21274596Y34290000D01*
X21256254Y34103768D01*
X21201931Y33924689D01*
X21113719Y33759656D01*
X20995001Y33614999D01*
X20850344Y33496281D01*
X20685311Y33408069D01*
X20506232Y33353746D01*
X20366665Y33340000D01*
X20273335Y33340000D01*
X20133768Y33353746D01*
X19954689Y33408069D01*
X19789656Y33496281D01*
X19644999Y33614999D01*
X19526281Y33759656D01*
X19438069Y33924689D01*
X19383746Y34103768D01*
X19365404Y34290000D01*
X19383746Y34476232D01*
X19438069Y34655311D01*
X19526281Y34820344D01*
X19644999Y34965001D01*
X19789656Y35083719D01*
X19954689Y35171931D01*
X20133768Y35226254D01*
X20273335Y35240000D01*
X20366665Y35240000D01*
X20506232Y35226254D01*
X20506232Y35226254D01*
G37*
G36*
X11626034Y37815530D02*
X11788476Y37766254D01*
X11814538Y37758348D01*
X11988257Y37665493D01*
X11988259Y37665492D01*
X11988258Y37665492D01*
X12140528Y37540528D01*
X12254288Y37401910D01*
X12265493Y37388257D01*
X12358348Y37214538D01*
X12358349Y37214535D01*
X12415530Y37026034D01*
X12434838Y36830000D01*
X12415530Y36633966D01*
X12364181Y36464689D01*
X12358348Y36445462D01*
X12280412Y36299655D01*
X12265492Y36271742D01*
X12140528Y36119472D01*
X12001910Y36005712D01*
X11988257Y35994507D01*
X11814538Y35901652D01*
X11814535Y35901651D01*
X11743161Y35880000D01*
X11626034Y35844470D01*
X11479121Y35830000D01*
X11380879Y35830000D01*
X11233966Y35844470D01*
X11116839Y35880000D01*
X11045465Y35901651D01*
X11045462Y35901652D01*
X10871743Y35994507D01*
X10858090Y36005712D01*
X10719472Y36119472D01*
X10594508Y36271742D01*
X10579588Y36299655D01*
X10501652Y36445462D01*
X10495820Y36464689D01*
X10444470Y36633966D01*
X10425162Y36830000D01*
X10444470Y37026034D01*
X10501651Y37214535D01*
X10501652Y37214538D01*
X10594507Y37388257D01*
X10605712Y37401910D01*
X10719472Y37540528D01*
X10871742Y37665492D01*
X10871741Y37665492D01*
X10871743Y37665493D01*
X11045462Y37758348D01*
X11071525Y37766254D01*
X11233966Y37815530D01*
X11380879Y37830000D01*
X11479121Y37830000D01*
X11626034Y37815530D01*
X11626034Y37815530D01*
G37*
G36*
X4006034Y37815530D02*
X4168476Y37766254D01*
X4194538Y37758348D01*
X4368257Y37665493D01*
X4368259Y37665492D01*
X4368258Y37665492D01*
X4520528Y37540528D01*
X4634288Y37401910D01*
X4645493Y37388257D01*
X4738348Y37214538D01*
X4738349Y37214535D01*
X4795530Y37026034D01*
X4814838Y36830000D01*
X4795530Y36633966D01*
X4744181Y36464689D01*
X4738348Y36445462D01*
X4660412Y36299655D01*
X4645492Y36271742D01*
X4520528Y36119472D01*
X4381910Y36005712D01*
X4368257Y35994507D01*
X4194538Y35901652D01*
X4194535Y35901651D01*
X4123161Y35880000D01*
X4006034Y35844470D01*
X3859121Y35830000D01*
X3760879Y35830000D01*
X3613966Y35844470D01*
X3496839Y35880000D01*
X3425465Y35901651D01*
X3425462Y35901652D01*
X3251743Y35994507D01*
X3238090Y36005712D01*
X3099472Y36119472D01*
X2974508Y36271742D01*
X2959588Y36299655D01*
X2881652Y36445462D01*
X2875820Y36464689D01*
X2824470Y36633966D01*
X2805162Y36830000D01*
X2824470Y37026034D01*
X2881651Y37214535D01*
X2881652Y37214538D01*
X2974507Y37388257D01*
X2985712Y37401910D01*
X3099472Y37540528D01*
X3251742Y37665492D01*
X3251741Y37665492D01*
X3251743Y37665493D01*
X3425462Y37758348D01*
X3451525Y37766254D01*
X3613966Y37815530D01*
X3760879Y37830000D01*
X3859121Y37830000D01*
X4006034Y37815530D01*
X4006034Y37815530D01*
G37*
G36*
X36381232Y37766254D02*
X36560311Y37711931D01*
X36725344Y37623719D01*
X36870001Y37505001D01*
X36988719Y37360344D01*
X37076931Y37195311D01*
X37131254Y37016232D01*
X37149596Y36830000D01*
X37131254Y36643768D01*
X37076931Y36464689D01*
X36988719Y36299656D01*
X36870001Y36154999D01*
X36725344Y36036281D01*
X36560311Y35948069D01*
X36381232Y35893746D01*
X36241665Y35880000D01*
X36148335Y35880000D01*
X36008768Y35893746D01*
X35829689Y35948069D01*
X35664656Y36036281D01*
X35519999Y36154999D01*
X35401281Y36299656D01*
X35313069Y36464689D01*
X35258746Y36643768D01*
X35240404Y36830000D01*
X35258746Y37016232D01*
X35313069Y37195311D01*
X35401281Y37360344D01*
X35519999Y37505001D01*
X35664656Y37623719D01*
X35829689Y37711931D01*
X36008768Y37766254D01*
X36148335Y37780000D01*
X36241665Y37780000D01*
X36381232Y37766254D01*
X36381232Y37766254D01*
G37*
G36*
X14156232Y37766254D02*
X14335311Y37711931D01*
X14500344Y37623719D01*
X14645001Y37505001D01*
X14763719Y37360344D01*
X14851931Y37195311D01*
X14906254Y37016232D01*
X14924596Y36830000D01*
X14906254Y36643768D01*
X14851931Y36464689D01*
X14763719Y36299656D01*
X14645001Y36154999D01*
X14500344Y36036281D01*
X14335311Y35948069D01*
X14335308Y35948068D01*
X14156232Y35893746D01*
X14016665Y35880000D01*
X13923335Y35880000D01*
X13783768Y35893746D01*
X13604692Y35948068D01*
X13604689Y35948069D01*
X13439656Y36036281D01*
X13294999Y36154999D01*
X13176281Y36299656D01*
X13088069Y36464689D01*
X13033746Y36643768D01*
X13015404Y36830000D01*
X13033746Y37016232D01*
X13088069Y37195311D01*
X13176281Y37360344D01*
X13294999Y37505001D01*
X13439656Y37623719D01*
X13604689Y37711931D01*
X13783768Y37766254D01*
X13923335Y37780000D01*
X14016665Y37780000D01*
X14156232Y37766254D01*
X14156232Y37766254D01*
G37*
G36*
X51621232Y37766254D02*
X51800311Y37711931D01*
X51965344Y37623719D01*
X52110001Y37505001D01*
X52228719Y37360344D01*
X52316931Y37195311D01*
X52371254Y37016232D01*
X52389596Y36830000D01*
X52371254Y36643768D01*
X52316931Y36464689D01*
X52228719Y36299656D01*
X52110001Y36154999D01*
X51965344Y36036281D01*
X51800311Y35948069D01*
X51800308Y35948068D01*
X51621232Y35893746D01*
X51481665Y35880000D01*
X51388335Y35880000D01*
X51248768Y35893746D01*
X51069692Y35948068D01*
X51069689Y35948069D01*
X50904656Y36036281D01*
X50759999Y36154999D01*
X50641281Y36299656D01*
X50553069Y36464689D01*
X50498746Y36643768D01*
X50480404Y36830000D01*
X50498746Y37016232D01*
X50553069Y37195311D01*
X50641281Y37360344D01*
X50759999Y37505001D01*
X50904656Y37623719D01*
X51069689Y37711931D01*
X51248768Y37766254D01*
X51388335Y37780000D01*
X51481665Y37780000D01*
X51621232Y37766254D01*
X51621232Y37766254D01*
G37*
G36*
X28126232Y37766254D02*
X28305311Y37711931D01*
X28470344Y37623719D01*
X28615001Y37505001D01*
X28733719Y37360344D01*
X28821931Y37195311D01*
X28876254Y37016232D01*
X28894596Y36830000D01*
X28876254Y36643768D01*
X28821931Y36464689D01*
X28733719Y36299656D01*
X28615001Y36154999D01*
X28470344Y36036281D01*
X28305311Y35948069D01*
X28126232Y35893746D01*
X27986665Y35880000D01*
X27893335Y35880000D01*
X27753768Y35893746D01*
X27574689Y35948069D01*
X27409656Y36036281D01*
X27264999Y36154999D01*
X27146281Y36299656D01*
X27058069Y36464689D01*
X27003746Y36643768D01*
X26985404Y36830000D01*
X27003746Y37016232D01*
X27058069Y37195311D01*
X27146281Y37360344D01*
X27264999Y37505001D01*
X27409656Y37623719D01*
X27574689Y37711931D01*
X27753768Y37766254D01*
X27893335Y37780000D01*
X27986665Y37780000D01*
X28126232Y37766254D01*
X28126232Y37766254D01*
G37*
G36*
X6536232Y37766254D02*
X6715311Y37711931D01*
X6880344Y37623719D01*
X7025001Y37505001D01*
X7143719Y37360344D01*
X7231931Y37195311D01*
X7286254Y37016232D01*
X7304596Y36830000D01*
X7286254Y36643768D01*
X7231931Y36464689D01*
X7143719Y36299656D01*
X7025001Y36154999D01*
X6880344Y36036281D01*
X6715311Y35948069D01*
X6715308Y35948068D01*
X6536232Y35893746D01*
X6396665Y35880000D01*
X6303335Y35880000D01*
X6163768Y35893746D01*
X5984692Y35948068D01*
X5984689Y35948069D01*
X5819656Y36036281D01*
X5674999Y36154999D01*
X5556281Y36299656D01*
X5468069Y36464689D01*
X5413746Y36643768D01*
X5395404Y36830000D01*
X5413746Y37016232D01*
X5468069Y37195311D01*
X5556281Y37360344D01*
X5674999Y37505001D01*
X5819656Y37623719D01*
X5984689Y37711931D01*
X6163768Y37766254D01*
X6303335Y37780000D01*
X6396665Y37780000D01*
X6536232Y37766254D01*
X6536232Y37766254D01*
G37*
G36*
X20506232Y37766254D02*
X20685311Y37711931D01*
X20850344Y37623719D01*
X20995001Y37505001D01*
X21113719Y37360344D01*
X21201931Y37195311D01*
X21256254Y37016232D01*
X21274596Y36830000D01*
X21256254Y36643768D01*
X21201931Y36464689D01*
X21113719Y36299656D01*
X20995001Y36154999D01*
X20850344Y36036281D01*
X20685311Y35948069D01*
X20506232Y35893746D01*
X20366665Y35880000D01*
X20273335Y35880000D01*
X20133768Y35893746D01*
X19954689Y35948069D01*
X19789656Y36036281D01*
X19644999Y36154999D01*
X19526281Y36299656D01*
X19438069Y36464689D01*
X19383746Y36643768D01*
X19365404Y36830000D01*
X19383746Y37016232D01*
X19438069Y37195311D01*
X19526281Y37360344D01*
X19644999Y37505001D01*
X19789656Y37623719D01*
X19954689Y37711931D01*
X20133768Y37766254D01*
X20273335Y37780000D01*
X20366665Y37780000D01*
X20506232Y37766254D01*
X20506232Y37766254D01*
G37*
G36*
X11626034Y40355530D02*
X11788476Y40306254D01*
X11814538Y40298348D01*
X11988257Y40205493D01*
X11988259Y40205492D01*
X11988258Y40205492D01*
X12140528Y40080528D01*
X12254288Y39941910D01*
X12265493Y39928257D01*
X12358348Y39754538D01*
X12358349Y39754535D01*
X12415530Y39566034D01*
X12434838Y39370000D01*
X12415530Y39173966D01*
X12364181Y39004689D01*
X12358348Y38985462D01*
X12280412Y38839655D01*
X12265492Y38811742D01*
X12140528Y38659472D01*
X12001910Y38545712D01*
X11988257Y38534507D01*
X11814538Y38441652D01*
X11814535Y38441651D01*
X11743161Y38420000D01*
X11626034Y38384470D01*
X11479121Y38370000D01*
X11380879Y38370000D01*
X11233966Y38384470D01*
X11116839Y38420000D01*
X11045465Y38441651D01*
X11045462Y38441652D01*
X10871743Y38534507D01*
X10858090Y38545712D01*
X10719472Y38659472D01*
X10594508Y38811742D01*
X10579588Y38839655D01*
X10501652Y38985462D01*
X10495820Y39004689D01*
X10444470Y39173966D01*
X10425162Y39370000D01*
X10444470Y39566034D01*
X10501651Y39754535D01*
X10501652Y39754538D01*
X10594507Y39928257D01*
X10605712Y39941910D01*
X10719472Y40080528D01*
X10871742Y40205492D01*
X10871741Y40205492D01*
X10871743Y40205493D01*
X11045462Y40298348D01*
X11071525Y40306254D01*
X11233966Y40355530D01*
X11380879Y40370000D01*
X11479121Y40370000D01*
X11626034Y40355530D01*
X11626034Y40355530D01*
G37*
G36*
X72586034Y40355530D02*
X72748476Y40306254D01*
X72774538Y40298348D01*
X72948257Y40205493D01*
X72948259Y40205492D01*
X72948258Y40205492D01*
X73100528Y40080528D01*
X73214288Y39941910D01*
X73225493Y39928257D01*
X73318348Y39754538D01*
X73318349Y39754535D01*
X73375530Y39566034D01*
X73394838Y39370000D01*
X73375530Y39173966D01*
X73324181Y39004689D01*
X73318348Y38985462D01*
X73240412Y38839655D01*
X73225492Y38811742D01*
X73100528Y38659472D01*
X72961910Y38545712D01*
X72948257Y38534507D01*
X72774538Y38441652D01*
X72774535Y38441651D01*
X72703161Y38420000D01*
X72586034Y38384470D01*
X72439121Y38370000D01*
X72340879Y38370000D01*
X72193966Y38384470D01*
X72076839Y38420000D01*
X72005465Y38441651D01*
X72005462Y38441652D01*
X71831743Y38534507D01*
X71818090Y38545712D01*
X71679472Y38659472D01*
X71554508Y38811742D01*
X71539588Y38839655D01*
X71461652Y38985462D01*
X71455820Y39004689D01*
X71404470Y39173966D01*
X71385162Y39370000D01*
X71404470Y39566034D01*
X71461651Y39754535D01*
X71461652Y39754538D01*
X71554507Y39928257D01*
X71565712Y39941910D01*
X71679472Y40080528D01*
X71831742Y40205492D01*
X71831741Y40205492D01*
X71831743Y40205493D01*
X72005462Y40298348D01*
X72031525Y40306254D01*
X72193966Y40355530D01*
X72340879Y40370000D01*
X72439121Y40370000D01*
X72586034Y40355530D01*
X72586034Y40355530D01*
G37*
G36*
X4006034Y40355530D02*
X4168476Y40306254D01*
X4194538Y40298348D01*
X4368257Y40205493D01*
X4368259Y40205492D01*
X4368258Y40205492D01*
X4520528Y40080528D01*
X4634288Y39941910D01*
X4645493Y39928257D01*
X4738348Y39754538D01*
X4738349Y39754535D01*
X4795530Y39566034D01*
X4814838Y39370000D01*
X4795530Y39173966D01*
X4744181Y39004689D01*
X4738348Y38985462D01*
X4660412Y38839655D01*
X4645492Y38811742D01*
X4520528Y38659472D01*
X4381910Y38545712D01*
X4368257Y38534507D01*
X4194538Y38441652D01*
X4194535Y38441651D01*
X4123161Y38420000D01*
X4006034Y38384470D01*
X3859121Y38370000D01*
X3760879Y38370000D01*
X3613966Y38384470D01*
X3496839Y38420000D01*
X3425465Y38441651D01*
X3425462Y38441652D01*
X3251743Y38534507D01*
X3238090Y38545712D01*
X3099472Y38659472D01*
X2974508Y38811742D01*
X2959588Y38839655D01*
X2881652Y38985462D01*
X2875820Y39004689D01*
X2824470Y39173966D01*
X2805162Y39370000D01*
X2824470Y39566034D01*
X2881651Y39754535D01*
X2881652Y39754538D01*
X2974507Y39928257D01*
X2985712Y39941910D01*
X3099472Y40080528D01*
X3251742Y40205492D01*
X3251741Y40205492D01*
X3251743Y40205493D01*
X3425462Y40298348D01*
X3451525Y40306254D01*
X3613966Y40355530D01*
X3760879Y40370000D01*
X3859121Y40370000D01*
X4006034Y40355530D01*
X4006034Y40355530D01*
G37*
G36*
X28126232Y40306254D02*
X28305311Y40251931D01*
X28470344Y40163719D01*
X28615001Y40045001D01*
X28733719Y39900344D01*
X28821931Y39735311D01*
X28876254Y39556232D01*
X28894596Y39370000D01*
X28876254Y39183768D01*
X28821931Y39004689D01*
X28733719Y38839656D01*
X28615001Y38694999D01*
X28470344Y38576281D01*
X28305311Y38488069D01*
X28126232Y38433746D01*
X27986665Y38420000D01*
X27893335Y38420000D01*
X27753768Y38433746D01*
X27574689Y38488069D01*
X27409656Y38576281D01*
X27264999Y38694999D01*
X27146281Y38839656D01*
X27058069Y39004689D01*
X27003746Y39183768D01*
X26985404Y39370000D01*
X27003746Y39556232D01*
X27058069Y39735311D01*
X27146281Y39900344D01*
X27264999Y40045001D01*
X27409656Y40163719D01*
X27574689Y40251931D01*
X27753768Y40306254D01*
X27893335Y40320000D01*
X27986665Y40320000D01*
X28126232Y40306254D01*
X28126232Y40306254D01*
G37*
G36*
X51621232Y40306254D02*
X51800311Y40251931D01*
X51965344Y40163719D01*
X52110001Y40045001D01*
X52228719Y39900344D01*
X52316931Y39735311D01*
X52371254Y39556232D01*
X52389596Y39370000D01*
X52371254Y39183768D01*
X52316931Y39004689D01*
X52228719Y38839656D01*
X52110001Y38694999D01*
X51965344Y38576281D01*
X51800311Y38488069D01*
X51621232Y38433746D01*
X51481665Y38420000D01*
X51388335Y38420000D01*
X51248768Y38433746D01*
X51069689Y38488069D01*
X50904656Y38576281D01*
X50759999Y38694999D01*
X50641281Y38839656D01*
X50553069Y39004689D01*
X50498746Y39183768D01*
X50480404Y39370000D01*
X50498746Y39556232D01*
X50553069Y39735311D01*
X50641281Y39900344D01*
X50759999Y40045001D01*
X50904656Y40163719D01*
X51069689Y40251931D01*
X51248768Y40306254D01*
X51388335Y40320000D01*
X51481665Y40320000D01*
X51621232Y40306254D01*
X51621232Y40306254D01*
G37*
G36*
X36381232Y40306254D02*
X36560311Y40251931D01*
X36725344Y40163719D01*
X36870001Y40045001D01*
X36988719Y39900344D01*
X37076931Y39735311D01*
X37131254Y39556232D01*
X37149596Y39370000D01*
X37131254Y39183768D01*
X37076931Y39004689D01*
X36988719Y38839656D01*
X36870001Y38694999D01*
X36725344Y38576281D01*
X36560311Y38488069D01*
X36381232Y38433746D01*
X36241665Y38420000D01*
X36148335Y38420000D01*
X36008768Y38433746D01*
X35829689Y38488069D01*
X35664656Y38576281D01*
X35519999Y38694999D01*
X35401281Y38839656D01*
X35313069Y39004689D01*
X35258746Y39183768D01*
X35240404Y39370000D01*
X35258746Y39556232D01*
X35313069Y39735311D01*
X35401281Y39900344D01*
X35519999Y40045001D01*
X35664656Y40163719D01*
X35829689Y40251931D01*
X36008768Y40306254D01*
X36148335Y40320000D01*
X36241665Y40320000D01*
X36381232Y40306254D01*
X36381232Y40306254D01*
G37*
G36*
X20506232Y40306254D02*
X20685311Y40251931D01*
X20850344Y40163719D01*
X20995001Y40045001D01*
X21113719Y39900344D01*
X21201931Y39735311D01*
X21256254Y39556232D01*
X21274596Y39370000D01*
X21256254Y39183768D01*
X21201931Y39004689D01*
X21113719Y38839656D01*
X20995001Y38694999D01*
X20850344Y38576281D01*
X20685311Y38488069D01*
X20506232Y38433746D01*
X20366665Y38420000D01*
X20273335Y38420000D01*
X20133768Y38433746D01*
X19954689Y38488069D01*
X19789656Y38576281D01*
X19644999Y38694999D01*
X19526281Y38839656D01*
X19438069Y39004689D01*
X19383746Y39183768D01*
X19365404Y39370000D01*
X19383746Y39556232D01*
X19438069Y39735311D01*
X19526281Y39900344D01*
X19644999Y40045001D01*
X19789656Y40163719D01*
X19954689Y40251931D01*
X20133768Y40306254D01*
X20273335Y40320000D01*
X20366665Y40320000D01*
X20506232Y40306254D01*
X20506232Y40306254D01*
G37*
G36*
X14156232Y40306254D02*
X14335311Y40251931D01*
X14500344Y40163719D01*
X14645001Y40045001D01*
X14763719Y39900344D01*
X14851931Y39735311D01*
X14906254Y39556232D01*
X14924596Y39370000D01*
X14906254Y39183768D01*
X14851931Y39004689D01*
X14763719Y38839656D01*
X14645001Y38694999D01*
X14500344Y38576281D01*
X14335311Y38488069D01*
X14156232Y38433746D01*
X14016665Y38420000D01*
X13923335Y38420000D01*
X13783768Y38433746D01*
X13604689Y38488069D01*
X13439656Y38576281D01*
X13294999Y38694999D01*
X13176281Y38839656D01*
X13088069Y39004689D01*
X13033746Y39183768D01*
X13015404Y39370000D01*
X13033746Y39556232D01*
X13088069Y39735311D01*
X13176281Y39900344D01*
X13294999Y40045001D01*
X13439656Y40163719D01*
X13604689Y40251931D01*
X13783768Y40306254D01*
X13923335Y40320000D01*
X14016665Y40320000D01*
X14156232Y40306254D01*
X14156232Y40306254D01*
G37*
G36*
X6536232Y40306254D02*
X6715311Y40251931D01*
X6880344Y40163719D01*
X7025001Y40045001D01*
X7143719Y39900344D01*
X7231931Y39735311D01*
X7286254Y39556232D01*
X7304596Y39370000D01*
X7286254Y39183768D01*
X7231931Y39004689D01*
X7143719Y38839656D01*
X7025001Y38694999D01*
X6880344Y38576281D01*
X6715311Y38488069D01*
X6536232Y38433746D01*
X6396665Y38420000D01*
X6303335Y38420000D01*
X6163768Y38433746D01*
X5984689Y38488069D01*
X5819656Y38576281D01*
X5674999Y38694999D01*
X5556281Y38839656D01*
X5468069Y39004689D01*
X5413746Y39183768D01*
X5395404Y39370000D01*
X5413746Y39556232D01*
X5468069Y39735311D01*
X5556281Y39900344D01*
X5674999Y40045001D01*
X5819656Y40163719D01*
X5984689Y40251931D01*
X6163768Y40306254D01*
X6303335Y40320000D01*
X6396665Y40320000D01*
X6536232Y40306254D01*
X6536232Y40306254D01*
G37*
G36*
X4006034Y42895530D02*
X4168476Y42846254D01*
X4194538Y42838348D01*
X4368257Y42745493D01*
X4368259Y42745492D01*
X4368258Y42745492D01*
X4520528Y42620528D01*
X4634288Y42481910D01*
X4645493Y42468257D01*
X4738348Y42294538D01*
X4738349Y42294535D01*
X4795530Y42106034D01*
X4814838Y41910000D01*
X4795530Y41713966D01*
X4744181Y41544689D01*
X4738348Y41525462D01*
X4660412Y41379655D01*
X4645492Y41351742D01*
X4520528Y41199472D01*
X4381910Y41085712D01*
X4368257Y41074507D01*
X4194538Y40981652D01*
X4194535Y40981651D01*
X4123161Y40960000D01*
X4006034Y40924470D01*
X3859121Y40910000D01*
X3760879Y40910000D01*
X3613966Y40924470D01*
X3496839Y40960000D01*
X3425465Y40981651D01*
X3425462Y40981652D01*
X3251743Y41074507D01*
X3238090Y41085712D01*
X3099472Y41199472D01*
X2974508Y41351742D01*
X2959588Y41379655D01*
X2881652Y41525462D01*
X2875820Y41544689D01*
X2824470Y41713966D01*
X2805162Y41910000D01*
X2824470Y42106034D01*
X2881651Y42294535D01*
X2881652Y42294538D01*
X2974507Y42468257D01*
X2985712Y42481910D01*
X3099472Y42620528D01*
X3251742Y42745492D01*
X3251741Y42745492D01*
X3251743Y42745493D01*
X3425462Y42838348D01*
X3451525Y42846254D01*
X3613966Y42895530D01*
X3760879Y42910000D01*
X3859121Y42910000D01*
X4006034Y42895530D01*
X4006034Y42895530D01*
G37*
G36*
X11626034Y42895530D02*
X11788476Y42846254D01*
X11814538Y42838348D01*
X11988257Y42745493D01*
X11988259Y42745492D01*
X11988258Y42745492D01*
X12140528Y42620528D01*
X12254288Y42481910D01*
X12265493Y42468257D01*
X12358348Y42294538D01*
X12358349Y42294535D01*
X12415530Y42106034D01*
X12434838Y41910000D01*
X12415530Y41713966D01*
X12364181Y41544689D01*
X12358348Y41525462D01*
X12280412Y41379655D01*
X12265492Y41351742D01*
X12140528Y41199472D01*
X12001910Y41085712D01*
X11988257Y41074507D01*
X11814538Y40981652D01*
X11814535Y40981651D01*
X11743161Y40960000D01*
X11626034Y40924470D01*
X11479121Y40910000D01*
X11380879Y40910000D01*
X11233966Y40924470D01*
X11116839Y40960000D01*
X11045465Y40981651D01*
X11045462Y40981652D01*
X10871743Y41074507D01*
X10858090Y41085712D01*
X10719472Y41199472D01*
X10594508Y41351742D01*
X10579588Y41379655D01*
X10501652Y41525462D01*
X10495820Y41544689D01*
X10444470Y41713966D01*
X10425162Y41910000D01*
X10444470Y42106034D01*
X10501651Y42294535D01*
X10501652Y42294538D01*
X10594507Y42468257D01*
X10605712Y42481910D01*
X10719472Y42620528D01*
X10871742Y42745492D01*
X10871741Y42745492D01*
X10871743Y42745493D01*
X11045462Y42838348D01*
X11071525Y42846254D01*
X11233966Y42895530D01*
X11380879Y42910000D01*
X11479121Y42910000D01*
X11626034Y42895530D01*
X11626034Y42895530D01*
G37*
G36*
X72586034Y42895530D02*
X72748476Y42846254D01*
X72774538Y42838348D01*
X72948257Y42745493D01*
X72948259Y42745492D01*
X72948258Y42745492D01*
X73100528Y42620528D01*
X73214288Y42481910D01*
X73225493Y42468257D01*
X73318348Y42294538D01*
X73318349Y42294535D01*
X73375530Y42106034D01*
X73394838Y41910000D01*
X73375530Y41713966D01*
X73324181Y41544689D01*
X73318348Y41525462D01*
X73240412Y41379655D01*
X73225492Y41351742D01*
X73100528Y41199472D01*
X72961910Y41085712D01*
X72948257Y41074507D01*
X72774538Y40981652D01*
X72774535Y40981651D01*
X72703161Y40960000D01*
X72586034Y40924470D01*
X72439121Y40910000D01*
X72340879Y40910000D01*
X72193966Y40924470D01*
X72076839Y40960000D01*
X72005465Y40981651D01*
X72005462Y40981652D01*
X71831743Y41074507D01*
X71818090Y41085712D01*
X71679472Y41199472D01*
X71554508Y41351742D01*
X71539588Y41379655D01*
X71461652Y41525462D01*
X71455820Y41544689D01*
X71404470Y41713966D01*
X71385162Y41910000D01*
X71404470Y42106034D01*
X71461651Y42294535D01*
X71461652Y42294538D01*
X71554507Y42468257D01*
X71565712Y42481910D01*
X71679472Y42620528D01*
X71831742Y42745492D01*
X71831741Y42745492D01*
X71831743Y42745493D01*
X72005462Y42838348D01*
X72031525Y42846254D01*
X72193966Y42895530D01*
X72340879Y42910000D01*
X72439121Y42910000D01*
X72586034Y42895530D01*
X72586034Y42895530D01*
G37*
G36*
X28126232Y42846254D02*
X28305311Y42791931D01*
X28470344Y42703719D01*
X28615001Y42585001D01*
X28733719Y42440344D01*
X28821931Y42275311D01*
X28876254Y42096232D01*
X28894596Y41910000D01*
X28876254Y41723768D01*
X28821931Y41544689D01*
X28733719Y41379656D01*
X28615001Y41234999D01*
X28470344Y41116281D01*
X28305311Y41028069D01*
X28126232Y40973746D01*
X27986665Y40960000D01*
X27893335Y40960000D01*
X27753768Y40973746D01*
X27574689Y41028069D01*
X27409656Y41116281D01*
X27264999Y41234999D01*
X27146281Y41379656D01*
X27058069Y41544689D01*
X27003746Y41723768D01*
X26985404Y41910000D01*
X27003746Y42096232D01*
X27058069Y42275311D01*
X27146281Y42440344D01*
X27264999Y42585001D01*
X27409656Y42703719D01*
X27574689Y42791931D01*
X27753768Y42846254D01*
X27893335Y42860000D01*
X27986665Y42860000D01*
X28126232Y42846254D01*
X28126232Y42846254D01*
G37*
G36*
X14156232Y42846254D02*
X14335311Y42791931D01*
X14500344Y42703719D01*
X14645001Y42585001D01*
X14763719Y42440344D01*
X14851931Y42275311D01*
X14906254Y42096232D01*
X14924596Y41910000D01*
X14906254Y41723768D01*
X14851931Y41544689D01*
X14763719Y41379656D01*
X14645001Y41234999D01*
X14500344Y41116281D01*
X14335311Y41028069D01*
X14335308Y41028068D01*
X14156232Y40973746D01*
X14016665Y40960000D01*
X13923335Y40960000D01*
X13783768Y40973746D01*
X13604692Y41028068D01*
X13604689Y41028069D01*
X13439656Y41116281D01*
X13294999Y41234999D01*
X13176281Y41379656D01*
X13088069Y41544689D01*
X13033746Y41723768D01*
X13015404Y41910000D01*
X13033746Y42096232D01*
X13088069Y42275311D01*
X13176281Y42440344D01*
X13294999Y42585001D01*
X13439656Y42703719D01*
X13604689Y42791931D01*
X13783768Y42846254D01*
X13923335Y42860000D01*
X14016665Y42860000D01*
X14156232Y42846254D01*
X14156232Y42846254D01*
G37*
G36*
X20506232Y42846254D02*
X20685311Y42791931D01*
X20850344Y42703719D01*
X20995001Y42585001D01*
X21113719Y42440344D01*
X21201931Y42275311D01*
X21256254Y42096232D01*
X21274596Y41910000D01*
X21256254Y41723768D01*
X21201931Y41544689D01*
X21113719Y41379656D01*
X20995001Y41234999D01*
X20850344Y41116281D01*
X20685311Y41028069D01*
X20685308Y41028068D01*
X20506232Y40973746D01*
X20366665Y40960000D01*
X20273335Y40960000D01*
X20133768Y40973746D01*
X19954692Y41028068D01*
X19954689Y41028069D01*
X19789656Y41116281D01*
X19644999Y41234999D01*
X19526281Y41379656D01*
X19438069Y41544689D01*
X19383746Y41723768D01*
X19365404Y41910000D01*
X19383746Y42096232D01*
X19438069Y42275311D01*
X19526281Y42440344D01*
X19644999Y42585001D01*
X19789656Y42703719D01*
X19954689Y42791931D01*
X20133768Y42846254D01*
X20273335Y42860000D01*
X20366665Y42860000D01*
X20506232Y42846254D01*
X20506232Y42846254D01*
G37*
G36*
X6536232Y42846254D02*
X6715311Y42791931D01*
X6880344Y42703719D01*
X7025001Y42585001D01*
X7143719Y42440344D01*
X7231931Y42275311D01*
X7286254Y42096232D01*
X7304596Y41910000D01*
X7286254Y41723768D01*
X7231931Y41544689D01*
X7143719Y41379656D01*
X7025001Y41234999D01*
X6880344Y41116281D01*
X6715311Y41028069D01*
X6715308Y41028068D01*
X6536232Y40973746D01*
X6396665Y40960000D01*
X6303335Y40960000D01*
X6163768Y40973746D01*
X5984692Y41028068D01*
X5984689Y41028069D01*
X5819656Y41116281D01*
X5674999Y41234999D01*
X5556281Y41379656D01*
X5468069Y41544689D01*
X5413746Y41723768D01*
X5395404Y41910000D01*
X5413746Y42096232D01*
X5468069Y42275311D01*
X5556281Y42440344D01*
X5674999Y42585001D01*
X5819656Y42703719D01*
X5984689Y42791931D01*
X6163768Y42846254D01*
X6303335Y42860000D01*
X6396665Y42860000D01*
X6536232Y42846254D01*
X6536232Y42846254D01*
G37*
G36*
X36381232Y42846254D02*
X36560311Y42791931D01*
X36725344Y42703719D01*
X36870001Y42585001D01*
X36988719Y42440344D01*
X37076931Y42275311D01*
X37131254Y42096232D01*
X37149596Y41910000D01*
X37131254Y41723768D01*
X37076931Y41544689D01*
X36988719Y41379656D01*
X36870001Y41234999D01*
X36725344Y41116281D01*
X36560311Y41028069D01*
X36560308Y41028068D01*
X36381232Y40973746D01*
X36241665Y40960000D01*
X36148335Y40960000D01*
X36008768Y40973746D01*
X35829692Y41028068D01*
X35829689Y41028069D01*
X35664656Y41116281D01*
X35519999Y41234999D01*
X35401281Y41379656D01*
X35313069Y41544689D01*
X35258746Y41723768D01*
X35240404Y41910000D01*
X35258746Y42096232D01*
X35313069Y42275311D01*
X35401281Y42440344D01*
X35519999Y42585001D01*
X35664656Y42703719D01*
X35829689Y42791931D01*
X36008768Y42846254D01*
X36148335Y42860000D01*
X36241665Y42860000D01*
X36381232Y42846254D01*
X36381232Y42846254D01*
G37*
G36*
X51621232Y42846254D02*
X51800311Y42791931D01*
X51965344Y42703719D01*
X52110001Y42585001D01*
X52228719Y42440344D01*
X52316931Y42275311D01*
X52371254Y42096232D01*
X52389596Y41910000D01*
X52371254Y41723768D01*
X52316931Y41544689D01*
X52228719Y41379656D01*
X52110001Y41234999D01*
X51965344Y41116281D01*
X51800311Y41028069D01*
X51800308Y41028068D01*
X51621232Y40973746D01*
X51481665Y40960000D01*
X51388335Y40960000D01*
X51248768Y40973746D01*
X51069692Y41028068D01*
X51069689Y41028069D01*
X50904656Y41116281D01*
X50759999Y41234999D01*
X50641281Y41379656D01*
X50553069Y41544689D01*
X50498746Y41723768D01*
X50480404Y41910000D01*
X50498746Y42096232D01*
X50553069Y42275311D01*
X50641281Y42440344D01*
X50759999Y42585001D01*
X50904656Y42703719D01*
X51069689Y42791931D01*
X51248768Y42846254D01*
X51388335Y42860000D01*
X51481665Y42860000D01*
X51621232Y42846254D01*
X51621232Y42846254D01*
G37*
G36*
X47691232Y44116254D02*
X47870311Y44061931D01*
X48035344Y43973719D01*
X48180001Y43855001D01*
X48298719Y43710344D01*
X48386931Y43545311D01*
X48441254Y43366232D01*
X48459596Y43180000D01*
X48441254Y42993768D01*
X48386931Y42814689D01*
X48298719Y42649656D01*
X48180001Y42504999D01*
X48035344Y42386281D01*
X47870311Y42298069D01*
X47870308Y42298068D01*
X47691232Y42243746D01*
X47551665Y42230000D01*
X47458335Y42230000D01*
X47318768Y42243746D01*
X47139692Y42298068D01*
X47139689Y42298069D01*
X46974656Y42386281D01*
X46829999Y42504999D01*
X46711281Y42649656D01*
X46623069Y42814689D01*
X46568746Y42993768D01*
X46550404Y43180000D01*
X46568746Y43366232D01*
X46623069Y43545311D01*
X46711281Y43710344D01*
X46829999Y43855001D01*
X46974656Y43973719D01*
X47139689Y44061931D01*
X47318768Y44116254D01*
X47458335Y44130000D01*
X47551665Y44130000D01*
X47691232Y44116254D01*
X47691232Y44116254D01*
G37*
G36*
X40282105Y44093492D02*
X40454994Y44021879D01*
X40454998Y44021876D01*
X40607982Y43919656D01*
X40610590Y43917913D01*
X40742913Y43785590D01*
X40846879Y43629994D01*
X40918492Y43457105D01*
X40955000Y43273567D01*
X40955000Y43086433D01*
X40918492Y42902895D01*
X40846879Y42730006D01*
X40829314Y42703718D01*
X40742914Y42574411D01*
X40610589Y42442086D01*
X40532258Y42389747D01*
X40454994Y42338121D01*
X40282105Y42266508D01*
X40098567Y42230000D01*
X39911433Y42230000D01*
X39727895Y42266508D01*
X39555006Y42338121D01*
X39477742Y42389747D01*
X39399411Y42442086D01*
X39267086Y42574411D01*
X39180686Y42703718D01*
X39163121Y42730006D01*
X39091508Y42902895D01*
X39055000Y43086433D01*
X39055000Y43273567D01*
X39091508Y43457105D01*
X39163121Y43629994D01*
X39267087Y43785590D01*
X39399410Y43917913D01*
X39402019Y43919656D01*
X39555002Y44021876D01*
X39555006Y44021879D01*
X39727895Y44093492D01*
X39911433Y44130000D01*
X40098567Y44130000D01*
X40282105Y44093492D01*
X40282105Y44093492D01*
G37*
G36*
X11721689Y45411571D02*
X11903678Y45336189D01*
X12067463Y45226751D01*
X12206751Y45087463D01*
X12316189Y44923678D01*
X12391571Y44741689D01*
X12430000Y44548491D01*
X12430000Y44351509D01*
X12391571Y44158311D01*
X12316189Y43976322D01*
X12206751Y43812537D01*
X12067463Y43673249D01*
X11903678Y43563811D01*
X11721689Y43488429D01*
X11528491Y43450000D01*
X11331509Y43450000D01*
X11138311Y43488429D01*
X10956322Y43563811D01*
X10792537Y43673249D01*
X10653249Y43812537D01*
X10543811Y43976322D01*
X10468429Y44158311D01*
X10430000Y44351509D01*
X10430000Y44548491D01*
X10468429Y44741689D01*
X10543811Y44923678D01*
X10653249Y45087463D01*
X10792537Y45226751D01*
X10956322Y45336189D01*
X11138311Y45411571D01*
X11331509Y45450000D01*
X11528491Y45450000D01*
X11721689Y45411571D01*
X11721689Y45411571D01*
G37*
G36*
X4101689Y45411571D02*
X4283678Y45336189D01*
X4447463Y45226751D01*
X4586751Y45087463D01*
X4696189Y44923678D01*
X4771571Y44741689D01*
X4810000Y44548491D01*
X4810000Y44351509D01*
X4771571Y44158311D01*
X4696189Y43976322D01*
X4586751Y43812537D01*
X4447463Y43673249D01*
X4283678Y43563811D01*
X4101689Y43488429D01*
X3908491Y43450000D01*
X3711509Y43450000D01*
X3518311Y43488429D01*
X3336322Y43563811D01*
X3172537Y43673249D01*
X3033249Y43812537D01*
X2923811Y43976322D01*
X2848429Y44158311D01*
X2810000Y44351509D01*
X2810000Y44548491D01*
X2848429Y44741689D01*
X2923811Y44923678D01*
X3033249Y45087463D01*
X3172537Y45226751D01*
X3336322Y45336189D01*
X3518311Y45411571D01*
X3711509Y45450000D01*
X3908491Y45450000D01*
X4101689Y45411571D01*
X4101689Y45411571D01*
G37*
G36*
X72681689Y45411571D02*
X72863678Y45336189D01*
X73027463Y45226751D01*
X73166751Y45087463D01*
X73276189Y44923678D01*
X73351571Y44741689D01*
X73390000Y44548491D01*
X73390000Y44351509D01*
X73351571Y44158311D01*
X73276189Y43976322D01*
X73166751Y43812537D01*
X73027463Y43673249D01*
X72863678Y43563811D01*
X72681689Y43488429D01*
X72488491Y43450000D01*
X72291509Y43450000D01*
X72098311Y43488429D01*
X71916322Y43563811D01*
X71752537Y43673249D01*
X71613249Y43812537D01*
X71503811Y43976322D01*
X71428429Y44158311D01*
X71390000Y44351509D01*
X71390000Y44548491D01*
X71428429Y44741689D01*
X71503811Y44923678D01*
X71613249Y45087463D01*
X71752537Y45226751D01*
X71916322Y45336189D01*
X72098311Y45411571D01*
X72291509Y45450000D01*
X72488491Y45450000D01*
X72681689Y45411571D01*
X72681689Y45411571D01*
G37*
G36*
X14156232Y45386254D02*
X14321275Y45336189D01*
X14335311Y45331931D01*
X14500344Y45243719D01*
X14645001Y45125001D01*
X14763719Y44980344D01*
X14851931Y44815311D01*
X14906254Y44636232D01*
X14924596Y44450000D01*
X14906254Y44263768D01*
X14851931Y44084689D01*
X14763719Y43919656D01*
X14645001Y43774999D01*
X14500344Y43656281D01*
X14335311Y43568069D01*
X14335308Y43568068D01*
X14156232Y43513746D01*
X14016665Y43500000D01*
X13923335Y43500000D01*
X13783768Y43513746D01*
X13604692Y43568068D01*
X13604689Y43568069D01*
X13439656Y43656281D01*
X13294999Y43774999D01*
X13176281Y43919656D01*
X13088069Y44084689D01*
X13033746Y44263768D01*
X13015404Y44450000D01*
X13033746Y44636232D01*
X13088069Y44815311D01*
X13176281Y44980344D01*
X13294999Y45125001D01*
X13439656Y45243719D01*
X13604689Y45331931D01*
X13618726Y45336189D01*
X13783768Y45386254D01*
X13923335Y45400000D01*
X14016665Y45400000D01*
X14156232Y45386254D01*
X14156232Y45386254D01*
G37*
G36*
X28126232Y45386254D02*
X28291275Y45336189D01*
X28305311Y45331931D01*
X28470344Y45243719D01*
X28615001Y45125001D01*
X28733719Y44980344D01*
X28821931Y44815311D01*
X28876254Y44636232D01*
X28894596Y44450000D01*
X28876254Y44263768D01*
X28821931Y44084689D01*
X28733719Y43919656D01*
X28615001Y43774999D01*
X28470344Y43656281D01*
X28305311Y43568069D01*
X28305308Y43568068D01*
X28230288Y43545311D01*
X28126232Y43513746D01*
X27986665Y43500000D01*
X27893335Y43500000D01*
X27753768Y43513746D01*
X27649712Y43545311D01*
X27574692Y43568068D01*
X27574689Y43568069D01*
X27409656Y43656281D01*
X27264999Y43774999D01*
X27146281Y43919656D01*
X27058069Y44084689D01*
X27003746Y44263768D01*
X26985404Y44450000D01*
X27003746Y44636232D01*
X27058069Y44815311D01*
X27146281Y44980344D01*
X27264999Y45125001D01*
X27409656Y45243719D01*
X27574689Y45331931D01*
X27588726Y45336189D01*
X27753768Y45386254D01*
X27893335Y45400000D01*
X27986665Y45400000D01*
X28126232Y45386254D01*
X28126232Y45386254D01*
G37*
G36*
X51621232Y45386254D02*
X51786275Y45336189D01*
X51800311Y45331931D01*
X51965344Y45243719D01*
X52110001Y45125001D01*
X52228719Y44980344D01*
X52316931Y44815311D01*
X52371254Y44636232D01*
X52389596Y44450000D01*
X52371254Y44263768D01*
X52316931Y44084689D01*
X52228719Y43919656D01*
X52110001Y43774999D01*
X51965344Y43656281D01*
X51800311Y43568069D01*
X51800308Y43568068D01*
X51725288Y43545311D01*
X51621232Y43513746D01*
X51481665Y43500000D01*
X51388335Y43500000D01*
X51248768Y43513746D01*
X51144712Y43545311D01*
X51069692Y43568068D01*
X51069689Y43568069D01*
X50904656Y43656281D01*
X50759999Y43774999D01*
X50641281Y43919656D01*
X50553069Y44084689D01*
X50498746Y44263768D01*
X50480404Y44450000D01*
X50498746Y44636232D01*
X50553069Y44815311D01*
X50641281Y44980344D01*
X50759999Y45125001D01*
X50904656Y45243719D01*
X51069689Y45331931D01*
X51083726Y45336189D01*
X51248768Y45386254D01*
X51388335Y45400000D01*
X51481665Y45400000D01*
X51621232Y45386254D01*
X51621232Y45386254D01*
G37*
G36*
X56792105Y45363492D02*
X56964994Y45291879D01*
X57120590Y45187913D01*
X57252913Y45055590D01*
X57356879Y44899994D01*
X57428492Y44727105D01*
X57465000Y44543567D01*
X57465000Y44356433D01*
X57428492Y44172895D01*
X57356879Y44000006D01*
X57339314Y43973718D01*
X57252914Y43844411D01*
X57120589Y43712086D01*
X57062465Y43673249D01*
X56964994Y43608121D01*
X56792105Y43536508D01*
X56608567Y43500000D01*
X56421433Y43500000D01*
X56237895Y43536508D01*
X56065006Y43608121D01*
X55967535Y43673249D01*
X55909411Y43712086D01*
X55777086Y43844411D01*
X55690686Y43973718D01*
X55673121Y44000006D01*
X55601508Y44172895D01*
X55565000Y44356433D01*
X55565000Y44543567D01*
X55601508Y44727105D01*
X55673121Y44899994D01*
X55777087Y45055590D01*
X55909410Y45187913D01*
X56065006Y45291879D01*
X56237895Y45363492D01*
X56421433Y45400000D01*
X56608567Y45400000D01*
X56792105Y45363492D01*
X56792105Y45363492D01*
G37*
G36*
X7300000Y43500000D02*
X5400000Y43500000D01*
X5400000Y45400000D01*
X7300000Y45400000D01*
X7300000Y43500000D01*
X7300000Y43500000D01*
G37*
G36*
X36381232Y45386254D02*
X36546275Y45336189D01*
X36560311Y45331931D01*
X36725344Y45243719D01*
X36870001Y45125001D01*
X36988719Y44980344D01*
X37076931Y44815311D01*
X37131254Y44636232D01*
X37149596Y44450000D01*
X37131254Y44263768D01*
X37076931Y44084689D01*
X36988719Y43919656D01*
X36870001Y43774999D01*
X36725344Y43656281D01*
X36560311Y43568069D01*
X36560308Y43568068D01*
X36381232Y43513746D01*
X36241665Y43500000D01*
X36148335Y43500000D01*
X36008768Y43513746D01*
X35829692Y43568068D01*
X35829689Y43568069D01*
X35664656Y43656281D01*
X35519999Y43774999D01*
X35401281Y43919656D01*
X35313069Y44084689D01*
X35258746Y44263768D01*
X35240404Y44450000D01*
X35258746Y44636232D01*
X35313069Y44815311D01*
X35401281Y44980344D01*
X35519999Y45125001D01*
X35664656Y45243719D01*
X35829689Y45331931D01*
X35843726Y45336189D01*
X36008768Y45386254D01*
X36148335Y45400000D01*
X36241665Y45400000D01*
X36381232Y45386254D01*
X36381232Y45386254D01*
G37*
G36*
X21270000Y43500000D02*
X19370000Y43500000D01*
X19370000Y45400000D01*
X21270000Y45400000D01*
X21270000Y43500000D01*
X21270000Y43500000D01*
G37*
G36*
X57465000Y46000000D02*
X55565000Y46000000D01*
X55565000Y47900000D01*
X57465000Y47900000D01*
X57465000Y46000000D01*
X57465000Y46000000D01*
G37*
G36*
X37145000Y46040000D02*
X35245000Y46040000D01*
X35245000Y47940000D01*
X37145000Y47940000D01*
X37145000Y46040000D01*
X37145000Y46040000D01*
G37*
G36*
X51621232Y47926254D02*
X51800311Y47871931D01*
X51965344Y47783719D01*
X52110001Y47665001D01*
X52228719Y47520344D01*
X52316931Y47355311D01*
X52316932Y47355308D01*
X52371254Y47176232D01*
X52389596Y46990000D01*
X52371254Y46803768D01*
X52336363Y46688746D01*
X52316931Y46624689D01*
X52228719Y46459656D01*
X52110001Y46314999D01*
X51965344Y46196281D01*
X51800311Y46108069D01*
X51621232Y46053746D01*
X51481665Y46040000D01*
X51388335Y46040000D01*
X51248768Y46053746D01*
X51069689Y46108069D01*
X50904656Y46196281D01*
X50759999Y46314999D01*
X50641281Y46459656D01*
X50553069Y46624689D01*
X50533638Y46688746D01*
X50498746Y46803768D01*
X50480404Y46990000D01*
X50498746Y47176232D01*
X50553068Y47355308D01*
X50553069Y47355311D01*
X50641281Y47520344D01*
X50759999Y47665001D01*
X50904656Y47783719D01*
X51069689Y47871931D01*
X51248768Y47926254D01*
X51388335Y47940000D01*
X51481665Y47940000D01*
X51621232Y47926254D01*
X51621232Y47926254D01*
G37*
G36*
X14247105Y48538492D02*
X14419994Y48466879D01*
X14575590Y48362913D01*
X14707913Y48230590D01*
X14811879Y48074994D01*
X14883492Y47902105D01*
X14920000Y47718567D01*
X14920000Y47531433D01*
X14883492Y47347895D01*
X14811879Y47175006D01*
X14707913Y47019410D01*
X14575590Y46887087D01*
X14419994Y46783121D01*
X14247105Y46711508D01*
X14063567Y46675000D01*
X13876433Y46675000D01*
X13692895Y46711508D01*
X13520006Y46783121D01*
X13364410Y46887087D01*
X13232087Y47019410D01*
X13128121Y47175006D01*
X13056508Y47347895D01*
X13020000Y47531433D01*
X13020000Y47718567D01*
X13056508Y47902105D01*
X13128121Y48074994D01*
X13232087Y48230590D01*
X13364410Y48362913D01*
X13520006Y48466879D01*
X13692895Y48538492D01*
X13876433Y48575000D01*
X14063567Y48575000D01*
X14247105Y48538492D01*
X14247105Y48538492D01*
G37*
G36*
X6656232Y48561254D02*
X6835311Y48506931D01*
X7000344Y48418719D01*
X7145001Y48300001D01*
X7263719Y48155344D01*
X7351931Y47990311D01*
X7351932Y47990308D01*
X7378688Y47902105D01*
X7406254Y47811232D01*
X7424596Y47625000D01*
X7406254Y47438768D01*
X7351931Y47259689D01*
X7263719Y47094656D01*
X7145001Y46949999D01*
X7000344Y46831281D01*
X6835311Y46743069D01*
X6835308Y46743068D01*
X6656232Y46688746D01*
X6516665Y46675000D01*
X6423335Y46675000D01*
X6283768Y46688746D01*
X6104692Y46743068D01*
X6104689Y46743069D01*
X5939656Y46831281D01*
X5794999Y46949999D01*
X5676281Y47094656D01*
X5588069Y47259689D01*
X5533746Y47438768D01*
X5515404Y47625000D01*
X5533746Y47811232D01*
X5561312Y47902105D01*
X5588068Y47990308D01*
X5588069Y47990311D01*
X5676281Y48155344D01*
X5794999Y48300001D01*
X5939656Y48418719D01*
X6104689Y48506931D01*
X6283768Y48561254D01*
X6423335Y48575000D01*
X6516665Y48575000D01*
X6656232Y48561254D01*
X6656232Y48561254D01*
G37*
G36*
X20626232Y48561254D02*
X20805311Y48506931D01*
X20970344Y48418719D01*
X21115001Y48300001D01*
X21233719Y48155344D01*
X21321931Y47990311D01*
X21321932Y47990308D01*
X21348688Y47902105D01*
X21376254Y47811232D01*
X21394596Y47625000D01*
X21376254Y47438768D01*
X21321931Y47259689D01*
X21233719Y47094656D01*
X21115001Y46949999D01*
X20970344Y46831281D01*
X20805311Y46743069D01*
X20805308Y46743068D01*
X20626232Y46688746D01*
X20486665Y46675000D01*
X20393335Y46675000D01*
X20253768Y46688746D01*
X20074692Y46743068D01*
X20074689Y46743069D01*
X19909656Y46831281D01*
X19764999Y46949999D01*
X19646281Y47094656D01*
X19558069Y47259689D01*
X19503746Y47438768D01*
X19485404Y47625000D01*
X19503746Y47811232D01*
X19531312Y47902105D01*
X19558068Y47990308D01*
X19558069Y47990311D01*
X19646281Y48155344D01*
X19764999Y48300001D01*
X19909656Y48418719D01*
X20074689Y48506931D01*
X20253768Y48561254D01*
X20393335Y48575000D01*
X20486665Y48575000D01*
X20626232Y48561254D01*
X20626232Y48561254D01*
G37*
G36*
X28217105Y48538492D02*
X28389994Y48466879D01*
X28545590Y48362913D01*
X28677913Y48230590D01*
X28781879Y48074994D01*
X28853492Y47902105D01*
X28890000Y47718567D01*
X28890000Y47531433D01*
X28853492Y47347895D01*
X28781879Y47175006D01*
X28677913Y47019410D01*
X28545590Y46887087D01*
X28389994Y46783121D01*
X28217105Y46711508D01*
X28033567Y46675000D01*
X27846433Y46675000D01*
X27662895Y46711508D01*
X27490006Y46783121D01*
X27334410Y46887087D01*
X27202087Y47019410D01*
X27098121Y47175006D01*
X27026508Y47347895D01*
X26990000Y47531433D01*
X26990000Y47718567D01*
X27026508Y47902105D01*
X27098121Y48074994D01*
X27202087Y48230590D01*
X27334410Y48362913D01*
X27490006Y48466879D01*
X27662895Y48538492D01*
X27846433Y48575000D01*
X28033567Y48575000D01*
X28217105Y48538492D01*
X28217105Y48538492D01*
G37*
M02*
