M48
;DRILL file {KiCad 5.0.2-bee76a0~70~ubuntu16.04.1} date Sun 14 Apr 2019 18:23:44 BST
;FORMAT={-:-/ absolute / inch / decimal}
FMAT,2
INCH,TZ
T1C0.0160
T2C0.0276
T3C0.0315
T4C0.0394
%
G90
G05
T1
X1.2Y1.6
X1.2Y0.6
X1.25Y1.575
X1.25Y0.575
X1.3Y1.55
X1.3Y0.55
T2
X2.55Y1.05
X2.55Y0.95
X2.55Y0.85
X2.55Y0.75
X2.55Y0.65
X2.55Y0.55
X2.55Y0.45
X2.55Y0.35
X2.55Y0.25
X0.15Y0.35
X0.15Y0.25
X0.15Y0.15
X0.15Y1.75
X0.15Y1.65
X0.15Y1.55
X0.15Y1.45
X0.15Y1.35
X0.15Y1.25
X0.15Y1.15
X0.15Y1.05
X0.15Y0.95
X0.15Y0.85
X2.85Y1.75
X2.85Y1.65
X2.85Y1.55
X0.45Y1.75
X0.45Y1.65
X0.45Y1.55
X0.45Y1.45
X0.45Y1.35
X0.45Y1.25
X0.45Y1.15
X0.45Y1.05
X0.45Y0.95
X0.45Y0.85
X2.85Y1.05
X2.85Y0.95
X2.85Y0.85
X2.85Y0.75
X2.85Y0.65
X2.85Y0.55
X2.85Y0.45
X2.85Y0.35
X2.85Y0.25
T3
X1.3Y0.425
X1.3Y0.1297
X0.25Y1.75
X0.25Y1.65
X0.25Y1.55
X0.25Y1.45
X0.25Y1.35
X0.25Y1.25
X0.25Y1.15
X0.25Y1.05
X0.25Y0.95
X0.25Y0.85
X0.55Y1.75
X0.55Y1.65
X0.55Y1.55
X0.55Y1.45
X0.55Y1.35
X0.55Y1.25
X0.55Y1.15
X0.55Y1.05
X0.55Y0.95
X0.55Y0.85
X1.575Y1.7
X1.8703Y1.7
X0.35Y0.425
X0.35Y0.1297
X0.125Y0.7
X0.525Y0.7
X0.125Y0.575
X0.525Y0.575
X2.225Y1.8484
X2.225Y1.75
X2.175Y0.75
X2.175Y0.35
X0.625Y0.575
X0.8219Y0.575
X0.8Y1.75
X0.8Y1.65
X0.8Y1.55
X0.8Y1.45
X0.8Y1.35
X0.8Y1.25
X0.8Y1.15
X0.8Y1.05
X0.8Y0.95
X0.8Y0.85
X1.1Y1.75
X1.1Y1.65
X1.1Y1.55
X1.1Y1.45
X1.1Y1.35
X1.1Y1.25
X1.1Y1.15
X1.1Y1.05
X1.1Y0.95
X1.1Y0.85
X0.8047Y1.875
X1.1Y1.875
X1.425Y1.85
X1.425Y1.75
X1.425Y1.65
X1.425Y1.55
X1.425Y1.45
X1.425Y1.35
X1.425Y1.25
X1.425Y1.15
X1.425Y1.05
X1.425Y0.95
X1.425Y0.85
X1.425Y0.75
X1.425Y0.65
X1.425Y0.55
X2.025Y1.85
X2.025Y1.75
X2.025Y1.65
X2.025Y1.55
X2.025Y1.45
X2.025Y1.35
X2.025Y1.25
X2.025Y1.15
X2.025Y1.05
X2.025Y0.95
X2.025Y0.85
X2.025Y0.75
X2.025Y0.65
X2.025Y0.55
X0.475Y0.425
X0.475Y0.125
X0.575Y0.425
X0.575Y0.125
X0.675Y0.425
X0.675Y0.125
X0.775Y0.425
X0.775Y0.125
X0.875Y0.425
X0.875Y0.125
X0.975Y0.425
X0.975Y0.125
X1.075Y0.425
X1.075Y0.125
X1.175Y0.425
X1.175Y0.125
X1.425Y0.425
X1.425Y0.125
X1.525Y0.425
X1.525Y0.125
X1.625Y0.425
X1.625Y0.125
X1.725Y0.425
X1.725Y0.125
X1.825Y0.425
X1.825Y0.125
X1.925Y0.425
X1.925Y0.125
X2.025Y0.425
X2.025Y0.125
X0.2547Y1.875
X0.55Y1.875
T4
X0.725Y0.7
X0.825Y0.7
X2.175Y0.225
T0
M30
