G04 #@! TF.GenerationSoftware,KiCad,Pcbnew,5.0.2-bee76a0~70~ubuntu16.04.1*
G04 #@! TF.CreationDate,2019-04-14T18:23:41+01:00*
G04 #@! TF.ProjectId,AtomRamAndNoiseKiller,41746f6d-5261-46d4-916e-644e6f697365,rev?*
G04 #@! TF.SameCoordinates,PX8e4fe28PY93c3260*
G04 #@! TF.FileFunction,Copper,L1,Top*
G04 #@! TF.FilePolarity,Positive*
%FSLAX46Y46*%
G04 Gerber Fmt 4.6, Leading zero omitted, Abs format (unit mm)*
G04 Created by KiCad (PCBNEW 5.0.2-bee76a0~70~ubuntu16.04.1) date Sun 14 Apr 2019 18:23:41 BST*
%MOMM*%
%LPD*%
G01*
G04 APERTURE LIST*
G04 #@! TA.AperFunction,ComponentPad*
%ADD10O,1.700000X1.700000*%
G04 #@! TD*
G04 #@! TA.AperFunction,ComponentPad*
%ADD11R,1.700000X1.700000*%
G04 #@! TD*
G04 #@! TA.AperFunction,ComponentPad*
%ADD12C,1.700000*%
G04 #@! TD*
G04 #@! TA.AperFunction,ComponentPad*
%ADD13O,1.600000X1.600000*%
G04 #@! TD*
G04 #@! TA.AperFunction,ComponentPad*
%ADD14C,1.600000*%
G04 #@! TD*
G04 #@! TA.AperFunction,ComponentPad*
%ADD15R,1.600000X1.600000*%
G04 #@! TD*
G04 #@! TA.AperFunction,ViaPad*
%ADD16C,1.016000*%
G04 #@! TD*
G04 #@! TA.AperFunction,Conductor*
%ADD17C,0.254000*%
G04 #@! TD*
G04 APERTURE END LIST*
D10*
G04 #@! TO.P,J7,2*
G04 #@! TO.N,Net-(J7-Pad2)*
X20955000Y17780000D03*
D11*
G04 #@! TO.P,J7,1*
G04 #@! TO.N,/LOAD*
X18415000Y17780000D03*
G04 #@! TD*
D10*
G04 #@! TO.P,J3,3*
G04 #@! TO.N,/NWE*
X72390000Y39370000D03*
G04 #@! TO.P,J3,2*
G04 #@! TO.N,Net-(J3-Pad2)*
X72390000Y41910000D03*
D12*
G04 #@! TO.P,J3,1*
G04 #@! TO.N,Net-(J3-Pad1)*
X72390000Y44450000D03*
G04 #@! TD*
D11*
G04 #@! TO.P,J8,1*
G04 #@! TO.N,/RRDISABLE*
X55245000Y5715000D03*
G04 #@! TD*
D13*
G04 #@! TO.P,C1,2*
G04 #@! TO.N,GND*
X8890000Y3295000D03*
D14*
G04 #@! TO.P,C1,1*
G04 #@! TO.N,VCC*
X8890000Y10795000D03*
G04 #@! TD*
D13*
G04 #@! TO.P,C2,2*
G04 #@! TO.N,GND*
X33020000Y3295000D03*
D14*
G04 #@! TO.P,C2,1*
G04 #@! TO.N,VCC*
X33020000Y10795000D03*
G04 #@! TD*
D13*
G04 #@! TO.P,C3,2*
G04 #@! TO.N,GND*
X6470000Y47625000D03*
D14*
G04 #@! TO.P,C3,1*
G04 #@! TO.N,VCC*
X13970000Y47625000D03*
G04 #@! TD*
D13*
G04 #@! TO.P,C4,2*
G04 #@! TO.N,GND*
X20440000Y47625000D03*
D14*
G04 #@! TO.P,C4,1*
G04 #@! TO.N,VCC*
X27940000Y47625000D03*
G04 #@! TD*
D13*
G04 #@! TO.P,C5,2*
G04 #@! TO.N,GND*
X47505000Y43180000D03*
D14*
G04 #@! TO.P,C5,1*
G04 #@! TO.N,VCC*
X40005000Y43180000D03*
G04 #@! TD*
D13*
G04 #@! TO.P,U5,28*
G04 #@! TO.N,VCC*
X51435000Y46990000D03*
G04 #@! TO.P,U5,14*
G04 #@! TO.N,GND*
X36195000Y13970000D03*
G04 #@! TO.P,U5,27*
G04 #@! TO.N,/NWE*
X51435000Y44450000D03*
G04 #@! TO.P,U5,13*
G04 #@! TO.N,/RD7*
X36195000Y16510000D03*
G04 #@! TO.P,U5,26*
G04 #@! TO.N,GND*
X51435000Y41910000D03*
G04 #@! TO.P,U5,12*
G04 #@! TO.N,/RD6*
X36195000Y19050000D03*
G04 #@! TO.P,U5,25*
G04 #@! TO.N,/A7*
X51435000Y39370000D03*
G04 #@! TO.P,U5,11*
G04 #@! TO.N,/RD5*
X36195000Y21590000D03*
G04 #@! TO.P,U5,24*
G04 #@! TO.N,/A8*
X51435000Y36830000D03*
G04 #@! TO.P,U5,10*
G04 #@! TO.N,/A2*
X36195000Y24130000D03*
G04 #@! TO.P,U5,23*
G04 #@! TO.N,/A9*
X51435000Y34290000D03*
G04 #@! TO.P,U5,9*
G04 #@! TO.N,/A1*
X36195000Y26670000D03*
G04 #@! TO.P,U5,22*
G04 #@! TO.N,GND*
X51435000Y31750000D03*
G04 #@! TO.P,U5,8*
G04 #@! TO.N,/A0*
X36195000Y29210000D03*
G04 #@! TO.P,U5,21*
G04 #@! TO.N,/A6*
X51435000Y29210000D03*
G04 #@! TO.P,U5,7*
G04 #@! TO.N,/A3*
X36195000Y31750000D03*
G04 #@! TO.P,U5,20*
G04 #@! TO.N,GND*
X51435000Y26670000D03*
G04 #@! TO.P,U5,6*
G04 #@! TO.N,/A4*
X36195000Y34290000D03*
G04 #@! TO.P,U5,19*
G04 #@! TO.N,/RD0*
X51435000Y24130000D03*
G04 #@! TO.P,U5,5*
G04 #@! TO.N,/A5*
X36195000Y36830000D03*
G04 #@! TO.P,U5,18*
G04 #@! TO.N,/RD1*
X51435000Y21590000D03*
G04 #@! TO.P,U5,4*
G04 #@! TO.N,/A12*
X36195000Y39370000D03*
G04 #@! TO.P,U5,17*
G04 #@! TO.N,/RD2*
X51435000Y19050000D03*
G04 #@! TO.P,U5,3*
G04 #@! TO.N,/A11*
X36195000Y41910000D03*
G04 #@! TO.P,U5,16*
G04 #@! TO.N,/RD3*
X51435000Y16510000D03*
G04 #@! TO.P,U5,2*
G04 #@! TO.N,/A10*
X36195000Y44450000D03*
G04 #@! TO.P,U5,15*
G04 #@! TO.N,/RD4*
X51435000Y13970000D03*
D15*
G04 #@! TO.P,U5,1*
G04 #@! TO.N,GND*
X36195000Y46990000D03*
G04 #@! TD*
D10*
G04 #@! TO.P,J1,10*
G04 #@! TO.N,/NVDG*
X11430000Y21590000D03*
G04 #@! TO.P,J1,9*
G04 #@! TO.N,/VD7*
X11430000Y24130000D03*
G04 #@! TO.P,J1,8*
G04 #@! TO.N,/VD6*
X11430000Y26670000D03*
G04 #@! TO.P,J1,7*
G04 #@! TO.N,/VD5*
X11430000Y29210000D03*
G04 #@! TO.P,J1,6*
G04 #@! TO.N,/VD4*
X11430000Y31750000D03*
G04 #@! TO.P,J1,5*
G04 #@! TO.N,/VD3*
X11430000Y34290000D03*
G04 #@! TO.P,J1,4*
G04 #@! TO.N,/VD2*
X11430000Y36830000D03*
G04 #@! TO.P,J1,3*
G04 #@! TO.N,/VD1*
X11430000Y39370000D03*
G04 #@! TO.P,J1,2*
G04 #@! TO.N,/VD0*
X11430000Y41910000D03*
D12*
G04 #@! TO.P,J1,1*
G04 #@! TO.N,VCC*
X11430000Y44450000D03*
G04 #@! TD*
D10*
G04 #@! TO.P,J6,3*
G04 #@! TO.N,/A12*
X3810000Y3810000D03*
G04 #@! TO.P,J6,2*
G04 #@! TO.N,/A11*
X3810000Y6350000D03*
D12*
G04 #@! TO.P,J6,1*
G04 #@! TO.N,/A10*
X3810000Y8890000D03*
G04 #@! TD*
D10*
G04 #@! TO.P,J4,9*
G04 #@! TO.N,GND*
X64770000Y6350000D03*
G04 #@! TO.P,J4,8*
G04 #@! TO.N,Net-(J4-Pad8)*
X64770000Y8890000D03*
G04 #@! TO.P,J4,7*
G04 #@! TO.N,/A2*
X64770000Y11430000D03*
G04 #@! TO.P,J4,6*
G04 #@! TO.N,/A1*
X64770000Y13970000D03*
G04 #@! TO.P,J4,5*
G04 #@! TO.N,/A0*
X64770000Y16510000D03*
G04 #@! TO.P,J4,4*
G04 #@! TO.N,/A3*
X64770000Y19050000D03*
G04 #@! TO.P,J4,3*
G04 #@! TO.N,/A4*
X64770000Y21590000D03*
G04 #@! TO.P,J4,2*
G04 #@! TO.N,/A5*
X64770000Y24130000D03*
D12*
G04 #@! TO.P,J4,1*
G04 #@! TO.N,/A6*
X64770000Y26670000D03*
G04 #@! TD*
D10*
G04 #@! TO.P,J5,9*
G04 #@! TO.N,Net-(J5-Pad9)*
X72390000Y6350000D03*
G04 #@! TO.P,J5,8*
G04 #@! TO.N,Net-(J5-Pad8)*
X72390000Y8890000D03*
G04 #@! TO.P,J5,7*
G04 #@! TO.N,Net-(J5-Pad7)*
X72390000Y11430000D03*
G04 #@! TO.P,J5,6*
G04 #@! TO.N,Net-(J5-Pad6)*
X72390000Y13970000D03*
G04 #@! TO.P,J5,5*
G04 #@! TO.N,Net-(J5-Pad5)*
X72390000Y16510000D03*
G04 #@! TO.P,J5,4*
G04 #@! TO.N,/A9*
X72390000Y19050000D03*
G04 #@! TO.P,J5,3*
G04 #@! TO.N,/A8*
X72390000Y21590000D03*
G04 #@! TO.P,J5,2*
G04 #@! TO.N,/A7*
X72390000Y24130000D03*
D12*
G04 #@! TO.P,J5,1*
G04 #@! TO.N,VCC*
X72390000Y26670000D03*
G04 #@! TD*
D10*
G04 #@! TO.P,J2,10*
G04 #@! TO.N,GND*
X3810000Y21590000D03*
G04 #@! TO.P,J2,9*
G04 #@! TO.N,/NDRS*
X3810000Y24130000D03*
G04 #@! TO.P,J2,8*
G04 #@! TO.N,/PD7*
X3810000Y26670000D03*
G04 #@! TO.P,J2,7*
G04 #@! TO.N,/PD6*
X3810000Y29210000D03*
G04 #@! TO.P,J2,6*
G04 #@! TO.N,/PD5*
X3810000Y31750000D03*
G04 #@! TO.P,J2,5*
G04 #@! TO.N,/PD4*
X3810000Y34290000D03*
G04 #@! TO.P,J2,4*
G04 #@! TO.N,/PD3*
X3810000Y36830000D03*
G04 #@! TO.P,J2,3*
G04 #@! TO.N,/PD2*
X3810000Y39370000D03*
G04 #@! TO.P,J2,2*
G04 #@! TO.N,/PD1*
X3810000Y41910000D03*
D12*
G04 #@! TO.P,J2,1*
G04 #@! TO.N,/PD0*
X3810000Y44450000D03*
G04 #@! TD*
D14*
G04 #@! TO.P,C6,2*
G04 #@! TO.N,GND*
X56515000Y44450000D03*
D15*
G04 #@! TO.P,C6,1*
G04 #@! TO.N,VCC*
X56515000Y46950000D03*
G04 #@! TD*
D14*
G04 #@! TO.P,C7,2*
G04 #@! TO.N,Net-(C7-Pad2)*
X20875000Y14605000D03*
G04 #@! TO.P,C7,1*
G04 #@! TO.N,Net-(C7-Pad1)*
X15875000Y14605000D03*
G04 #@! TD*
D13*
G04 #@! TO.P,U2,14*
G04 #@! TO.N,VCC*
X36195000Y10795000D03*
G04 #@! TO.P,U2,7*
G04 #@! TO.N,GND*
X51435000Y3175000D03*
G04 #@! TO.P,U2,13*
G04 #@! TO.N,/NVDG*
X38735000Y10795000D03*
G04 #@! TO.P,U2,6*
G04 #@! TO.N,Net-(U2-Pad10)*
X48895000Y3175000D03*
G04 #@! TO.P,U2,12*
G04 #@! TO.N,Net-(U1-Pad4)*
X41275000Y10795000D03*
G04 #@! TO.P,U2,5*
G04 #@! TO.N,/RRDISABLE*
X46355000Y3175000D03*
G04 #@! TO.P,U2,11*
G04 #@! TO.N,Net-(U2-Pad11)*
X43815000Y10795000D03*
G04 #@! TO.P,U2,4*
G04 #@! TO.N,/RRDISABLE*
X43815000Y3175000D03*
G04 #@! TO.P,U2,10*
G04 #@! TO.N,Net-(U2-Pad10)*
X46355000Y10795000D03*
G04 #@! TO.P,U2,3*
G04 #@! TO.N,Net-(U1-Pad2)*
X41275000Y3175000D03*
G04 #@! TO.P,U2,9*
G04 #@! TO.N,Net-(U2-Pad11)*
X48895000Y10795000D03*
G04 #@! TO.P,U2,2*
G04 #@! TO.N,GND*
X38735000Y3175000D03*
G04 #@! TO.P,U2,8*
G04 #@! TO.N,Net-(J7-Pad2)*
X51435000Y10795000D03*
D15*
G04 #@! TO.P,U2,1*
G04 #@! TO.N,GND*
X36195000Y3175000D03*
G04 #@! TD*
D13*
G04 #@! TO.P,U1,16*
G04 #@! TO.N,VCC*
X12065000Y10795000D03*
G04 #@! TO.P,U1,8*
G04 #@! TO.N,GND*
X29845000Y3175000D03*
G04 #@! TO.P,U1,15*
G04 #@! TO.N,Net-(C7-Pad1)*
X14605000Y10795000D03*
G04 #@! TO.P,U1,7*
G04 #@! TO.N,Net-(U1-Pad7)*
X27305000Y3175000D03*
G04 #@! TO.P,U1,14*
G04 #@! TO.N,Net-(C7-Pad2)*
X17145000Y10795000D03*
G04 #@! TO.P,U1,6*
G04 #@! TO.N,Net-(U1-Pad6)*
X24765000Y3175000D03*
G04 #@! TO.P,U1,13*
G04 #@! TO.N,Net-(U1-Pad13)*
X19685000Y10795000D03*
G04 #@! TO.P,U1,5*
G04 #@! TO.N,Net-(U1-Pad5)*
X22225000Y3175000D03*
G04 #@! TO.P,U1,12*
G04 #@! TO.N,Net-(U1-Pad12)*
X22225000Y10795000D03*
G04 #@! TO.P,U1,4*
G04 #@! TO.N,Net-(U1-Pad4)*
X19685000Y3175000D03*
G04 #@! TO.P,U1,11*
G04 #@! TO.N,GND*
X24765000Y10795000D03*
G04 #@! TO.P,U1,3*
G04 #@! TO.N,Net-(U1-Pad2)*
X17145000Y3175000D03*
G04 #@! TO.P,U1,10*
G04 #@! TO.N,GND*
X27305000Y10795000D03*
G04 #@! TO.P,U1,2*
G04 #@! TO.N,Net-(U1-Pad2)*
X14605000Y3175000D03*
G04 #@! TO.P,U1,9*
G04 #@! TO.N,GND*
X29845000Y10795000D03*
D15*
G04 #@! TO.P,U1,1*
G04 #@! TO.N,/NVDG*
X12065000Y3175000D03*
G04 #@! TD*
D13*
G04 #@! TO.P,U3,20*
G04 #@! TO.N,VCC*
X13970000Y44450000D03*
G04 #@! TO.P,U3,10*
G04 #@! TO.N,GND*
X6350000Y21590000D03*
G04 #@! TO.P,U3,19*
G04 #@! TO.N,/NVDG*
X13970000Y41910000D03*
G04 #@! TO.P,U3,9*
G04 #@! TO.N,/PD7*
X6350000Y24130000D03*
G04 #@! TO.P,U3,18*
G04 #@! TO.N,/RD0*
X13970000Y39370000D03*
G04 #@! TO.P,U3,8*
G04 #@! TO.N,/PD6*
X6350000Y26670000D03*
G04 #@! TO.P,U3,17*
G04 #@! TO.N,/RD1*
X13970000Y36830000D03*
G04 #@! TO.P,U3,7*
G04 #@! TO.N,/PD5*
X6350000Y29210000D03*
G04 #@! TO.P,U3,16*
G04 #@! TO.N,/RD2*
X13970000Y34290000D03*
G04 #@! TO.P,U3,6*
G04 #@! TO.N,/PD4*
X6350000Y31750000D03*
G04 #@! TO.P,U3,15*
G04 #@! TO.N,/RD3*
X13970000Y31750000D03*
G04 #@! TO.P,U3,5*
G04 #@! TO.N,/PD3*
X6350000Y34290000D03*
G04 #@! TO.P,U3,14*
G04 #@! TO.N,/RD4*
X13970000Y29210000D03*
G04 #@! TO.P,U3,4*
G04 #@! TO.N,/PD2*
X6350000Y36830000D03*
G04 #@! TO.P,U3,13*
G04 #@! TO.N,/RD5*
X13970000Y26670000D03*
G04 #@! TO.P,U3,3*
G04 #@! TO.N,/PD1*
X6350000Y39370000D03*
G04 #@! TO.P,U3,12*
G04 #@! TO.N,/RD6*
X13970000Y24130000D03*
G04 #@! TO.P,U3,2*
G04 #@! TO.N,/PD0*
X6350000Y41910000D03*
G04 #@! TO.P,U3,11*
G04 #@! TO.N,/RD7*
X13970000Y21590000D03*
D15*
G04 #@! TO.P,U3,1*
G04 #@! TO.N,/NDRS*
X6350000Y44450000D03*
G04 #@! TD*
D13*
G04 #@! TO.P,U4,20*
G04 #@! TO.N,VCC*
X27940000Y44450000D03*
G04 #@! TO.P,U4,10*
G04 #@! TO.N,GND*
X20320000Y21590000D03*
G04 #@! TO.P,U4,19*
G04 #@! TO.N,/VD0*
X27940000Y41910000D03*
G04 #@! TO.P,U4,9*
G04 #@! TO.N,/RD7*
X20320000Y24130000D03*
G04 #@! TO.P,U4,18*
G04 #@! TO.N,/VD1*
X27940000Y39370000D03*
G04 #@! TO.P,U4,8*
G04 #@! TO.N,/RD6*
X20320000Y26670000D03*
G04 #@! TO.P,U4,17*
G04 #@! TO.N,/VD2*
X27940000Y36830000D03*
G04 #@! TO.P,U4,7*
G04 #@! TO.N,/RD5*
X20320000Y29210000D03*
G04 #@! TO.P,U4,16*
G04 #@! TO.N,/VD3*
X27940000Y34290000D03*
G04 #@! TO.P,U4,6*
G04 #@! TO.N,/RD4*
X20320000Y31750000D03*
G04 #@! TO.P,U4,15*
G04 #@! TO.N,/VD4*
X27940000Y31750000D03*
G04 #@! TO.P,U4,5*
G04 #@! TO.N,/RD3*
X20320000Y34290000D03*
G04 #@! TO.P,U4,14*
G04 #@! TO.N,/VD5*
X27940000Y29210000D03*
G04 #@! TO.P,U4,4*
G04 #@! TO.N,/RD2*
X20320000Y36830000D03*
G04 #@! TO.P,U4,13*
G04 #@! TO.N,/VD6*
X27940000Y26670000D03*
G04 #@! TO.P,U4,3*
G04 #@! TO.N,/RD1*
X20320000Y39370000D03*
G04 #@! TO.P,U4,12*
G04 #@! TO.N,/VD7*
X27940000Y24130000D03*
G04 #@! TO.P,U4,2*
G04 #@! TO.N,/RD0*
X20320000Y41910000D03*
G04 #@! TO.P,U4,11*
G04 #@! TO.N,/LOAD*
X27940000Y21590000D03*
D15*
G04 #@! TO.P,U4,1*
G04 #@! TO.N,GND*
X20320000Y44450000D03*
G04 #@! TD*
D13*
G04 #@! TO.P,R3,2*
G04 #@! TO.N,GND*
X55245000Y19050000D03*
D14*
G04 #@! TO.P,R3,1*
G04 #@! TO.N,/RRDISABLE*
X55245000Y8890000D03*
G04 #@! TD*
D13*
G04 #@! TO.P,R1,2*
G04 #@! TO.N,Net-(C7-Pad1)*
X13335000Y14605000D03*
D14*
G04 #@! TO.P,R1,1*
G04 #@! TO.N,VCC*
X3175000Y14605000D03*
G04 #@! TD*
D13*
G04 #@! TO.P,R2,2*
G04 #@! TO.N,/LOAD*
X13335000Y17780000D03*
D14*
G04 #@! TO.P,R2,1*
G04 #@! TO.N,VCC*
X3175000Y17780000D03*
G04 #@! TD*
D16*
G04 #@! TO.N,/A12*
X33020000Y39370000D03*
X33020000Y13970000D03*
G04 #@! TO.N,/A10*
X30480000Y40640000D03*
X30480000Y15240000D03*
G04 #@! TO.N,/A11*
X31750000Y40005000D03*
X31750000Y14605000D03*
G04 #@! TD*
D17*
G04 #@! TO.N,/A12*
X33020000Y39370000D02*
X33020000Y13970000D01*
G04 #@! TO.N,/A10*
X30480000Y15240000D02*
X30480000Y40640000D01*
G04 #@! TO.N,/A11*
X31750000Y40005000D02*
X31750000Y14605000D01*
G04 #@! TO.N,Net-(U1-Pad2)*
X40005000Y1905000D02*
X41275000Y3175000D01*
X18415000Y1905000D02*
X40005000Y1905000D01*
X17145000Y3175000D02*
X18415000Y1905000D01*
G04 #@! TD*
G04 #@! TO.N,GND*
G36*
X5614866Y48777389D02*
X5238959Y48362423D01*
X5078096Y47974039D01*
X5200085Y47752000D01*
X6343000Y47752000D01*
X6343000Y47772000D01*
X6597000Y47772000D01*
X6597000Y47752000D01*
X7739915Y47752000D01*
X7861904Y47974039D01*
X7701041Y48362423D01*
X7325134Y48777389D01*
X7235101Y48820000D01*
X13135604Y48820000D01*
X12753466Y48437862D01*
X12535000Y47910439D01*
X12535000Y47339561D01*
X12753466Y46812138D01*
X13157138Y46408466D01*
X13684561Y46190000D01*
X14255439Y46190000D01*
X14782862Y46408466D01*
X15186534Y46812138D01*
X15378655Y47275961D01*
X19048096Y47275961D01*
X19208959Y46887577D01*
X19584866Y46472611D01*
X20090959Y46233086D01*
X20313000Y46354371D01*
X20313000Y47498000D01*
X20567000Y47498000D01*
X20567000Y46354371D01*
X20789041Y46233086D01*
X21295134Y46472611D01*
X21671041Y46887577D01*
X21831904Y47275961D01*
X21709915Y47498000D01*
X20567000Y47498000D01*
X20313000Y47498000D01*
X19170085Y47498000D01*
X19048096Y47275961D01*
X15378655Y47275961D01*
X15405000Y47339561D01*
X15405000Y47910439D01*
X15186534Y48437862D01*
X14804396Y48820000D01*
X19674899Y48820000D01*
X19584866Y48777389D01*
X19208959Y48362423D01*
X19048096Y47974039D01*
X19170085Y47752000D01*
X20313000Y47752000D01*
X20313000Y47772000D01*
X20567000Y47772000D01*
X20567000Y47752000D01*
X21709915Y47752000D01*
X21831904Y47974039D01*
X21671041Y48362423D01*
X21295134Y48777389D01*
X21205101Y48820000D01*
X27105604Y48820000D01*
X26723466Y48437862D01*
X26505000Y47910439D01*
X26505000Y47339561D01*
X26723466Y46812138D01*
X27127138Y46408466D01*
X27654561Y46190000D01*
X28225439Y46190000D01*
X28752862Y46408466D01*
X29156534Y46812138D01*
X29230206Y46990000D01*
X49971887Y46990000D01*
X50083260Y46430091D01*
X50400423Y45955423D01*
X50752758Y45720000D01*
X50400423Y45484577D01*
X50083260Y45009909D01*
X49971887Y44450000D01*
X50083260Y43890091D01*
X50400423Y43415423D01*
X50784108Y43159053D01*
X50579866Y43062389D01*
X50203959Y42647423D01*
X50043096Y42259039D01*
X50165085Y42037000D01*
X51308000Y42037000D01*
X51308000Y42057000D01*
X51562000Y42057000D01*
X51562000Y42037000D01*
X52704915Y42037000D01*
X52826904Y42259039D01*
X52666041Y42647423D01*
X52290134Y43062389D01*
X52085892Y43159053D01*
X52469577Y43415423D01*
X52487505Y43442255D01*
X55686861Y43442255D01*
X55760995Y43196136D01*
X56298223Y43003035D01*
X56868454Y43030222D01*
X57269005Y43196136D01*
X57343139Y43442255D01*
X56515000Y44270395D01*
X55686861Y43442255D01*
X52487505Y43442255D01*
X52786740Y43890091D01*
X52898113Y44450000D01*
X52854994Y44666777D01*
X55068035Y44666777D01*
X55095222Y44096546D01*
X55261136Y43695995D01*
X55507255Y43621861D01*
X56335395Y44450000D01*
X56694605Y44450000D01*
X57522745Y43621861D01*
X57768864Y43695995D01*
X57961965Y44233223D01*
X57934778Y44803454D01*
X57768864Y45204005D01*
X57522745Y45278139D01*
X56694605Y44450000D01*
X56335395Y44450000D01*
X55507255Y45278139D01*
X55261136Y45204005D01*
X55068035Y44666777D01*
X52854994Y44666777D01*
X52786740Y45009909D01*
X52469577Y45484577D01*
X52117242Y45720000D01*
X52469577Y45955423D01*
X52786740Y46430091D01*
X52898113Y46990000D01*
X52786740Y47549909D01*
X52653044Y47750000D01*
X55067560Y47750000D01*
X55067560Y46150000D01*
X55116843Y45902235D01*
X55257191Y45692191D01*
X55467235Y45551843D01*
X55701187Y45505307D01*
X55686861Y45457745D01*
X56515000Y44629605D01*
X57343139Y45457745D01*
X57328813Y45505307D01*
X57562765Y45551843D01*
X57772809Y45692191D01*
X57913157Y45902235D01*
X57962440Y46150000D01*
X57962440Y47750000D01*
X57913157Y47997765D01*
X57772809Y48207809D01*
X57562765Y48348157D01*
X57315000Y48397440D01*
X55715000Y48397440D01*
X55467235Y48348157D01*
X55257191Y48207809D01*
X55116843Y47997765D01*
X55067560Y47750000D01*
X52653044Y47750000D01*
X52469577Y48024577D01*
X51994909Y48341740D01*
X51576333Y48425000D01*
X51293667Y48425000D01*
X50875091Y48341740D01*
X50400423Y48024577D01*
X50083260Y47549909D01*
X49971887Y46990000D01*
X29230206Y46990000D01*
X29375000Y47339561D01*
X29375000Y47910439D01*
X29372569Y47916310D01*
X34760000Y47916310D01*
X34760000Y47275750D01*
X34918750Y47117000D01*
X36068000Y47117000D01*
X36068000Y48266250D01*
X36322000Y48266250D01*
X36322000Y47117000D01*
X37471250Y47117000D01*
X37630000Y47275750D01*
X37630000Y47916310D01*
X37533327Y48149699D01*
X37354698Y48328327D01*
X37121309Y48425000D01*
X36480750Y48425000D01*
X36322000Y48266250D01*
X36068000Y48266250D01*
X35909250Y48425000D01*
X35268691Y48425000D01*
X35035302Y48328327D01*
X34856673Y48149699D01*
X34760000Y47916310D01*
X29372569Y47916310D01*
X29156534Y48437862D01*
X28774396Y48820000D01*
X74867881Y48820000D01*
X75117787Y48775935D01*
X75282920Y48680595D01*
X75405488Y48534523D01*
X75481555Y48325535D01*
X75490000Y48229004D01*
X75490001Y1332125D01*
X75445935Y1082213D01*
X75350596Y917081D01*
X75204524Y794512D01*
X74995532Y718445D01*
X74899004Y710000D01*
X1332119Y710000D01*
X1082213Y754065D01*
X917081Y849404D01*
X794512Y995476D01*
X718445Y1204468D01*
X710000Y1300996D01*
X710000Y6350000D01*
X2295908Y6350000D01*
X2411161Y5770582D01*
X2739375Y5279375D01*
X3037761Y5080000D01*
X2739375Y4880625D01*
X2411161Y4389418D01*
X2295908Y3810000D01*
X2411161Y3230582D01*
X2739375Y2739375D01*
X3230582Y2411161D01*
X3663744Y2325000D01*
X3956256Y2325000D01*
X4389418Y2411161D01*
X4880625Y2739375D01*
X5018660Y2945959D01*
X7498086Y2945959D01*
X7737611Y2439866D01*
X8152577Y2063959D01*
X8540961Y1903096D01*
X8763000Y2025085D01*
X8763000Y3168000D01*
X9017000Y3168000D01*
X9017000Y2025085D01*
X9239039Y1903096D01*
X9627423Y2063959D01*
X10042389Y2439866D01*
X10281914Y2945959D01*
X10160629Y3168000D01*
X9017000Y3168000D01*
X8763000Y3168000D01*
X7619371Y3168000D01*
X7498086Y2945959D01*
X5018660Y2945959D01*
X5208839Y3230582D01*
X5291080Y3644041D01*
X7498086Y3644041D01*
X7619371Y3422000D01*
X8763000Y3422000D01*
X8763000Y4564915D01*
X9017000Y4564915D01*
X9017000Y3422000D01*
X10160629Y3422000D01*
X10281914Y3644041D01*
X10125277Y3975000D01*
X10617560Y3975000D01*
X10617560Y2375000D01*
X10666843Y2127235D01*
X10807191Y1917191D01*
X11017235Y1776843D01*
X11265000Y1727560D01*
X12865000Y1727560D01*
X13112765Y1776843D01*
X13322809Y1917191D01*
X13463157Y2127235D01*
X13489785Y2261106D01*
X13570423Y2140423D01*
X14045091Y1823260D01*
X14463667Y1740000D01*
X14746333Y1740000D01*
X15164909Y1823260D01*
X15639577Y2140423D01*
X15875000Y2492758D01*
X16110423Y2140423D01*
X16585091Y1823260D01*
X17003667Y1740000D01*
X17286333Y1740000D01*
X17466527Y1775843D01*
X17823118Y1419251D01*
X17865629Y1355629D01*
X17929251Y1313118D01*
X18117681Y1187213D01*
X18117682Y1187213D01*
X18117683Y1187212D01*
X18339952Y1143000D01*
X18339956Y1143000D01*
X18414999Y1128073D01*
X18490042Y1143000D01*
X39929957Y1143000D01*
X40005000Y1128073D01*
X40080043Y1143000D01*
X40080048Y1143000D01*
X40302317Y1187212D01*
X40554371Y1355629D01*
X40596883Y1419253D01*
X40953473Y1775843D01*
X41133667Y1740000D01*
X41416333Y1740000D01*
X41834909Y1823260D01*
X42309577Y2140423D01*
X42545000Y2492758D01*
X42780423Y2140423D01*
X43255091Y1823260D01*
X43673667Y1740000D01*
X43956333Y1740000D01*
X44374909Y1823260D01*
X44849577Y2140423D01*
X45085000Y2492758D01*
X45320423Y2140423D01*
X45795091Y1823260D01*
X46213667Y1740000D01*
X46496333Y1740000D01*
X46914909Y1823260D01*
X47389577Y2140423D01*
X47625000Y2492758D01*
X47860423Y2140423D01*
X48335091Y1823260D01*
X48753667Y1740000D01*
X49036333Y1740000D01*
X49454909Y1823260D01*
X49929577Y2140423D01*
X50185947Y2524108D01*
X50282611Y2319866D01*
X50697577Y1943959D01*
X51085961Y1783096D01*
X51308000Y1905085D01*
X51308000Y3048000D01*
X51562000Y3048000D01*
X51562000Y1905085D01*
X51784039Y1783096D01*
X52172423Y1943959D01*
X52587389Y2319866D01*
X52826914Y2825959D01*
X52705629Y3048000D01*
X51562000Y3048000D01*
X51308000Y3048000D01*
X51288000Y3048000D01*
X51288000Y3302000D01*
X51308000Y3302000D01*
X51308000Y4444915D01*
X51562000Y4444915D01*
X51562000Y3302000D01*
X52705629Y3302000D01*
X52826914Y3524041D01*
X52587389Y4030134D01*
X52172423Y4406041D01*
X51784039Y4566904D01*
X51562000Y4444915D01*
X51308000Y4444915D01*
X51085961Y4566904D01*
X50697577Y4406041D01*
X50282611Y4030134D01*
X50185947Y3825892D01*
X49929577Y4209577D01*
X49454909Y4526740D01*
X49036333Y4610000D01*
X48753667Y4610000D01*
X48335091Y4526740D01*
X47860423Y4209577D01*
X47625000Y3857242D01*
X47389577Y4209577D01*
X46914909Y4526740D01*
X46496333Y4610000D01*
X46213667Y4610000D01*
X45795091Y4526740D01*
X45320423Y4209577D01*
X45085000Y3857242D01*
X44849577Y4209577D01*
X44374909Y4526740D01*
X43956333Y4610000D01*
X43673667Y4610000D01*
X43255091Y4526740D01*
X42780423Y4209577D01*
X42545000Y3857242D01*
X42309577Y4209577D01*
X41834909Y4526740D01*
X41416333Y4610000D01*
X41133667Y4610000D01*
X40715091Y4526740D01*
X40240423Y4209577D01*
X39984053Y3825892D01*
X39887389Y4030134D01*
X39472423Y4406041D01*
X39084039Y4566904D01*
X38862000Y4444915D01*
X38862000Y3302000D01*
X38882000Y3302000D01*
X38882000Y3048000D01*
X38862000Y3048000D01*
X38862000Y3028000D01*
X38608000Y3028000D01*
X38608000Y3048000D01*
X36322000Y3048000D01*
X36322000Y3028000D01*
X36068000Y3028000D01*
X36068000Y3048000D01*
X34918750Y3048000D01*
X34760000Y2889250D01*
X34760000Y2667000D01*
X34279888Y2667000D01*
X34411914Y2945959D01*
X34290629Y3168000D01*
X33147000Y3168000D01*
X33147000Y3148000D01*
X32893000Y3148000D01*
X32893000Y3168000D01*
X31749371Y3168000D01*
X31628086Y2945959D01*
X31760112Y2667000D01*
X31161681Y2667000D01*
X31236914Y2825959D01*
X31115629Y3048000D01*
X29972000Y3048000D01*
X29972000Y3028000D01*
X29718000Y3028000D01*
X29718000Y3048000D01*
X29698000Y3048000D01*
X29698000Y3302000D01*
X29718000Y3302000D01*
X29718000Y4444915D01*
X29972000Y4444915D01*
X29972000Y3302000D01*
X31115629Y3302000D01*
X31236914Y3524041D01*
X31180121Y3644041D01*
X31628086Y3644041D01*
X31749371Y3422000D01*
X32893000Y3422000D01*
X32893000Y4564915D01*
X33147000Y4564915D01*
X33147000Y3422000D01*
X34290629Y3422000D01*
X34411914Y3644041D01*
X34195498Y4101309D01*
X34760000Y4101309D01*
X34760000Y3460750D01*
X34918750Y3302000D01*
X36068000Y3302000D01*
X36068000Y4451250D01*
X36322000Y4451250D01*
X36322000Y3302000D01*
X38608000Y3302000D01*
X38608000Y4444915D01*
X38385961Y4566904D01*
X37997577Y4406041D01*
X37630000Y4073062D01*
X37630000Y4101309D01*
X37533327Y4334698D01*
X37354699Y4513327D01*
X37121310Y4610000D01*
X36480750Y4610000D01*
X36322000Y4451250D01*
X36068000Y4451250D01*
X35909250Y4610000D01*
X35268690Y4610000D01*
X35035301Y4513327D01*
X34856673Y4334698D01*
X34760000Y4101309D01*
X34195498Y4101309D01*
X34172389Y4150134D01*
X33757423Y4526041D01*
X33369039Y4686904D01*
X33147000Y4564915D01*
X32893000Y4564915D01*
X32670961Y4686904D01*
X32282577Y4526041D01*
X31867611Y4150134D01*
X31628086Y3644041D01*
X31180121Y3644041D01*
X30997389Y4030134D01*
X30582423Y4406041D01*
X30194039Y4566904D01*
X29972000Y4444915D01*
X29718000Y4444915D01*
X29495961Y4566904D01*
X29107577Y4406041D01*
X28692611Y4030134D01*
X28595947Y3825892D01*
X28339577Y4209577D01*
X27864909Y4526740D01*
X27446333Y4610000D01*
X27163667Y4610000D01*
X26745091Y4526740D01*
X26270423Y4209577D01*
X26035000Y3857242D01*
X25799577Y4209577D01*
X25324909Y4526740D01*
X24906333Y4610000D01*
X24623667Y4610000D01*
X24205091Y4526740D01*
X23730423Y4209577D01*
X23495000Y3857242D01*
X23259577Y4209577D01*
X22784909Y4526740D01*
X22366333Y4610000D01*
X22083667Y4610000D01*
X21665091Y4526740D01*
X21190423Y4209577D01*
X20955000Y3857242D01*
X20719577Y4209577D01*
X20244909Y4526740D01*
X19826333Y4610000D01*
X19543667Y4610000D01*
X19125091Y4526740D01*
X18650423Y4209577D01*
X18415000Y3857242D01*
X18179577Y4209577D01*
X17704909Y4526740D01*
X17286333Y4610000D01*
X17003667Y4610000D01*
X16585091Y4526740D01*
X16110423Y4209577D01*
X15875000Y3857242D01*
X15639577Y4209577D01*
X15164909Y4526740D01*
X14746333Y4610000D01*
X14463667Y4610000D01*
X14045091Y4526740D01*
X13570423Y4209577D01*
X13489785Y4088894D01*
X13463157Y4222765D01*
X13322809Y4432809D01*
X13112765Y4573157D01*
X12865000Y4622440D01*
X11265000Y4622440D01*
X11017235Y4573157D01*
X10807191Y4432809D01*
X10666843Y4222765D01*
X10617560Y3975000D01*
X10125277Y3975000D01*
X10042389Y4150134D01*
X9627423Y4526041D01*
X9239039Y4686904D01*
X9017000Y4564915D01*
X8763000Y4564915D01*
X8540961Y4686904D01*
X8152577Y4526041D01*
X7737611Y4150134D01*
X7498086Y3644041D01*
X5291080Y3644041D01*
X5324092Y3810000D01*
X5208839Y4389418D01*
X4880625Y4880625D01*
X4582239Y5080000D01*
X4880625Y5279375D01*
X5208839Y5770582D01*
X5324092Y6350000D01*
X5281326Y6565000D01*
X53747560Y6565000D01*
X53747560Y4865000D01*
X53796843Y4617235D01*
X53937191Y4407191D01*
X54147235Y4266843D01*
X54395000Y4217560D01*
X56095000Y4217560D01*
X56342765Y4266843D01*
X56552809Y4407191D01*
X56693157Y4617235D01*
X56742440Y4865000D01*
X56742440Y5993110D01*
X63328524Y5993110D01*
X63498355Y5583076D01*
X63888642Y5154817D01*
X64413108Y4908514D01*
X64643000Y5029181D01*
X64643000Y6223000D01*
X64897000Y6223000D01*
X64897000Y5029181D01*
X65126892Y4908514D01*
X65651358Y5154817D01*
X66041645Y5583076D01*
X66211476Y5993110D01*
X66090155Y6223000D01*
X64897000Y6223000D01*
X64643000Y6223000D01*
X63449845Y6223000D01*
X63328524Y5993110D01*
X56742440Y5993110D01*
X56742440Y6565000D01*
X56693157Y6812765D01*
X56552809Y7022809D01*
X56342765Y7163157D01*
X56095000Y7212440D01*
X54395000Y7212440D01*
X54147235Y7163157D01*
X53937191Y7022809D01*
X53796843Y6812765D01*
X53747560Y6565000D01*
X5281326Y6565000D01*
X5208839Y6929418D01*
X4880625Y7420625D01*
X4598389Y7609209D01*
X4651185Y7631078D01*
X5068922Y8048815D01*
X5295000Y8594615D01*
X5295000Y9175439D01*
X53810000Y9175439D01*
X53810000Y8604561D01*
X54028466Y8077138D01*
X54432138Y7673466D01*
X54959561Y7455000D01*
X55530439Y7455000D01*
X56057862Y7673466D01*
X56461534Y8077138D01*
X56680000Y8604561D01*
X56680000Y9175439D01*
X56461534Y9702862D01*
X56057862Y10106534D01*
X55530439Y10325000D01*
X54959561Y10325000D01*
X54432138Y10106534D01*
X54028466Y9702862D01*
X53810000Y9175439D01*
X5295000Y9175439D01*
X5295000Y9185385D01*
X5068922Y9731185D01*
X4651185Y10148922D01*
X4105385Y10375000D01*
X3514615Y10375000D01*
X2968815Y10148922D01*
X2551078Y9731185D01*
X2325000Y9185385D01*
X2325000Y8594615D01*
X2551078Y8048815D01*
X2968815Y7631078D01*
X3021611Y7609209D01*
X2739375Y7420625D01*
X2411161Y6929418D01*
X2295908Y6350000D01*
X710000Y6350000D01*
X710000Y11080439D01*
X7455000Y11080439D01*
X7455000Y10509561D01*
X7673466Y9982138D01*
X8077138Y9578466D01*
X8604561Y9360000D01*
X9175439Y9360000D01*
X9702862Y9578466D01*
X10106534Y9982138D01*
X10325000Y10509561D01*
X10325000Y10795000D01*
X10601887Y10795000D01*
X10713260Y10235091D01*
X11030423Y9760423D01*
X11505091Y9443260D01*
X11923667Y9360000D01*
X12206333Y9360000D01*
X12624909Y9443260D01*
X13099577Y9760423D01*
X13335000Y10112758D01*
X13570423Y9760423D01*
X14045091Y9443260D01*
X14463667Y9360000D01*
X14746333Y9360000D01*
X15164909Y9443260D01*
X15639577Y9760423D01*
X15875000Y10112758D01*
X16110423Y9760423D01*
X16585091Y9443260D01*
X17003667Y9360000D01*
X17286333Y9360000D01*
X17704909Y9443260D01*
X18179577Y9760423D01*
X18415000Y10112758D01*
X18650423Y9760423D01*
X19125091Y9443260D01*
X19543667Y9360000D01*
X19826333Y9360000D01*
X20244909Y9443260D01*
X20719577Y9760423D01*
X20955000Y10112758D01*
X21190423Y9760423D01*
X21665091Y9443260D01*
X22083667Y9360000D01*
X22366333Y9360000D01*
X22784909Y9443260D01*
X23259577Y9760423D01*
X23515947Y10144108D01*
X23612611Y9939866D01*
X24027577Y9563959D01*
X24415961Y9403096D01*
X24638000Y9525085D01*
X24638000Y10668000D01*
X24892000Y10668000D01*
X24892000Y9525085D01*
X25114039Y9403096D01*
X25502423Y9563959D01*
X25917389Y9939866D01*
X26035000Y10188367D01*
X26152611Y9939866D01*
X26567577Y9563959D01*
X26955961Y9403096D01*
X27178000Y9525085D01*
X27178000Y10668000D01*
X27432000Y10668000D01*
X27432000Y9525085D01*
X27654039Y9403096D01*
X28042423Y9563959D01*
X28457389Y9939866D01*
X28575000Y10188367D01*
X28692611Y9939866D01*
X29107577Y9563959D01*
X29495961Y9403096D01*
X29718000Y9525085D01*
X29718000Y10668000D01*
X29972000Y10668000D01*
X29972000Y9525085D01*
X30194039Y9403096D01*
X30582423Y9563959D01*
X30997389Y9939866D01*
X31236914Y10445959D01*
X31115629Y10668000D01*
X29972000Y10668000D01*
X29718000Y10668000D01*
X27432000Y10668000D01*
X27178000Y10668000D01*
X24892000Y10668000D01*
X24638000Y10668000D01*
X24618000Y10668000D01*
X24618000Y10922000D01*
X24638000Y10922000D01*
X24638000Y12064915D01*
X24892000Y12064915D01*
X24892000Y10922000D01*
X27178000Y10922000D01*
X27178000Y12064915D01*
X27432000Y12064915D01*
X27432000Y10922000D01*
X29718000Y10922000D01*
X29718000Y12064915D01*
X29972000Y12064915D01*
X29972000Y10922000D01*
X31115629Y10922000D01*
X31202172Y11080439D01*
X31585000Y11080439D01*
X31585000Y10509561D01*
X31803466Y9982138D01*
X32207138Y9578466D01*
X32734561Y9360000D01*
X33305439Y9360000D01*
X33832862Y9578466D01*
X34236534Y9982138D01*
X34455000Y10509561D01*
X34455000Y10795000D01*
X34731887Y10795000D01*
X34843260Y10235091D01*
X35160423Y9760423D01*
X35635091Y9443260D01*
X36053667Y9360000D01*
X36336333Y9360000D01*
X36754909Y9443260D01*
X37229577Y9760423D01*
X37465000Y10112758D01*
X37700423Y9760423D01*
X38175091Y9443260D01*
X38593667Y9360000D01*
X38876333Y9360000D01*
X39294909Y9443260D01*
X39769577Y9760423D01*
X40005000Y10112758D01*
X40240423Y9760423D01*
X40715091Y9443260D01*
X41133667Y9360000D01*
X41416333Y9360000D01*
X41834909Y9443260D01*
X42309577Y9760423D01*
X42545000Y10112758D01*
X42780423Y9760423D01*
X43255091Y9443260D01*
X43673667Y9360000D01*
X43956333Y9360000D01*
X44374909Y9443260D01*
X44849577Y9760423D01*
X45085000Y10112758D01*
X45320423Y9760423D01*
X45795091Y9443260D01*
X46213667Y9360000D01*
X46496333Y9360000D01*
X46914909Y9443260D01*
X47389577Y9760423D01*
X47625000Y10112758D01*
X47860423Y9760423D01*
X48335091Y9443260D01*
X48753667Y9360000D01*
X49036333Y9360000D01*
X49454909Y9443260D01*
X49929577Y9760423D01*
X50165000Y10112758D01*
X50400423Y9760423D01*
X50875091Y9443260D01*
X51293667Y9360000D01*
X51576333Y9360000D01*
X51994909Y9443260D01*
X52469577Y9760423D01*
X52786740Y10235091D01*
X52898113Y10795000D01*
X52786740Y11354909D01*
X52469577Y11829577D01*
X51994909Y12146740D01*
X51576333Y12230000D01*
X51293667Y12230000D01*
X50875091Y12146740D01*
X50400423Y11829577D01*
X50165000Y11477242D01*
X49929577Y11829577D01*
X49454909Y12146740D01*
X49036333Y12230000D01*
X48753667Y12230000D01*
X48335091Y12146740D01*
X47860423Y11829577D01*
X47625000Y11477242D01*
X47389577Y11829577D01*
X46914909Y12146740D01*
X46496333Y12230000D01*
X46213667Y12230000D01*
X45795091Y12146740D01*
X45320423Y11829577D01*
X45085000Y11477242D01*
X44849577Y11829577D01*
X44374909Y12146740D01*
X43956333Y12230000D01*
X43673667Y12230000D01*
X43255091Y12146740D01*
X42780423Y11829577D01*
X42545000Y11477242D01*
X42309577Y11829577D01*
X41834909Y12146740D01*
X41416333Y12230000D01*
X41133667Y12230000D01*
X40715091Y12146740D01*
X40240423Y11829577D01*
X40005000Y11477242D01*
X39769577Y11829577D01*
X39294909Y12146740D01*
X38876333Y12230000D01*
X38593667Y12230000D01*
X38175091Y12146740D01*
X37700423Y11829577D01*
X37465000Y11477242D01*
X37229577Y11829577D01*
X36754909Y12146740D01*
X36336333Y12230000D01*
X36053667Y12230000D01*
X35635091Y12146740D01*
X35160423Y11829577D01*
X34843260Y11354909D01*
X34731887Y10795000D01*
X34455000Y10795000D01*
X34455000Y11080439D01*
X34236534Y11607862D01*
X33832862Y12011534D01*
X33305439Y12230000D01*
X32734561Y12230000D01*
X32207138Y12011534D01*
X31803466Y11607862D01*
X31585000Y11080439D01*
X31202172Y11080439D01*
X31236914Y11144041D01*
X30997389Y11650134D01*
X30582423Y12026041D01*
X30194039Y12186904D01*
X29972000Y12064915D01*
X29718000Y12064915D01*
X29495961Y12186904D01*
X29107577Y12026041D01*
X28692611Y11650134D01*
X28575000Y11401633D01*
X28457389Y11650134D01*
X28042423Y12026041D01*
X27654039Y12186904D01*
X27432000Y12064915D01*
X27178000Y12064915D01*
X26955961Y12186904D01*
X26567577Y12026041D01*
X26152611Y11650134D01*
X26035000Y11401633D01*
X25917389Y11650134D01*
X25502423Y12026041D01*
X25114039Y12186904D01*
X24892000Y12064915D01*
X24638000Y12064915D01*
X24415961Y12186904D01*
X24027577Y12026041D01*
X23612611Y11650134D01*
X23515947Y11445892D01*
X23259577Y11829577D01*
X22784909Y12146740D01*
X22366333Y12230000D01*
X22083667Y12230000D01*
X21665091Y12146740D01*
X21190423Y11829577D01*
X20955000Y11477242D01*
X20719577Y11829577D01*
X20244909Y12146740D01*
X19826333Y12230000D01*
X19543667Y12230000D01*
X19125091Y12146740D01*
X18650423Y11829577D01*
X18415000Y11477242D01*
X18179577Y11829577D01*
X17704909Y12146740D01*
X17286333Y12230000D01*
X17003667Y12230000D01*
X16585091Y12146740D01*
X16110423Y11829577D01*
X15875000Y11477242D01*
X15639577Y11829577D01*
X15164909Y12146740D01*
X14746333Y12230000D01*
X14463667Y12230000D01*
X14045091Y12146740D01*
X13570423Y11829577D01*
X13335000Y11477242D01*
X13099577Y11829577D01*
X12624909Y12146740D01*
X12206333Y12230000D01*
X11923667Y12230000D01*
X11505091Y12146740D01*
X11030423Y11829577D01*
X10713260Y11354909D01*
X10601887Y10795000D01*
X10325000Y10795000D01*
X10325000Y11080439D01*
X10106534Y11607862D01*
X9702862Y12011534D01*
X9175439Y12230000D01*
X8604561Y12230000D01*
X8077138Y12011534D01*
X7673466Y11607862D01*
X7455000Y11080439D01*
X710000Y11080439D01*
X710000Y14890439D01*
X1740000Y14890439D01*
X1740000Y14319561D01*
X1958466Y13792138D01*
X2362138Y13388466D01*
X2889561Y13170000D01*
X3460439Y13170000D01*
X3987862Y13388466D01*
X4391534Y13792138D01*
X4610000Y14319561D01*
X4610000Y14605000D01*
X11871887Y14605000D01*
X11983260Y14045091D01*
X12300423Y13570423D01*
X12775091Y13253260D01*
X13193667Y13170000D01*
X13476333Y13170000D01*
X13894909Y13253260D01*
X14369577Y13570423D01*
X14604606Y13922168D01*
X14658466Y13792138D01*
X15062138Y13388466D01*
X15589561Y13170000D01*
X16160439Y13170000D01*
X16687862Y13388466D01*
X17091534Y13792138D01*
X17310000Y14319561D01*
X17310000Y14890439D01*
X19440000Y14890439D01*
X19440000Y14319561D01*
X19658466Y13792138D01*
X20062138Y13388466D01*
X20589561Y13170000D01*
X21160439Y13170000D01*
X21687862Y13388466D01*
X22091534Y13792138D01*
X22310000Y14319561D01*
X22310000Y14890439D01*
X22091534Y15417862D01*
X21687862Y15821534D01*
X21160439Y16040000D01*
X20589561Y16040000D01*
X20062138Y15821534D01*
X19658466Y15417862D01*
X19440000Y14890439D01*
X17310000Y14890439D01*
X17091534Y15417862D01*
X16687862Y15821534D01*
X16160439Y16040000D01*
X15589561Y16040000D01*
X15062138Y15821534D01*
X14658466Y15417862D01*
X14604606Y15287832D01*
X14369577Y15639577D01*
X13894909Y15956740D01*
X13476333Y16040000D01*
X13193667Y16040000D01*
X12775091Y15956740D01*
X12300423Y15639577D01*
X11983260Y15164909D01*
X11871887Y14605000D01*
X4610000Y14605000D01*
X4610000Y14890439D01*
X4391534Y15417862D01*
X3987862Y15821534D01*
X3460439Y16040000D01*
X2889561Y16040000D01*
X2362138Y15821534D01*
X1958466Y15417862D01*
X1740000Y14890439D01*
X710000Y14890439D01*
X710000Y18065439D01*
X1740000Y18065439D01*
X1740000Y17494561D01*
X1958466Y16967138D01*
X2362138Y16563466D01*
X2889561Y16345000D01*
X3460439Y16345000D01*
X3987862Y16563466D01*
X4391534Y16967138D01*
X4610000Y17494561D01*
X4610000Y17780000D01*
X11871887Y17780000D01*
X11983260Y17220091D01*
X12300423Y16745423D01*
X12775091Y16428260D01*
X13193667Y16345000D01*
X13476333Y16345000D01*
X13894909Y16428260D01*
X14369577Y16745423D01*
X14686740Y17220091D01*
X14798113Y17780000D01*
X14686740Y18339909D01*
X14492908Y18630000D01*
X16917560Y18630000D01*
X16917560Y16930000D01*
X16966843Y16682235D01*
X17107191Y16472191D01*
X17317235Y16331843D01*
X17565000Y16282560D01*
X19265000Y16282560D01*
X19512765Y16331843D01*
X19722809Y16472191D01*
X19863157Y16682235D01*
X19872184Y16727619D01*
X19884375Y16709375D01*
X20375582Y16381161D01*
X20808744Y16295000D01*
X21101256Y16295000D01*
X21534418Y16381161D01*
X22025625Y16709375D01*
X22353839Y17200582D01*
X22469092Y17780000D01*
X22353839Y18359418D01*
X22025625Y18850625D01*
X21534418Y19178839D01*
X21101256Y19265000D01*
X20808744Y19265000D01*
X20375582Y19178839D01*
X19884375Y18850625D01*
X19872184Y18832381D01*
X19863157Y18877765D01*
X19722809Y19087809D01*
X19512765Y19228157D01*
X19265000Y19277440D01*
X17565000Y19277440D01*
X17317235Y19228157D01*
X17107191Y19087809D01*
X16966843Y18877765D01*
X16917560Y18630000D01*
X14492908Y18630000D01*
X14369577Y18814577D01*
X13894909Y19131740D01*
X13476333Y19215000D01*
X13193667Y19215000D01*
X12775091Y19131740D01*
X12300423Y18814577D01*
X11983260Y18339909D01*
X11871887Y17780000D01*
X4610000Y17780000D01*
X4610000Y18065439D01*
X4391534Y18592862D01*
X3987862Y18996534D01*
X3460439Y19215000D01*
X2889561Y19215000D01*
X2362138Y18996534D01*
X1958466Y18592862D01*
X1740000Y18065439D01*
X710000Y18065439D01*
X710000Y21233110D01*
X2368524Y21233110D01*
X2538355Y20823076D01*
X2928642Y20394817D01*
X3453108Y20148514D01*
X3683000Y20269181D01*
X3683000Y21463000D01*
X3937000Y21463000D01*
X3937000Y20269181D01*
X4166892Y20148514D01*
X4691358Y20394817D01*
X5081645Y20823076D01*
X5106412Y20882871D01*
X5118959Y20852577D01*
X5494866Y20437611D01*
X6000959Y20198086D01*
X6223000Y20319371D01*
X6223000Y21463000D01*
X6477000Y21463000D01*
X6477000Y20319371D01*
X6699041Y20198086D01*
X7205134Y20437611D01*
X7581041Y20852577D01*
X7741904Y21240961D01*
X7619915Y21463000D01*
X6477000Y21463000D01*
X6223000Y21463000D01*
X3937000Y21463000D01*
X3683000Y21463000D01*
X2489845Y21463000D01*
X2368524Y21233110D01*
X710000Y21233110D01*
X710000Y41910000D01*
X2295908Y41910000D01*
X2411161Y41330582D01*
X2739375Y40839375D01*
X3037761Y40640000D01*
X2739375Y40440625D01*
X2411161Y39949418D01*
X2295908Y39370000D01*
X2411161Y38790582D01*
X2739375Y38299375D01*
X3037761Y38100000D01*
X2739375Y37900625D01*
X2411161Y37409418D01*
X2295908Y36830000D01*
X2411161Y36250582D01*
X2739375Y35759375D01*
X3037761Y35560000D01*
X2739375Y35360625D01*
X2411161Y34869418D01*
X2295908Y34290000D01*
X2411161Y33710582D01*
X2739375Y33219375D01*
X3037761Y33020000D01*
X2739375Y32820625D01*
X2411161Y32329418D01*
X2295908Y31750000D01*
X2411161Y31170582D01*
X2739375Y30679375D01*
X3037761Y30480000D01*
X2739375Y30280625D01*
X2411161Y29789418D01*
X2295908Y29210000D01*
X2411161Y28630582D01*
X2739375Y28139375D01*
X3037761Y27940000D01*
X2739375Y27740625D01*
X2411161Y27249418D01*
X2295908Y26670000D01*
X2411161Y26090582D01*
X2739375Y25599375D01*
X3037761Y25400000D01*
X2739375Y25200625D01*
X2411161Y24709418D01*
X2295908Y24130000D01*
X2411161Y23550582D01*
X2739375Y23059375D01*
X3058478Y22846157D01*
X2928642Y22785183D01*
X2538355Y22356924D01*
X2368524Y21946890D01*
X2489845Y21717000D01*
X3683000Y21717000D01*
X3683000Y21737000D01*
X3937000Y21737000D01*
X3937000Y21717000D01*
X6223000Y21717000D01*
X6223000Y21737000D01*
X6477000Y21737000D01*
X6477000Y21717000D01*
X7619915Y21717000D01*
X7741904Y21939039D01*
X7581041Y22327423D01*
X7205134Y22742389D01*
X7000892Y22839053D01*
X7384577Y23095423D01*
X7701740Y23570091D01*
X7813113Y24130000D01*
X7701740Y24689909D01*
X7384577Y25164577D01*
X7032242Y25400000D01*
X7384577Y25635423D01*
X7701740Y26110091D01*
X7813113Y26670000D01*
X7701740Y27229909D01*
X7384577Y27704577D01*
X7032242Y27940000D01*
X7384577Y28175423D01*
X7701740Y28650091D01*
X7813113Y29210000D01*
X7701740Y29769909D01*
X7384577Y30244577D01*
X7032242Y30480000D01*
X7384577Y30715423D01*
X7701740Y31190091D01*
X7813113Y31750000D01*
X7701740Y32309909D01*
X7384577Y32784577D01*
X7032242Y33020000D01*
X7384577Y33255423D01*
X7701740Y33730091D01*
X7813113Y34290000D01*
X7701740Y34849909D01*
X7384577Y35324577D01*
X7032242Y35560000D01*
X7384577Y35795423D01*
X7701740Y36270091D01*
X7813113Y36830000D01*
X7701740Y37389909D01*
X7384577Y37864577D01*
X7032242Y38100000D01*
X7384577Y38335423D01*
X7701740Y38810091D01*
X7813113Y39370000D01*
X7701740Y39929909D01*
X7384577Y40404577D01*
X7032242Y40640000D01*
X7384577Y40875423D01*
X7701740Y41350091D01*
X7813113Y41910000D01*
X9915908Y41910000D01*
X10031161Y41330582D01*
X10359375Y40839375D01*
X10657761Y40640000D01*
X10359375Y40440625D01*
X10031161Y39949418D01*
X9915908Y39370000D01*
X10031161Y38790582D01*
X10359375Y38299375D01*
X10657761Y38100000D01*
X10359375Y37900625D01*
X10031161Y37409418D01*
X9915908Y36830000D01*
X10031161Y36250582D01*
X10359375Y35759375D01*
X10657761Y35560000D01*
X10359375Y35360625D01*
X10031161Y34869418D01*
X9915908Y34290000D01*
X10031161Y33710582D01*
X10359375Y33219375D01*
X10657761Y33020000D01*
X10359375Y32820625D01*
X10031161Y32329418D01*
X9915908Y31750000D01*
X10031161Y31170582D01*
X10359375Y30679375D01*
X10657761Y30480000D01*
X10359375Y30280625D01*
X10031161Y29789418D01*
X9915908Y29210000D01*
X10031161Y28630582D01*
X10359375Y28139375D01*
X10657761Y27940000D01*
X10359375Y27740625D01*
X10031161Y27249418D01*
X9915908Y26670000D01*
X10031161Y26090582D01*
X10359375Y25599375D01*
X10657761Y25400000D01*
X10359375Y25200625D01*
X10031161Y24709418D01*
X9915908Y24130000D01*
X10031161Y23550582D01*
X10359375Y23059375D01*
X10657761Y22860000D01*
X10359375Y22660625D01*
X10031161Y22169418D01*
X9915908Y21590000D01*
X10031161Y21010582D01*
X10359375Y20519375D01*
X10850582Y20191161D01*
X11283744Y20105000D01*
X11576256Y20105000D01*
X12009418Y20191161D01*
X12500625Y20519375D01*
X12730067Y20862760D01*
X12935423Y20555423D01*
X13410091Y20238260D01*
X13828667Y20155000D01*
X14111333Y20155000D01*
X14529909Y20238260D01*
X15004577Y20555423D01*
X15321740Y21030091D01*
X15363684Y21240961D01*
X18928096Y21240961D01*
X19088959Y20852577D01*
X19464866Y20437611D01*
X19970959Y20198086D01*
X20193000Y20319371D01*
X20193000Y21463000D01*
X20447000Y21463000D01*
X20447000Y20319371D01*
X20669041Y20198086D01*
X21175134Y20437611D01*
X21551041Y20852577D01*
X21711904Y21240961D01*
X21589915Y21463000D01*
X20447000Y21463000D01*
X20193000Y21463000D01*
X19050085Y21463000D01*
X18928096Y21240961D01*
X15363684Y21240961D01*
X15433113Y21590000D01*
X15321740Y22149909D01*
X15004577Y22624577D01*
X14652242Y22860000D01*
X15004577Y23095423D01*
X15321740Y23570091D01*
X15433113Y24130000D01*
X15321740Y24689909D01*
X15004577Y25164577D01*
X14652242Y25400000D01*
X15004577Y25635423D01*
X15321740Y26110091D01*
X15433113Y26670000D01*
X15321740Y27229909D01*
X15004577Y27704577D01*
X14652242Y27940000D01*
X15004577Y28175423D01*
X15321740Y28650091D01*
X15433113Y29210000D01*
X15321740Y29769909D01*
X15004577Y30244577D01*
X14652242Y30480000D01*
X15004577Y30715423D01*
X15321740Y31190091D01*
X15433113Y31750000D01*
X15321740Y32309909D01*
X15004577Y32784577D01*
X14652242Y33020000D01*
X15004577Y33255423D01*
X15321740Y33730091D01*
X15433113Y34290000D01*
X15321740Y34849909D01*
X15004577Y35324577D01*
X14652242Y35560000D01*
X15004577Y35795423D01*
X15321740Y36270091D01*
X15433113Y36830000D01*
X15321740Y37389909D01*
X15004577Y37864577D01*
X14652242Y38100000D01*
X15004577Y38335423D01*
X15321740Y38810091D01*
X15433113Y39370000D01*
X15321740Y39929909D01*
X15004577Y40404577D01*
X14652242Y40640000D01*
X15004577Y40875423D01*
X15321740Y41350091D01*
X15433113Y41910000D01*
X18856887Y41910000D01*
X18968260Y41350091D01*
X19285423Y40875423D01*
X19637758Y40640000D01*
X19285423Y40404577D01*
X18968260Y39929909D01*
X18856887Y39370000D01*
X18968260Y38810091D01*
X19285423Y38335423D01*
X19637758Y38100000D01*
X19285423Y37864577D01*
X18968260Y37389909D01*
X18856887Y36830000D01*
X18968260Y36270091D01*
X19285423Y35795423D01*
X19637758Y35560000D01*
X19285423Y35324577D01*
X18968260Y34849909D01*
X18856887Y34290000D01*
X18968260Y33730091D01*
X19285423Y33255423D01*
X19637758Y33020000D01*
X19285423Y32784577D01*
X18968260Y32309909D01*
X18856887Y31750000D01*
X18968260Y31190091D01*
X19285423Y30715423D01*
X19637758Y30480000D01*
X19285423Y30244577D01*
X18968260Y29769909D01*
X18856887Y29210000D01*
X18968260Y28650091D01*
X19285423Y28175423D01*
X19637758Y27940000D01*
X19285423Y27704577D01*
X18968260Y27229909D01*
X18856887Y26670000D01*
X18968260Y26110091D01*
X19285423Y25635423D01*
X19637758Y25400000D01*
X19285423Y25164577D01*
X18968260Y24689909D01*
X18856887Y24130000D01*
X18968260Y23570091D01*
X19285423Y23095423D01*
X19669108Y22839053D01*
X19464866Y22742389D01*
X19088959Y22327423D01*
X18928096Y21939039D01*
X19050085Y21717000D01*
X20193000Y21717000D01*
X20193000Y21737000D01*
X20447000Y21737000D01*
X20447000Y21717000D01*
X21589915Y21717000D01*
X21711904Y21939039D01*
X21551041Y22327423D01*
X21175134Y22742389D01*
X20970892Y22839053D01*
X21354577Y23095423D01*
X21671740Y23570091D01*
X21783113Y24130000D01*
X21671740Y24689909D01*
X21354577Y25164577D01*
X21002242Y25400000D01*
X21354577Y25635423D01*
X21671740Y26110091D01*
X21783113Y26670000D01*
X21671740Y27229909D01*
X21354577Y27704577D01*
X21002242Y27940000D01*
X21354577Y28175423D01*
X21671740Y28650091D01*
X21783113Y29210000D01*
X21671740Y29769909D01*
X21354577Y30244577D01*
X21002242Y30480000D01*
X21354577Y30715423D01*
X21671740Y31190091D01*
X21783113Y31750000D01*
X21671740Y32309909D01*
X21354577Y32784577D01*
X21002242Y33020000D01*
X21354577Y33255423D01*
X21671740Y33730091D01*
X21783113Y34290000D01*
X21671740Y34849909D01*
X21354577Y35324577D01*
X21002242Y35560000D01*
X21354577Y35795423D01*
X21671740Y36270091D01*
X21783113Y36830000D01*
X21671740Y37389909D01*
X21354577Y37864577D01*
X21002242Y38100000D01*
X21354577Y38335423D01*
X21671740Y38810091D01*
X21783113Y39370000D01*
X21671740Y39929909D01*
X21354577Y40404577D01*
X21002242Y40640000D01*
X21354577Y40875423D01*
X21671740Y41350091D01*
X21783113Y41910000D01*
X21671740Y42469909D01*
X21354577Y42944577D01*
X21248082Y43015735D01*
X21479698Y43111673D01*
X21658327Y43290301D01*
X21755000Y43523690D01*
X21755000Y44164250D01*
X21596250Y44323000D01*
X20447000Y44323000D01*
X20447000Y44303000D01*
X20193000Y44303000D01*
X20193000Y44323000D01*
X19043750Y44323000D01*
X18885000Y44164250D01*
X18885000Y43523690D01*
X18981673Y43290301D01*
X19160302Y43111673D01*
X19391918Y43015735D01*
X19285423Y42944577D01*
X18968260Y42469909D01*
X18856887Y41910000D01*
X15433113Y41910000D01*
X15321740Y42469909D01*
X15004577Y42944577D01*
X14652242Y43180000D01*
X15004577Y43415423D01*
X15321740Y43890091D01*
X15433113Y44450000D01*
X26476887Y44450000D01*
X26588260Y43890091D01*
X26905423Y43415423D01*
X27257758Y43180000D01*
X26905423Y42944577D01*
X26588260Y42469909D01*
X26476887Y41910000D01*
X26588260Y41350091D01*
X26905423Y40875423D01*
X27257758Y40640000D01*
X26905423Y40404577D01*
X26588260Y39929909D01*
X26476887Y39370000D01*
X26588260Y38810091D01*
X26905423Y38335423D01*
X27257758Y38100000D01*
X26905423Y37864577D01*
X26588260Y37389909D01*
X26476887Y36830000D01*
X26588260Y36270091D01*
X26905423Y35795423D01*
X27257758Y35560000D01*
X26905423Y35324577D01*
X26588260Y34849909D01*
X26476887Y34290000D01*
X26588260Y33730091D01*
X26905423Y33255423D01*
X27257758Y33020000D01*
X26905423Y32784577D01*
X26588260Y32309909D01*
X26476887Y31750000D01*
X26588260Y31190091D01*
X26905423Y30715423D01*
X27257758Y30480000D01*
X26905423Y30244577D01*
X26588260Y29769909D01*
X26476887Y29210000D01*
X26588260Y28650091D01*
X26905423Y28175423D01*
X27257758Y27940000D01*
X26905423Y27704577D01*
X26588260Y27229909D01*
X26476887Y26670000D01*
X26588260Y26110091D01*
X26905423Y25635423D01*
X27257758Y25400000D01*
X26905423Y25164577D01*
X26588260Y24689909D01*
X26476887Y24130000D01*
X26588260Y23570091D01*
X26905423Y23095423D01*
X27257758Y22860000D01*
X26905423Y22624577D01*
X26588260Y22149909D01*
X26476887Y21590000D01*
X26588260Y21030091D01*
X26905423Y20555423D01*
X27380091Y20238260D01*
X27798667Y20155000D01*
X28081333Y20155000D01*
X28499909Y20238260D01*
X28974577Y20555423D01*
X29291740Y21030091D01*
X29403113Y21590000D01*
X29291740Y22149909D01*
X28974577Y22624577D01*
X28622242Y22860000D01*
X28974577Y23095423D01*
X29291740Y23570091D01*
X29403113Y24130000D01*
X29291740Y24689909D01*
X28974577Y25164577D01*
X28622242Y25400000D01*
X28974577Y25635423D01*
X29291740Y26110091D01*
X29403113Y26670000D01*
X29291740Y27229909D01*
X28974577Y27704577D01*
X28622242Y27940000D01*
X28974577Y28175423D01*
X29291740Y28650091D01*
X29403113Y29210000D01*
X29291740Y29769909D01*
X28974577Y30244577D01*
X28622242Y30480000D01*
X28974577Y30715423D01*
X29291740Y31190091D01*
X29403113Y31750000D01*
X29291740Y32309909D01*
X28974577Y32784577D01*
X28622242Y33020000D01*
X28974577Y33255423D01*
X29291740Y33730091D01*
X29403113Y34290000D01*
X29291740Y34849909D01*
X28974577Y35324577D01*
X28622242Y35560000D01*
X28974577Y35795423D01*
X29291740Y36270091D01*
X29403113Y36830000D01*
X29291740Y37389909D01*
X28974577Y37864577D01*
X28622242Y38100000D01*
X28974577Y38335423D01*
X29291740Y38810091D01*
X29403113Y39370000D01*
X29291740Y39929909D01*
X28974577Y40404577D01*
X28622242Y40640000D01*
X28962505Y40867357D01*
X29337000Y40867357D01*
X29337000Y40412643D01*
X29511011Y39992542D01*
X29718001Y39785552D01*
X29718000Y16094447D01*
X29511011Y15887458D01*
X29337000Y15467357D01*
X29337000Y15012643D01*
X29511011Y14592542D01*
X29832542Y14271011D01*
X30252643Y14097000D01*
X30707357Y14097000D01*
X30720919Y14102618D01*
X30781011Y13957542D01*
X31102542Y13636011D01*
X31522643Y13462000D01*
X31977357Y13462000D01*
X31990919Y13467618D01*
X32051011Y13322542D01*
X32372542Y13001011D01*
X32792643Y12827000D01*
X33247357Y12827000D01*
X33667458Y13001011D01*
X33988989Y13322542D01*
X34112597Y13620961D01*
X34803096Y13620961D01*
X34963959Y13232577D01*
X35339866Y12817611D01*
X35845959Y12578086D01*
X36068000Y12699371D01*
X36068000Y13843000D01*
X36322000Y13843000D01*
X36322000Y12699371D01*
X36544041Y12578086D01*
X37050134Y12817611D01*
X37426041Y13232577D01*
X37586904Y13620961D01*
X37464915Y13843000D01*
X36322000Y13843000D01*
X36068000Y13843000D01*
X34925085Y13843000D01*
X34803096Y13620961D01*
X34112597Y13620961D01*
X34163000Y13742643D01*
X34163000Y14197357D01*
X33988989Y14617458D01*
X33782000Y14824447D01*
X33782000Y38515553D01*
X33988989Y38722542D01*
X34163000Y39142643D01*
X34163000Y39597357D01*
X33988989Y40017458D01*
X33667458Y40338989D01*
X33247357Y40513000D01*
X32792643Y40513000D01*
X32779081Y40507382D01*
X32718989Y40652458D01*
X32397458Y40973989D01*
X31977357Y41148000D01*
X31522643Y41148000D01*
X31509081Y41142382D01*
X31448989Y41287458D01*
X31127458Y41608989D01*
X30707357Y41783000D01*
X30252643Y41783000D01*
X29832542Y41608989D01*
X29511011Y41287458D01*
X29337000Y40867357D01*
X28962505Y40867357D01*
X28974577Y40875423D01*
X29291740Y41350091D01*
X29403113Y41910000D01*
X29291740Y42469909D01*
X28974577Y42944577D01*
X28622242Y43180000D01*
X28974577Y43415423D01*
X29291740Y43890091D01*
X29403113Y44450000D01*
X34731887Y44450000D01*
X34843260Y43890091D01*
X35160423Y43415423D01*
X35512758Y43180000D01*
X35160423Y42944577D01*
X34843260Y42469909D01*
X34731887Y41910000D01*
X34843260Y41350091D01*
X35160423Y40875423D01*
X35512758Y40640000D01*
X35160423Y40404577D01*
X34843260Y39929909D01*
X34731887Y39370000D01*
X34843260Y38810091D01*
X35160423Y38335423D01*
X35512758Y38100000D01*
X35160423Y37864577D01*
X34843260Y37389909D01*
X34731887Y36830000D01*
X34843260Y36270091D01*
X35160423Y35795423D01*
X35512758Y35560000D01*
X35160423Y35324577D01*
X34843260Y34849909D01*
X34731887Y34290000D01*
X34843260Y33730091D01*
X35160423Y33255423D01*
X35512758Y33020000D01*
X35160423Y32784577D01*
X34843260Y32309909D01*
X34731887Y31750000D01*
X34843260Y31190091D01*
X35160423Y30715423D01*
X35512758Y30480000D01*
X35160423Y30244577D01*
X34843260Y29769909D01*
X34731887Y29210000D01*
X34843260Y28650091D01*
X35160423Y28175423D01*
X35512758Y27940000D01*
X35160423Y27704577D01*
X34843260Y27229909D01*
X34731887Y26670000D01*
X34843260Y26110091D01*
X35160423Y25635423D01*
X35512758Y25400000D01*
X35160423Y25164577D01*
X34843260Y24689909D01*
X34731887Y24130000D01*
X34843260Y23570091D01*
X35160423Y23095423D01*
X35512758Y22860000D01*
X35160423Y22624577D01*
X34843260Y22149909D01*
X34731887Y21590000D01*
X34843260Y21030091D01*
X35160423Y20555423D01*
X35512758Y20320000D01*
X35160423Y20084577D01*
X34843260Y19609909D01*
X34731887Y19050000D01*
X34843260Y18490091D01*
X35160423Y18015423D01*
X35512758Y17780000D01*
X35160423Y17544577D01*
X34843260Y17069909D01*
X34731887Y16510000D01*
X34843260Y15950091D01*
X35160423Y15475423D01*
X35544108Y15219053D01*
X35339866Y15122389D01*
X34963959Y14707423D01*
X34803096Y14319039D01*
X34925085Y14097000D01*
X36068000Y14097000D01*
X36068000Y14117000D01*
X36322000Y14117000D01*
X36322000Y14097000D01*
X37464915Y14097000D01*
X37586904Y14319039D01*
X37426041Y14707423D01*
X37050134Y15122389D01*
X36845892Y15219053D01*
X37229577Y15475423D01*
X37546740Y15950091D01*
X37658113Y16510000D01*
X37546740Y17069909D01*
X37229577Y17544577D01*
X36877242Y17780000D01*
X37229577Y18015423D01*
X37546740Y18490091D01*
X37658113Y19050000D01*
X37546740Y19609909D01*
X37229577Y20084577D01*
X36877242Y20320000D01*
X37229577Y20555423D01*
X37546740Y21030091D01*
X37658113Y21590000D01*
X37546740Y22149909D01*
X37229577Y22624577D01*
X36877242Y22860000D01*
X37229577Y23095423D01*
X37546740Y23570091D01*
X37658113Y24130000D01*
X49971887Y24130000D01*
X50083260Y23570091D01*
X50400423Y23095423D01*
X50752758Y22860000D01*
X50400423Y22624577D01*
X50083260Y22149909D01*
X49971887Y21590000D01*
X50083260Y21030091D01*
X50400423Y20555423D01*
X50752758Y20320000D01*
X50400423Y20084577D01*
X50083260Y19609909D01*
X49971887Y19050000D01*
X50083260Y18490091D01*
X50400423Y18015423D01*
X50752758Y17780000D01*
X50400423Y17544577D01*
X50083260Y17069909D01*
X49971887Y16510000D01*
X50083260Y15950091D01*
X50400423Y15475423D01*
X50752758Y15240000D01*
X50400423Y15004577D01*
X50083260Y14529909D01*
X49971887Y13970000D01*
X50083260Y13410091D01*
X50400423Y12935423D01*
X50875091Y12618260D01*
X51293667Y12535000D01*
X51576333Y12535000D01*
X51994909Y12618260D01*
X52469577Y12935423D01*
X52786740Y13410091D01*
X52898113Y13970000D01*
X52786740Y14529909D01*
X52469577Y15004577D01*
X52117242Y15240000D01*
X52469577Y15475423D01*
X52786740Y15950091D01*
X52898113Y16510000D01*
X52786740Y17069909D01*
X52469577Y17544577D01*
X52117242Y17780000D01*
X52469577Y18015423D01*
X52786740Y18490091D01*
X52828684Y18700959D01*
X53853086Y18700959D01*
X54092611Y18194866D01*
X54507577Y17818959D01*
X54895961Y17658096D01*
X55118000Y17780085D01*
X55118000Y18923000D01*
X55372000Y18923000D01*
X55372000Y17780085D01*
X55594039Y17658096D01*
X55982423Y17818959D01*
X56397389Y18194866D01*
X56636914Y18700959D01*
X56515629Y18923000D01*
X55372000Y18923000D01*
X55118000Y18923000D01*
X53974371Y18923000D01*
X53853086Y18700959D01*
X52828684Y18700959D01*
X52898113Y19050000D01*
X52828685Y19399041D01*
X53853086Y19399041D01*
X53974371Y19177000D01*
X55118000Y19177000D01*
X55118000Y20319915D01*
X55372000Y20319915D01*
X55372000Y19177000D01*
X56515629Y19177000D01*
X56636914Y19399041D01*
X56397389Y19905134D01*
X55982423Y20281041D01*
X55594039Y20441904D01*
X55372000Y20319915D01*
X55118000Y20319915D01*
X54895961Y20441904D01*
X54507577Y20281041D01*
X54092611Y19905134D01*
X53853086Y19399041D01*
X52828685Y19399041D01*
X52786740Y19609909D01*
X52469577Y20084577D01*
X52117242Y20320000D01*
X52469577Y20555423D01*
X52786740Y21030091D01*
X52898113Y21590000D01*
X52786740Y22149909D01*
X52469577Y22624577D01*
X52117242Y22860000D01*
X52469577Y23095423D01*
X52786740Y23570091D01*
X52898113Y24130000D01*
X63255908Y24130000D01*
X63371161Y23550582D01*
X63699375Y23059375D01*
X63997761Y22860000D01*
X63699375Y22660625D01*
X63371161Y22169418D01*
X63255908Y21590000D01*
X63371161Y21010582D01*
X63699375Y20519375D01*
X63997761Y20320000D01*
X63699375Y20120625D01*
X63371161Y19629418D01*
X63255908Y19050000D01*
X63371161Y18470582D01*
X63699375Y17979375D01*
X63997761Y17780000D01*
X63699375Y17580625D01*
X63371161Y17089418D01*
X63255908Y16510000D01*
X63371161Y15930582D01*
X63699375Y15439375D01*
X63997761Y15240000D01*
X63699375Y15040625D01*
X63371161Y14549418D01*
X63255908Y13970000D01*
X63371161Y13390582D01*
X63699375Y12899375D01*
X63997761Y12700000D01*
X63699375Y12500625D01*
X63371161Y12009418D01*
X63255908Y11430000D01*
X63371161Y10850582D01*
X63699375Y10359375D01*
X63997761Y10160000D01*
X63699375Y9960625D01*
X63371161Y9469418D01*
X63255908Y8890000D01*
X63371161Y8310582D01*
X63699375Y7819375D01*
X64018478Y7606157D01*
X63888642Y7545183D01*
X63498355Y7116924D01*
X63328524Y6706890D01*
X63449845Y6477000D01*
X64643000Y6477000D01*
X64643000Y6497000D01*
X64897000Y6497000D01*
X64897000Y6477000D01*
X66090155Y6477000D01*
X66211476Y6706890D01*
X66041645Y7116924D01*
X65651358Y7545183D01*
X65521522Y7606157D01*
X65840625Y7819375D01*
X66168839Y8310582D01*
X66284092Y8890000D01*
X66168839Y9469418D01*
X65840625Y9960625D01*
X65542239Y10160000D01*
X65840625Y10359375D01*
X66168839Y10850582D01*
X66284092Y11430000D01*
X66168839Y12009418D01*
X65840625Y12500625D01*
X65542239Y12700000D01*
X65840625Y12899375D01*
X66168839Y13390582D01*
X66284092Y13970000D01*
X66168839Y14549418D01*
X65840625Y15040625D01*
X65542239Y15240000D01*
X65840625Y15439375D01*
X66168839Y15930582D01*
X66284092Y16510000D01*
X66168839Y17089418D01*
X65840625Y17580625D01*
X65542239Y17780000D01*
X65840625Y17979375D01*
X66168839Y18470582D01*
X66284092Y19050000D01*
X66168839Y19629418D01*
X65840625Y20120625D01*
X65542239Y20320000D01*
X65840625Y20519375D01*
X66168839Y21010582D01*
X66284092Y21590000D01*
X66168839Y22169418D01*
X65840625Y22660625D01*
X65542239Y22860000D01*
X65840625Y23059375D01*
X66168839Y23550582D01*
X66284092Y24130000D01*
X70875908Y24130000D01*
X70991161Y23550582D01*
X71319375Y23059375D01*
X71617761Y22860000D01*
X71319375Y22660625D01*
X70991161Y22169418D01*
X70875908Y21590000D01*
X70991161Y21010582D01*
X71319375Y20519375D01*
X71617761Y20320000D01*
X71319375Y20120625D01*
X70991161Y19629418D01*
X70875908Y19050000D01*
X70991161Y18470582D01*
X71319375Y17979375D01*
X71617761Y17780000D01*
X71319375Y17580625D01*
X70991161Y17089418D01*
X70875908Y16510000D01*
X70991161Y15930582D01*
X71319375Y15439375D01*
X71617761Y15240000D01*
X71319375Y15040625D01*
X70991161Y14549418D01*
X70875908Y13970000D01*
X70991161Y13390582D01*
X71319375Y12899375D01*
X71617761Y12700000D01*
X71319375Y12500625D01*
X70991161Y12009418D01*
X70875908Y11430000D01*
X70991161Y10850582D01*
X71319375Y10359375D01*
X71617761Y10160000D01*
X71319375Y9960625D01*
X70991161Y9469418D01*
X70875908Y8890000D01*
X70991161Y8310582D01*
X71319375Y7819375D01*
X71617761Y7620000D01*
X71319375Y7420625D01*
X70991161Y6929418D01*
X70875908Y6350000D01*
X70991161Y5770582D01*
X71319375Y5279375D01*
X71810582Y4951161D01*
X72243744Y4865000D01*
X72536256Y4865000D01*
X72969418Y4951161D01*
X73460625Y5279375D01*
X73788839Y5770582D01*
X73904092Y6350000D01*
X73788839Y6929418D01*
X73460625Y7420625D01*
X73162239Y7620000D01*
X73460625Y7819375D01*
X73788839Y8310582D01*
X73904092Y8890000D01*
X73788839Y9469418D01*
X73460625Y9960625D01*
X73162239Y10160000D01*
X73460625Y10359375D01*
X73788839Y10850582D01*
X73904092Y11430000D01*
X73788839Y12009418D01*
X73460625Y12500625D01*
X73162239Y12700000D01*
X73460625Y12899375D01*
X73788839Y13390582D01*
X73904092Y13970000D01*
X73788839Y14549418D01*
X73460625Y15040625D01*
X73162239Y15240000D01*
X73460625Y15439375D01*
X73788839Y15930582D01*
X73904092Y16510000D01*
X73788839Y17089418D01*
X73460625Y17580625D01*
X73162239Y17780000D01*
X73460625Y17979375D01*
X73788839Y18470582D01*
X73904092Y19050000D01*
X73788839Y19629418D01*
X73460625Y20120625D01*
X73162239Y20320000D01*
X73460625Y20519375D01*
X73788839Y21010582D01*
X73904092Y21590000D01*
X73788839Y22169418D01*
X73460625Y22660625D01*
X73162239Y22860000D01*
X73460625Y23059375D01*
X73788839Y23550582D01*
X73904092Y24130000D01*
X73788839Y24709418D01*
X73460625Y25200625D01*
X73178389Y25389209D01*
X73231185Y25411078D01*
X73648922Y25828815D01*
X73875000Y26374615D01*
X73875000Y26965385D01*
X73648922Y27511185D01*
X73231185Y27928922D01*
X72685385Y28155000D01*
X72094615Y28155000D01*
X71548815Y27928922D01*
X71131078Y27511185D01*
X70905000Y26965385D01*
X70905000Y26374615D01*
X71131078Y25828815D01*
X71548815Y25411078D01*
X71601611Y25389209D01*
X71319375Y25200625D01*
X70991161Y24709418D01*
X70875908Y24130000D01*
X66284092Y24130000D01*
X66168839Y24709418D01*
X65840625Y25200625D01*
X65558389Y25389209D01*
X65611185Y25411078D01*
X66028922Y25828815D01*
X66255000Y26374615D01*
X66255000Y26965385D01*
X66028922Y27511185D01*
X65611185Y27928922D01*
X65065385Y28155000D01*
X64474615Y28155000D01*
X63928815Y27928922D01*
X63511078Y27511185D01*
X63285000Y26965385D01*
X63285000Y26374615D01*
X63511078Y25828815D01*
X63928815Y25411078D01*
X63981611Y25389209D01*
X63699375Y25200625D01*
X63371161Y24709418D01*
X63255908Y24130000D01*
X52898113Y24130000D01*
X52786740Y24689909D01*
X52469577Y25164577D01*
X52085892Y25420947D01*
X52290134Y25517611D01*
X52666041Y25932577D01*
X52826904Y26320961D01*
X52704915Y26543000D01*
X51562000Y26543000D01*
X51562000Y26523000D01*
X51308000Y26523000D01*
X51308000Y26543000D01*
X50165085Y26543000D01*
X50043096Y26320961D01*
X50203959Y25932577D01*
X50579866Y25517611D01*
X50784108Y25420947D01*
X50400423Y25164577D01*
X50083260Y24689909D01*
X49971887Y24130000D01*
X37658113Y24130000D01*
X37546740Y24689909D01*
X37229577Y25164577D01*
X36877242Y25400000D01*
X37229577Y25635423D01*
X37546740Y26110091D01*
X37658113Y26670000D01*
X37546740Y27229909D01*
X37229577Y27704577D01*
X36877242Y27940000D01*
X37229577Y28175423D01*
X37546740Y28650091D01*
X37658113Y29210000D01*
X49971887Y29210000D01*
X50083260Y28650091D01*
X50400423Y28175423D01*
X50784108Y27919053D01*
X50579866Y27822389D01*
X50203959Y27407423D01*
X50043096Y27019039D01*
X50165085Y26797000D01*
X51308000Y26797000D01*
X51308000Y26817000D01*
X51562000Y26817000D01*
X51562000Y26797000D01*
X52704915Y26797000D01*
X52826904Y27019039D01*
X52666041Y27407423D01*
X52290134Y27822389D01*
X52085892Y27919053D01*
X52469577Y28175423D01*
X52786740Y28650091D01*
X52898113Y29210000D01*
X52786740Y29769909D01*
X52469577Y30244577D01*
X52085892Y30500947D01*
X52290134Y30597611D01*
X52666041Y31012577D01*
X52826904Y31400961D01*
X52704915Y31623000D01*
X51562000Y31623000D01*
X51562000Y31603000D01*
X51308000Y31603000D01*
X51308000Y31623000D01*
X50165085Y31623000D01*
X50043096Y31400961D01*
X50203959Y31012577D01*
X50579866Y30597611D01*
X50784108Y30500947D01*
X50400423Y30244577D01*
X50083260Y29769909D01*
X49971887Y29210000D01*
X37658113Y29210000D01*
X37546740Y29769909D01*
X37229577Y30244577D01*
X36877242Y30480000D01*
X37229577Y30715423D01*
X37546740Y31190091D01*
X37658113Y31750000D01*
X37546740Y32309909D01*
X37229577Y32784577D01*
X36877242Y33020000D01*
X37229577Y33255423D01*
X37546740Y33730091D01*
X37658113Y34290000D01*
X37546740Y34849909D01*
X37229577Y35324577D01*
X36877242Y35560000D01*
X37229577Y35795423D01*
X37546740Y36270091D01*
X37658113Y36830000D01*
X37546740Y37389909D01*
X37229577Y37864577D01*
X36877242Y38100000D01*
X37229577Y38335423D01*
X37546740Y38810091D01*
X37658113Y39370000D01*
X49971887Y39370000D01*
X50083260Y38810091D01*
X50400423Y38335423D01*
X50752758Y38100000D01*
X50400423Y37864577D01*
X50083260Y37389909D01*
X49971887Y36830000D01*
X50083260Y36270091D01*
X50400423Y35795423D01*
X50752758Y35560000D01*
X50400423Y35324577D01*
X50083260Y34849909D01*
X49971887Y34290000D01*
X50083260Y33730091D01*
X50400423Y33255423D01*
X50784108Y32999053D01*
X50579866Y32902389D01*
X50203959Y32487423D01*
X50043096Y32099039D01*
X50165085Y31877000D01*
X51308000Y31877000D01*
X51308000Y31897000D01*
X51562000Y31897000D01*
X51562000Y31877000D01*
X52704915Y31877000D01*
X52826904Y32099039D01*
X52666041Y32487423D01*
X52290134Y32902389D01*
X52085892Y32999053D01*
X52469577Y33255423D01*
X52786740Y33730091D01*
X52898113Y34290000D01*
X52786740Y34849909D01*
X52469577Y35324577D01*
X52117242Y35560000D01*
X52469577Y35795423D01*
X52786740Y36270091D01*
X52898113Y36830000D01*
X52786740Y37389909D01*
X52469577Y37864577D01*
X52117242Y38100000D01*
X52469577Y38335423D01*
X52786740Y38810091D01*
X52898113Y39370000D01*
X52786740Y39929909D01*
X52469577Y40404577D01*
X52085892Y40660947D01*
X52290134Y40757611D01*
X52666041Y41172577D01*
X52826904Y41560961D01*
X52704915Y41783000D01*
X51562000Y41783000D01*
X51562000Y41763000D01*
X51308000Y41763000D01*
X51308000Y41783000D01*
X50165085Y41783000D01*
X50043096Y41560961D01*
X50203959Y41172577D01*
X50579866Y40757611D01*
X50784108Y40660947D01*
X50400423Y40404577D01*
X50083260Y39929909D01*
X49971887Y39370000D01*
X37658113Y39370000D01*
X37546740Y39929909D01*
X37229577Y40404577D01*
X36877242Y40640000D01*
X37229577Y40875423D01*
X37546740Y41350091D01*
X37658113Y41910000D01*
X37546740Y42469909D01*
X37229577Y42944577D01*
X36877242Y43180000D01*
X37229577Y43415423D01*
X37262996Y43465439D01*
X38570000Y43465439D01*
X38570000Y42894561D01*
X38788466Y42367138D01*
X39192138Y41963466D01*
X39719561Y41745000D01*
X40290439Y41745000D01*
X40817862Y41963466D01*
X41221534Y42367138D01*
X41413655Y42830961D01*
X46113096Y42830961D01*
X46273959Y42442577D01*
X46649866Y42027611D01*
X47155959Y41788086D01*
X47378000Y41909371D01*
X47378000Y43053000D01*
X47632000Y43053000D01*
X47632000Y41909371D01*
X47854041Y41788086D01*
X48111633Y41910000D01*
X70875908Y41910000D01*
X70991161Y41330582D01*
X71319375Y40839375D01*
X71617761Y40640000D01*
X71319375Y40440625D01*
X70991161Y39949418D01*
X70875908Y39370000D01*
X70991161Y38790582D01*
X71319375Y38299375D01*
X71810582Y37971161D01*
X72243744Y37885000D01*
X72536256Y37885000D01*
X72969418Y37971161D01*
X73460625Y38299375D01*
X73788839Y38790582D01*
X73904092Y39370000D01*
X73788839Y39949418D01*
X73460625Y40440625D01*
X73162239Y40640000D01*
X73460625Y40839375D01*
X73788839Y41330582D01*
X73904092Y41910000D01*
X73788839Y42489418D01*
X73460625Y42980625D01*
X73178389Y43169209D01*
X73231185Y43191078D01*
X73648922Y43608815D01*
X73875000Y44154615D01*
X73875000Y44745385D01*
X73648922Y45291185D01*
X73231185Y45708922D01*
X72685385Y45935000D01*
X72094615Y45935000D01*
X71548815Y45708922D01*
X71131078Y45291185D01*
X70905000Y44745385D01*
X70905000Y44154615D01*
X71131078Y43608815D01*
X71548815Y43191078D01*
X71601611Y43169209D01*
X71319375Y42980625D01*
X70991161Y42489418D01*
X70875908Y41910000D01*
X48111633Y41910000D01*
X48360134Y42027611D01*
X48736041Y42442577D01*
X48896904Y42830961D01*
X48774915Y43053000D01*
X47632000Y43053000D01*
X47378000Y43053000D01*
X46235085Y43053000D01*
X46113096Y42830961D01*
X41413655Y42830961D01*
X41440000Y42894561D01*
X41440000Y43465439D01*
X41413656Y43529039D01*
X46113096Y43529039D01*
X46235085Y43307000D01*
X47378000Y43307000D01*
X47378000Y44450629D01*
X47632000Y44450629D01*
X47632000Y43307000D01*
X48774915Y43307000D01*
X48896904Y43529039D01*
X48736041Y43917423D01*
X48360134Y44332389D01*
X47854041Y44571914D01*
X47632000Y44450629D01*
X47378000Y44450629D01*
X47155959Y44571914D01*
X46649866Y44332389D01*
X46273959Y43917423D01*
X46113096Y43529039D01*
X41413656Y43529039D01*
X41221534Y43992862D01*
X40817862Y44396534D01*
X40290439Y44615000D01*
X39719561Y44615000D01*
X39192138Y44396534D01*
X38788466Y43992862D01*
X38570000Y43465439D01*
X37262996Y43465439D01*
X37546740Y43890091D01*
X37658113Y44450000D01*
X37546740Y45009909D01*
X37229577Y45484577D01*
X37123082Y45555735D01*
X37354698Y45651673D01*
X37533327Y45830301D01*
X37630000Y46063690D01*
X37630000Y46704250D01*
X37471250Y46863000D01*
X36322000Y46863000D01*
X36322000Y46843000D01*
X36068000Y46843000D01*
X36068000Y46863000D01*
X34918750Y46863000D01*
X34760000Y46704250D01*
X34760000Y46063690D01*
X34856673Y45830301D01*
X35035302Y45651673D01*
X35266918Y45555735D01*
X35160423Y45484577D01*
X34843260Y45009909D01*
X34731887Y44450000D01*
X29403113Y44450000D01*
X29291740Y45009909D01*
X28974577Y45484577D01*
X28499909Y45801740D01*
X28081333Y45885000D01*
X27798667Y45885000D01*
X27380091Y45801740D01*
X26905423Y45484577D01*
X26588260Y45009909D01*
X26476887Y44450000D01*
X15433113Y44450000D01*
X15321740Y45009909D01*
X15076919Y45376310D01*
X18885000Y45376310D01*
X18885000Y44735750D01*
X19043750Y44577000D01*
X20193000Y44577000D01*
X20193000Y45726250D01*
X20447000Y45726250D01*
X20447000Y44577000D01*
X21596250Y44577000D01*
X21755000Y44735750D01*
X21755000Y45376310D01*
X21658327Y45609699D01*
X21479698Y45788327D01*
X21246309Y45885000D01*
X20605750Y45885000D01*
X20447000Y45726250D01*
X20193000Y45726250D01*
X20034250Y45885000D01*
X19393691Y45885000D01*
X19160302Y45788327D01*
X18981673Y45609699D01*
X18885000Y45376310D01*
X15076919Y45376310D01*
X15004577Y45484577D01*
X14529909Y45801740D01*
X14111333Y45885000D01*
X13828667Y45885000D01*
X13410091Y45801740D01*
X12935423Y45484577D01*
X12733803Y45182832D01*
X12688922Y45291185D01*
X12271185Y45708922D01*
X11725385Y45935000D01*
X11134615Y45935000D01*
X10588815Y45708922D01*
X10171078Y45291185D01*
X9945000Y44745385D01*
X9945000Y44154615D01*
X10171078Y43608815D01*
X10588815Y43191078D01*
X10641611Y43169209D01*
X10359375Y42980625D01*
X10031161Y42489418D01*
X9915908Y41910000D01*
X7813113Y41910000D01*
X7701740Y42469909D01*
X7384577Y42944577D01*
X7263894Y43025215D01*
X7397765Y43051843D01*
X7607809Y43192191D01*
X7748157Y43402235D01*
X7797440Y43650000D01*
X7797440Y45250000D01*
X7748157Y45497765D01*
X7607809Y45707809D01*
X7397765Y45848157D01*
X7150000Y45897440D01*
X5550000Y45897440D01*
X5302235Y45848157D01*
X5092191Y45707809D01*
X4951843Y45497765D01*
X4936994Y45423113D01*
X4651185Y45708922D01*
X4105385Y45935000D01*
X3514615Y45935000D01*
X2968815Y45708922D01*
X2551078Y45291185D01*
X2325000Y44745385D01*
X2325000Y44154615D01*
X2551078Y43608815D01*
X2968815Y43191078D01*
X3021611Y43169209D01*
X2739375Y42980625D01*
X2411161Y42489418D01*
X2295908Y41910000D01*
X710000Y41910000D01*
X710000Y47275961D01*
X5078096Y47275961D01*
X5238959Y46887577D01*
X5614866Y46472611D01*
X6120959Y46233086D01*
X6343000Y46354371D01*
X6343000Y47498000D01*
X6597000Y47498000D01*
X6597000Y46354371D01*
X6819041Y46233086D01*
X7325134Y46472611D01*
X7701041Y46887577D01*
X7861904Y47275961D01*
X7739915Y47498000D01*
X6597000Y47498000D01*
X6343000Y47498000D01*
X5200085Y47498000D01*
X5078096Y47275961D01*
X710000Y47275961D01*
X710000Y48197881D01*
X754065Y48447787D01*
X849405Y48612920D01*
X995477Y48735488D01*
X1204465Y48811555D01*
X1300996Y48820000D01*
X5704899Y48820000D01*
X5614866Y48777389D01*
X5614866Y48777389D01*
G37*
X5614866Y48777389D02*
X5238959Y48362423D01*
X5078096Y47974039D01*
X5200085Y47752000D01*
X6343000Y47752000D01*
X6343000Y47772000D01*
X6597000Y47772000D01*
X6597000Y47752000D01*
X7739915Y47752000D01*
X7861904Y47974039D01*
X7701041Y48362423D01*
X7325134Y48777389D01*
X7235101Y48820000D01*
X13135604Y48820000D01*
X12753466Y48437862D01*
X12535000Y47910439D01*
X12535000Y47339561D01*
X12753466Y46812138D01*
X13157138Y46408466D01*
X13684561Y46190000D01*
X14255439Y46190000D01*
X14782862Y46408466D01*
X15186534Y46812138D01*
X15378655Y47275961D01*
X19048096Y47275961D01*
X19208959Y46887577D01*
X19584866Y46472611D01*
X20090959Y46233086D01*
X20313000Y46354371D01*
X20313000Y47498000D01*
X20567000Y47498000D01*
X20567000Y46354371D01*
X20789041Y46233086D01*
X21295134Y46472611D01*
X21671041Y46887577D01*
X21831904Y47275961D01*
X21709915Y47498000D01*
X20567000Y47498000D01*
X20313000Y47498000D01*
X19170085Y47498000D01*
X19048096Y47275961D01*
X15378655Y47275961D01*
X15405000Y47339561D01*
X15405000Y47910439D01*
X15186534Y48437862D01*
X14804396Y48820000D01*
X19674899Y48820000D01*
X19584866Y48777389D01*
X19208959Y48362423D01*
X19048096Y47974039D01*
X19170085Y47752000D01*
X20313000Y47752000D01*
X20313000Y47772000D01*
X20567000Y47772000D01*
X20567000Y47752000D01*
X21709915Y47752000D01*
X21831904Y47974039D01*
X21671041Y48362423D01*
X21295134Y48777389D01*
X21205101Y48820000D01*
X27105604Y48820000D01*
X26723466Y48437862D01*
X26505000Y47910439D01*
X26505000Y47339561D01*
X26723466Y46812138D01*
X27127138Y46408466D01*
X27654561Y46190000D01*
X28225439Y46190000D01*
X28752862Y46408466D01*
X29156534Y46812138D01*
X29230206Y46990000D01*
X49971887Y46990000D01*
X50083260Y46430091D01*
X50400423Y45955423D01*
X50752758Y45720000D01*
X50400423Y45484577D01*
X50083260Y45009909D01*
X49971887Y44450000D01*
X50083260Y43890091D01*
X50400423Y43415423D01*
X50784108Y43159053D01*
X50579866Y43062389D01*
X50203959Y42647423D01*
X50043096Y42259039D01*
X50165085Y42037000D01*
X51308000Y42037000D01*
X51308000Y42057000D01*
X51562000Y42057000D01*
X51562000Y42037000D01*
X52704915Y42037000D01*
X52826904Y42259039D01*
X52666041Y42647423D01*
X52290134Y43062389D01*
X52085892Y43159053D01*
X52469577Y43415423D01*
X52487505Y43442255D01*
X55686861Y43442255D01*
X55760995Y43196136D01*
X56298223Y43003035D01*
X56868454Y43030222D01*
X57269005Y43196136D01*
X57343139Y43442255D01*
X56515000Y44270395D01*
X55686861Y43442255D01*
X52487505Y43442255D01*
X52786740Y43890091D01*
X52898113Y44450000D01*
X52854994Y44666777D01*
X55068035Y44666777D01*
X55095222Y44096546D01*
X55261136Y43695995D01*
X55507255Y43621861D01*
X56335395Y44450000D01*
X56694605Y44450000D01*
X57522745Y43621861D01*
X57768864Y43695995D01*
X57961965Y44233223D01*
X57934778Y44803454D01*
X57768864Y45204005D01*
X57522745Y45278139D01*
X56694605Y44450000D01*
X56335395Y44450000D01*
X55507255Y45278139D01*
X55261136Y45204005D01*
X55068035Y44666777D01*
X52854994Y44666777D01*
X52786740Y45009909D01*
X52469577Y45484577D01*
X52117242Y45720000D01*
X52469577Y45955423D01*
X52786740Y46430091D01*
X52898113Y46990000D01*
X52786740Y47549909D01*
X52653044Y47750000D01*
X55067560Y47750000D01*
X55067560Y46150000D01*
X55116843Y45902235D01*
X55257191Y45692191D01*
X55467235Y45551843D01*
X55701187Y45505307D01*
X55686861Y45457745D01*
X56515000Y44629605D01*
X57343139Y45457745D01*
X57328813Y45505307D01*
X57562765Y45551843D01*
X57772809Y45692191D01*
X57913157Y45902235D01*
X57962440Y46150000D01*
X57962440Y47750000D01*
X57913157Y47997765D01*
X57772809Y48207809D01*
X57562765Y48348157D01*
X57315000Y48397440D01*
X55715000Y48397440D01*
X55467235Y48348157D01*
X55257191Y48207809D01*
X55116843Y47997765D01*
X55067560Y47750000D01*
X52653044Y47750000D01*
X52469577Y48024577D01*
X51994909Y48341740D01*
X51576333Y48425000D01*
X51293667Y48425000D01*
X50875091Y48341740D01*
X50400423Y48024577D01*
X50083260Y47549909D01*
X49971887Y46990000D01*
X29230206Y46990000D01*
X29375000Y47339561D01*
X29375000Y47910439D01*
X29372569Y47916310D01*
X34760000Y47916310D01*
X34760000Y47275750D01*
X34918750Y47117000D01*
X36068000Y47117000D01*
X36068000Y48266250D01*
X36322000Y48266250D01*
X36322000Y47117000D01*
X37471250Y47117000D01*
X37630000Y47275750D01*
X37630000Y47916310D01*
X37533327Y48149699D01*
X37354698Y48328327D01*
X37121309Y48425000D01*
X36480750Y48425000D01*
X36322000Y48266250D01*
X36068000Y48266250D01*
X35909250Y48425000D01*
X35268691Y48425000D01*
X35035302Y48328327D01*
X34856673Y48149699D01*
X34760000Y47916310D01*
X29372569Y47916310D01*
X29156534Y48437862D01*
X28774396Y48820000D01*
X74867881Y48820000D01*
X75117787Y48775935D01*
X75282920Y48680595D01*
X75405488Y48534523D01*
X75481555Y48325535D01*
X75490000Y48229004D01*
X75490001Y1332125D01*
X75445935Y1082213D01*
X75350596Y917081D01*
X75204524Y794512D01*
X74995532Y718445D01*
X74899004Y710000D01*
X1332119Y710000D01*
X1082213Y754065D01*
X917081Y849404D01*
X794512Y995476D01*
X718445Y1204468D01*
X710000Y1300996D01*
X710000Y6350000D01*
X2295908Y6350000D01*
X2411161Y5770582D01*
X2739375Y5279375D01*
X3037761Y5080000D01*
X2739375Y4880625D01*
X2411161Y4389418D01*
X2295908Y3810000D01*
X2411161Y3230582D01*
X2739375Y2739375D01*
X3230582Y2411161D01*
X3663744Y2325000D01*
X3956256Y2325000D01*
X4389418Y2411161D01*
X4880625Y2739375D01*
X5018660Y2945959D01*
X7498086Y2945959D01*
X7737611Y2439866D01*
X8152577Y2063959D01*
X8540961Y1903096D01*
X8763000Y2025085D01*
X8763000Y3168000D01*
X9017000Y3168000D01*
X9017000Y2025085D01*
X9239039Y1903096D01*
X9627423Y2063959D01*
X10042389Y2439866D01*
X10281914Y2945959D01*
X10160629Y3168000D01*
X9017000Y3168000D01*
X8763000Y3168000D01*
X7619371Y3168000D01*
X7498086Y2945959D01*
X5018660Y2945959D01*
X5208839Y3230582D01*
X5291080Y3644041D01*
X7498086Y3644041D01*
X7619371Y3422000D01*
X8763000Y3422000D01*
X8763000Y4564915D01*
X9017000Y4564915D01*
X9017000Y3422000D01*
X10160629Y3422000D01*
X10281914Y3644041D01*
X10125277Y3975000D01*
X10617560Y3975000D01*
X10617560Y2375000D01*
X10666843Y2127235D01*
X10807191Y1917191D01*
X11017235Y1776843D01*
X11265000Y1727560D01*
X12865000Y1727560D01*
X13112765Y1776843D01*
X13322809Y1917191D01*
X13463157Y2127235D01*
X13489785Y2261106D01*
X13570423Y2140423D01*
X14045091Y1823260D01*
X14463667Y1740000D01*
X14746333Y1740000D01*
X15164909Y1823260D01*
X15639577Y2140423D01*
X15875000Y2492758D01*
X16110423Y2140423D01*
X16585091Y1823260D01*
X17003667Y1740000D01*
X17286333Y1740000D01*
X17466527Y1775843D01*
X17823118Y1419251D01*
X17865629Y1355629D01*
X17929251Y1313118D01*
X18117681Y1187213D01*
X18117682Y1187213D01*
X18117683Y1187212D01*
X18339952Y1143000D01*
X18339956Y1143000D01*
X18414999Y1128073D01*
X18490042Y1143000D01*
X39929957Y1143000D01*
X40005000Y1128073D01*
X40080043Y1143000D01*
X40080048Y1143000D01*
X40302317Y1187212D01*
X40554371Y1355629D01*
X40596883Y1419253D01*
X40953473Y1775843D01*
X41133667Y1740000D01*
X41416333Y1740000D01*
X41834909Y1823260D01*
X42309577Y2140423D01*
X42545000Y2492758D01*
X42780423Y2140423D01*
X43255091Y1823260D01*
X43673667Y1740000D01*
X43956333Y1740000D01*
X44374909Y1823260D01*
X44849577Y2140423D01*
X45085000Y2492758D01*
X45320423Y2140423D01*
X45795091Y1823260D01*
X46213667Y1740000D01*
X46496333Y1740000D01*
X46914909Y1823260D01*
X47389577Y2140423D01*
X47625000Y2492758D01*
X47860423Y2140423D01*
X48335091Y1823260D01*
X48753667Y1740000D01*
X49036333Y1740000D01*
X49454909Y1823260D01*
X49929577Y2140423D01*
X50185947Y2524108D01*
X50282611Y2319866D01*
X50697577Y1943959D01*
X51085961Y1783096D01*
X51308000Y1905085D01*
X51308000Y3048000D01*
X51562000Y3048000D01*
X51562000Y1905085D01*
X51784039Y1783096D01*
X52172423Y1943959D01*
X52587389Y2319866D01*
X52826914Y2825959D01*
X52705629Y3048000D01*
X51562000Y3048000D01*
X51308000Y3048000D01*
X51288000Y3048000D01*
X51288000Y3302000D01*
X51308000Y3302000D01*
X51308000Y4444915D01*
X51562000Y4444915D01*
X51562000Y3302000D01*
X52705629Y3302000D01*
X52826914Y3524041D01*
X52587389Y4030134D01*
X52172423Y4406041D01*
X51784039Y4566904D01*
X51562000Y4444915D01*
X51308000Y4444915D01*
X51085961Y4566904D01*
X50697577Y4406041D01*
X50282611Y4030134D01*
X50185947Y3825892D01*
X49929577Y4209577D01*
X49454909Y4526740D01*
X49036333Y4610000D01*
X48753667Y4610000D01*
X48335091Y4526740D01*
X47860423Y4209577D01*
X47625000Y3857242D01*
X47389577Y4209577D01*
X46914909Y4526740D01*
X46496333Y4610000D01*
X46213667Y4610000D01*
X45795091Y4526740D01*
X45320423Y4209577D01*
X45085000Y3857242D01*
X44849577Y4209577D01*
X44374909Y4526740D01*
X43956333Y4610000D01*
X43673667Y4610000D01*
X43255091Y4526740D01*
X42780423Y4209577D01*
X42545000Y3857242D01*
X42309577Y4209577D01*
X41834909Y4526740D01*
X41416333Y4610000D01*
X41133667Y4610000D01*
X40715091Y4526740D01*
X40240423Y4209577D01*
X39984053Y3825892D01*
X39887389Y4030134D01*
X39472423Y4406041D01*
X39084039Y4566904D01*
X38862000Y4444915D01*
X38862000Y3302000D01*
X38882000Y3302000D01*
X38882000Y3048000D01*
X38862000Y3048000D01*
X38862000Y3028000D01*
X38608000Y3028000D01*
X38608000Y3048000D01*
X36322000Y3048000D01*
X36322000Y3028000D01*
X36068000Y3028000D01*
X36068000Y3048000D01*
X34918750Y3048000D01*
X34760000Y2889250D01*
X34760000Y2667000D01*
X34279888Y2667000D01*
X34411914Y2945959D01*
X34290629Y3168000D01*
X33147000Y3168000D01*
X33147000Y3148000D01*
X32893000Y3148000D01*
X32893000Y3168000D01*
X31749371Y3168000D01*
X31628086Y2945959D01*
X31760112Y2667000D01*
X31161681Y2667000D01*
X31236914Y2825959D01*
X31115629Y3048000D01*
X29972000Y3048000D01*
X29972000Y3028000D01*
X29718000Y3028000D01*
X29718000Y3048000D01*
X29698000Y3048000D01*
X29698000Y3302000D01*
X29718000Y3302000D01*
X29718000Y4444915D01*
X29972000Y4444915D01*
X29972000Y3302000D01*
X31115629Y3302000D01*
X31236914Y3524041D01*
X31180121Y3644041D01*
X31628086Y3644041D01*
X31749371Y3422000D01*
X32893000Y3422000D01*
X32893000Y4564915D01*
X33147000Y4564915D01*
X33147000Y3422000D01*
X34290629Y3422000D01*
X34411914Y3644041D01*
X34195498Y4101309D01*
X34760000Y4101309D01*
X34760000Y3460750D01*
X34918750Y3302000D01*
X36068000Y3302000D01*
X36068000Y4451250D01*
X36322000Y4451250D01*
X36322000Y3302000D01*
X38608000Y3302000D01*
X38608000Y4444915D01*
X38385961Y4566904D01*
X37997577Y4406041D01*
X37630000Y4073062D01*
X37630000Y4101309D01*
X37533327Y4334698D01*
X37354699Y4513327D01*
X37121310Y4610000D01*
X36480750Y4610000D01*
X36322000Y4451250D01*
X36068000Y4451250D01*
X35909250Y4610000D01*
X35268690Y4610000D01*
X35035301Y4513327D01*
X34856673Y4334698D01*
X34760000Y4101309D01*
X34195498Y4101309D01*
X34172389Y4150134D01*
X33757423Y4526041D01*
X33369039Y4686904D01*
X33147000Y4564915D01*
X32893000Y4564915D01*
X32670961Y4686904D01*
X32282577Y4526041D01*
X31867611Y4150134D01*
X31628086Y3644041D01*
X31180121Y3644041D01*
X30997389Y4030134D01*
X30582423Y4406041D01*
X30194039Y4566904D01*
X29972000Y4444915D01*
X29718000Y4444915D01*
X29495961Y4566904D01*
X29107577Y4406041D01*
X28692611Y4030134D01*
X28595947Y3825892D01*
X28339577Y4209577D01*
X27864909Y4526740D01*
X27446333Y4610000D01*
X27163667Y4610000D01*
X26745091Y4526740D01*
X26270423Y4209577D01*
X26035000Y3857242D01*
X25799577Y4209577D01*
X25324909Y4526740D01*
X24906333Y4610000D01*
X24623667Y4610000D01*
X24205091Y4526740D01*
X23730423Y4209577D01*
X23495000Y3857242D01*
X23259577Y4209577D01*
X22784909Y4526740D01*
X22366333Y4610000D01*
X22083667Y4610000D01*
X21665091Y4526740D01*
X21190423Y4209577D01*
X20955000Y3857242D01*
X20719577Y4209577D01*
X20244909Y4526740D01*
X19826333Y4610000D01*
X19543667Y4610000D01*
X19125091Y4526740D01*
X18650423Y4209577D01*
X18415000Y3857242D01*
X18179577Y4209577D01*
X17704909Y4526740D01*
X17286333Y4610000D01*
X17003667Y4610000D01*
X16585091Y4526740D01*
X16110423Y4209577D01*
X15875000Y3857242D01*
X15639577Y4209577D01*
X15164909Y4526740D01*
X14746333Y4610000D01*
X14463667Y4610000D01*
X14045091Y4526740D01*
X13570423Y4209577D01*
X13489785Y4088894D01*
X13463157Y4222765D01*
X13322809Y4432809D01*
X13112765Y4573157D01*
X12865000Y4622440D01*
X11265000Y4622440D01*
X11017235Y4573157D01*
X10807191Y4432809D01*
X10666843Y4222765D01*
X10617560Y3975000D01*
X10125277Y3975000D01*
X10042389Y4150134D01*
X9627423Y4526041D01*
X9239039Y4686904D01*
X9017000Y4564915D01*
X8763000Y4564915D01*
X8540961Y4686904D01*
X8152577Y4526041D01*
X7737611Y4150134D01*
X7498086Y3644041D01*
X5291080Y3644041D01*
X5324092Y3810000D01*
X5208839Y4389418D01*
X4880625Y4880625D01*
X4582239Y5080000D01*
X4880625Y5279375D01*
X5208839Y5770582D01*
X5324092Y6350000D01*
X5281326Y6565000D01*
X53747560Y6565000D01*
X53747560Y4865000D01*
X53796843Y4617235D01*
X53937191Y4407191D01*
X54147235Y4266843D01*
X54395000Y4217560D01*
X56095000Y4217560D01*
X56342765Y4266843D01*
X56552809Y4407191D01*
X56693157Y4617235D01*
X56742440Y4865000D01*
X56742440Y5993110D01*
X63328524Y5993110D01*
X63498355Y5583076D01*
X63888642Y5154817D01*
X64413108Y4908514D01*
X64643000Y5029181D01*
X64643000Y6223000D01*
X64897000Y6223000D01*
X64897000Y5029181D01*
X65126892Y4908514D01*
X65651358Y5154817D01*
X66041645Y5583076D01*
X66211476Y5993110D01*
X66090155Y6223000D01*
X64897000Y6223000D01*
X64643000Y6223000D01*
X63449845Y6223000D01*
X63328524Y5993110D01*
X56742440Y5993110D01*
X56742440Y6565000D01*
X56693157Y6812765D01*
X56552809Y7022809D01*
X56342765Y7163157D01*
X56095000Y7212440D01*
X54395000Y7212440D01*
X54147235Y7163157D01*
X53937191Y7022809D01*
X53796843Y6812765D01*
X53747560Y6565000D01*
X5281326Y6565000D01*
X5208839Y6929418D01*
X4880625Y7420625D01*
X4598389Y7609209D01*
X4651185Y7631078D01*
X5068922Y8048815D01*
X5295000Y8594615D01*
X5295000Y9175439D01*
X53810000Y9175439D01*
X53810000Y8604561D01*
X54028466Y8077138D01*
X54432138Y7673466D01*
X54959561Y7455000D01*
X55530439Y7455000D01*
X56057862Y7673466D01*
X56461534Y8077138D01*
X56680000Y8604561D01*
X56680000Y9175439D01*
X56461534Y9702862D01*
X56057862Y10106534D01*
X55530439Y10325000D01*
X54959561Y10325000D01*
X54432138Y10106534D01*
X54028466Y9702862D01*
X53810000Y9175439D01*
X5295000Y9175439D01*
X5295000Y9185385D01*
X5068922Y9731185D01*
X4651185Y10148922D01*
X4105385Y10375000D01*
X3514615Y10375000D01*
X2968815Y10148922D01*
X2551078Y9731185D01*
X2325000Y9185385D01*
X2325000Y8594615D01*
X2551078Y8048815D01*
X2968815Y7631078D01*
X3021611Y7609209D01*
X2739375Y7420625D01*
X2411161Y6929418D01*
X2295908Y6350000D01*
X710000Y6350000D01*
X710000Y11080439D01*
X7455000Y11080439D01*
X7455000Y10509561D01*
X7673466Y9982138D01*
X8077138Y9578466D01*
X8604561Y9360000D01*
X9175439Y9360000D01*
X9702862Y9578466D01*
X10106534Y9982138D01*
X10325000Y10509561D01*
X10325000Y10795000D01*
X10601887Y10795000D01*
X10713260Y10235091D01*
X11030423Y9760423D01*
X11505091Y9443260D01*
X11923667Y9360000D01*
X12206333Y9360000D01*
X12624909Y9443260D01*
X13099577Y9760423D01*
X13335000Y10112758D01*
X13570423Y9760423D01*
X14045091Y9443260D01*
X14463667Y9360000D01*
X14746333Y9360000D01*
X15164909Y9443260D01*
X15639577Y9760423D01*
X15875000Y10112758D01*
X16110423Y9760423D01*
X16585091Y9443260D01*
X17003667Y9360000D01*
X17286333Y9360000D01*
X17704909Y9443260D01*
X18179577Y9760423D01*
X18415000Y10112758D01*
X18650423Y9760423D01*
X19125091Y9443260D01*
X19543667Y9360000D01*
X19826333Y9360000D01*
X20244909Y9443260D01*
X20719577Y9760423D01*
X20955000Y10112758D01*
X21190423Y9760423D01*
X21665091Y9443260D01*
X22083667Y9360000D01*
X22366333Y9360000D01*
X22784909Y9443260D01*
X23259577Y9760423D01*
X23515947Y10144108D01*
X23612611Y9939866D01*
X24027577Y9563959D01*
X24415961Y9403096D01*
X24638000Y9525085D01*
X24638000Y10668000D01*
X24892000Y10668000D01*
X24892000Y9525085D01*
X25114039Y9403096D01*
X25502423Y9563959D01*
X25917389Y9939866D01*
X26035000Y10188367D01*
X26152611Y9939866D01*
X26567577Y9563959D01*
X26955961Y9403096D01*
X27178000Y9525085D01*
X27178000Y10668000D01*
X27432000Y10668000D01*
X27432000Y9525085D01*
X27654039Y9403096D01*
X28042423Y9563959D01*
X28457389Y9939866D01*
X28575000Y10188367D01*
X28692611Y9939866D01*
X29107577Y9563959D01*
X29495961Y9403096D01*
X29718000Y9525085D01*
X29718000Y10668000D01*
X29972000Y10668000D01*
X29972000Y9525085D01*
X30194039Y9403096D01*
X30582423Y9563959D01*
X30997389Y9939866D01*
X31236914Y10445959D01*
X31115629Y10668000D01*
X29972000Y10668000D01*
X29718000Y10668000D01*
X27432000Y10668000D01*
X27178000Y10668000D01*
X24892000Y10668000D01*
X24638000Y10668000D01*
X24618000Y10668000D01*
X24618000Y10922000D01*
X24638000Y10922000D01*
X24638000Y12064915D01*
X24892000Y12064915D01*
X24892000Y10922000D01*
X27178000Y10922000D01*
X27178000Y12064915D01*
X27432000Y12064915D01*
X27432000Y10922000D01*
X29718000Y10922000D01*
X29718000Y12064915D01*
X29972000Y12064915D01*
X29972000Y10922000D01*
X31115629Y10922000D01*
X31202172Y11080439D01*
X31585000Y11080439D01*
X31585000Y10509561D01*
X31803466Y9982138D01*
X32207138Y9578466D01*
X32734561Y9360000D01*
X33305439Y9360000D01*
X33832862Y9578466D01*
X34236534Y9982138D01*
X34455000Y10509561D01*
X34455000Y10795000D01*
X34731887Y10795000D01*
X34843260Y10235091D01*
X35160423Y9760423D01*
X35635091Y9443260D01*
X36053667Y9360000D01*
X36336333Y9360000D01*
X36754909Y9443260D01*
X37229577Y9760423D01*
X37465000Y10112758D01*
X37700423Y9760423D01*
X38175091Y9443260D01*
X38593667Y9360000D01*
X38876333Y9360000D01*
X39294909Y9443260D01*
X39769577Y9760423D01*
X40005000Y10112758D01*
X40240423Y9760423D01*
X40715091Y9443260D01*
X41133667Y9360000D01*
X41416333Y9360000D01*
X41834909Y9443260D01*
X42309577Y9760423D01*
X42545000Y10112758D01*
X42780423Y9760423D01*
X43255091Y9443260D01*
X43673667Y9360000D01*
X43956333Y9360000D01*
X44374909Y9443260D01*
X44849577Y9760423D01*
X45085000Y10112758D01*
X45320423Y9760423D01*
X45795091Y9443260D01*
X46213667Y9360000D01*
X46496333Y9360000D01*
X46914909Y9443260D01*
X47389577Y9760423D01*
X47625000Y10112758D01*
X47860423Y9760423D01*
X48335091Y9443260D01*
X48753667Y9360000D01*
X49036333Y9360000D01*
X49454909Y9443260D01*
X49929577Y9760423D01*
X50165000Y10112758D01*
X50400423Y9760423D01*
X50875091Y9443260D01*
X51293667Y9360000D01*
X51576333Y9360000D01*
X51994909Y9443260D01*
X52469577Y9760423D01*
X52786740Y10235091D01*
X52898113Y10795000D01*
X52786740Y11354909D01*
X52469577Y11829577D01*
X51994909Y12146740D01*
X51576333Y12230000D01*
X51293667Y12230000D01*
X50875091Y12146740D01*
X50400423Y11829577D01*
X50165000Y11477242D01*
X49929577Y11829577D01*
X49454909Y12146740D01*
X49036333Y12230000D01*
X48753667Y12230000D01*
X48335091Y12146740D01*
X47860423Y11829577D01*
X47625000Y11477242D01*
X47389577Y11829577D01*
X46914909Y12146740D01*
X46496333Y12230000D01*
X46213667Y12230000D01*
X45795091Y12146740D01*
X45320423Y11829577D01*
X45085000Y11477242D01*
X44849577Y11829577D01*
X44374909Y12146740D01*
X43956333Y12230000D01*
X43673667Y12230000D01*
X43255091Y12146740D01*
X42780423Y11829577D01*
X42545000Y11477242D01*
X42309577Y11829577D01*
X41834909Y12146740D01*
X41416333Y12230000D01*
X41133667Y12230000D01*
X40715091Y12146740D01*
X40240423Y11829577D01*
X40005000Y11477242D01*
X39769577Y11829577D01*
X39294909Y12146740D01*
X38876333Y12230000D01*
X38593667Y12230000D01*
X38175091Y12146740D01*
X37700423Y11829577D01*
X37465000Y11477242D01*
X37229577Y11829577D01*
X36754909Y12146740D01*
X36336333Y12230000D01*
X36053667Y12230000D01*
X35635091Y12146740D01*
X35160423Y11829577D01*
X34843260Y11354909D01*
X34731887Y10795000D01*
X34455000Y10795000D01*
X34455000Y11080439D01*
X34236534Y11607862D01*
X33832862Y12011534D01*
X33305439Y12230000D01*
X32734561Y12230000D01*
X32207138Y12011534D01*
X31803466Y11607862D01*
X31585000Y11080439D01*
X31202172Y11080439D01*
X31236914Y11144041D01*
X30997389Y11650134D01*
X30582423Y12026041D01*
X30194039Y12186904D01*
X29972000Y12064915D01*
X29718000Y12064915D01*
X29495961Y12186904D01*
X29107577Y12026041D01*
X28692611Y11650134D01*
X28575000Y11401633D01*
X28457389Y11650134D01*
X28042423Y12026041D01*
X27654039Y12186904D01*
X27432000Y12064915D01*
X27178000Y12064915D01*
X26955961Y12186904D01*
X26567577Y12026041D01*
X26152611Y11650134D01*
X26035000Y11401633D01*
X25917389Y11650134D01*
X25502423Y12026041D01*
X25114039Y12186904D01*
X24892000Y12064915D01*
X24638000Y12064915D01*
X24415961Y12186904D01*
X24027577Y12026041D01*
X23612611Y11650134D01*
X23515947Y11445892D01*
X23259577Y11829577D01*
X22784909Y12146740D01*
X22366333Y12230000D01*
X22083667Y12230000D01*
X21665091Y12146740D01*
X21190423Y11829577D01*
X20955000Y11477242D01*
X20719577Y11829577D01*
X20244909Y12146740D01*
X19826333Y12230000D01*
X19543667Y12230000D01*
X19125091Y12146740D01*
X18650423Y11829577D01*
X18415000Y11477242D01*
X18179577Y11829577D01*
X17704909Y12146740D01*
X17286333Y12230000D01*
X17003667Y12230000D01*
X16585091Y12146740D01*
X16110423Y11829577D01*
X15875000Y11477242D01*
X15639577Y11829577D01*
X15164909Y12146740D01*
X14746333Y12230000D01*
X14463667Y12230000D01*
X14045091Y12146740D01*
X13570423Y11829577D01*
X13335000Y11477242D01*
X13099577Y11829577D01*
X12624909Y12146740D01*
X12206333Y12230000D01*
X11923667Y12230000D01*
X11505091Y12146740D01*
X11030423Y11829577D01*
X10713260Y11354909D01*
X10601887Y10795000D01*
X10325000Y10795000D01*
X10325000Y11080439D01*
X10106534Y11607862D01*
X9702862Y12011534D01*
X9175439Y12230000D01*
X8604561Y12230000D01*
X8077138Y12011534D01*
X7673466Y11607862D01*
X7455000Y11080439D01*
X710000Y11080439D01*
X710000Y14890439D01*
X1740000Y14890439D01*
X1740000Y14319561D01*
X1958466Y13792138D01*
X2362138Y13388466D01*
X2889561Y13170000D01*
X3460439Y13170000D01*
X3987862Y13388466D01*
X4391534Y13792138D01*
X4610000Y14319561D01*
X4610000Y14605000D01*
X11871887Y14605000D01*
X11983260Y14045091D01*
X12300423Y13570423D01*
X12775091Y13253260D01*
X13193667Y13170000D01*
X13476333Y13170000D01*
X13894909Y13253260D01*
X14369577Y13570423D01*
X14604606Y13922168D01*
X14658466Y13792138D01*
X15062138Y13388466D01*
X15589561Y13170000D01*
X16160439Y13170000D01*
X16687862Y13388466D01*
X17091534Y13792138D01*
X17310000Y14319561D01*
X17310000Y14890439D01*
X19440000Y14890439D01*
X19440000Y14319561D01*
X19658466Y13792138D01*
X20062138Y13388466D01*
X20589561Y13170000D01*
X21160439Y13170000D01*
X21687862Y13388466D01*
X22091534Y13792138D01*
X22310000Y14319561D01*
X22310000Y14890439D01*
X22091534Y15417862D01*
X21687862Y15821534D01*
X21160439Y16040000D01*
X20589561Y16040000D01*
X20062138Y15821534D01*
X19658466Y15417862D01*
X19440000Y14890439D01*
X17310000Y14890439D01*
X17091534Y15417862D01*
X16687862Y15821534D01*
X16160439Y16040000D01*
X15589561Y16040000D01*
X15062138Y15821534D01*
X14658466Y15417862D01*
X14604606Y15287832D01*
X14369577Y15639577D01*
X13894909Y15956740D01*
X13476333Y16040000D01*
X13193667Y16040000D01*
X12775091Y15956740D01*
X12300423Y15639577D01*
X11983260Y15164909D01*
X11871887Y14605000D01*
X4610000Y14605000D01*
X4610000Y14890439D01*
X4391534Y15417862D01*
X3987862Y15821534D01*
X3460439Y16040000D01*
X2889561Y16040000D01*
X2362138Y15821534D01*
X1958466Y15417862D01*
X1740000Y14890439D01*
X710000Y14890439D01*
X710000Y18065439D01*
X1740000Y18065439D01*
X1740000Y17494561D01*
X1958466Y16967138D01*
X2362138Y16563466D01*
X2889561Y16345000D01*
X3460439Y16345000D01*
X3987862Y16563466D01*
X4391534Y16967138D01*
X4610000Y17494561D01*
X4610000Y17780000D01*
X11871887Y17780000D01*
X11983260Y17220091D01*
X12300423Y16745423D01*
X12775091Y16428260D01*
X13193667Y16345000D01*
X13476333Y16345000D01*
X13894909Y16428260D01*
X14369577Y16745423D01*
X14686740Y17220091D01*
X14798113Y17780000D01*
X14686740Y18339909D01*
X14492908Y18630000D01*
X16917560Y18630000D01*
X16917560Y16930000D01*
X16966843Y16682235D01*
X17107191Y16472191D01*
X17317235Y16331843D01*
X17565000Y16282560D01*
X19265000Y16282560D01*
X19512765Y16331843D01*
X19722809Y16472191D01*
X19863157Y16682235D01*
X19872184Y16727619D01*
X19884375Y16709375D01*
X20375582Y16381161D01*
X20808744Y16295000D01*
X21101256Y16295000D01*
X21534418Y16381161D01*
X22025625Y16709375D01*
X22353839Y17200582D01*
X22469092Y17780000D01*
X22353839Y18359418D01*
X22025625Y18850625D01*
X21534418Y19178839D01*
X21101256Y19265000D01*
X20808744Y19265000D01*
X20375582Y19178839D01*
X19884375Y18850625D01*
X19872184Y18832381D01*
X19863157Y18877765D01*
X19722809Y19087809D01*
X19512765Y19228157D01*
X19265000Y19277440D01*
X17565000Y19277440D01*
X17317235Y19228157D01*
X17107191Y19087809D01*
X16966843Y18877765D01*
X16917560Y18630000D01*
X14492908Y18630000D01*
X14369577Y18814577D01*
X13894909Y19131740D01*
X13476333Y19215000D01*
X13193667Y19215000D01*
X12775091Y19131740D01*
X12300423Y18814577D01*
X11983260Y18339909D01*
X11871887Y17780000D01*
X4610000Y17780000D01*
X4610000Y18065439D01*
X4391534Y18592862D01*
X3987862Y18996534D01*
X3460439Y19215000D01*
X2889561Y19215000D01*
X2362138Y18996534D01*
X1958466Y18592862D01*
X1740000Y18065439D01*
X710000Y18065439D01*
X710000Y21233110D01*
X2368524Y21233110D01*
X2538355Y20823076D01*
X2928642Y20394817D01*
X3453108Y20148514D01*
X3683000Y20269181D01*
X3683000Y21463000D01*
X3937000Y21463000D01*
X3937000Y20269181D01*
X4166892Y20148514D01*
X4691358Y20394817D01*
X5081645Y20823076D01*
X5106412Y20882871D01*
X5118959Y20852577D01*
X5494866Y20437611D01*
X6000959Y20198086D01*
X6223000Y20319371D01*
X6223000Y21463000D01*
X6477000Y21463000D01*
X6477000Y20319371D01*
X6699041Y20198086D01*
X7205134Y20437611D01*
X7581041Y20852577D01*
X7741904Y21240961D01*
X7619915Y21463000D01*
X6477000Y21463000D01*
X6223000Y21463000D01*
X3937000Y21463000D01*
X3683000Y21463000D01*
X2489845Y21463000D01*
X2368524Y21233110D01*
X710000Y21233110D01*
X710000Y41910000D01*
X2295908Y41910000D01*
X2411161Y41330582D01*
X2739375Y40839375D01*
X3037761Y40640000D01*
X2739375Y40440625D01*
X2411161Y39949418D01*
X2295908Y39370000D01*
X2411161Y38790582D01*
X2739375Y38299375D01*
X3037761Y38100000D01*
X2739375Y37900625D01*
X2411161Y37409418D01*
X2295908Y36830000D01*
X2411161Y36250582D01*
X2739375Y35759375D01*
X3037761Y35560000D01*
X2739375Y35360625D01*
X2411161Y34869418D01*
X2295908Y34290000D01*
X2411161Y33710582D01*
X2739375Y33219375D01*
X3037761Y33020000D01*
X2739375Y32820625D01*
X2411161Y32329418D01*
X2295908Y31750000D01*
X2411161Y31170582D01*
X2739375Y30679375D01*
X3037761Y30480000D01*
X2739375Y30280625D01*
X2411161Y29789418D01*
X2295908Y29210000D01*
X2411161Y28630582D01*
X2739375Y28139375D01*
X3037761Y27940000D01*
X2739375Y27740625D01*
X2411161Y27249418D01*
X2295908Y26670000D01*
X2411161Y26090582D01*
X2739375Y25599375D01*
X3037761Y25400000D01*
X2739375Y25200625D01*
X2411161Y24709418D01*
X2295908Y24130000D01*
X2411161Y23550582D01*
X2739375Y23059375D01*
X3058478Y22846157D01*
X2928642Y22785183D01*
X2538355Y22356924D01*
X2368524Y21946890D01*
X2489845Y21717000D01*
X3683000Y21717000D01*
X3683000Y21737000D01*
X3937000Y21737000D01*
X3937000Y21717000D01*
X6223000Y21717000D01*
X6223000Y21737000D01*
X6477000Y21737000D01*
X6477000Y21717000D01*
X7619915Y21717000D01*
X7741904Y21939039D01*
X7581041Y22327423D01*
X7205134Y22742389D01*
X7000892Y22839053D01*
X7384577Y23095423D01*
X7701740Y23570091D01*
X7813113Y24130000D01*
X7701740Y24689909D01*
X7384577Y25164577D01*
X7032242Y25400000D01*
X7384577Y25635423D01*
X7701740Y26110091D01*
X7813113Y26670000D01*
X7701740Y27229909D01*
X7384577Y27704577D01*
X7032242Y27940000D01*
X7384577Y28175423D01*
X7701740Y28650091D01*
X7813113Y29210000D01*
X7701740Y29769909D01*
X7384577Y30244577D01*
X7032242Y30480000D01*
X7384577Y30715423D01*
X7701740Y31190091D01*
X7813113Y31750000D01*
X7701740Y32309909D01*
X7384577Y32784577D01*
X7032242Y33020000D01*
X7384577Y33255423D01*
X7701740Y33730091D01*
X7813113Y34290000D01*
X7701740Y34849909D01*
X7384577Y35324577D01*
X7032242Y35560000D01*
X7384577Y35795423D01*
X7701740Y36270091D01*
X7813113Y36830000D01*
X7701740Y37389909D01*
X7384577Y37864577D01*
X7032242Y38100000D01*
X7384577Y38335423D01*
X7701740Y38810091D01*
X7813113Y39370000D01*
X7701740Y39929909D01*
X7384577Y40404577D01*
X7032242Y40640000D01*
X7384577Y40875423D01*
X7701740Y41350091D01*
X7813113Y41910000D01*
X9915908Y41910000D01*
X10031161Y41330582D01*
X10359375Y40839375D01*
X10657761Y40640000D01*
X10359375Y40440625D01*
X10031161Y39949418D01*
X9915908Y39370000D01*
X10031161Y38790582D01*
X10359375Y38299375D01*
X10657761Y38100000D01*
X10359375Y37900625D01*
X10031161Y37409418D01*
X9915908Y36830000D01*
X10031161Y36250582D01*
X10359375Y35759375D01*
X10657761Y35560000D01*
X10359375Y35360625D01*
X10031161Y34869418D01*
X9915908Y34290000D01*
X10031161Y33710582D01*
X10359375Y33219375D01*
X10657761Y33020000D01*
X10359375Y32820625D01*
X10031161Y32329418D01*
X9915908Y31750000D01*
X10031161Y31170582D01*
X10359375Y30679375D01*
X10657761Y30480000D01*
X10359375Y30280625D01*
X10031161Y29789418D01*
X9915908Y29210000D01*
X10031161Y28630582D01*
X10359375Y28139375D01*
X10657761Y27940000D01*
X10359375Y27740625D01*
X10031161Y27249418D01*
X9915908Y26670000D01*
X10031161Y26090582D01*
X10359375Y25599375D01*
X10657761Y25400000D01*
X10359375Y25200625D01*
X10031161Y24709418D01*
X9915908Y24130000D01*
X10031161Y23550582D01*
X10359375Y23059375D01*
X10657761Y22860000D01*
X10359375Y22660625D01*
X10031161Y22169418D01*
X9915908Y21590000D01*
X10031161Y21010582D01*
X10359375Y20519375D01*
X10850582Y20191161D01*
X11283744Y20105000D01*
X11576256Y20105000D01*
X12009418Y20191161D01*
X12500625Y20519375D01*
X12730067Y20862760D01*
X12935423Y20555423D01*
X13410091Y20238260D01*
X13828667Y20155000D01*
X14111333Y20155000D01*
X14529909Y20238260D01*
X15004577Y20555423D01*
X15321740Y21030091D01*
X15363684Y21240961D01*
X18928096Y21240961D01*
X19088959Y20852577D01*
X19464866Y20437611D01*
X19970959Y20198086D01*
X20193000Y20319371D01*
X20193000Y21463000D01*
X20447000Y21463000D01*
X20447000Y20319371D01*
X20669041Y20198086D01*
X21175134Y20437611D01*
X21551041Y20852577D01*
X21711904Y21240961D01*
X21589915Y21463000D01*
X20447000Y21463000D01*
X20193000Y21463000D01*
X19050085Y21463000D01*
X18928096Y21240961D01*
X15363684Y21240961D01*
X15433113Y21590000D01*
X15321740Y22149909D01*
X15004577Y22624577D01*
X14652242Y22860000D01*
X15004577Y23095423D01*
X15321740Y23570091D01*
X15433113Y24130000D01*
X15321740Y24689909D01*
X15004577Y25164577D01*
X14652242Y25400000D01*
X15004577Y25635423D01*
X15321740Y26110091D01*
X15433113Y26670000D01*
X15321740Y27229909D01*
X15004577Y27704577D01*
X14652242Y27940000D01*
X15004577Y28175423D01*
X15321740Y28650091D01*
X15433113Y29210000D01*
X15321740Y29769909D01*
X15004577Y30244577D01*
X14652242Y30480000D01*
X15004577Y30715423D01*
X15321740Y31190091D01*
X15433113Y31750000D01*
X15321740Y32309909D01*
X15004577Y32784577D01*
X14652242Y33020000D01*
X15004577Y33255423D01*
X15321740Y33730091D01*
X15433113Y34290000D01*
X15321740Y34849909D01*
X15004577Y35324577D01*
X14652242Y35560000D01*
X15004577Y35795423D01*
X15321740Y36270091D01*
X15433113Y36830000D01*
X15321740Y37389909D01*
X15004577Y37864577D01*
X14652242Y38100000D01*
X15004577Y38335423D01*
X15321740Y38810091D01*
X15433113Y39370000D01*
X15321740Y39929909D01*
X15004577Y40404577D01*
X14652242Y40640000D01*
X15004577Y40875423D01*
X15321740Y41350091D01*
X15433113Y41910000D01*
X18856887Y41910000D01*
X18968260Y41350091D01*
X19285423Y40875423D01*
X19637758Y40640000D01*
X19285423Y40404577D01*
X18968260Y39929909D01*
X18856887Y39370000D01*
X18968260Y38810091D01*
X19285423Y38335423D01*
X19637758Y38100000D01*
X19285423Y37864577D01*
X18968260Y37389909D01*
X18856887Y36830000D01*
X18968260Y36270091D01*
X19285423Y35795423D01*
X19637758Y35560000D01*
X19285423Y35324577D01*
X18968260Y34849909D01*
X18856887Y34290000D01*
X18968260Y33730091D01*
X19285423Y33255423D01*
X19637758Y33020000D01*
X19285423Y32784577D01*
X18968260Y32309909D01*
X18856887Y31750000D01*
X18968260Y31190091D01*
X19285423Y30715423D01*
X19637758Y30480000D01*
X19285423Y30244577D01*
X18968260Y29769909D01*
X18856887Y29210000D01*
X18968260Y28650091D01*
X19285423Y28175423D01*
X19637758Y27940000D01*
X19285423Y27704577D01*
X18968260Y27229909D01*
X18856887Y26670000D01*
X18968260Y26110091D01*
X19285423Y25635423D01*
X19637758Y25400000D01*
X19285423Y25164577D01*
X18968260Y24689909D01*
X18856887Y24130000D01*
X18968260Y23570091D01*
X19285423Y23095423D01*
X19669108Y22839053D01*
X19464866Y22742389D01*
X19088959Y22327423D01*
X18928096Y21939039D01*
X19050085Y21717000D01*
X20193000Y21717000D01*
X20193000Y21737000D01*
X20447000Y21737000D01*
X20447000Y21717000D01*
X21589915Y21717000D01*
X21711904Y21939039D01*
X21551041Y22327423D01*
X21175134Y22742389D01*
X20970892Y22839053D01*
X21354577Y23095423D01*
X21671740Y23570091D01*
X21783113Y24130000D01*
X21671740Y24689909D01*
X21354577Y25164577D01*
X21002242Y25400000D01*
X21354577Y25635423D01*
X21671740Y26110091D01*
X21783113Y26670000D01*
X21671740Y27229909D01*
X21354577Y27704577D01*
X21002242Y27940000D01*
X21354577Y28175423D01*
X21671740Y28650091D01*
X21783113Y29210000D01*
X21671740Y29769909D01*
X21354577Y30244577D01*
X21002242Y30480000D01*
X21354577Y30715423D01*
X21671740Y31190091D01*
X21783113Y31750000D01*
X21671740Y32309909D01*
X21354577Y32784577D01*
X21002242Y33020000D01*
X21354577Y33255423D01*
X21671740Y33730091D01*
X21783113Y34290000D01*
X21671740Y34849909D01*
X21354577Y35324577D01*
X21002242Y35560000D01*
X21354577Y35795423D01*
X21671740Y36270091D01*
X21783113Y36830000D01*
X21671740Y37389909D01*
X21354577Y37864577D01*
X21002242Y38100000D01*
X21354577Y38335423D01*
X21671740Y38810091D01*
X21783113Y39370000D01*
X21671740Y39929909D01*
X21354577Y40404577D01*
X21002242Y40640000D01*
X21354577Y40875423D01*
X21671740Y41350091D01*
X21783113Y41910000D01*
X21671740Y42469909D01*
X21354577Y42944577D01*
X21248082Y43015735D01*
X21479698Y43111673D01*
X21658327Y43290301D01*
X21755000Y43523690D01*
X21755000Y44164250D01*
X21596250Y44323000D01*
X20447000Y44323000D01*
X20447000Y44303000D01*
X20193000Y44303000D01*
X20193000Y44323000D01*
X19043750Y44323000D01*
X18885000Y44164250D01*
X18885000Y43523690D01*
X18981673Y43290301D01*
X19160302Y43111673D01*
X19391918Y43015735D01*
X19285423Y42944577D01*
X18968260Y42469909D01*
X18856887Y41910000D01*
X15433113Y41910000D01*
X15321740Y42469909D01*
X15004577Y42944577D01*
X14652242Y43180000D01*
X15004577Y43415423D01*
X15321740Y43890091D01*
X15433113Y44450000D01*
X26476887Y44450000D01*
X26588260Y43890091D01*
X26905423Y43415423D01*
X27257758Y43180000D01*
X26905423Y42944577D01*
X26588260Y42469909D01*
X26476887Y41910000D01*
X26588260Y41350091D01*
X26905423Y40875423D01*
X27257758Y40640000D01*
X26905423Y40404577D01*
X26588260Y39929909D01*
X26476887Y39370000D01*
X26588260Y38810091D01*
X26905423Y38335423D01*
X27257758Y38100000D01*
X26905423Y37864577D01*
X26588260Y37389909D01*
X26476887Y36830000D01*
X26588260Y36270091D01*
X26905423Y35795423D01*
X27257758Y35560000D01*
X26905423Y35324577D01*
X26588260Y34849909D01*
X26476887Y34290000D01*
X26588260Y33730091D01*
X26905423Y33255423D01*
X27257758Y33020000D01*
X26905423Y32784577D01*
X26588260Y32309909D01*
X26476887Y31750000D01*
X26588260Y31190091D01*
X26905423Y30715423D01*
X27257758Y30480000D01*
X26905423Y30244577D01*
X26588260Y29769909D01*
X26476887Y29210000D01*
X26588260Y28650091D01*
X26905423Y28175423D01*
X27257758Y27940000D01*
X26905423Y27704577D01*
X26588260Y27229909D01*
X26476887Y26670000D01*
X26588260Y26110091D01*
X26905423Y25635423D01*
X27257758Y25400000D01*
X26905423Y25164577D01*
X26588260Y24689909D01*
X26476887Y24130000D01*
X26588260Y23570091D01*
X26905423Y23095423D01*
X27257758Y22860000D01*
X26905423Y22624577D01*
X26588260Y22149909D01*
X26476887Y21590000D01*
X26588260Y21030091D01*
X26905423Y20555423D01*
X27380091Y20238260D01*
X27798667Y20155000D01*
X28081333Y20155000D01*
X28499909Y20238260D01*
X28974577Y20555423D01*
X29291740Y21030091D01*
X29403113Y21590000D01*
X29291740Y22149909D01*
X28974577Y22624577D01*
X28622242Y22860000D01*
X28974577Y23095423D01*
X29291740Y23570091D01*
X29403113Y24130000D01*
X29291740Y24689909D01*
X28974577Y25164577D01*
X28622242Y25400000D01*
X28974577Y25635423D01*
X29291740Y26110091D01*
X29403113Y26670000D01*
X29291740Y27229909D01*
X28974577Y27704577D01*
X28622242Y27940000D01*
X28974577Y28175423D01*
X29291740Y28650091D01*
X29403113Y29210000D01*
X29291740Y29769909D01*
X28974577Y30244577D01*
X28622242Y30480000D01*
X28974577Y30715423D01*
X29291740Y31190091D01*
X29403113Y31750000D01*
X29291740Y32309909D01*
X28974577Y32784577D01*
X28622242Y33020000D01*
X28974577Y33255423D01*
X29291740Y33730091D01*
X29403113Y34290000D01*
X29291740Y34849909D01*
X28974577Y35324577D01*
X28622242Y35560000D01*
X28974577Y35795423D01*
X29291740Y36270091D01*
X29403113Y36830000D01*
X29291740Y37389909D01*
X28974577Y37864577D01*
X28622242Y38100000D01*
X28974577Y38335423D01*
X29291740Y38810091D01*
X29403113Y39370000D01*
X29291740Y39929909D01*
X28974577Y40404577D01*
X28622242Y40640000D01*
X28962505Y40867357D01*
X29337000Y40867357D01*
X29337000Y40412643D01*
X29511011Y39992542D01*
X29718001Y39785552D01*
X29718000Y16094447D01*
X29511011Y15887458D01*
X29337000Y15467357D01*
X29337000Y15012643D01*
X29511011Y14592542D01*
X29832542Y14271011D01*
X30252643Y14097000D01*
X30707357Y14097000D01*
X30720919Y14102618D01*
X30781011Y13957542D01*
X31102542Y13636011D01*
X31522643Y13462000D01*
X31977357Y13462000D01*
X31990919Y13467618D01*
X32051011Y13322542D01*
X32372542Y13001011D01*
X32792643Y12827000D01*
X33247357Y12827000D01*
X33667458Y13001011D01*
X33988989Y13322542D01*
X34112597Y13620961D01*
X34803096Y13620961D01*
X34963959Y13232577D01*
X35339866Y12817611D01*
X35845959Y12578086D01*
X36068000Y12699371D01*
X36068000Y13843000D01*
X36322000Y13843000D01*
X36322000Y12699371D01*
X36544041Y12578086D01*
X37050134Y12817611D01*
X37426041Y13232577D01*
X37586904Y13620961D01*
X37464915Y13843000D01*
X36322000Y13843000D01*
X36068000Y13843000D01*
X34925085Y13843000D01*
X34803096Y13620961D01*
X34112597Y13620961D01*
X34163000Y13742643D01*
X34163000Y14197357D01*
X33988989Y14617458D01*
X33782000Y14824447D01*
X33782000Y38515553D01*
X33988989Y38722542D01*
X34163000Y39142643D01*
X34163000Y39597357D01*
X33988989Y40017458D01*
X33667458Y40338989D01*
X33247357Y40513000D01*
X32792643Y40513000D01*
X32779081Y40507382D01*
X32718989Y40652458D01*
X32397458Y40973989D01*
X31977357Y41148000D01*
X31522643Y41148000D01*
X31509081Y41142382D01*
X31448989Y41287458D01*
X31127458Y41608989D01*
X30707357Y41783000D01*
X30252643Y41783000D01*
X29832542Y41608989D01*
X29511011Y41287458D01*
X29337000Y40867357D01*
X28962505Y40867357D01*
X28974577Y40875423D01*
X29291740Y41350091D01*
X29403113Y41910000D01*
X29291740Y42469909D01*
X28974577Y42944577D01*
X28622242Y43180000D01*
X28974577Y43415423D01*
X29291740Y43890091D01*
X29403113Y44450000D01*
X34731887Y44450000D01*
X34843260Y43890091D01*
X35160423Y43415423D01*
X35512758Y43180000D01*
X35160423Y42944577D01*
X34843260Y42469909D01*
X34731887Y41910000D01*
X34843260Y41350091D01*
X35160423Y40875423D01*
X35512758Y40640000D01*
X35160423Y40404577D01*
X34843260Y39929909D01*
X34731887Y39370000D01*
X34843260Y38810091D01*
X35160423Y38335423D01*
X35512758Y38100000D01*
X35160423Y37864577D01*
X34843260Y37389909D01*
X34731887Y36830000D01*
X34843260Y36270091D01*
X35160423Y35795423D01*
X35512758Y35560000D01*
X35160423Y35324577D01*
X34843260Y34849909D01*
X34731887Y34290000D01*
X34843260Y33730091D01*
X35160423Y33255423D01*
X35512758Y33020000D01*
X35160423Y32784577D01*
X34843260Y32309909D01*
X34731887Y31750000D01*
X34843260Y31190091D01*
X35160423Y30715423D01*
X35512758Y30480000D01*
X35160423Y30244577D01*
X34843260Y29769909D01*
X34731887Y29210000D01*
X34843260Y28650091D01*
X35160423Y28175423D01*
X35512758Y27940000D01*
X35160423Y27704577D01*
X34843260Y27229909D01*
X34731887Y26670000D01*
X34843260Y26110091D01*
X35160423Y25635423D01*
X35512758Y25400000D01*
X35160423Y25164577D01*
X34843260Y24689909D01*
X34731887Y24130000D01*
X34843260Y23570091D01*
X35160423Y23095423D01*
X35512758Y22860000D01*
X35160423Y22624577D01*
X34843260Y22149909D01*
X34731887Y21590000D01*
X34843260Y21030091D01*
X35160423Y20555423D01*
X35512758Y20320000D01*
X35160423Y20084577D01*
X34843260Y19609909D01*
X34731887Y19050000D01*
X34843260Y18490091D01*
X35160423Y18015423D01*
X35512758Y17780000D01*
X35160423Y17544577D01*
X34843260Y17069909D01*
X34731887Y16510000D01*
X34843260Y15950091D01*
X35160423Y15475423D01*
X35544108Y15219053D01*
X35339866Y15122389D01*
X34963959Y14707423D01*
X34803096Y14319039D01*
X34925085Y14097000D01*
X36068000Y14097000D01*
X36068000Y14117000D01*
X36322000Y14117000D01*
X36322000Y14097000D01*
X37464915Y14097000D01*
X37586904Y14319039D01*
X37426041Y14707423D01*
X37050134Y15122389D01*
X36845892Y15219053D01*
X37229577Y15475423D01*
X37546740Y15950091D01*
X37658113Y16510000D01*
X37546740Y17069909D01*
X37229577Y17544577D01*
X36877242Y17780000D01*
X37229577Y18015423D01*
X37546740Y18490091D01*
X37658113Y19050000D01*
X37546740Y19609909D01*
X37229577Y20084577D01*
X36877242Y20320000D01*
X37229577Y20555423D01*
X37546740Y21030091D01*
X37658113Y21590000D01*
X37546740Y22149909D01*
X37229577Y22624577D01*
X36877242Y22860000D01*
X37229577Y23095423D01*
X37546740Y23570091D01*
X37658113Y24130000D01*
X49971887Y24130000D01*
X50083260Y23570091D01*
X50400423Y23095423D01*
X50752758Y22860000D01*
X50400423Y22624577D01*
X50083260Y22149909D01*
X49971887Y21590000D01*
X50083260Y21030091D01*
X50400423Y20555423D01*
X50752758Y20320000D01*
X50400423Y20084577D01*
X50083260Y19609909D01*
X49971887Y19050000D01*
X50083260Y18490091D01*
X50400423Y18015423D01*
X50752758Y17780000D01*
X50400423Y17544577D01*
X50083260Y17069909D01*
X49971887Y16510000D01*
X50083260Y15950091D01*
X50400423Y15475423D01*
X50752758Y15240000D01*
X50400423Y15004577D01*
X50083260Y14529909D01*
X49971887Y13970000D01*
X50083260Y13410091D01*
X50400423Y12935423D01*
X50875091Y12618260D01*
X51293667Y12535000D01*
X51576333Y12535000D01*
X51994909Y12618260D01*
X52469577Y12935423D01*
X52786740Y13410091D01*
X52898113Y13970000D01*
X52786740Y14529909D01*
X52469577Y15004577D01*
X52117242Y15240000D01*
X52469577Y15475423D01*
X52786740Y15950091D01*
X52898113Y16510000D01*
X52786740Y17069909D01*
X52469577Y17544577D01*
X52117242Y17780000D01*
X52469577Y18015423D01*
X52786740Y18490091D01*
X52828684Y18700959D01*
X53853086Y18700959D01*
X54092611Y18194866D01*
X54507577Y17818959D01*
X54895961Y17658096D01*
X55118000Y17780085D01*
X55118000Y18923000D01*
X55372000Y18923000D01*
X55372000Y17780085D01*
X55594039Y17658096D01*
X55982423Y17818959D01*
X56397389Y18194866D01*
X56636914Y18700959D01*
X56515629Y18923000D01*
X55372000Y18923000D01*
X55118000Y18923000D01*
X53974371Y18923000D01*
X53853086Y18700959D01*
X52828684Y18700959D01*
X52898113Y19050000D01*
X52828685Y19399041D01*
X53853086Y19399041D01*
X53974371Y19177000D01*
X55118000Y19177000D01*
X55118000Y20319915D01*
X55372000Y20319915D01*
X55372000Y19177000D01*
X56515629Y19177000D01*
X56636914Y19399041D01*
X56397389Y19905134D01*
X55982423Y20281041D01*
X55594039Y20441904D01*
X55372000Y20319915D01*
X55118000Y20319915D01*
X54895961Y20441904D01*
X54507577Y20281041D01*
X54092611Y19905134D01*
X53853086Y19399041D01*
X52828685Y19399041D01*
X52786740Y19609909D01*
X52469577Y20084577D01*
X52117242Y20320000D01*
X52469577Y20555423D01*
X52786740Y21030091D01*
X52898113Y21590000D01*
X52786740Y22149909D01*
X52469577Y22624577D01*
X52117242Y22860000D01*
X52469577Y23095423D01*
X52786740Y23570091D01*
X52898113Y24130000D01*
X63255908Y24130000D01*
X63371161Y23550582D01*
X63699375Y23059375D01*
X63997761Y22860000D01*
X63699375Y22660625D01*
X63371161Y22169418D01*
X63255908Y21590000D01*
X63371161Y21010582D01*
X63699375Y20519375D01*
X63997761Y20320000D01*
X63699375Y20120625D01*
X63371161Y19629418D01*
X63255908Y19050000D01*
X63371161Y18470582D01*
X63699375Y17979375D01*
X63997761Y17780000D01*
X63699375Y17580625D01*
X63371161Y17089418D01*
X63255908Y16510000D01*
X63371161Y15930582D01*
X63699375Y15439375D01*
X63997761Y15240000D01*
X63699375Y15040625D01*
X63371161Y14549418D01*
X63255908Y13970000D01*
X63371161Y13390582D01*
X63699375Y12899375D01*
X63997761Y12700000D01*
X63699375Y12500625D01*
X63371161Y12009418D01*
X63255908Y11430000D01*
X63371161Y10850582D01*
X63699375Y10359375D01*
X63997761Y10160000D01*
X63699375Y9960625D01*
X63371161Y9469418D01*
X63255908Y8890000D01*
X63371161Y8310582D01*
X63699375Y7819375D01*
X64018478Y7606157D01*
X63888642Y7545183D01*
X63498355Y7116924D01*
X63328524Y6706890D01*
X63449845Y6477000D01*
X64643000Y6477000D01*
X64643000Y6497000D01*
X64897000Y6497000D01*
X64897000Y6477000D01*
X66090155Y6477000D01*
X66211476Y6706890D01*
X66041645Y7116924D01*
X65651358Y7545183D01*
X65521522Y7606157D01*
X65840625Y7819375D01*
X66168839Y8310582D01*
X66284092Y8890000D01*
X66168839Y9469418D01*
X65840625Y9960625D01*
X65542239Y10160000D01*
X65840625Y10359375D01*
X66168839Y10850582D01*
X66284092Y11430000D01*
X66168839Y12009418D01*
X65840625Y12500625D01*
X65542239Y12700000D01*
X65840625Y12899375D01*
X66168839Y13390582D01*
X66284092Y13970000D01*
X66168839Y14549418D01*
X65840625Y15040625D01*
X65542239Y15240000D01*
X65840625Y15439375D01*
X66168839Y15930582D01*
X66284092Y16510000D01*
X66168839Y17089418D01*
X65840625Y17580625D01*
X65542239Y17780000D01*
X65840625Y17979375D01*
X66168839Y18470582D01*
X66284092Y19050000D01*
X66168839Y19629418D01*
X65840625Y20120625D01*
X65542239Y20320000D01*
X65840625Y20519375D01*
X66168839Y21010582D01*
X66284092Y21590000D01*
X66168839Y22169418D01*
X65840625Y22660625D01*
X65542239Y22860000D01*
X65840625Y23059375D01*
X66168839Y23550582D01*
X66284092Y24130000D01*
X70875908Y24130000D01*
X70991161Y23550582D01*
X71319375Y23059375D01*
X71617761Y22860000D01*
X71319375Y22660625D01*
X70991161Y22169418D01*
X70875908Y21590000D01*
X70991161Y21010582D01*
X71319375Y20519375D01*
X71617761Y20320000D01*
X71319375Y20120625D01*
X70991161Y19629418D01*
X70875908Y19050000D01*
X70991161Y18470582D01*
X71319375Y17979375D01*
X71617761Y17780000D01*
X71319375Y17580625D01*
X70991161Y17089418D01*
X70875908Y16510000D01*
X70991161Y15930582D01*
X71319375Y15439375D01*
X71617761Y15240000D01*
X71319375Y15040625D01*
X70991161Y14549418D01*
X70875908Y13970000D01*
X70991161Y13390582D01*
X71319375Y12899375D01*
X71617761Y12700000D01*
X71319375Y12500625D01*
X70991161Y12009418D01*
X70875908Y11430000D01*
X70991161Y10850582D01*
X71319375Y10359375D01*
X71617761Y10160000D01*
X71319375Y9960625D01*
X70991161Y9469418D01*
X70875908Y8890000D01*
X70991161Y8310582D01*
X71319375Y7819375D01*
X71617761Y7620000D01*
X71319375Y7420625D01*
X70991161Y6929418D01*
X70875908Y6350000D01*
X70991161Y5770582D01*
X71319375Y5279375D01*
X71810582Y4951161D01*
X72243744Y4865000D01*
X72536256Y4865000D01*
X72969418Y4951161D01*
X73460625Y5279375D01*
X73788839Y5770582D01*
X73904092Y6350000D01*
X73788839Y6929418D01*
X73460625Y7420625D01*
X73162239Y7620000D01*
X73460625Y7819375D01*
X73788839Y8310582D01*
X73904092Y8890000D01*
X73788839Y9469418D01*
X73460625Y9960625D01*
X73162239Y10160000D01*
X73460625Y10359375D01*
X73788839Y10850582D01*
X73904092Y11430000D01*
X73788839Y12009418D01*
X73460625Y12500625D01*
X73162239Y12700000D01*
X73460625Y12899375D01*
X73788839Y13390582D01*
X73904092Y13970000D01*
X73788839Y14549418D01*
X73460625Y15040625D01*
X73162239Y15240000D01*
X73460625Y15439375D01*
X73788839Y15930582D01*
X73904092Y16510000D01*
X73788839Y17089418D01*
X73460625Y17580625D01*
X73162239Y17780000D01*
X73460625Y17979375D01*
X73788839Y18470582D01*
X73904092Y19050000D01*
X73788839Y19629418D01*
X73460625Y20120625D01*
X73162239Y20320000D01*
X73460625Y20519375D01*
X73788839Y21010582D01*
X73904092Y21590000D01*
X73788839Y22169418D01*
X73460625Y22660625D01*
X73162239Y22860000D01*
X73460625Y23059375D01*
X73788839Y23550582D01*
X73904092Y24130000D01*
X73788839Y24709418D01*
X73460625Y25200625D01*
X73178389Y25389209D01*
X73231185Y25411078D01*
X73648922Y25828815D01*
X73875000Y26374615D01*
X73875000Y26965385D01*
X73648922Y27511185D01*
X73231185Y27928922D01*
X72685385Y28155000D01*
X72094615Y28155000D01*
X71548815Y27928922D01*
X71131078Y27511185D01*
X70905000Y26965385D01*
X70905000Y26374615D01*
X71131078Y25828815D01*
X71548815Y25411078D01*
X71601611Y25389209D01*
X71319375Y25200625D01*
X70991161Y24709418D01*
X70875908Y24130000D01*
X66284092Y24130000D01*
X66168839Y24709418D01*
X65840625Y25200625D01*
X65558389Y25389209D01*
X65611185Y25411078D01*
X66028922Y25828815D01*
X66255000Y26374615D01*
X66255000Y26965385D01*
X66028922Y27511185D01*
X65611185Y27928922D01*
X65065385Y28155000D01*
X64474615Y28155000D01*
X63928815Y27928922D01*
X63511078Y27511185D01*
X63285000Y26965385D01*
X63285000Y26374615D01*
X63511078Y25828815D01*
X63928815Y25411078D01*
X63981611Y25389209D01*
X63699375Y25200625D01*
X63371161Y24709418D01*
X63255908Y24130000D01*
X52898113Y24130000D01*
X52786740Y24689909D01*
X52469577Y25164577D01*
X52085892Y25420947D01*
X52290134Y25517611D01*
X52666041Y25932577D01*
X52826904Y26320961D01*
X52704915Y26543000D01*
X51562000Y26543000D01*
X51562000Y26523000D01*
X51308000Y26523000D01*
X51308000Y26543000D01*
X50165085Y26543000D01*
X50043096Y26320961D01*
X50203959Y25932577D01*
X50579866Y25517611D01*
X50784108Y25420947D01*
X50400423Y25164577D01*
X50083260Y24689909D01*
X49971887Y24130000D01*
X37658113Y24130000D01*
X37546740Y24689909D01*
X37229577Y25164577D01*
X36877242Y25400000D01*
X37229577Y25635423D01*
X37546740Y26110091D01*
X37658113Y26670000D01*
X37546740Y27229909D01*
X37229577Y27704577D01*
X36877242Y27940000D01*
X37229577Y28175423D01*
X37546740Y28650091D01*
X37658113Y29210000D01*
X49971887Y29210000D01*
X50083260Y28650091D01*
X50400423Y28175423D01*
X50784108Y27919053D01*
X50579866Y27822389D01*
X50203959Y27407423D01*
X50043096Y27019039D01*
X50165085Y26797000D01*
X51308000Y26797000D01*
X51308000Y26817000D01*
X51562000Y26817000D01*
X51562000Y26797000D01*
X52704915Y26797000D01*
X52826904Y27019039D01*
X52666041Y27407423D01*
X52290134Y27822389D01*
X52085892Y27919053D01*
X52469577Y28175423D01*
X52786740Y28650091D01*
X52898113Y29210000D01*
X52786740Y29769909D01*
X52469577Y30244577D01*
X52085892Y30500947D01*
X52290134Y30597611D01*
X52666041Y31012577D01*
X52826904Y31400961D01*
X52704915Y31623000D01*
X51562000Y31623000D01*
X51562000Y31603000D01*
X51308000Y31603000D01*
X51308000Y31623000D01*
X50165085Y31623000D01*
X50043096Y31400961D01*
X50203959Y31012577D01*
X50579866Y30597611D01*
X50784108Y30500947D01*
X50400423Y30244577D01*
X50083260Y29769909D01*
X49971887Y29210000D01*
X37658113Y29210000D01*
X37546740Y29769909D01*
X37229577Y30244577D01*
X36877242Y30480000D01*
X37229577Y30715423D01*
X37546740Y31190091D01*
X37658113Y31750000D01*
X37546740Y32309909D01*
X37229577Y32784577D01*
X36877242Y33020000D01*
X37229577Y33255423D01*
X37546740Y33730091D01*
X37658113Y34290000D01*
X37546740Y34849909D01*
X37229577Y35324577D01*
X36877242Y35560000D01*
X37229577Y35795423D01*
X37546740Y36270091D01*
X37658113Y36830000D01*
X37546740Y37389909D01*
X37229577Y37864577D01*
X36877242Y38100000D01*
X37229577Y38335423D01*
X37546740Y38810091D01*
X37658113Y39370000D01*
X49971887Y39370000D01*
X50083260Y38810091D01*
X50400423Y38335423D01*
X50752758Y38100000D01*
X50400423Y37864577D01*
X50083260Y37389909D01*
X49971887Y36830000D01*
X50083260Y36270091D01*
X50400423Y35795423D01*
X50752758Y35560000D01*
X50400423Y35324577D01*
X50083260Y34849909D01*
X49971887Y34290000D01*
X50083260Y33730091D01*
X50400423Y33255423D01*
X50784108Y32999053D01*
X50579866Y32902389D01*
X50203959Y32487423D01*
X50043096Y32099039D01*
X50165085Y31877000D01*
X51308000Y31877000D01*
X51308000Y31897000D01*
X51562000Y31897000D01*
X51562000Y31877000D01*
X52704915Y31877000D01*
X52826904Y32099039D01*
X52666041Y32487423D01*
X52290134Y32902389D01*
X52085892Y32999053D01*
X52469577Y33255423D01*
X52786740Y33730091D01*
X52898113Y34290000D01*
X52786740Y34849909D01*
X52469577Y35324577D01*
X52117242Y35560000D01*
X52469577Y35795423D01*
X52786740Y36270091D01*
X52898113Y36830000D01*
X52786740Y37389909D01*
X52469577Y37864577D01*
X52117242Y38100000D01*
X52469577Y38335423D01*
X52786740Y38810091D01*
X52898113Y39370000D01*
X52786740Y39929909D01*
X52469577Y40404577D01*
X52085892Y40660947D01*
X52290134Y40757611D01*
X52666041Y41172577D01*
X52826904Y41560961D01*
X52704915Y41783000D01*
X51562000Y41783000D01*
X51562000Y41763000D01*
X51308000Y41763000D01*
X51308000Y41783000D01*
X50165085Y41783000D01*
X50043096Y41560961D01*
X50203959Y41172577D01*
X50579866Y40757611D01*
X50784108Y40660947D01*
X50400423Y40404577D01*
X50083260Y39929909D01*
X49971887Y39370000D01*
X37658113Y39370000D01*
X37546740Y39929909D01*
X37229577Y40404577D01*
X36877242Y40640000D01*
X37229577Y40875423D01*
X37546740Y41350091D01*
X37658113Y41910000D01*
X37546740Y42469909D01*
X37229577Y42944577D01*
X36877242Y43180000D01*
X37229577Y43415423D01*
X37262996Y43465439D01*
X38570000Y43465439D01*
X38570000Y42894561D01*
X38788466Y42367138D01*
X39192138Y41963466D01*
X39719561Y41745000D01*
X40290439Y41745000D01*
X40817862Y41963466D01*
X41221534Y42367138D01*
X41413655Y42830961D01*
X46113096Y42830961D01*
X46273959Y42442577D01*
X46649866Y42027611D01*
X47155959Y41788086D01*
X47378000Y41909371D01*
X47378000Y43053000D01*
X47632000Y43053000D01*
X47632000Y41909371D01*
X47854041Y41788086D01*
X48111633Y41910000D01*
X70875908Y41910000D01*
X70991161Y41330582D01*
X71319375Y40839375D01*
X71617761Y40640000D01*
X71319375Y40440625D01*
X70991161Y39949418D01*
X70875908Y39370000D01*
X70991161Y38790582D01*
X71319375Y38299375D01*
X71810582Y37971161D01*
X72243744Y37885000D01*
X72536256Y37885000D01*
X72969418Y37971161D01*
X73460625Y38299375D01*
X73788839Y38790582D01*
X73904092Y39370000D01*
X73788839Y39949418D01*
X73460625Y40440625D01*
X73162239Y40640000D01*
X73460625Y40839375D01*
X73788839Y41330582D01*
X73904092Y41910000D01*
X73788839Y42489418D01*
X73460625Y42980625D01*
X73178389Y43169209D01*
X73231185Y43191078D01*
X73648922Y43608815D01*
X73875000Y44154615D01*
X73875000Y44745385D01*
X73648922Y45291185D01*
X73231185Y45708922D01*
X72685385Y45935000D01*
X72094615Y45935000D01*
X71548815Y45708922D01*
X71131078Y45291185D01*
X70905000Y44745385D01*
X70905000Y44154615D01*
X71131078Y43608815D01*
X71548815Y43191078D01*
X71601611Y43169209D01*
X71319375Y42980625D01*
X70991161Y42489418D01*
X70875908Y41910000D01*
X48111633Y41910000D01*
X48360134Y42027611D01*
X48736041Y42442577D01*
X48896904Y42830961D01*
X48774915Y43053000D01*
X47632000Y43053000D01*
X47378000Y43053000D01*
X46235085Y43053000D01*
X46113096Y42830961D01*
X41413655Y42830961D01*
X41440000Y42894561D01*
X41440000Y43465439D01*
X41413656Y43529039D01*
X46113096Y43529039D01*
X46235085Y43307000D01*
X47378000Y43307000D01*
X47378000Y44450629D01*
X47632000Y44450629D01*
X47632000Y43307000D01*
X48774915Y43307000D01*
X48896904Y43529039D01*
X48736041Y43917423D01*
X48360134Y44332389D01*
X47854041Y44571914D01*
X47632000Y44450629D01*
X47378000Y44450629D01*
X47155959Y44571914D01*
X46649866Y44332389D01*
X46273959Y43917423D01*
X46113096Y43529039D01*
X41413656Y43529039D01*
X41221534Y43992862D01*
X40817862Y44396534D01*
X40290439Y44615000D01*
X39719561Y44615000D01*
X39192138Y44396534D01*
X38788466Y43992862D01*
X38570000Y43465439D01*
X37262996Y43465439D01*
X37546740Y43890091D01*
X37658113Y44450000D01*
X37546740Y45009909D01*
X37229577Y45484577D01*
X37123082Y45555735D01*
X37354698Y45651673D01*
X37533327Y45830301D01*
X37630000Y46063690D01*
X37630000Y46704250D01*
X37471250Y46863000D01*
X36322000Y46863000D01*
X36322000Y46843000D01*
X36068000Y46843000D01*
X36068000Y46863000D01*
X34918750Y46863000D01*
X34760000Y46704250D01*
X34760000Y46063690D01*
X34856673Y45830301D01*
X35035302Y45651673D01*
X35266918Y45555735D01*
X35160423Y45484577D01*
X34843260Y45009909D01*
X34731887Y44450000D01*
X29403113Y44450000D01*
X29291740Y45009909D01*
X28974577Y45484577D01*
X28499909Y45801740D01*
X28081333Y45885000D01*
X27798667Y45885000D01*
X27380091Y45801740D01*
X26905423Y45484577D01*
X26588260Y45009909D01*
X26476887Y44450000D01*
X15433113Y44450000D01*
X15321740Y45009909D01*
X15076919Y45376310D01*
X18885000Y45376310D01*
X18885000Y44735750D01*
X19043750Y44577000D01*
X20193000Y44577000D01*
X20193000Y45726250D01*
X20447000Y45726250D01*
X20447000Y44577000D01*
X21596250Y44577000D01*
X21755000Y44735750D01*
X21755000Y45376310D01*
X21658327Y45609699D01*
X21479698Y45788327D01*
X21246309Y45885000D01*
X20605750Y45885000D01*
X20447000Y45726250D01*
X20193000Y45726250D01*
X20034250Y45885000D01*
X19393691Y45885000D01*
X19160302Y45788327D01*
X18981673Y45609699D01*
X18885000Y45376310D01*
X15076919Y45376310D01*
X15004577Y45484577D01*
X14529909Y45801740D01*
X14111333Y45885000D01*
X13828667Y45885000D01*
X13410091Y45801740D01*
X12935423Y45484577D01*
X12733803Y45182832D01*
X12688922Y45291185D01*
X12271185Y45708922D01*
X11725385Y45935000D01*
X11134615Y45935000D01*
X10588815Y45708922D01*
X10171078Y45291185D01*
X9945000Y44745385D01*
X9945000Y44154615D01*
X10171078Y43608815D01*
X10588815Y43191078D01*
X10641611Y43169209D01*
X10359375Y42980625D01*
X10031161Y42489418D01*
X9915908Y41910000D01*
X7813113Y41910000D01*
X7701740Y42469909D01*
X7384577Y42944577D01*
X7263894Y43025215D01*
X7397765Y43051843D01*
X7607809Y43192191D01*
X7748157Y43402235D01*
X7797440Y43650000D01*
X7797440Y45250000D01*
X7748157Y45497765D01*
X7607809Y45707809D01*
X7397765Y45848157D01*
X7150000Y45897440D01*
X5550000Y45897440D01*
X5302235Y45848157D01*
X5092191Y45707809D01*
X4951843Y45497765D01*
X4936994Y45423113D01*
X4651185Y45708922D01*
X4105385Y45935000D01*
X3514615Y45935000D01*
X2968815Y45708922D01*
X2551078Y45291185D01*
X2325000Y44745385D01*
X2325000Y44154615D01*
X2551078Y43608815D01*
X2968815Y43191078D01*
X3021611Y43169209D01*
X2739375Y42980625D01*
X2411161Y42489418D01*
X2295908Y41910000D01*
X710000Y41910000D01*
X710000Y47275961D01*
X5078096Y47275961D01*
X5238959Y46887577D01*
X5614866Y46472611D01*
X6120959Y46233086D01*
X6343000Y46354371D01*
X6343000Y47498000D01*
X6597000Y47498000D01*
X6597000Y46354371D01*
X6819041Y46233086D01*
X7325134Y46472611D01*
X7701041Y46887577D01*
X7861904Y47275961D01*
X7739915Y47498000D01*
X6597000Y47498000D01*
X6343000Y47498000D01*
X5200085Y47498000D01*
X5078096Y47275961D01*
X710000Y47275961D01*
X710000Y48197881D01*
X754065Y48447787D01*
X849405Y48612920D01*
X995477Y48735488D01*
X1204465Y48811555D01*
X1300996Y48820000D01*
X5704899Y48820000D01*
X5614866Y48777389D01*
G04 #@! TD*
M02*
