G04 #@! TF.GenerationSoftware,KiCad,Pcbnew,5.0.2-bee76a0~70~ubuntu16.04.1*
G04 #@! TF.CreationDate,2019-05-03T11:24:50+01:00*
G04 #@! TF.ProjectId,AtomRamAndNoiseKiller,41746f6d-5261-46d4-916e-644e6f697365,rev?*
G04 #@! TF.SameCoordinates,PX8e4fe28PY93c3260*
G04 #@! TF.FileFunction,Legend,Bot*
G04 #@! TF.FilePolarity,Positive*
%FSLAX46Y46*%
G04 Gerber Fmt 4.6, Leading zero omitted, Abs format (unit mm)*
G04 Created by KiCad (PCBNEW 5.0.2-bee76a0~70~ubuntu16.04.1) date Fri 03 May 2019 11:24:50 BST*
%MOMM*%
%LPD*%
G01*
G04 APERTURE LIST*
%ADD10C,0.120000*%
%ADD11C,0.150000*%
G04 APERTURE END LIST*
D10*
G04 #@! TO.C,J3*
X73720000Y45780000D02*
X72390000Y45780000D01*
X73720000Y44450000D02*
X73720000Y45780000D01*
X73720000Y43180000D02*
X71060000Y43180000D01*
X71060000Y43180000D02*
X71060000Y38040000D01*
X73720000Y43180000D02*
X73720000Y38040000D01*
X73720000Y38040000D02*
X71060000Y38040000D01*
G04 #@! TO.C,J1*
X12760000Y45780000D02*
X11430000Y45780000D01*
X12760000Y44450000D02*
X12760000Y45780000D01*
X12760000Y43180000D02*
X10100000Y43180000D01*
X10100000Y43180000D02*
X10100000Y20260000D01*
X12760000Y43180000D02*
X12760000Y20260000D01*
X12760000Y20260000D02*
X10100000Y20260000D01*
G04 #@! TO.C,J6*
X5140000Y10220000D02*
X3810000Y10220000D01*
X5140000Y8890000D02*
X5140000Y10220000D01*
X5140000Y7620000D02*
X2480000Y7620000D01*
X2480000Y7620000D02*
X2480000Y2480000D01*
X5140000Y7620000D02*
X5140000Y2480000D01*
X5140000Y2480000D02*
X2480000Y2480000D01*
G04 #@! TO.C,J4*
X66100000Y28000000D02*
X64770000Y28000000D01*
X66100000Y26670000D02*
X66100000Y28000000D01*
X66100000Y25400000D02*
X63440000Y25400000D01*
X63440000Y25400000D02*
X63440000Y5020000D01*
X66100000Y25400000D02*
X66100000Y5020000D01*
X66100000Y5020000D02*
X63440000Y5020000D01*
G04 #@! TO.C,J5*
X73720000Y28000000D02*
X72390000Y28000000D01*
X73720000Y26670000D02*
X73720000Y28000000D01*
X73720000Y25400000D02*
X71060000Y25400000D01*
X71060000Y25400000D02*
X71060000Y5020000D01*
X73720000Y25400000D02*
X73720000Y5020000D01*
X73720000Y5020000D02*
X71060000Y5020000D01*
G04 #@! TO.C,J2*
X5140000Y45780000D02*
X3810000Y45780000D01*
X5140000Y44450000D02*
X5140000Y45780000D01*
X5140000Y43180000D02*
X2480000Y43180000D01*
X2480000Y43180000D02*
X2480000Y20260000D01*
X5140000Y43180000D02*
X5140000Y20260000D01*
X5140000Y20260000D02*
X2480000Y20260000D01*
G04 #@! TO.C,J3*
D11*
X72723333Y47327620D02*
X72723333Y46613334D01*
X72770952Y46470477D01*
X72866190Y46375239D01*
X73009047Y46327620D01*
X73104285Y46327620D01*
X72342380Y47327620D02*
X71723333Y47327620D01*
X72056666Y46946667D01*
X71913809Y46946667D01*
X71818571Y46899048D01*
X71770952Y46851429D01*
X71723333Y46756191D01*
X71723333Y46518096D01*
X71770952Y46422858D01*
X71818571Y46375239D01*
X71913809Y46327620D01*
X72199523Y46327620D01*
X72294761Y46375239D01*
X72342380Y46422858D01*
G04 #@! TO.C,J1*
X11763333Y47327620D02*
X11763333Y46613334D01*
X11810952Y46470477D01*
X11906190Y46375239D01*
X12049047Y46327620D01*
X12144285Y46327620D01*
X10763333Y46327620D02*
X11334761Y46327620D01*
X11049047Y46327620D02*
X11049047Y47327620D01*
X11144285Y47184762D01*
X11239523Y47089524D01*
X11334761Y47041905D01*
G04 #@! TO.C,J6*
X4143333Y11767620D02*
X4143333Y11053334D01*
X4190952Y10910477D01*
X4286190Y10815239D01*
X4429047Y10767620D01*
X4524285Y10767620D01*
X3238571Y11767620D02*
X3429047Y11767620D01*
X3524285Y11720000D01*
X3571904Y11672381D01*
X3667142Y11529524D01*
X3714761Y11339048D01*
X3714761Y10958096D01*
X3667142Y10862858D01*
X3619523Y10815239D01*
X3524285Y10767620D01*
X3333809Y10767620D01*
X3238571Y10815239D01*
X3190952Y10862858D01*
X3143333Y10958096D01*
X3143333Y11196191D01*
X3190952Y11291429D01*
X3238571Y11339048D01*
X3333809Y11386667D01*
X3524285Y11386667D01*
X3619523Y11339048D01*
X3667142Y11291429D01*
X3714761Y11196191D01*
G04 #@! TO.C,J4*
X65103333Y29547620D02*
X65103333Y28833334D01*
X65150952Y28690477D01*
X65246190Y28595239D01*
X65389047Y28547620D01*
X65484285Y28547620D01*
X64198571Y29214286D02*
X64198571Y28547620D01*
X64436666Y29595239D02*
X64674761Y28880953D01*
X64055714Y28880953D01*
G04 #@! TO.C,J5*
X72723333Y29547620D02*
X72723333Y28833334D01*
X72770952Y28690477D01*
X72866190Y28595239D01*
X73009047Y28547620D01*
X73104285Y28547620D01*
X71770952Y29547620D02*
X72247142Y29547620D01*
X72294761Y29071429D01*
X72247142Y29119048D01*
X72151904Y29166667D01*
X71913809Y29166667D01*
X71818571Y29119048D01*
X71770952Y29071429D01*
X71723333Y28976191D01*
X71723333Y28738096D01*
X71770952Y28642858D01*
X71818571Y28595239D01*
X71913809Y28547620D01*
X72151904Y28547620D01*
X72247142Y28595239D01*
X72294761Y28642858D01*
G04 #@! TO.C,J2*
X4143333Y47327620D02*
X4143333Y46613334D01*
X4190952Y46470477D01*
X4286190Y46375239D01*
X4429047Y46327620D01*
X4524285Y46327620D01*
X3714761Y47232381D02*
X3667142Y47280000D01*
X3571904Y47327620D01*
X3333809Y47327620D01*
X3238571Y47280000D01*
X3190952Y47232381D01*
X3143333Y47137143D01*
X3143333Y47041905D01*
X3190952Y46899048D01*
X3762380Y46327620D01*
X3143333Y46327620D01*
G04 #@! TD*
M02*
